<svg t="1712740725446" class="icon" viewBox="0 0 1024 1024" version="1.1" xmlns="http://www.w3.org/2000/svg" p-id="8127" width="200" height="200"><path d="M832 256v512H192V256h640m85.333333-85.333333H106.666667v682.666666h810.666666V170.666667z m-384 128v426.666666h85.333334V298.666667z m256 0h-85.333333l-85.333333 213.333333 85.333333 213.333333h85.333333l-85.333333-213.333333zM456.32 513.706667A128 128 0 1 0 234.666667 426.666667v42.666666h85.333333v-42.666666a42.666667 42.666667 0 0 1 85.333333 0 42.666667 42.666667 0 0 1-10.666666 27.733333L234.666667 640v85.333333h256v-85.333333h-143.36z" p-id="8128" fill="#006bb7"></path></svg>