<svg t="1712738727603" class="icon" viewBox="0 0 1024 1024" version="1.1" xmlns="http://www.w3.org/2000/svg" p-id="10522" width="200" height="200"><path d="M1023.5904 511.5904A511.5904 511.5904 0 1 1 512 0a511.5904 511.5904 0 0 1 511.5904 511.5904" fill="#FFFFFF" p-id="10523"></path><path d="M1004.7488 511.5904A492.7488 492.7488 0 1 1 512 18.8928a492.7488 492.7488 0 0 1 492.7488 492.6976" fill="#003DA6" p-id="10524"></path><path d="M95.2832 595.5584l10.0864 32.1536h34.2016l-27.6992 20.1728 10.0864 31.5904-26.6752-19.3536-26.9824 19.3536 10.1888-31.6928-27.7504-20.0704h34.0992l10.4448-32.1536zM928.9728 595.5584l10.0864 32.1536h34.2016l-27.6992 20.1728 10.1376 31.5904-26.7264-19.3536-26.9824 19.3536 10.1888-31.6928-27.7504-20.0704h34.0992l10.4448-32.1536zM214.9376 767.8464l10.0864 32.1536h34.2016l-27.6992 20.1728 10.1376 31.5904-26.7264-19.3536-26.9312 19.3536 10.1376-31.6928-27.7504-20.0704h34.0992l10.4448-32.1536zM820.4288 767.8464l10.0864 32.1536h34.2016l-27.6992 20.1728 10.0864 31.5904-26.6752-19.3536-26.9824 19.3536 10.1888-31.6928-27.7504-20.0704h34.0992l10.4448-32.1536zM401.6128 879.9744l10.0864 32.1536h34.2016l-27.648 20.1728 10.0864 31.5392-26.7264-19.3024-26.9312 19.3024 10.1376-31.6416-27.6992-20.0704h34.048l10.4448-32.1536zM628.5312 879.9744l10.0864 32.1536h34.1504l-27.648 20.1728 10.0864 31.5392-26.6752-19.3024-26.9824 19.3024 10.1376-31.6416-27.6992-20.0704h34.0992l10.4448-32.1536z" fill="#FFFFFF" p-id="10525"></path><path d="M881.4592 513.9456A369.4592 369.4592 0 1 1 512 144.5376a369.4592 369.4592 0 0 1 369.4592 369.408" fill="#FFFFFF" p-id="10526"></path><path d="M164.5056 586.5472a355.0208 355.0208 0 0 0 420.096 274.8416A348.672 348.672 0 0 0 808.96 708.352a361.5744 361.5744 0 0 0 50.4832-266.9568A348.8768 348.8768 0 0 0 706.56 217.088a354.8672 354.8672 0 0 0-542.0544 369.4592" fill="#003DA6" p-id="10527"></path><path d="M632.8832 237.312c1.1776 13.824-5.12 27.2896-19.1488 40.192-66.56-48.8448-129.9968-72.8576-192.256-73.1136a242.6368 242.6368 0 0 0-38.9632 3.0208 334.336 334.336 0 0 1 226.304-11.776c11.4688 10.9568 22.6304 25.6 24.064 41.6768M563.2 810.752c69.9904-64.256 102.4-201.984 121.8048-284.2624l3.0208-12.8512c10.24-41.9328 27.5968-73.1648 46.5408-91.904 70.1952 109.056 60.672 221.696 42.9568 292.4032A333.6192 333.6192 0 0 1 512 846.6944a223.1296 223.1296 0 0 0 51.6096-35.84M690.5344 343.552c28.416-23.808 51.2-41.984 67.2768-53.76A329.3184 329.3184 0 0 1 832.512 424.96c-13.1072-17.5616-29.9008-34.2528-48.0256-37.9904a60.0576 60.0576 0 0 0-46.7456 11.8784 427.008 427.008 0 0 0-47.2064-55.1424M185.7536 498.944C218.0608 412.16 336.5376 376.7808 381.1328 363.52l1.9456-0.5632a555.0592 555.0592 0 0 1 60.0064-12.0832c57.4464-9.728 128-21.8112 171.008-53.76a682.0352 682.0352 0 0 1 53.4528 45.6192C570.7264 424.96 421.12 563.2 261.12 732.8256a334.6432 334.6432 0 0 1-81.92-218.7264l6.5024-15.36" fill="#FFFFFF" p-id="10528"></path><path d="M679.3728 332.8q-27.0336-25.6-53.248-46.08c16.1792-15.8208 23.552-32.8704 22.016-51.2a67.2768 67.2768 0 0 0-11.0592-30.208 339.712 339.712 0 0 1 109.9776 72.8576c-16.7936 12.3904-39.7312 30.72-67.6864 54.1184M601.1904 287.488c-40.1408 27.7504-106.5984 39.0144-160.8704 48.1792A574.2592 574.2592 0 0 0 378.88 348.16l-1.9456 0.6144c-42.752 12.7488-150.4256 45.0048-194.56 122.4704A330.3424 330.3424 0 0 1 233.6256 331.776 347.8528 347.8528 0 0 1 322.56 238.5408c78.7968-33.28 167.2192-31.0272 278.4256 48.9472M781.4144 401.8688c23.2448 4.7616 48.2304 43.776 60.1088 66.56a329.8816 329.8816 0 0 1-40.3968 210.3296c1.792-11.3152 3.2768-23.1936 4.1984-35.84a367.9744 367.9744 0 0 0-58.7776-231.2192c12.1856-8.6016 24.32-12.032 34.8672-9.8304M678.8096 353.28a410.6752 410.6752 0 0 1 47.0528 55.0912C703.1296 430.08 683.776 465.92 673.3312 510.0544l-3.0208 12.9536c-18.9952 80.5376-50.7392 215.4496-117.248 276.48A194.9184 194.9184 0 0 1 474.6752 844.8a335.104 335.104 0 0 1-203.008-100.5568c161.28-171.4176 311.552-309.5552 407.1424-390.7072" fill="#FFFFFF" p-id="10529"></path><path d="M603.8016 612.7616l9.0112-2.4576c5.4272-1.4336 9.1136-3.2768 9.1136-11.1616 0-6.5536-1.8432-18.5344-9.6768-18.5344s-8.448 14.1824-8.448 21.9136v10.24zM495.5648 607.6928c0-28.4672-1.024-52.992-20.48-52.992-15.7184 0-18.432 24.5248-18.432 52.992s-0.8192 53.0432 18.432 53.0432c16.384 0 20.48-24.6272 20.48-53.0432" fill="#FFFFFF" p-id="10530"></path><path d="M603.8016 612.7616l9.0112-2.4576c5.4272-1.4336 9.1136-3.2768 9.1136-11.1616 0-6.5536-1.8432-18.5344-9.6768-18.5344s-8.448 14.1824-8.448 21.9136v10.24zM454.7072 542.72h0.3072c9.2672-14.4384 26.88-21.2992 44.0832-21.2992 39.1168 0 63.0784 33.6896 63.0784 79.0016 0 53.7088-36.4032 85.6064-81.3056 85.6064-69.1712 0-94.2592-55.7568-94.2592-120.3712 0-74.3936 32.3072-135.8848 112.64-135.8848 31.3856 0 57.1904 20.48 57.1904 51.2a29.0304 29.0304 0 0 1-30.3104 29.8496c-21.7088 0-28.6208-18.176-31.744-34.048-1.2288-6.7584 1.28-21.7088-9.9328-21.7088-23.3984 0-27.2384 46.08-28.2112 62.72l-1.536 24.9344z" fill="#FFFFFF" p-id="10531"></path><path d="M495.5648 607.6928c0-28.4672-1.024-52.992-20.48-52.992-15.7184 0-18.432 24.5248-18.432 52.992s-0.8192 53.0432 18.432 53.0432c16.384 0 20.48-24.6272 20.48-53.0432M83.6608 468.3264c1.3312-11.2128-1.9456-17.2032-9.9328-18.176-6.9632-0.8192-11.9808 3.4816-12.9536 11.8784-0.7168 5.9392 1.3824 7.1168 7.7824 7.8848l14.592 1.7408c0.256-1.1264 0.3584-2.2528 0.512-3.328z m-7.0144-35.84c13.1072 1.536 18.5856 10.752 16.5376 27.904l-1.4848 12.3904 7.0656 0.8704c9.0624 1.0752 12.4928 0.8704 13.568-6.5024l8.3456 1.024-3.9936 33.5872-8.3456-0.9728c0.6656-7.3728-2.6112-8.3968-11.6736-9.472l-26.2144-3.1232c-9.0624-1.0752-12.4416-0.8192-13.5168 6.5024l-8.3968-1.024 4.4032-36.9664c2.0992-17.7664 10.24-25.856 23.7056-24.2688zM125.952 395.1616c2.7136-6.912 0-8.7552-8.6016-12.288l-24.32-10.24c-8.448-3.5328-11.776-4.3008-14.7968 2.4576l-7.7824-3.2256 13.1072-31.2832 7.5776 3.1744c-2.7136 6.912 0 8.7552 8.6016 12.288l6.2464 2.6624 9.8304-23.4496-6.2976-2.4576c-8.448-3.5328-11.7248-4.2496-14.7968 2.5088l-7.68-3.2768 13.1072-31.2832 7.7312 3.2256c-2.6624 6.9632 0 8.8064 8.6528 12.3392l24.32 10.24c8.448 3.5328 11.776 4.2496 14.7968-2.5088l7.7824 3.2768L150.4256 358.4l-7.5776-3.072c2.6624-6.912 0-8.7552-8.6016-12.288l-10.5984-4.4032-9.7792 23.3984 10.5984 4.4032c8.3968 3.5328 11.7248 4.3008 14.7968-2.4576l7.5776 3.1744-13.1072 31.232-7.7824-3.2256zM158.72 228.9152c-4.2496 6.0416-1.9456 8.5504 5.12 14.0288l21.1456 15.8208c7.3216 5.4784 10.24 6.9632 14.9504 1.1776l6.7584 5.12-20.48 27.0848-6.7584-5.12c4.3008-6.0928 1.8944-8.4992-5.4272-13.9776L153.6 257.2288c-7.3216-5.4784-10.24-7.0656-14.9504-1.28l-6.7072-5.12 20.224-27.0848 6.7584 5.12zM235.008 232.9088l-5.12-6.5024c5.5296-5.12 3.7376-7.7824-2.0992-14.7968l-16.9984-20.224c-5.888-7.0144-8.3968-9.216-14.2336-4.608l-5.376-6.4512L216.832 158.72l5.12 6.4512c-5.5296 5.12-3.84 7.8848 2.048 14.8992l18.8928 22.528c4.4032 5.12 6.4 6.0416 11.776 1.536 7.168-5.9904 10.24-16.7424 7.5776-30.1056l7.424-1.5872 7.6288 24.8832-42.5472 35.84zM340.6848 122.88l-14.6432-15.36 1.2288 21.76L340.6848 122.88z m-25.1392 47.872l-3.5328-7.6288c6.4-3.9424 6.0928-8.2432 5.8368-15.36l-1.8432-52.4288 14.1824-6.4512 39.0144 38.0928c4.4544 4.352 6.8608 6.5024 12.6976 4.5056l3.4816 7.68-30.72 14.08-3.3792-7.4752 0.6144-0.3072c4.2496-1.9456 5.888-3.7888 4.6592-6.4512a9.0624 9.0624 0 0 0-1.8432-2.56l-7.168-7.1168L327.68 138.24l1.024 10.24a8.192 8.192 0 0 0 0.5632 2.2016c1.3312 2.9696 4.2496 3.1744 9.0624 1.0752l3.4304 7.4752-26.2144 11.9808zM444.4672 108.2368c0.9728 6.7584 2.1504 8.5504 9.216 7.5264 13.568-1.9456 20.8384-12.5952 18.5344-28.9792s-12.288-24.5248-25.6-22.5792c-7.0656 0.9728-7.68 3.0208-6.7584 9.7792l5.12 34.2528zM419.84 120.32c7.3216-1.2288 7.424-4.608 6.144-13.6704l-3.6864-26.1632c-1.28-9.0624-2.3552-12.288-9.728-11.4176l-1.1776-8.3456 34.1504-4.864c26.2656-3.7376 41.984 6.5536 45.056 28.2624s-9.0112 35.84-35.3792 39.7312l-34.2016 4.8128L419.84 120.32zM539.136 110.336c7.3728 0.8704 8.448-2.3552 9.7792-11.4176l3.7888-26.112c1.3312-9.0112 1.2288-12.4416-6.0928-13.7216l1.2288-8.2944 56.32 8.192 6.2464 21.8624-6.8608 2.4064a31.1808 31.1808 0 0 0-23.7056-19.4048c-6.7584-0.9728-7.936 0.9216-8.9088 7.5264l-1.4336 9.7792 3.2256 0.4608c7.1168 1.024 9.2672-0.9216 10.9056-9.216l7.1168 1.0752-4.5056 30.72-7.1168-1.024c0-7.9872-2.048-12.032-7.68-12.8512l-3.1744-0.4608-2.3552 15.872c-0.9216 6.656-0.3072 8.6528 6.5024 9.6768 10.24 1.4848 21.76-3.3792 30.72-14.4384l5.9392 4.4544-13.6704 21.8112-57.7536-8.448 1.2288-8.3456zM645.4784 140.3392l3.3792-7.7312c6.8608 2.7648 8.6528 0 12.3392-8.448l10.5984-24.1664c3.6864-8.3456 4.5568-11.6224-2.1504-14.7968l3.3792-7.7312 30.72 13.568-3.3792 7.7312c-6.8608-2.7648-8.7552 0-12.3904 8.3968l-11.6224 26.9824c-2.7136 6.1952-2.6112 8.3968 3.84 11.2128 8.5504 3.7376 19.5072 1.6896 30.3104-6.5536l4.7104 5.9392-18.8928 17.8688-50.8416-22.272zM785.1008 177.3056c8.7552 7.0656 15.36 7.5264 20.48 1.28s3.4304-11.9808-3.1232-17.3056c-4.6592-3.7376-6.7584-2.6112-10.8032 2.4064l-9.2672 11.4176c0.8192 0.8192 1.6896 1.4848 2.56 2.2016z m34.0992 13.2608c-8.2944 10.24-19.0464 10.24-32.4608-0.8704l-9.728-7.8848-4.4544 5.5296c-5.7344 7.1168-7.3728 10.24-1.7408 14.8992l-5.12 6.5536-26.368-21.2992 5.12-6.5536c5.888 4.5056 8.4992 2.304 14.2336-4.8128l16.5888-20.48c5.7344-7.1168 7.3728-10.24 1.7408-14.8992l5.12-6.5536 28.9792 23.3984c13.9264 11.2128 16.4864 22.4256 7.936 33.024zM824.32 252.16c4.4032 5.9904 7.4752 4.5568 15.0016-0.6656l21.6064-15.36c7.4752-5.12 9.8816-7.68 5.8368-13.824l6.8608-5.12 19.456 27.8016-6.7072 4.7104c-4.4544-5.9392-7.5264-4.5568-15.0016 0.7168l-5.5808 3.8912 14.848 21.248 5.5808-3.8912c7.4752-5.12 9.8816-7.68 5.7856-13.824l6.7584-4.7616 19.4048 27.8016-6.8608 5.12c-4.4544-5.9904-7.5264-4.5568-15.0016 0.6656l-21.6576 15.36c-7.4752 5.12-9.8816 7.68-5.7856 13.8752l-6.912 4.8128-19.456-27.8016 6.7584-4.7104c4.4032 5.9392 7.5264 4.5568 15.0016-0.7168l9.3696-6.5536-14.5408-20.8384-9.5744 6.144c-7.4752 5.12-9.8816 7.6288-5.7856 13.824l-6.7584 4.7104-19.4048-27.7504 6.912-5.12zM947.6096 368.64c-2.8672-6.8096-6.1952-6.1952-14.7456-2.9184l-24.6272 9.472c-8.5504 3.2768-11.4688 5.12-9.0112 12.032l-7.8336 3.072-12.1344-31.8976 7.8336-3.0208c2.8672 6.8608 6.1952 6.0928 14.6944 2.816l24.9344-9.2672c8.5504-3.2768 11.4688-5.12 9.0112-11.9296l7.8848-3.0208 12.1344 31.5392-7.8848 3.0208zM941.7216 465.3056l19.2512-9.6256-21.1456-5.12 1.8944 14.6432z m-38.3488-38.144l8.3456-1.0752c1.8944 7.2192 6.0928 8.2432 13.2096 10.24l50.6368 13.6704 1.9968 15.36-47.872 26.1632c-5.4784 2.9696-8.192 4.6592-8.0384 10.8032l-8.3456 1.0752-4.4032-33.6384 8.192-1.024v0.6656c0.6144 4.6592 1.9456 6.7072 5.12 6.3488a8.2944 8.2944 0 0 0 2.9184-1.024l8.9088-4.7104-2.816-21.76-9.7792-1.6896a8.3456 8.3456 0 0 0-2.2528 0c-3.2256 0.4096-4.3008 3.1232-3.7376 8.3456l-8.1408 1.0752-3.7376-28.6208zM719.616 557.1584a23.04 23.04 0 0 0-17.7152 8.1408c-0.4608-1.0752-0.9216-2.0992-1.4336-3.1232l-3.7376-7.168-53.1456 15.36v29.0304h9.8304a9.4208 9.4208 0 0 0 1.5872 0 32.256 32.256 0 0 1 1.28 12.4928v33.792l-9.6768 1.3824v31.9488h73.5744v-31.9488l-9.6768-1.3824v-9.8816a126.464 126.464 0 0 1 2.7136-22.8864 33.3312 33.3312 0 0 0 9.6256 1.4848c13.1584 0 22.3744-11.8784 22.3744-28.8768s-10.24-28.6208-25.6-28.6208z" fill="#FFFFFF" p-id="10532"></path><path d="M811.776 591.0528a17.8688 17.8688 0 0 1-0.8704-4.6592c0-8.704-3.4304-28.928-35.84-28.928-17.8176 0-52.736 13.7216-52.736 45.4144a41.472 41.472 0 0 0 8.5504 26.7264 24.4224 24.4224 0 0 0-11.3152 21.9648c0 11.4176 5.7344 30.72 44.288 30.72 32.9728 0 51.8656-17.0496 51.8656-46.848 0-28.416-2.5088-37.9392-4.1472-44.2368zM423.168 420.096a10.7008 10.7008 0 0 0-8.0384-3.6352 19.2 19.2 0 0 0-13.4144 7.9872 82.2272 82.2272 0 0 1-61.44 25.2928c-31.9488 0-65.6896-14.5408-92.416-40.1408a11.5712 11.5712 0 0 0-7.8848-3.2256c-13.1072 0-16.5376 21.0432-16.5888 21.248v105.3696l8.3968 1.2288a203.5712 203.5712 0 0 0 84.1728-2.9696c-26.9824 24.1664-87.7056 89.8048-87.04 152.4736 0 11.52 7.3216 12.8 10.24 12.8a12.4928 12.4928 0 0 0 7.9872-3.3792 13.9264 13.9264 0 0 1 1.6896-1.3312 66.56 66.56 0 0 1 38.5024-10.24 85.4528 85.4528 0 0 1 35.84 7.2704 15.36 15.36 0 0 0 6.5536 1.7408 10.5984 10.5984 0 0 0 7.8848-3.4304 13.9776 13.9776 0 0 0 2.7136-11.4688c-4.4544-45.4144 5.5296-95.1296 24.9344-123.6992L368.64 547.84c16.4864-24.3712 50.7392-75.1104 57.2416-116.992a12.5952 12.5952 0 0 0-2.4576-10.24zM626.432 640a9.0624 9.0624 0 0 1-7.8848-5.12l18.8416-5.12a39.3728 39.3728 0 0 1-10.9568 10.24z m41.2672-18.4832l-0.4608-7.9872a80.2304 80.2304 0 0 0-2.304-14.8992l-0.3584-9.1648-1.6896 2.6112a50.5856 50.5856 0 0 0-48.5376-34.816c-34.0992 0-57.9584 26.9824-57.9584 65.536 0 29.5936 17.3568 59.4432 56.32 59.4432a61.0816 61.0816 0 0 0 52.8896-29.184l1.4848-2.5088-1.1264-28.6208 1.8944-0.512z" fill="#FFFFFF" p-id="10533"></path><path d="M540.8768 528.1792c-1.9456-2.7136-4.096-5.7856-5.9392-8.4992a37.9904 37.9904 0 0 0 31.5392-38.8096C566.4768 446.1056 537.6 419.84 499.456 419.84c-76.8 0-122.88 54.4256-122.88 145.664 0 82.7392 37.9392 130.2016 104.0896 130.2016 53.6576 0 91.136-39.2192 91.136-95.4368 0-27.9552-18.7392-54.528-31.1296-72.1408z" fill="#FFFFFF" p-id="10534"></path><path d="M604.16 602.624c0-7.7312 0-21.9136 8.448-21.9136s9.6768 11.9808 9.6768 18.4832c0 7.936-3.6864 9.7792-9.1136 11.2128l-9.0112 2.4576v-10.24z m22.6304 47.1552c-11.9296 0-18.944-10.8544-20.1728-21.8624l51.2-13.7728c-1.536-24.9856-15.9744-47.0528-43.1104-47.0528-28.928 0-48.128 22.528-48.128 55.7056 0 25.9584 14.8992 49.664 46.08 49.664a51.2 51.2 0 0 0 44.544-24.2688l-10.24-12.032c-5.12 7.6288-10.752 13.6192-20.48 13.6192z" fill="#003DA6" p-id="10535"></path><path d="M710.6048 669.5424h-54.016v-13.6192l9.728-1.3312v-42.3424c0-15.36-1.9968-22.3232-12.6976-22.3232v-11.9296l38.2976-11.2128a70.912 70.912 0 0 1 6.4 27.9552h0.3584c3.84-11.52 8.6016-27.648 21.1456-27.648 10.9568 0 15.8208 8.448 15.8208 18.7904s-4.608 19.0464-12.5952 19.0464a35.84 35.84 0 0 1-12.8512-3.2256c-7.0144-2.3552-9.2672 28.1088-9.2672 34.4576v18.432l9.6768 1.3312v13.6192z" fill="#003DA6" p-id="10536"></path><path d="M801.3312 586.496c0 8.3968-7.2192 12.5952-14.848 12.5952a18.6368 18.6368 0 0 1-17.5616-16.5888c-3.9424 0-6.7584 1.9968-6.7584 8.7552 0 15.6672 44.1856 4.5056 44.1856 44.1344 0 29.6448-21.4528 37.0688-42.0864 37.0688-12.544 0-34.5088-1.6896-34.5088-20.7872 0-8.6528 4.8128-15.36 13.4656-15.36 13.4144 0 15.7184 12.288 17.9712 20.992 0.6144 2.304 2.6112 2.6624 4.5056 2.6624 7.0656 0 12.1856-2.9184 12.1856-7.5776 0-17.7664-45.3632-10.9056-45.3632-49.4592 0-24.5248 28.9792-35.84 42.9568-35.84 15.872 0 25.6 5.12 25.6 19.1488M475.4432 660.8384c-19.2 0-18.432-24.6272-18.432-53.0432s2.7136-52.992 18.432-52.992c19.3024 0 20.48 24.5248 20.48 52.992s-3.9424 53.0432-20.48 53.0432z m23.8592-139.4176c-17.2032 0-34.816 6.8608-44.0832 21.2992h-0.3072l1.7408-24.9856c0.9728-16.8448 4.8128-62.6688 28.2112-62.6688 11.2128 0 8.704 14.8992 9.9328 21.7088 3.1232 15.8208 10.24 34.048 31.744 34.048a29.0304 29.0304 0 0 0 30.3104-29.8496c0-30.72-25.6-51.2-57.1904-51.2-80.5376 0-112.64 61.44-112.64 135.8848C386.816 630.272 411.904 686.08 481.28 686.08c44.9024 0 81.3056-31.8976 81.3056-85.6064 0-45.312-23.9616-79.0016-63.0784-79.0016z" fill="#003DA6" p-id="10537"></path><path d="M233.3696 428.4928v95.8976c53.7088 7.8848 117.76 2.6624 163.1744-63.6416 1.8944-2.816 3.0208-0.8192 1.792 1.6384-12.6464 25.6-42.5984 49.6128-68.5056 69.888-24.8832 19.5584-91.5968 89.6-90.7264 151.1424 0 4.7616 0 3.4304 4.352 0.3584 20.48-15.0528 59.9552-15.36 84.2752-3.84 3.4304 1.5872 3.6864 1.0752 3.2768-3.2768-4.6592-47.7696 6.0928-99.8912 26.5728-130.1504 14.08-20.992 52.0192-74.9568 58.5216-117.2992 0.7168-4.4032-1.5872-3.7376-7.0656 2.048-42.9568 45.4144-120.6784 44.288-170.8032-3.7888-3.1744-3.072-4.608-1.6896-5.12 1.024" fill="#DB0032" p-id="10538"></path><path d="M418.5088 370.8928a92.16 92.16 0 1 1-91.904-92.16 92.16 92.16 0 0 1 91.904 92.16z" fill="#FFFFFF" p-id="10539"></path><path d="M326.5024 282.2144l3.072 9.7792h10.3936l-8.448 6.144 3.072 9.5744-8.0896-5.888-8.2432 5.888 3.072-9.6256-8.3968-6.0928h10.3936l3.1744-9.7792zM387.6864 317.9008l3.1744 9.728h10.3936l-8.448 6.144 3.1232 9.6256-8.192-5.9392-8.192 5.9392 3.1744-9.6256-8.6016-6.144h10.4448l3.1232-9.728zM361.4208 290.3552l3.1232 9.7792h10.4448l-8.448 6.144 3.072 9.6256-8.1408-5.9904-8.1408 5.9904 3.072-9.6768-8.4992-6.0928h10.3936l3.1232-9.7792zM397.7216 351.6416l3.1232 9.728h10.3936l-8.3968 6.144 3.0208 9.6256-8.0896-5.9392-8.192 5.9392 3.1232-9.6256-8.4992-6.144h10.3424l3.1744-9.728zM393.3184 387.2768l3.1232 9.728h10.4448l-8.4992 6.1952 3.1232 9.6256-8.1408-5.9392-8.1408 5.9392 3.0208-9.6768-8.3968-6.144h10.3936l3.072-9.728zM373.6576 415.744l3.072 9.728h10.4448l-8.448 6.1952 3.072 9.5744-8.0896-5.9392-8.192 5.9392 3.072-9.5744-8.4992-6.1952h10.4448l3.1232-9.728zM342.7328 431.6672l3.1232 9.728h10.3424l-8.448 6.1952 3.1232 9.6256-8.1408-5.9392-8.192 5.9392 3.072-9.6256-8.448-6.1952h10.3936l3.1744-9.728zM264.1408 314.7776l-3.1744 9.6768h-10.3424l8.3968 6.1952-3.072 9.6256 8.1408-5.9904 8.2432 5.9904-3.1232-9.6256 8.4992-6.1952H267.264l-3.1232-9.6768zM289.7408 290.3552l-3.1232 9.7792h-10.3936l8.448 6.144-3.1232 9.6256 8.192-5.9904 8.192 5.9904-3.072-9.6768 8.448-6.0928h-10.3936l-3.1744-9.7792zM252.16 347.2896l-3.0208 9.6768h-10.4448l8.4992 6.144-3.1232 9.6768 8.0896-5.9392 8.192 5.9392-3.072-9.6768 8.4992-6.144h-10.3936l-3.2256-9.6768zM255.3856 382.8736l-3.1744 9.7792h-10.3936l8.4992 6.144-3.072 9.6768 8.0896-5.9904 8.192 5.9904-3.1232-9.6768 8.448-6.144h-10.3936l-3.072-9.7792zM275.0464 411.9552l-3.072 9.7792h-10.4448l8.448 6.144-3.1232 9.6256 8.192-5.9904 8.2432 5.9904-3.1232-9.6256 8.448-6.144h-10.3936l-3.1744-9.7792zM306.0224 430.4384l-3.1232 9.7792h-10.3936l8.448 6.144-3.072 9.5744 8.0896-5.8368 8.2432 5.8368-3.1744-9.6256 8.4992-6.0928h-10.3936l-3.1232-9.7792z" fill="#003DA6" p-id="10540"></path></svg>