<svg t="1712738244171" class="icon" viewBox="0 0 1024 1024" version="1.1" xmlns="http://www.w3.org/2000/svg" p-id="9710" width="200" height="200"><path d="M682.2912 190.208a184.0128 184.0128 0 0 0-22.272-26.9824q-5.12-5.376-11.2128-10.24L730.0608 71.68H493.4144L402.0736 163.0208a187.3408 187.3408 0 0 0-22.272 26.9824 182.6816 182.6816 0 0 0 0 204.1344 187.3408 187.3408 0 0 0 22.272 26.9824c3.6352 3.584 7.3728 7.0656 11.264 10.24l-81.408 81.5104H568.32l92.16-91.6992A182.6816 182.6816 0 0 0 699.136 363.52a183.1936 183.1936 0 0 0 0-142.08 185.6 185.6 0 0 0-16.8448-31.0272" fill="#2D2A26" p-id="9711"></path><path d="M649.3184 173.7216q-5.12-5.376-11.0592-10.24l-99.328 99.2768a31.0784 31.0784 0 0 1 13.3632 7.8336 30.72 30.72 0 0 1 0 43.4176L368.3328 498.1248h21.5552L563.2 324.9152a46.08 46.08 0 0 0 0-64.8192l10.752-10.752a61.1328 61.1328 0 0 1 0 86.3744L411.4432 498.1248h21.5552l151.6544-151.6544a76.4416 76.4416 0 0 0 0-107.9296l10.752-10.752a91.6992 91.6992 0 0 1 0 129.4848L454.5536 498.1248H476.16l130.048-130.0992a106.9568 106.9568 0 0 0 0-151.04l10.752-10.752a122.112 122.112 0 0 1 0 172.5952l-119.296 119.296h21.5552l108.544-108.544a137.4208 137.4208 0 0 0 0-194.1504l10.8544-10.8032a152.7296 152.7296 0 0 1 0 215.808l-97.6896 97.6896h21.5552l87.04-87.04a167.8848 167.8848 0 0 0 0-237.4656" fill="#FFFFFF" p-id="9712"></path><path d="M412.672 410.9824c3.584 3.584 7.2704 6.9632 11.1104 10.24l99.328-99.328a29.9008 29.9008 0 0 1-13.3632-7.7824 30.72 30.72 0 0 1 0-43.4176l184.32-184.32h-21.5552l-173.568 173.3632a46.08 46.08 0 0 0 0 64.8192l-10.9568 10.8032a61.44 61.44 0 0 1 0-86.3744l162.6624-162.6624h-21.4016L477.3888 238.2336a76.3392 76.3392 0 0 0 0 107.8784l-10.9568 10.8032a91.6992 91.6992 0 0 1 0-129.4848l141.1072-141.1072h-21.5552L455.68 216.6272a106.9056 106.9056 0 0 0 0 151.0912l-10.8032 10.752a122.1632 122.1632 0 0 1 0-172.5952l119.552-119.552h-21.5552L434.2784 195.1232a137.3184 137.3184 0 0 0 0 194.0992l-10.8544 10.8544a152.6784 152.6784 0 0 1 0-215.7568l97.9456-97.9456h-21.5552l-87.04 87.04a167.8848 167.8848 0 0 0 0 237.4656" fill="#CE0E2D" p-id="9713"></path><path d="M234.3936 883.0464h-11.6224v-11.5712h36.1472v11.5712h-11.776v57.1392h-12.7488v-57.1392zM275.5584 871.4752h28.5696l8.192 8.3456v24.1152l-6.8608 6.7584 7.68 29.4912h-12.8l-6.9632-28.1088h-5.12v28.1088h-12.6976v-68.7104z m21.2992 30.72l2.7648-2.8672v-15.36l-2.7648-2.8672h-8.448v20.8896zM338.176 871.4752h18.7392l10.5472 68.7104H354.816l-1.9968-15.9232h-11.1616l-1.9968 15.9232H327.68l10.5472-68.7104z m4.7616 42.24h8.4992l-4.1984-34.0992-4.1984 34.0992zM381.9008 930.4064h7.6288v-49.152h-7.6288v-9.7792h28.16v9.7792h-7.68v49.152h7.68v9.7792h-28.16v-9.7792zM427.8784 871.4752h12.8512v57.4464h14.7456v11.264h-27.5968v-68.7104zM499.5584 871.4752H527.36l8.3456 8.3456v18.2272l-6.8608 6.8608 6.8608 6.912V931.84l-8.3456 8.3456h-27.8016v-68.7104z m20.48 28.4672l3.1744-3.2768v-12.1344l-2.7648-2.816h-7.8848v18.2272z m0.4096 29.952l2.7648-2.7648v-13.7216l-3.1744-3.2768h-7.4752v19.7632zM555.008 871.4752h12.8512v57.4464h14.7456v11.264h-27.5968v-68.7104zM607.2832 871.4752h18.7392l10.5472 68.7104h-12.6464l-1.9968-15.9232h-11.1616l-1.9456 15.9232h-12.0832l10.5472-68.7104z m4.8128 42.24h8.448l-4.1984-34.0992-4.2496 34.0992zM651.008 930.816l17.3056-47.7696h-17.1008v-11.5712h31.1808v9.2672l-17.3568 47.7696h17.4592v11.6736h-31.488v-9.3696zM700.3136 871.4752h30.1568v11.264h-17.3568v16.7936h15.7696v11.264h-15.7696v18.1248h17.5616v11.264h-30.3616v-68.7104zM749.2608 871.4752h28.6208l8.3456 8.3456v24.1152l-6.8608 6.7584 7.68 29.4912h-12.9536l-6.9632-28.1088h-5.12v28.1088h-12.8512v-68.7104z m21.3504 30.72l2.7648-2.8672v-15.36l-2.7648-2.8672h-8.4992v20.8896zM803.328 931.84v-12.288h12.7488v7.2704l2.9184 2.816h4.5568l2.816-2.816v-13.312l-2.2016-2.2016h-13.4656l-7.0656-7.0656v-24.4224l8.3968-8.3456h18.688l8.3968 8.3456v12.288h-12.8512v-7.168l-2.816-2.9184h-4.1472l-2.9184 2.9184v12.6976l2.2016 2.2016h13.568l7.0656 7.0656V931.84l-8.3968 8.3456h-19.0976L803.328 931.84zM144.384 608.0512c0-39.8336-21.4528-53.248-63.5904-53.248H5.4784l32.8192 32.8192v239.9232h40.6016v-119.7568h2.0992c40.96 0 62.3616-12.7488 63.3856-50.3296v-49.408z m-65.2288-20.48h9.1136c9.1648 0 15.36 3.1232 15.36 13.4656v58.9824c0 9.9328-3.0208 15.36-17.3056 15.36h-7.168v-87.552zM202.2912 604.16c0-13.7728 4.1984-16.8448 12.6464-16.8448s12.2368 3.072 12.2368 16.8448v174.08c0 13.7728-4.1984 16.8448-12.2368 16.8448s-12.6464-3.072-12.6464-16.8448v-174.08z m12.2368 223.3856c25.2928 0 53.1968-10.24 53.1968-46.08v-180.736c0-35.84-27.904-46.08-53.1968-46.08s-52.7872 10.24-52.7872 46.08v180.8896c0 35.84 27.904 46.08 52.7872 46.08M699.904 602.8288h2.4064l7.7824 104.8576h-19.4048l9.216-104.8576z m-12.8 137.5232h26.5728l8.704 87.04h40.96L732.16 554.8032h-60.7232l-31.0272 272.7424h36.7616l9.9328-87.04zM983.3984 774.5536c0 17.6128-5.12 20.48-15.36 20.48h-9.5744v-207.4624h9.5744c10.24 0 15.36 2.7136 15.36 20.48v166.656z m40.6016 3.584V616.448c0-47.872-16.8448-61.44-57.088-61.44h-49.0496v272.7424h57.856c31.4368 0 48.2816-23.3472 48.2816-49.408M325.7344 587.4176h9.6768c9.1648 0 15.36 3.072 15.36 13.4144v56.32c0 9.9328-3.0208 17.6128-17.2544 17.6128h-7.7824v-87.3472z m0.3072 120.1152c18.7904-0.8192 25.0368 5.7344 24.9856 22.2208v97.792h39.7312s0.8192-29.3376 0-108.1856c0-24.6272-15.36-28.2624-15.36-28.2624 17.7664-7.68 15.7696-16.4352 15.7696-36.7616v-52.736c0-35.2768-19.1488-46.6944-51.9168-46.6944h-53.76v272.7424h40.96v-120.1152zM623.0016 794.7776h-51.712v-239.9744h-40.6016v272.7424h92.3136v-32.768z" fill="#2D2A26" p-id="9714"></path><path d="M437.5552 587.6224v239.9232h40.6528v-239.9232h35.2256v-32.8192H379.7504l32.8704 32.8192h24.9344zM817.5616 676.1984l45.9264 151.3472h37.0688v-272.7424h-36.864v152.8832l-46.1312-152.8832h-36.864v272.7424h36.864v-151.3472z" fill="#2D2A26" p-id="9715"></path></svg>