<svg t="1712738507823" class="icon" viewBox="0 0 1024 1024" version="1.1" xmlns="http://www.w3.org/2000/svg" p-id="3569" width="200" height="200"><path d="M514.56 953.856c-205.824 0-373.248-167.424-373.248-373.248 0-100.608 39.68-195.072 111.616-265.984 0.512-0.512 1.28-1.024 1.792-1.536-24.832-37.376-38.656-81.152-28.16-134.144 19.456-97.536 98.304-126.976 101.632-128.256 1.28-0.512 2.56-0.768 3.84-0.768 4.096 0 8.192 2.304 10.24 6.144 1.28 2.304 1.536 5.12 1.024 7.68 25.856-21.76 50.432-31.232 60.672-34.56 1.28-0.256 2.304-0.512 3.584-0.512 4.352 0 8.704 2.56 10.496 6.656 2.304 5.376 0.512 11.52-4.608 14.592-23.552 14.08-44.032 33.536-59.392 55.552 18.688-4.352 30.976-4.864 35.328-4.864h2.304c5.632 0.256 10.24 4.864 10.752 10.496 0.512 5.632-3.072 10.752-8.704 12.288-0.256 0-31.232 7.936-65.28 32.256-6.4 19.712-9.728 40.192-9.728 60.928 0 39.424 12.544 80.128 34.56 111.104 5.12 7.168 9.984 13.568 15.36 19.2-2.048-40.704 9.984-103.68 83.2-132.864 1.28-0.512 2.816-0.768 4.352-0.768 4.352 0 8.192 2.304 10.24 6.4 2.816 5.376 0.768 11.776-4.352 15.104l-0.512 0.256c-11.008 7.168-20.48 16.384-27.648 27.136 7.68-2.304 14.336-3.072 18.688-3.584h2.048c4.864 0 9.216 3.072 10.752 7.68 1.792 5.12-0.256 10.752-4.608 13.568l-0.768 0.512c-23.296 13.568-36.352 29.184-38.656 46.592-2.56 18.944 7.936 36.864 15.36 47.104 19.712-22.784 32.256-61.44 35.84-76.032 1.28-5.12 5.888-8.704 11.264-8.704h1.28c5.888 0.768 10.24 5.632 10.24 11.264 0.256 47.872-12.544 80.64-25.6 101.376 19.712 9.728 38.656 10.496 43.008 10.496h2.56c4.096 0 23.296-0.512 43.008-10.496-13.056-20.992-25.856-53.76-25.6-101.376 0-5.888 4.352-10.752 10.24-11.264h1.28c5.12 0 9.984 3.584 11.264 8.704 3.584 14.592 16.384 53.248 35.84 76.032 7.68-10.24 17.92-28.16 15.36-47.104-2.304-17.408-15.36-33.28-38.656-46.592-0.256 0-0.768-0.512-0.768-0.512-4.608-2.816-6.656-8.704-4.864-13.568 1.536-4.608 5.888-7.68 10.752-7.68h2.048c4.608 0.512 11.008 1.28 18.688 3.584-7.168-10.752-16.64-19.968-27.648-27.136l-0.512-0.256c-5.12-3.072-6.912-9.728-4.352-15.104 2.048-4.096 6.144-6.4 10.24-6.4 1.536 0 2.816 0.256 4.352 0.768 72.96 29.184 84.992 92.16 83.2 132.864 5.376-5.632 10.24-12.032 15.36-19.2 22.016-31.232 34.56-71.68 34.56-111.104 0-20.736-3.328-41.216-9.728-60.928-34.304-24.576-64.768-32.256-65.28-32.256-5.632-1.28-9.216-6.656-8.704-12.288 0.512-5.632 5.12-10.24 10.752-10.496h2.304c4.352 0 16.896 0.512 35.328 4.864-15.616-22.272-36.096-41.472-59.392-55.552-5.12-3.072-6.912-9.216-4.608-14.592 1.792-4.096 6.144-6.656 10.496-6.656 1.28 0 2.304 0.256 3.584 0.512 10.24 3.328 34.816 12.8 60.672 34.56-0.512-2.56-0.256-5.12 1.28-7.68 2.048-3.84 5.888-6.144 10.24-6.144 1.28 0 2.56 0.256 3.84 0.768 3.328 1.28 82.176 30.72 101.632 128.256 10.496 52.992-3.328 96.768-28.16 134.144 0.768 0.512 1.28 1.024 1.792 1.536 71.936 70.912 111.616 165.376 111.616 265.984 1.024 205.824-166.4 373.248-372.224 373.248z" fill="#EEE1C6" p-id="3570"></path><path d="M768.256 322.816l-7.936 9.728c64 63.232 103.424 151.04 103.424 248.064 0 192.768-156.416 349.184-349.184 349.184-192.768 0-349.184-156.416-349.184-349.184 0-97.024 39.68-184.832 103.424-248.064l-7.936-9.728c-66.56 65.792-108.032 156.928-108.032 257.792 0 199.424 162.304 361.728 361.728 361.728s361.728-162.304 361.728-361.728c0-100.864-41.216-192-108.032-257.792z m-481.28 27.136c-58.624 58.624-96.256 141.568-96.256 230.656 0 20.736 2.048 40.704 5.632 60.416l97.536-26.368c16.128 106.496 108.288 188.16 219.136 188.16 111.36 0 203.52-82.432 219.392-189.44l100.096 27.648c3.584-19.456 5.632-39.68 5.632-60.416 0-89.344-37.12-171.008-95.744-229.632l8.704-9.216c61.696 60.928 99.84 145.408 99.84 238.848 0 185.6-151.04 336.384-336.384 336.384-185.6 0-336.384-151.04-336.384-336.384 0-93.44 38.4-178.176 100.096-239.36l8.704 8.704zM237.824 181.504c18.432-92.16 94.208-119.552 94.208-119.552-27.648 20.48-56.064 59.136-67.84 113.152 11.52-14.08 22.016-24.832 34.304-33.28 30.72-66.304 83.2-93.184 109.056-101.376-33.28 20.224-61.184 50.176-78.336 84.736 38.656-13.824 61.952-12.544 61.952-12.544s-34.56 8.448-72.192 36.352c-7.424 21.248-11.52 44.288-11.52 68.096 0 41.984 13.568 84.992 36.864 117.76 13.056 18.432 25.856 31.232 41.472 43.008-5.12-13.056-25.088-114.176 70.656-152.576l-0.768 0.512c-22.528 14.592-39.168 37.376-46.08 64.256 17.408-16.64 35.84-18.432 45.568-19.712-0.256 0-0.256 0.256-0.512 0.256-88.832 51.2-18.176 120.576-18.176 120.576 27.904-23.552 44.288-76.032 47.872-90.368 0.256 55.552-18.176 88.832-30.72 104.96 28.672 19.712 60.672 18.432 60.672 18.432s32 1.28 60.672-18.432c-12.544-16.128-30.976-49.408-30.72-104.96 3.584 14.336 19.968 66.816 47.872 90.368 0 0 70.656-69.376-18.176-120.576-0.256 0-0.256-0.256-0.512-0.256 9.728 1.28 28.16 2.816 45.568 19.712a106.624 106.624 0 0 0-46.08-64.256l-0.768-0.512c95.744 38.4 75.776 139.52 70.656 152.576 15.616-11.776 28.416-24.576 41.472-43.008 23.296-33.024 36.864-76.032 36.864-117.76 0-23.808-4.096-46.592-11.52-68.096C672 121.088 637.44 112.64 637.44 112.64s23.296-1.28 61.952 12.544c-16.896-34.56-44.8-64.512-78.336-84.736 25.856 8.192 78.08 35.072 109.056 101.376 12.544 8.448 23.04 19.2 34.304 33.28-11.776-54.272-39.936-92.672-67.84-113.152 0 0 75.776 27.392 94.208 119.552 21.504 107.264-64.256 174.336-133.632 231.936l52.736-21.504c3.584-1.536 6.144 2.048 5.376 6.144l-1.536 13.056c-0.768 7.168-6.144 43.52-26.112 54.528-4.352 2.304-11.776 5.12-33.536 6.656l-39.68 2.56 6.656 22.272-38.912 62.208 19.968-20.992 40.704 144.64-111.616 91.904 34.816-157.952-51.456 63.232-51.968-63.232 34.816 157.952-111.616-91.904 40.704-144.64 19.968 20.992-38.912-62.208 6.656-22.272-39.68-2.56c-22.016-1.536-29.44-4.352-33.536-6.656-19.968-11.008-25.344-47.36-26.112-54.528l-1.536-13.056c-0.768-4.096 1.792-7.68 5.376-6.144l52.736 21.504C302.08 355.84 216.32 288.768 237.824 181.504zM738.048 296.96s43.776-69.12 13.824-107.776c-3.072-3.84-6.4-7.68-9.728-11.008 12.544 44.032-4.096 118.784-4.096 118.784z m-446.976 0s-16.384-74.752-4.352-118.784c-3.328 3.584-6.656 7.168-9.728 11.008-29.696 38.656 14.08 107.776 14.08 107.776z" fill="#00471B" p-id="3571"></path><path d="M399.616 796.928l2.304-3.584 0.256-0.256-33.28-21.248-0.256 0.256-41.984 65.792 10.24 6.4 18.432-28.928 12.8 8.192-18.432 28.928 10.24 6.4 35.584-55.552 4.096-6.4z m-24.832 16.384l-12.8-8.192 10.24-16.128 12.8 8.192-10.24 16.128z m-12.032-45.824l-59.904 50.944-8.192-8.192 14.592-21.76-21.504 14.848-8.192-8.192 50.176-60.672 8.192 7.936-20.224 25.6 27.648-18.432 2.816 2.816-18.176 27.904 25.344-20.736 7.424 7.936z m-59.136-72.704l-69.632 36.352-5.632-10.752 69.632-36.352 5.632 10.752z m-10.752-20.992l-74.24 25.6-3.84-11.52 46.592-16.128-21.504-0.768 16.64-13.824-46.848 16.128-3.84-11.52 74.24-25.6 3.84 11.52-16.64 13.824 21.504 0.768 4.096 11.52z m-30.208 79.872l14.848 20.992-10.24 7.424-22.016-30.72 63.744-45.824 7.168 9.984-53.504 38.144z m182.528 57.344l-28.16 72.96-7.936-3.072-20.992-7.936-8.448-3.328 28.416-72.704 11.264 4.352-23.552 61.184 14.336 5.376 23.552-61.184 11.52 4.352z m322.048-52.736l6.912 5.376-19.2 24.064-5.376 6.656-54.016-43.264-6.912-5.632 24.576-30.72 6.912 5.632 11.776 9.216-7.424 9.472-8.704-6.912-9.472 12.032 41.472 33.024 9.472-12.032-8.96-7.168 7.424-9.472 11.52 9.728z m-13.056-53.76l49.92 6.656-5.888 11.264-36.352-4.608 30.208 16.128-5.632 10.752-69.376-36.864 5.632-10.752 19.2 10.24-14.336-19.456 6.144-11.264 20.48 27.904z m69.376-48.128l-11.264 37.888-8.448-2.56-12.544-3.84 3.584-11.52 8.96 2.816 4.352-14.592-20.736-6.144-7.936 26.112-8.448-2.56-33.536-9.984 2.56-8.192 8.96-29.44 8.448 2.56 12.288 3.84-3.584 11.52-8.96-2.56-4.352 14.592 17.92 5.376 7.936-26.112 8.448 2.56 27.904 8.448 8.448 1.792zM681.984 752.64l50.432 59.648-6.4 5.376-17.152 14.336-6.912 5.888-49.92-60.16 9.216-7.936 42.24 50.176 11.776-9.728-42.752-49.92 9.472-7.68z m-89.344 123.904l2.304 12.288-37.12 7.168-15.104-76.544 37.12-7.168 2.304 12.288-25.088 4.864 3.584 18.432 25.088-4.864 2.304 12.032-25.088 4.864 4.352 21.504 25.344-4.864z m-57.344 9.216l0.256 12.544-37.632 0.512-1.28-78.08 37.632-0.512 0.256 12.544-25.6 0.512 0.256 18.944 25.6-0.512 0.256 12.288-25.6 0.512 0.256 22.016 25.6-0.768z m122.88-65.536l1.28-7.68-12.032-22.016-11.264-3.072-27.136 14.592 37.12 68.608 27.136-14.592 3.328-11.52-11.52-21.248-6.912-3.072z m-32.512-12.8l13.568-7.168 8.96 16.64-13.568 7.168-8.96-16.64z m25.088 46.592l-10.496-19.2 13.568-7.168 10.496 19.2-13.568 7.168zM488.704 819.2l-20.224 28.16 9.216 49.408-12.544-2.304-6.912-35.84-5.888 33.792-12.032-2.048 13.568-77.312 12.032 2.048-3.84 21.504 14.08-19.712 12.544 2.304zM478.208 472.32c-5.632-2.56-16.384-7.424-26.88-12.288-2.048-1.024-4.608 0.256-4.864 2.56-0.768 4.608-0.768 11.776 5.632 16.64 11.776 9.216 22.016 4.096 27.392-1.28 1.536-1.792 1.024-4.608-1.28-5.632zM332.032 410.624s3.84 32.512 17.408 39.936c9.216 5.12 31.488 4.608 51.2 6.144-21.76-8.448-53.76-31.488-68.608-46.08zM492.032 604.416l10.752 14.592h23.552l10.752-14.592zM697.088 410.624c-15.104 14.592-46.848 37.632-68.608 46.08 19.456-1.536 41.984-1.024 51.2-6.144 13.568-7.424 17.408-39.936 17.408-39.936zM537.088 518.912l-10.496-34.304-12.032 5.888-12.032-5.888-10.496 34.304s-3.584 13.568-18.432 23.04l-6.4 28.16 15.616 21.248h16.64l-15.36-22.784 2.56-14.08c6.912 7.424 16.896 12.288 27.904 12.288 11.008 0 20.992-4.608 27.904-12.288l2.56 14.08-15.36 22.784h16.64l15.616-21.248-6.4-28.16c-14.848-9.472-18.432-23.04-18.432-23.04zM577.792 459.776c-10.752 4.864-21.248 9.728-26.88 12.288-2.304 1.024-2.816 4.096-1.024 5.632 5.376 5.376 15.36 10.496 27.392 1.28 6.4-4.864 6.4-12.032 5.632-16.64-0.512-2.048-3.072-3.584-5.12-2.56z" fill="#FFFFFF" p-id="3572"></path></svg>