<svg t="1712739256581" class="icon" viewBox="0 0 1024 1024" version="1.1" xmlns="http://www.w3.org/2000/svg" p-id="18808" width="200" height="200"><path d="M926.0032 391.2192c-3.4816-61.0304-30.72-115.7632-47.1552-148.48l-1.8944-3.8912-7.1168-14.1824 1.4336 15.8208c1.9968 21.8624 6.8608 96.5632-15.36 138.9056-27.5968 57.3952-108.8 51.8144-135.4752 50.0224h-1.9968c-43.8784-2.9184-186.4192-7.9872-230.144-7.7824-57.7536 0-121.4976 5.12-172.7488 8.704-25.088 1.8432-46.7456 3.4304-61.44 3.9936l-5.12 0.4096c-71.68 6.7072-117.1968-14.4896-134.8608-62.9248-10.8032-29.7472-10.5472-88.5248-10.24-116.736v-20.48l-5.632 10.24a376.6784 376.6784 0 0 0-47.0016 148.48C46.08 484.4032 93.3888 517.12 129.28 533.6064a251.9552 251.9552 0 0 0 88.4736 20.48h0.5632a62.208 62.208 0 0 0 8.6528 0.7168 91.3408 91.3408 0 0 1 12.3904 1.2288c-6.8096 1.3312-15.7696 2.816-23.6032 4.1984s-16.2304 2.7648-20.48 3.6352c-8.4992 1.792-44.6464 10.24-64.1024 16.896-16.5376 5.6832-34.3552 14.08-34.56 14.1312l-3.2256 1.536 2.0992 2.9184A137.8816 137.8816 0 0 0 108.032 614.4a117.4016 117.4016 0 0 0 90.9312 29.5424c34.2016-4.2496 52.48-12.1856 59.5456-15.9232 2.2016 7.2192 7.7312 24.2688 12.8512 37.5808 15.36 38.2976 50.4832 111.2576 63.6416 136.6016 10.7008 20.48 21.2992 38.7584 28.3136 50.8416l2.5088 4.352a34.9184 34.9184 0 0 1-11.8784 16.3328c-1.0752 0.9728-2.048 1.792-2.816 2.6112l-0.8192 0.8192v1.1264c-0.3072 7.0656-1.9968 70.4512 40.96 116.9408l0.4608 0.512h0.6656a246.9376 246.9376 0 0 0 94.72 16.6912c46.08 0 84.8384-10.9568 98.4576-17.8176h0.512l0.4096-0.4608c30.1056-35.84 43.776-89.1392 44.0832-108.5952v-1.2288l-0.8704-0.9216-2.3552-2.304a42.5472 42.5472 0 0 1-13.7728-23.2448c3.6352-6.2976 10.8032-21.2992 16.6912-33.4848 3.2256-6.8608 6.0928-12.7488 7.6288-15.7696 12.7488-24.7808 49.92-104.5504 64.6656-142.2336 9.3696-23.8592 14.592-35.84 16.8448-40.704 6.5024 3.5328 24.1152 11.3152 57.344 14.7456 43.1104 4.4544 84.224-24.3712 95.6416-40.0896 1.9456-2.6624 5.12-6.4512 5.12-6.5024l2.56-3.0208-3.584-1.6384c-0.256 0-1.6896-0.7168-8.1408-2.9184l-23.552-8.0896-23.808-7.9872c-6.5024-2.2016-35.84-8.5504-56.832-13.1072l-16.0768-3.5328 5.12-0.9216c49.2032-8.7552 179.9168-31.8976 172.5952-161.3824z" fill="#2D2A26" p-id="18809"></path><path d="M62.0544 365.0048A423.424 423.424 0 0 1 97.28 259.8912v-0.4096H98.7648v0.7168c-0.4096 10.24-0.7168 20.48-0.7168 30.72a309.6576 309.6576 0 0 0 7.168 72.0384l0.5632 2.2016-1.536-1.6384c-7.168-6.4-14.2848-13.7216-21.6576-20.1216-6.5024 7.3216-12.7488 15.36-19.3536 22.2208l-1.6384 1.7408 0.4608-2.3552zM913.3568 349.7984h-0.7168 0.6656c-9.472-31.3344-17.9712-63.0784-33.536-91.8528l-1.28 0.3584c0.6144 10.24 0.9216 19.8656 0.9216 29.696A420.4032 420.4032 0 0 1 873.6256 358.4v1.3824l1.2288-0.6144c7.5776-3.6864 14.848-8.6528 22.6304-11.9808l18.7904 13.6192-2.7136-11.0592zM606.5152 684.9536l-1.4336 0.6144a162.2016 162.2016 0 0 1-33.2288 11.7248 92.16 92.16 0 0 1-22.5792 2.9184 69.2224 69.2224 0 0 1-59.7504-30.72l-0.4608-0.6656-0.5632 0.512c-2.816 2.5088-4.5056 5.5296-7.3728 8.1408-14.7968 16.9984-36.2496 23.5008-58.1632 23.5008a129.1264 129.1264 0 0 1-48.6912-9.9328l-1.4848-0.6144 0.5632 1.536a271.36 271.36 0 0 1 17.8688 94.6688 221.2352 221.2352 0 0 1-4.3008 43.8272c-2.048 10.24-5.4272 20.48-8.1408 30.72l-0.4608 1.536 1.4336-0.7168a232.8576 232.8576 0 0 1 107.52-24.9856 228.1472 228.1472 0 0 1 101.888 22.6816c5.12 2.048 9.5744 5.4784 14.08 6.912l1.3312 0.4608-0.4096-1.792a256.256 256.256 0 0 1-13.8752-81.92v-1.1776-5.4784a290.6624 290.6624 0 0 1 15.8208-90.2144l0.512-1.4848zM300.7488 715.3152a32.1024 32.1024 0 0 1-7.0656-13.8752l-0.3072-1.5872 1.3824 0.8704a32.7168 32.7168 0 0 0 18.1248 5.12 68.7104 68.7104 0 0 0 37.0688-13.6192l0.4608-0.3072 0.4096 0.4096 0.3584 0.3072-0.512 0.512 0.512-0.512v0.5632c-1.4336 13.3632-6.1952 28.6208-20.48 33.8432a23.9616 23.9616 0 0 1-6.1952 0.8192 34.0992 34.0992 0 0 1-24.1152-12.4416zM632.9344 710.2464a38.144 38.144 0 0 1-5.6832-14.9504l-0.3072-1.792 1.4336 1.1264a39.5776 39.5776 0 0 0 24.9344 7.9872 56.7296 56.7296 0 0 0 29.8496-8.704l1.6896-1.1264-0.6656 1.8944c-4.096 12.0832-14.592 24.4736-27.3408 27.2384a23.4496 23.4496 0 0 1-3.2768 0 24.5248 24.5248 0 0 1-20.48-11.8784z" fill="#C10230" p-id="18810"></path><path d="M649.216 727.9616a23.3984 23.3984 0 0 0 5.12 0.512 48.384 48.384 0 0 0 14.336-2.7648l1.3824-0.4608-0.512 1.3824c-17.5616 43.8784-38.7584 86.272-60.6208 128.3584l-0.7168 1.4336-0.5632-1.4848a110.848 110.848 0 0 1-5.632-38.144c0-9.6256 0.6656-19.4048 1.28-29.2352a417.3824 417.3824 0 0 1 18.432-81.92l0.512-1.5872 0.768 1.4848c5.12 10.24 15.0528 20.48 26.3168 22.2208M372.224 855.04c-26.4704-40.3968-46.5408-83.0464-65.9968-126.3616l-0.8192-1.8944 1.792 0.9728a42.4448 42.4448 0 0 0 19.0464 5.12 21.8112 21.8112 0 0 0 12.4928-3.4816 48.64 48.64 0 0 0 16.8448-24.7808l0.5632-1.536 0.768 1.4848a230.4 230.4 0 0 1 21.5552 100.608 256.768 256.768 0 0 1-4.6592 49.3056l-0.9728 0.9728-0.6144-0.4096zM395.4688 990.3104c-26.9824-29.5936-37.12-67.584-38.6048-107.8272v-0.4096h0.3072c35.4304-25.6 82.7904-39.424 129.536-39.424a211.1488 211.1488 0 0 1 87.3984 17.5104 214.5792 214.5792 0 0 1 48.2816 27.9552l-0.4096 0.512 0.4096-0.512h0.3072v0.4096a191.7952 191.7952 0 0 1-41.9328 100.864 266.8032 266.8032 0 0 1-95.3344 17.1008 231.8336 231.8336 0 0 1-89.6-16.7424zM869.5296 592.5888s-16.64-6.4-20.9408-7.9872a499.1488 499.1488 0 0 0-154.368-28.928c-4.7616-55.6032-11.1616-90.368-21.9648-121.8048v-0.4608h-0.4608c-25.6-1.4848-139.9296-6.0928-184.064-6.0928s-156.2624 6.9632-181.9648 8.448h-0.6144v0.4608a502.2208 502.2208 0 0 0-27.648 122.2656 637.696 637.696 0 0 0-163.84 34.7648 59.0848 59.0848 0 0 0-7.3728 3.2768l-1.8944 1.0752h-0.3072l-1.3824-1.5872 0.512 2.5088a0.768 0.768 0 0 0 0 0.3584 107.52 107.52 0 0 0 80.5376 39.8848h2.4576A170.5984 170.5984 0 0 0 245.76 628.1728c4.352-1.8944 12.6976-5.12 14.9504-6.2976a86.1184 86.1184 0 0 1 4.608 10.24c5.12 14.2336 11.264 34.7136 15.7696 43.6224 6.6048 13.2608 17.4592 23.9104 35.0208 24.32h0.7168a39.1168 39.1168 0 0 0 28.7232-15.36l0.7168-1.024h-1.28c-44.1856-2.2528-62.2592-25.6-65.28-61.1328v-0.5632h-0.512a38.5024 38.5024 0 0 1-10.5984-2.7648 7.1168 7.1168 0 0 1-3.6352-5.12 17.5616 17.5616 0 0 1-0.4096-3.6352 29.0816 29.0816 0 0 1 5.12-14.5408 21.1456 21.1456 0 0 1 18.4832-9.0624 49.9712 49.9712 0 0 1 15.36 2.7136 92.7232 92.7232 0 0 1 32.4608 19.9168c9.216 8.0384 35.84 35.84 52.0192 45.5168a78.336 78.336 0 0 0 38.2976 10.5984 46.08 46.08 0 0 0 33.2288-12.8 85.4528 85.4528 0 0 0 25.6-48.1792v-0.8704h-0.8704a929.8432 929.8432 0 0 1-99.9936-8.7552c-3.584-0.5632-4.6592-2.048-4.6592-3.328a4.1472 4.1472 0 0 1 4.5568-3.3792 7.0144 7.0144 0 0 1 1.7408 0s58.5216 7.7312 99.3792 7.9872H486.4v-0.6144c0.3072-4.8128 0.4096-13.1584 0.6656-22.5792v-0.6656H486.4a623.9744 623.9744 0 0 1-103.5264-10.8544c-3.328-0.7168-4.6592-2.7136-4.6592-4.4032a3.1744 3.1744 0 0 1 3.5328-3.072 7.936 7.936 0 0 1 1.792 0 785.2544 785.2544 0 0 0 102.8096 10.24h0.9728v-0.7168-28.16h-2.816a682.3424 682.3424 0 0 1-99.6352-9.1648c-3.7376-0.6144-5.12-2.4064-5.12-3.7888s1.3312-2.9696 4.1472-2.9696h0.768a816.7424 816.7424 0 0 0 98.9184 8.2432h3.6352v-0.7168-22.4256c0-4.2496 1.9456-5.9904 3.328-5.9904s2.9696 1.4848 2.9696 5.4272V527.4624h0.7168a732.16 732.16 0 0 0 96.0512-9.2672 12.8 12.8 0 0 1 2.6112-0.3072c3.4304 0 4.352 1.4336 4.352 2.7648a3.4304 3.4304 0 0 1-2.8672 3.2768 678.5024 678.5024 0 0 1-100.4032 11.4176h-0.6656v0.7168c0 8.1408 0.3072 18.7392 0.4608 27.3408v0.7168h0.7168c31.0272-1.1264 66.9696-2.304 97.8432-9.1136a18.4832 18.4832 0 0 1 3.7888-0.4608c3.584 0 5.12 1.4336 5.12 2.6624s-1.792 3.5328-6.1952 4.3008a772.352 772.352 0 0 1-100.1472 10.24h-0.7168v0.7168c0 7.5776 0 16.7424 0.6656 22.7328v0.6656h0.6656a833.3824 833.3824 0 0 0 104.3968-9.6256h1.5872c3.1232 0 4.5568 1.6896 4.5568 3.2256s-1.3824 3.4304-5.12 3.9424c-8.704 1.2288-66.56 8.704-104.0384 9.6256h-0.8704v0.8704c3.6352 12.5952 4.352 30.72 22.6304 46.6432a50.8928 50.8928 0 0 0 33.3824 11.1616 71.68 71.68 0 0 0 35.2256-9.4208c16.3328-9.4208 42.1376-37.7344 51.2-45.7216 7.6288-6.7072 24.9856-22.784 48.2304-22.784h0.9728c11.9296 0.256 17.7664 3.4304 20.7872 6.8096a21.5552 21.5552 0 0 1 4.1472 9.3184 15.36 15.36 0 0 1 0.9728 5.12 8.3456 8.3456 0 0 1-3.7888 7.5264c-4.096 2.5088-7.8848 1.8432-12.1856 3.7888h-0.3584v0.4096c-3.072 19.3536-9.1136 41.4208-24.32 52.9408a73.4208 73.4208 0 0 1-27.3408 11.6736 102.4 102.4 0 0 1-14.9504 2.2528h-1.4848l1.024 1.0752s3.584 3.9424 4.7616 5.12a32.6144 32.6144 0 0 0 20.48 6.2976h3.2768a54.3232 54.3232 0 0 0 28.928-14.7456c8.1408-10.5984 15.616-32.512 21.1456-46.6432 1.9456-5.12 6.3488-13.7216 8.1408-18.2272 4.5568 2.1504 7.168 3.5328 15.7696 7.0144a165.2736 165.2736 0 0 0 55.7568 10.24h2.56c24.832-0.6144 52.992-15.6672 69.9392-31.3856 2.9696-2.7648 8.4992-9.6256 8.4992-9.6256l0.6144-0.768-0.9216-0.3072z" fill="#C10230" p-id="18811"></path><path d="M513.9968 898.0992a28.5184 28.5184 0 0 0-3.7888 14.6432 39.0144 39.0144 0 0 0 7.8848 23.0912 1.4336 1.4336 0 0 0 1.1776 0.5632 2.048 2.048 0 0 0 1.536-0.768 1.4336 1.4336 0 0 0 0-0.4608c0-5.12-3.1744-9.216-3.2256-14.592a12.032 12.032 0 0 1 0.6656-3.9424l0.4608-1.4848 0.768 1.3312a37.9904 37.9904 0 0 0 20.8384 15.7696 35.84 35.84 0 0 0 9.472 1.2288 35.84 35.84 0 0 0 28.1088-13.6704 29.9008 29.9008 0 0 0 5.7856-16.64 18.3296 18.3296 0 0 0-1.8432-8.1408 35.2768 35.2768 0 0 0-26.0096-17.4592 47.104 47.104 0 0 0-5.12-0.3072 40.192 40.192 0 0 0-36.7104 20.8384zM454.7072 939.776c0.8704 0 1.9456-0.9728 2.6624-2.2016a43.0592 43.0592 0 0 0 6.656-22.272 28.5696 28.5696 0 0 0-3.84-14.7456l0.6144-0.3584-0.6144 0.3072a38.144 38.144 0 0 0-20.8384-17.152 47.2064 47.2064 0 0 0-14.3872-2.2528 36.9152 36.9152 0 0 0-30.1568 14.0288 21.504 21.504 0 0 0-4.1472 12.9536 22.5792 22.5792 0 0 0 1.1264 7.168 33.9968 33.9968 0 0 0 24.6784 21.0944 42.0864 42.0864 0 0 0 7.0656 0.6144 38.2976 38.2976 0 0 0 31.2832-16.7936l0.768-1.0752 0.4608 1.2288a9.728 9.728 0 0 1 0.4608 2.9696c0 2.1504-0.6144 4.4032-0.8192 6.1952-0.3584 3.1232-2.816 5.5808-2.7648 7.7312a3.4816 3.4816 0 0 0 0.8192 2.2016 1.8944 1.8944 0 0 0 0.9728 0.3584zM398.2848 980.8896a243.3536 243.3536 0 0 1 92.16-18.0736 198.3488 198.3488 0 0 1 70.4512 12.1344c5.4272 2.304 11.2128 4.1984 16.6912 5.9392a28.6208 28.6208 0 0 0 3.0208-3.7888 203.776 203.776 0 0 0-89.088-19.0976 239.2576 239.2576 0 0 0-95.4368 19.5072 9.7792 9.7792 0 0 0 2.2528 3.3792z" fill="#2D2A26" p-id="18812"></path><path d="M422.0416 779.52a81.92 81.92 0 0 0 65.536 29.44 109.2608 109.2608 0 0 0 27.2384-3.5328c41.4208-11.52 66.56-56.6784 75.0592-96.256a8.9088 8.9088 0 0 0-3.84-1.8432 168.3456 168.3456 0 0 1-29.7984 65.3824 89.1392 89.1392 0 0 1-69.0176 32.2048 88.4736 88.4736 0 0 1-26.6752-4.096c-37.9904-11.8784-57.7024-53.504-61.44-91.1872a5.9392 5.9392 0 0 0-3.7888 0.9728 124.5696 124.5696 0 0 0 26.6752 69.0688zM94.4128 12.4928a43.0592 43.0592 0 0 0-28.5696-10.24C54.3744 2.6624 11.3152 17.0496 11.3152 81.152s38.6048 84.5824 61.952 84.5824 46.8992-17.664 54.7328-48.896c1.0752-4.5568 0.3584-5.12-4.096-7.2192l-15.36-5.6832c-3.5328-1.3312-3.7376-1.1776-5.9392 5.12-1.536 4.1472-8.192 22.7328-23.7568 22.7328s-22.272-23.0912-22.272-47.0016 4.096-46.6432 23.3984-46.6432 23.1936 20.48 24.4736 28.0576c0.5632 3.2256 0.9216 3.3792 4.8128 3.3792h14.1312c2.7648 0 2.9696 0 2.9696-6.8096V10.5984c0-3.3792-0.768-3.3792-6.3488-3.3792H107.52c-2.6112 0-2.4064 0.5632-4.4544 4.1472a5.12 5.12 0 0 1-8.5504 1.1264zM641.8944 92.928h-21.3504c-4.6592 0-5.12 0-4.0448-3.2768l13.1072-40.96c0.768-2.0992 1.5872-2.1504 2.3552 0.3584l13.1584 40.6528c1.1264 2.8672 0.8192 3.2256-3.072 3.2256z m65.8432 42.0864h-4.4544c-2.2528 0-2.3552 0-3.7888-4.4032l-29.3376-92.16c-0.9216-3.072-1.024-3.84 1.792-3.84h6.0928c5.7344 0 5.9392 0 5.9392-4.1984V12.9024c0-5.12-0.3584-5.6832-4.8128-5.6832h-77.1584c-6.3488 0-6.7072 0-6.7072 5.12v18.7392c0 3.9936 0.3584 4.1984 4.8128 4.1984h5.4272c4.8128 0 4.8128 0.768 3.8912 3.2256l-30.0032 93.44a3.8912 3.8912 0 0 1-4.1472 3.072h-3.7376c-4.4544 0-4.8128 0.3584-4.8128 4.1984v17.408c0 5.888 0 6.0928 3.328 6.0928h40.0896c4.608 0 4.8128-0.4608 4.8128-3.7888v-18.2272c0-5.12 0-5.6832-4.0448-5.6832h-6.144c-2.7648 0-2.7136 0-1.3824-4.3008l4.4032-13.7728c0.9216-2.816 1.0752-2.9696 5.12-2.9696h35.2768c3.5328 0 4.4032 0 5.4784 2.9184l4.4032 13.7216c1.1264 3.7888 1.2288 4.4032-1.9456 4.4032h-5.5296c-3.7376 0-4.3008 0-4.096 5.6832V158.72c0 3.584 0 3.7888 4.8128 3.7888h57.9072c3.1232 0 3.328 0 3.328-6.0928v-17.408c0-3.84 0-4.1984-4.8128-4.1984zM809.7792 108.0832h10.24c4.864 0 4.864 0.768 4.864 3.4304 0 8.704-6.7072 20.0704-23.3984 20.0704-15.36 0-22.272-23.0912-22.272-47.0016s4.096-46.6432 23.3984-46.6432a24.064 24.064 0 0 1 24.4736 18.944c0.768 3.2256 0.768 3.4304 4.8128 3.4304h14.1312c2.9696 0 2.9696 0 2.9696-6.8608V10.5984c0-3.3792-0.4096-3.3792-6.3488-3.3792h-12.5952c-2.6112 0-2.9696 0.3584-4.4544 4.1472-0.8704 2.2528-4.096 5.12-8.5504 1.1264a43.1616 43.1616 0 0 0-28.5696-10.24c-11.4688 0.4096-54.528 14.7968-54.528 78.8992s38.6048 84.5824 61.952 84.5824c35.2768 0 62.72-26.4192 62.72-77.3632 0-5.12-0.5632-5.12-7.424-5.12H808.96c-4.096 0-4.4544 0.256-4.4544 5.12v16.6912c0 3.4304 0 3.4304 5.12 3.4304zM945.0496 137.8816c-14.1824 0-25.6-22.9376-25.6-51.2s11.52-51.2 25.6-51.2 25.6 22.9376 25.6 51.2-11.52 51.2-25.6 51.2z m0-131.1744c-38.144 0-69.0176 35.84-69.0176 79.9232s30.72 79.9232 69.0176 79.9232 69.0688-35.84 69.0688-79.9232-30.72-79.9232-69.0688-79.9232z" fill="#2D2A26" p-id="18813"></path><path d="M171.008 131.4304v-92.16c0-3.2256 0-3.7888-3.7376-3.7888h-4.4544c-4.608 0-4.8128-0.5632-4.8128-3.6352v-20.48c0-3.3792 0-3.9424 5.7344-3.9424H218.112c4.096 0 4.8128 0.256 4.8128 4.5056v18.3808c0 4.1984-0.5632 4.1984-4.8128 4.1984H215.04c-2.4064 0-2.7648 0-2.6112 3.584v26.368c0 6.656 0 7.2192 5.5808 7.2192h28.928c5.5808 0 5.5808 0 5.5808-7.2192V38.0928c0-3.584 0-3.584-2.6112-3.584h-2.7648c-4.8128 0-5.12-0.4096-5.12-4.1984V11.7248c0-4.096 0.7168-4.5056 4.8128-4.5056h54.5792c5.7344 0 5.7344 0 5.7344 3.9424v20.48c0 3.072 0 3.6352-4.8128 3.6352h-4.6592c-3.328 0-3.5328 0-3.5328 3.7888v92.16c0 3.3792 0 3.584 4.3008 3.584h4.8128c3.84 0 3.8912 0 3.8912 5.6832V158.72c0 3.2256 0 3.7888-4.8128 3.7888h-57.344c-3.6864 0-3.8912 0-3.8912-5.888v-17.408c0-3.9936 0-4.1984 4.8128-4.1984h2.9696c3.3792 0 3.3792 0 3.3792-3.9936v-28.2624c0-7.0144-0.4096-7.168-5.12-7.168H218.112c-4.8128 0-5.12 0.5632-5.12 7.168v28.2624c0 3.9936 0 3.9936 3.328 3.9936h2.9696c4.8128 0 4.8128 0 4.8128 4.1984v17.408c0 5.888 0 6.0928-3.8912 6.0928H162.816c-4.8128 0-4.8128 0-4.8128-3.7888v-18.2272c0-5.4784 0-5.6832 3.8912-5.6832h4.8128c4.3008 0 4.3008 0 4.3008-3.584z" fill="#2D2A26" p-id="18814"></path><path d="M348.16 38.0928c0-3.584 0-3.584-2.6112-3.584h-5.12c-5.12 0-5.12-0.4096-5.12-4.1984V11.7248c0-4.096 0.7168-4.5056 4.8128-4.5056H394.24c5.7344 0 5.7344 0 5.7344 3.9424v20.48c0 3.072 0 3.6352-4.8128 3.6352h-2.4064c-3.328 0-3.5328 0-3.5328 3.7888v92.16c0 3.3792 0 3.584 4.2496 3.584h3.7376c3.84 0 3.8912 0 3.8912 5.6832V158.72c0 3.2256 0 3.7888-4.8128 3.7888H338.9952c-3.7376 0-3.8912 0-3.8912-5.888v-17.408c0-3.9936 0-4.1984 4.8128-4.1984h4.4544c3.328 0 3.7376 0 3.7376-3.7888V38.0928zM505.5488 12.4928a43.1616 43.1616 0 0 0-28.5696-10.24C465.4592 2.6624 422.4 17.0496 422.4 81.152S460.8 165.7344 484.4032 165.7344s46.8992-17.664 54.528-48.896c1.0752-4.5568 0.3584-5.12-4.096-7.2192l-15.36-5.6832c-3.5328-1.3312-3.7376-1.1776-5.9392 5.12-1.536 4.1472-8.1408 22.7328-23.7568 22.7328s-22.272-23.0912-22.272-47.0016 4.096-46.6432 23.3984-46.6432 23.1936 20.48 24.4736 28.0576c0.5632 3.2256 0.9216 3.3792 4.8128 3.3792h14.1312c2.7648 0 2.9696 0 2.9696-6.8096V10.5984c0-3.3792-0.768-3.3792-6.3488-3.3792h-12.5952c-2.6112 0-2.4064 0.5632-4.4544 4.1472a5.12 5.12 0 0 1-8.4992 1.1264z" fill="#2D2A26" p-id="18815"></path><path d="M203.8272 323.4816V296.96c0-5.12 0.4096-5.4784 6.3488-5.4784s27.0848 0.7168 27.0848 19.712-20.48 18.176-27.0848 18.176-6.3488 0-6.3488-6.0416z m0-88.0128c0-5.12 0-5.6832 5.5808-5.6832s27.8528 0.768 27.8528 19.712-20.48 18.2272-27.0848 18.2272-6.3488-0.4096-6.3488-5.5296V235.52z m46.7456 44.3904c7.8336-6.4512 21.9136-15.36 21.9136-37.1712 0-23.9104-24.1152-39.4752-38.6048-39.4752H156.0064c-6.2976 0-6.7072 0.4096-6.7072 5.12v19.712c0 3.0208 0.3072 3.4304 4.8128 3.4304h5.12c2.9696 0 2.9696 0.768 2.9696 5.12V327.68c0 3.2256-0.768 3.4304-3.8912 3.4304H153.6c-3.6864 0-4.2496 0.5632-4.096 5.12v18.9952c0 3.3792 0.6144 3.7888 4.8128 3.7888h84.4288c21.1456 0 36.7104-18.9952 36.7104-40.6016s-13.7216-30.3616-24.8832-38.2976zM419.84 234.7008v79.3088c0 20.0704-10.24 49.664-50.432 49.664s-59.3408-29.5936-59.3408-49.664V234.9056c0-3.4304-0.5632-3.584-3.5328-3.584H302.08c-4.6592 0-4.8128-0.4096-4.8128-4.1984v-18.0224c0-5.888 0.5632-5.888 6.0928-5.888h53.8624c4.0448 0 4.8128 0 4.8128 5.12v18.0224c0 3.9936 0 4.1984-5.9392 4.1984h-4.2496c-2.6112 0-2.816 0.3584-2.816 3.584v76.8a22.9376 22.9376 0 0 0 23.3984 22.784 21.6576 21.6576 0 0 0 23.3472-22.784V234.5472c0-3.9936-0.3584-3.9936-4.0448-3.9936h-3.7376c-4.608 0-5.12 0-5.12-4.1984v-18.0224c0-4.5568 0-5.12 4.8128-5.12h40.0896c6.4512 0 6.656 0 6.656 5.12v18.5856c0 3.9936 0 4.1984-4.8128 4.1984H423.424c-3.328 0-3.5328 0-3.5328 3.3792zM608 331.0592h-5.12c-3.6864 0-4.096 0.5632-4.096 5.6832v18.2272c0 3.7888 0.4096 3.7888 4.864 3.7888h99.4304c4.352 0 4.8128 0 4.8128-6.0928v-44.7488c0-3.9936 0-4.1472-4.8128-4.1472h-14.4896c-4.4544 0-4.608 0.3584-4.608 5.6832v15.7184c0 6.0928-0.5632 6.2464-4.6592 6.2464h-22.0672c-6.7072 0-6.8608-0.5632-6.8608-4.7104V237.0048c0-5.888 0-6.4512 3.5328-6.4512h5.12c4.2496 0 4.4544-0.4096 4.4544-4.1984v-17.408c0-5.5296 0-5.7344-5.12-5.7344h-53.1456c-6.5024 0-6.7072 0.4608-6.7072 5.12v18.5856c0 3.7888 0.4096 4.1984 4.864 4.1984h4.2496c3.7376 0 3.8912 0 3.8912 5.6832v90.0608c0 3.84 0 4.1984-3.5328 4.1984zM838.656 315.4944c0 33.024-30.72 47.0528-44.1344 47.0528a47.2064 47.2064 0 0 1-28.5696-10.24c-4.4544-3.7888-8.8064 0.5632-10.24 2.6624-2.2016 3.7888-2.4064 4.1472-4.4544 4.1472h-6.656c-6.5024 0-6.2976 0-6.2976-3.4304V312.832c0-6.8096 0.3584-6.8096 2.9696-6.8096h9.6256c3.6864 0 3.8912 0 4.8128 3.4304a29.8496 29.8496 0 0 0 28.0064 21.248c7.424 0 13.9264-1.8944 13.9264-8.7552 0-14.3872-8.5504-17.8176-23.7568-25.6s-38.1952-17.0496-38.1952-50.0736a47.0528 47.0528 0 0 1 43.6224-46.592 44.1856 44.1856 0 0 1 27.4432 10.24c4.4544 3.7888 8.8064-0.5632 10.24-2.6112 2.4064-4.1984 2.4064-4.1984 4.4544-4.1984h6.656c6.144 0 6.2976 0 6.2976 3.4304v42.8544c0 6.6048 0 6.8096-2.9696 6.8096h-9.6256c-3.7376 0-3.8912-0.4096-4.8128-3.3792a32.4608 32.4608 0 0 0-29.696-21.248 9.5232 9.5232 0 0 0-10.24 10.24c0 9.0624 10.24 17.0496 27.4432 25.6s34.5088 21.248 34.5088 48.5376zM469.8624 331.0592h-5.12c-3.6864 0-4.096 0.5632-4.096 5.6832v18.2272c0 3.7888 0.4096 3.7888 5.12 3.7888h99.4304c4.352 0 4.8128 0 4.8128-6.0928v-44.7488c0-3.9936 0-4.1472-4.8128-4.1472h-14.4896c-4.4544 0-4.608 0.3584-4.608 5.6832v15.7184c0 6.0928-0.6144 6.2464-4.6592 6.2464h-22.0672c-6.7072 0-6.8608-0.5632-6.8608-4.7104V237.0048c0-5.888 0-6.4512 3.5328-6.4512h5.12c4.2496 0 4.4544-0.4096 4.4544-4.1984v-17.408c0-5.5296 0-5.7344-5.12-5.7344H467.0976c-6.5024 0-6.7072 0.4608-6.7072 5.12v18.5856c0 3.7888 0.4096 4.1984 5.12 4.1984h4.2496c3.6864 0 3.8912 0 3.8912 5.6832v90.0608c0 3.84 0 4.1984-3.5328 4.1984z" fill="#2D2A26" p-id="18816"></path><path d="M113.5616 389.12C135.3216 430.848 179.2 444.3648 223.7952 442.2144c24.9856 0 48.9472-2.7648 73.5744-4.352v1.6896A552.96 552.96 0 0 0 271.36 547.84c-64.5632 2.3552-130.816-2.7648-178.5344-46.08-32.3072-32.8704-40.5504-77.9776-33.536-122.5216 7.7312-9.1136 15.616-16.7936 23.6544-25.9072 10.752 11.264 27.6992 20.4288 30.6176 35.7888zM916.8384 370.0224a128 128 0 0 1 2.5088 19.456c3.1232 49.664-18.3808 95.488-60.7744 120.7808-46.4384 28.0064-100.0448 37.5808-156.9792 39.0144-0.9728-5.12-1.5872-11.6224-2.2528-17.408a679.5776 679.5776 0 0 0-19.8144-97.28c60.928-0.6656 135.0656 15.36 175.3088-40.5504 5.12-7.8336 10.752-14.9504 15.36-23.4496 9.0112-3.9936 17.664-9.728 26.368-14.4896 7.2704 3.7888 12.8512 9.6256 20.1728 13.7216zM685.2608 621.6704c0 19.0464-5.888 38.7584-22.8864 47.8208a50.7392 50.7392 0 0 1-26.3168 5.6832 10.24 10.24 0 0 1-0.3072-5.7856 38.2976 38.2976 0 0 0 34.6624-16.1792 54.5792 54.5792 0 0 0 7.168-28.5184 29.2864 29.2864 0 0 1 7.68-3.0208zM341.3504 673.3824a15.36 15.36 0 0 1-8.448 0 44.8 44.8 0 0 1-44.4928-48.4352 12.6464 12.6464 0 0 1 8.3456 0.256c0 17.3056 7.0144 40.96 43.6736 40.96 2.5088 3.9936 0 4.4032 0.9216 7.2192z" fill="#FFFFFF" p-id="18817"></path></svg>