<svg t="1712738403316" class="icon" viewBox="0 0 1024 1024" version="1.1" xmlns="http://www.w3.org/2000/svg" p-id="15670" width="200" height="200"><path d="M838.293918 429.898925v-22.01708V397.747815v-13.632071c-0.411534-47.377876-2.674972-141.722094-6.790314-193.009545-0.308651-4.475435-0.720185-8.642218-1.080277-12.346026l-1.080278-10.288355-8.333568-6.07013a244.451321 244.451321 0 0 0-21.811313-14.918115 525.837838 525.837838 0 0 0-59.826786-30.865066C643.844004 69.909374 517.708768 26.955491 516.474165 26.543957l-5.349944-1.697579-5.452829 1.903346c-1.234603 0.411534-114.046418 39.918818-206.641615 84.210188-18.056063 7.767708-34.414548 15.432533-48.663921 22.788707a321.562544 321.562544 0 0 0-48.561036 30.041997l-8.127801 6.37878-1.028836 10.288355c-0.462976 7.664825-1.44037 16.975786-2.109112 28.241536-3.18939 54.013865-4.578318 135.703406-4.784086 177.422686v45.783181c0.514418 196.147493 86.164975 337.509495 157.874812 421.513916 77.625641 90.846177 154.63398 135.188988 157.874812 136.98945l11.934492 6.790315 11.88305-6.841757c3.240832-1.800462 79.991962-46.554808 157.154627-137.761077 71.349744-84.364513 156.280117-226.343816 155.765699-422.285542" fill="#231F20" p-id="15671"></path><path d="M690.604578 859.026223c72.584346-85.753441 158.800764-229.790415 158.337788-429.127298v-21.914197-10.288355-13.734954c-0.462976-47.532201-2.726414-142.236512-6.841756-193.781172-0.411534-4.886969-0.771627-9.002311-1.131719-12.551793l-1.080278-10.288356-0.462976-4.526876-3.652366-2.777856-8.1278-6.275896a254.173817 254.173817 0 0 0-22.685824-15.432533 541.630463 541.630463 0 0 0-60.958505-31.225159C648.216555 60.444087 521.412576 17.07867 519.920765 16.667136l-5.504271-1.851904-3.292273-1.183161-3.446599 1.183161-5.452829 1.903345c-1.131719 0.411534-114.09786 39.97026-207.464684 84.621722-18.210389 7.81915-34.723199 15.432533-49.126896 23.045916a329.227369 329.227369 0 0 0-50.155732 31.122275l-8.436451 6.327338-3.600925 2.829298-0.462976 4.526876-1.028835 10.288356c-0.720185 7.613383-1.44037 17.181553-2.109113 28.39586-3.18939 54.219632-4.62976 136.166382-4.784085 177.988546v45.886065c0.462976 199.388325 87.45102 342.962323 160.4469 428.355672 78.75736 92.235105 157.360394 137.452426 160.652668 139.355772l12.088817 6.584547 5.144178 2.983623 5.144178-3.035065 11.831608-6.841756c3.343715-1.851904 81.689541-47.532201 159.983925-140.127399m-165.64252 130.919321l-11.883051 6.841756-11.88305-6.738872c-3.240832-1.851904-80.249171-46.297599-157.874812-137.040893-71.761278-84.004421-157.411836-225.366422-157.874811-421.462473v-21.811313-10.185472-13.632071c0-41.719281 1.594695-123.460263 4.784085-177.422686 0.668743-11.059982 1.337486-20.576711 2.057671-27.984327l1.028836-10.288355 8.179242-6.37878a324.957701 324.957701 0 0 1 48.509595-30.041998c14.455139-7.407616 30.813624-15.020999 48.869688-22.840148 92.595197-44.342811 205.458455-83.850095 206.590173-84.26163l5.452829-1.903346 5.452828 1.903346c1.286044 0.411534 127.369838 43.365417 222.897217 90.07455a526.969557 526.969557 0 0 1 59.878228 30.865066 246.611876 246.611876 0 0 1 21.708429 14.76379l8.230684 6.275897 1.080278 10.288355c0.360092 3.703808 0.720185 7.870592 1.080277 12.294584 4.115342 51.441776 6.37878 145.683111 6.790315 193.060987v45.577414c0.514418 196.147493-84.467397 337.869587-155.765699 422.2341-77.162665 91.257711-153.965237 136.012057-157.206069 137.812519" fill="#BB935C" p-id="15672"></path><path d="M861.648485 407.624636V397.90214v-13.837838c-0.411534-47.737968-2.674972-142.802371-6.841756-194.707123-0.411534-5.144178-0.771627-9.208078-1.13172-12.860444l-1.080277-10.288356-0.462976-4.526876-0.565859-5.50427-4.423993-3.395157-3.600924-2.777856-8.333568-6.327339a261.427107 261.427107 0 0 0-23.817543-16.204159 553.873606 553.873606 0 0 0-62.295991-31.945343C653.87515 49.22978 529.33461 6.37878 524.087548 4.578318L518.583278 2.623531 515.136679 1.44037 511.124221 0l-4.166784 1.491812-3.652366 1.440369-5.50427 1.903346c-1.028836 0.360092-115.075254 40.381794-208.750729 85.187582-18.004622 7.716266-34.877524 15.432533-49.53843 23.200241A346.717573 346.717573 0 0 0 187.401122 145.580227l-8.1278 6.327339-3.652367 2.829297-4.372551 3.395157-0.514417 5.504271-0.462976 4.526876-1.028836 10.288355c-0.771627 7.767708-1.44037 17.541646-2.160554 28.910278C163.89223 261.992967 162.451861 344.145484 162.297535 386.01909v45.731739c0.514418 203.246458 89.20004 349.804079 163.533407 436.637798 80.300613 94.035567 160.704109 140.281724 164.047825 142.236511l11.934492 6.738873 5.144178 2.983623 6.37878 3.652366 6.37878-3.652366 5.144178-3.035065 11.88305-6.841756c3.343715-1.903346 83.438561-48.458153 163.379082-143.008138 73.921833-87.45102 161.835828-234.162966 161.372852-437.255099v-22.325731zM518.789045 1006.04682l-5.144177 3.035065-5.144178-2.983623-11.934492-6.790315c-3.292274-1.851904-81.895308-47.120667-160.652667-139.355772-73.150206-85.393349-160.189692-229.018788-160.70411-428.407113v-21.656988-10.494122-13.734955c0-41.822164 1.594695-123.768914 4.784085-177.988546 0.668743-11.214307 1.388928-20.576711 2.109113-28.39586l1.028836-10.288356 0.462976-4.526876 3.600924-2.829298 8.179243-6.327338a326.500954 326.500954 0 0 1 50.155731-31.122275c14.403697-7.510499 30.865066-15.432533 49.126897-23.045916 93.315382-44.445695 206.17864-84.004421 207.413242-84.364513l5.452828-1.954787 3.446599-1.183161 3.446599 1.183161 5.504271 1.851904c1.286044 0.411534 128.29579 43.776952 223.926052 90.537526a536.074751 536.074751 0 0 1 60.907063 31.225158 248.103687 248.103687 0 0 1 22.737265 15.432533l8.179243 6.275897 3.600924 2.777856 0.462976 4.526876 1.080277 10.288355c0.360092 3.549483 0.720185 7.664825 1.131719 12.551794 4.115342 51.441776 6.37878 146.24897 6.841757 193.781171v45.834623c0.462976 199.336883-85.804883 343.373857-158.337788 429.127298-78.294384 92.595197-156.640209 138.275495-159.932483 140.127399z" fill="#72253D" p-id="15673"></path><path d="M684.688774 536.89782v-25.309354l-6.173013-6.275897c-79.94052-75.413644-249.698382 24.280518-307.364614 72.275696l-28.447302 44.239928 35.494826-8.847986c-54.373958 68.571888-34.774641 113.171908-32.459761 118.007435 5.761479 16.152718 18.879132 29.013162 40.176027 37.449613a122.277102 122.277102 0 0 0 50.10429 6.37878c67.800261-3.343715 147.792223-45.783181 199.439767-90.897618l1.183161-1.028836 10.288355-51.956194-20.062292 11.214307a1251.32121 1251.32121 0 0 1-126.032353 47.943736c-36.729428 11.522958-53.602331 13.426304-65.639706 10.699889l-1.491812-0.462976a5.967246 5.967246 0 0 1-3.909575-5.144177c-0.56586-22.994474 38.838541-72.532905 58.746509-93.932684a235.809103 235.809103 0 0 1 72.018487-52.41917c16.51281-6.996082 27.2127-9.825379 32.202552-9.310962a109.519542 109.519542 0 0 1-6.790315 15.998393s-26.441073 52.41917-27.52135 54.373957z" fill="#BB935C" p-id="15674"></path><path d="M527.688473 533.554104a265.439566 265.439566 0 0 0-56.946047 45.114438c-66.514217 71.092535-113.171908 166.105496 32.871295 120.270873a1270.611876 1270.611876 0 0 0 127.061188-48.406711c-198.925349 168.883352-387.047925 98.922536-202.577715-78.603035-16.821461 3.909575-33.848689 7.613383-50.464383 12.294585 59.158043-49.178338 221.559731-141.104793 294.298403-72.018487l-77.162665 47.737969c33.128504-65.331056-26.801165-49.847081-66.874309-26.183865" fill="#72253D" p-id="15675"></path><path d="M381.64527 182.875515l9.516728 9.413845 0.051442 6.841756-10.802773 10.802773v-14.866673l-1.388928-1.337486h-6.121571l-1.337486 1.337486 0.102883 40.639003 1.337486 1.388928 6.121572-0.051442 1.388928-1.388928-0.051442-6.224454 10.802773-10.854215 0.051442 19.753642-9.465287 9.516728-11.471516 0.051442-9.516729-9.516728-0.102884-45.988948 9.465287-9.465287 11.420075-0.051442zM407.469041 182.824073l0.154326 54.168191 16.204159-0.051442-1.954787 10.802773-25.052145 0.051442-0.102884-61.627248-0.668743-3.292274 11.420074-0.051442zM452.532037 182.72119l0.051442 10.802773-13.580629 0.051441 0.051442 14.197931 10.854215-0.051442 0.051442 9.516729-10.905657 0.051441 0.051442 19.599317h13.580629v10.802773l-24.33196 0.051442-0.154326-60.907063-0.668743-4.063901 25.000703-0.051441zM491.42202 182.618306l-9.259519 64.970964-11.934492 0.051441-6.121572-8.1278-7.81915-56.791721 10.802773-0.051442 6.94464 53.396564 6.584547-53.396564 10.802773-0.051442zM520.07509 182.566864v10.802773h-13.529187l0.051441 14.197931h10.854215l0.051442 9.516728h-10.905657l0.051442 19.650759h13.580629v10.751331l-24.33196 0.051442-0.154325-60.855622-0.668743-4.0639 25.000703-0.051442zM536.382133 182.515422l0.154325 54.168191 16.20416-0.051442-1.954788 10.802773-25.000703 0.051442-0.154325-61.627248-0.668743-3.343716h11.420074zM581.393687 182.412539l9.671054 64.919522h-10.905656l-1.646137-12.911886h-10.288356l-1.594695 12.809002h-10.802773l8.590777-60.907063-0.668743-4.0639z m-11.831608 41.153421h7.561941l-3.806692-29.784788zM625.530731 247.229177l-10.13403 0.051442-10.236913-35.237617v0.102884l0.102883 35.134733-10.802773 0.051442-0.154325-60.907064-0.771627-4.0639h10.905657l10.236914 33.025621-0.102884-33.077063h10.802773l0.154325 64.919522zM661.951509 191.620617v46.760575l-8.847986 8.796543h-22.32573V186.116347l-0.617302-3.858133h22.325731z m-10.905657 2.777856l-1.388928-1.337486h-8.076358v43.365417h8.436451l1.337486-1.337486zM257.156171 271.92123l20.113734 19.805084 0.051442 14.403697-22.737265 22.891591-0.102883-31.379484-2.932182-2.932181-12.809002 0.051441-2.932181 2.932182 0.205767 85.701999 2.932181 2.88074h12.860444l2.88074-2.932182v-13.220536l22.737265-22.840149 0.102883 41.667839-20.010851 20.113735-24.177635 0.051441-20.113734-20.010851-0.205767-97.224957 19.959409-19.907967 24.177635-0.051442zM337.251017 271.715463l20.57671 137.092334h-23.148799l-3.600924-27.006933h-21.656988l-3.395158 27.109816h-22.788706l18.210388-128.604441-1.234602-8.487893z m-25.000704 87.142369h15.946951L320.172347 296.150306zM425.833756 271.509696l-19.496434 137.195217-25.20647 0.051442-12.911886-17.130112-16.564252-119.962222 22.788707-0.051442 14.660906 112.760374 13.940722-112.811816 22.788707-0.051441zM475.114977 271.406812l20.576711 137.040892h-22.943032l-3.498041-27.109816h-21.862755l-3.137949 27.264142h-22.994474l18.210389-128.604441-1.440369-8.590777zM450.268599 358.549181h15.946951l-8.024917-62.964734zM526.145219 271.252487l0.257209 114.355069 34.311665-0.102884-4.218226 22.788707-52.830704 0.154325-0.30865-130.096252-1.388928-7.047524 24.177634-0.051441zM592.659436 271.098161l0.360093 137.143776-22.840149 0.051442-0.308651-128.604441-1.543253-8.539335 24.33196-0.051442zM655.727054 270.943836l0.051442 22.788707-28.601628 0.051442 0.051442 29.990555 22.994474-0.051441 0.051442 20.062292-22.994474 0.051442 0.102883 41.513514 28.65307-0.102884 0.051442 22.840149-51.441777 0.102883-0.308651-128.552999-1.388927-8.590776 52.779262-0.102884zM713.187518 270.789511l19.959409 19.856525v34.260223l-18.82769 12.757561 18.930574 24.434844v45.783181h-22.788707v-37.192405l-14.146488-20.988244-6.018688 3.961016v54.322516h-22.788707l-0.308651-128.604441-1.388928-8.590776z m-22.840148 60.083994l20.010851-14.455139v-19.907967l-2.88074-2.88074h-17.130111zM787.67521 313.434743l-0.051441-17.130111-2.932182-2.932181-14.19793 0.051441-2.932181 2.932182 0.051442 17.130111 42.953883 34.208781 0.102883 39.918819-19.856525 20.113734-25.720888 0.051442-20.062293-20.010851-0.102884-39.918818 22.788707 14.146488 0.051442 20.062293 2.932181 2.932181 14.249372-0.051442 2.88074-2.932181-0.051442-22.788707-42.953883-34.363106-0.051442-34.260223 20.010851-19.95941 25.720888-0.051441 19.907968 19.856525 0.102883 37.192405-22.840149-14.197931z" fill="#BB935C" p-id="15676"></path></svg>