<svg t="1712738551889" class="icon" viewBox="0 0 1024 1024" version="1.1" xmlns="http://www.w3.org/2000/svg" p-id="5443" width="200" height="200"><path d="M968.171143 481.426603a460.675525 460.675525 0 0 0-410.564266-457.553169 54.973946 54.973946 0 0 0-8.189787-6.603016c-36.905228-23.699196-67.668116-6.091154-89.012749 4.299639l-5.118617 2.66168a455.556909 455.556909 0 0 0-115.117695 28.664255 113.172621 113.172621 0 0 0-14.843989-18.119904A117.72819 117.72819 0 0 0 124.060021 118.0048a116.806839 116.806839 0 0 0 26.053761 73.964015A460.675525 460.675525 0 0 0 327.72979 905.60639c-3.019984 24.364617 0.972537 40.948936 5.425734 47.654324-6.807761 5.681665-9.623 9.264697-10.69791 15.662968-10.697909 14.588058 15.355851 33.066265 25.951388 41.256052 21.958867 16.789064 33.475755 13.871452 50.571936 13.154846 21.088702-0.870165 40.948936-25.593085 52.312265-41.614356 22.777845-3.224729 27.026297 0.358303 27.742904 3.173543a116.499722 116.499722 0 0 0 30.711702-8.548091c30.711702-12.898915 22.061239-28.817813 18.887696-31.633053a10.237234 10.237234 0 0 1-2.201005-3.019984 456.683004 456.683004 0 0 0 205.410098-57.533254 91.725616 91.725616 0 0 1 6.756574 8.599276c6.756574 9.930117 10.237234 42.330962 11.721633 59.06884s4.248452 28.101207 12.438239 54.410898 11.414516 7.166064 11.772819 0 1.791516-32.707962 0.716607-51.186169-1.433213-45.197388 2.098633-56.560718a13.001287 13.001287 0 0 0-4.606756-16.379574c-1.791516-2.149819 0-2.866425-4.657941-17.403297a20.730399 20.730399 0 0 1-0.614234-2.559309 462.6206 462.6206 0 0 0 66.030159-54.871574A457.450797 457.450797 0 0 0 968.171143 481.426603z" fill="#FFFFFF" p-id="5444"></path><path d="M968.171143 481.426603a460.675525 460.675525 0 0 0-410.564266-457.553169 54.973946 54.973946 0 0 0-8.189787-6.603016c-36.905228-23.699196-67.668116-6.091154-89.012749 4.299639l-5.118617 2.66168a455.556909 455.556909 0 0 0-115.117695 28.664255 113.172621 113.172621 0 0 0-14.843989-18.119904A117.72819 117.72819 0 0 0 124.060021 118.0048a116.806839 116.806839 0 0 0 26.053761 73.964015A460.675525 460.675525 0 0 0 327.72979 905.60639c-3.019984 24.364617 0.972537 40.948936 5.425734 47.654324-6.807761 5.681665-9.623 9.264697-10.69791 15.662968-10.697909 14.588058 15.355851 33.066265 25.951388 41.256052 21.958867 16.789064 33.475755 13.871452 50.571936 13.154846 21.088702-0.870165 40.948936-25.593085 52.312265-41.614356 22.777845-3.224729 27.026297 0.358303 27.742904 3.173543a116.499722 116.499722 0 0 0 30.711702-8.548091c30.711702-12.898915 22.061239-28.817813 18.887696-31.633053a10.237234 10.237234 0 0 1-2.201005-3.019984 456.683004 456.683004 0 0 0 205.410098-57.533254 91.725616 91.725616 0 0 1 6.756574 8.599276c6.756574 9.930117 10.237234 42.330962 11.721633 59.06884s4.248452 28.101207 12.438239 54.410898 11.414516 7.166064 11.772819 0 1.791516-32.707962 0.716607-51.186169-1.433213-45.197388 2.098633-56.560718a13.001287 13.001287 0 0 0-4.606756-16.379574c-1.791516-2.149819 0-2.866425-4.657941-17.403297a20.730399 20.730399 0 0 1-0.614234-2.559309 462.6206 462.6206 0 0 0 66.030159-54.871574A457.450797 457.450797 0 0 0 968.171143 481.426603z" fill="#2D2A26" p-id="5445"></path><path d="M398.878565 911.390427a183.451231 183.451231 0 0 0 51.698032-10.800282c1.433213 0.358303 3.73659 1.74033 7.319622 3.173543 1.382027-11.36333-5.886409-35.062526-10.237234-46.067553-2.712867-7.166064-5.118617-12.079936-8.54809-19.553116a170.808248 170.808248 0 0 1-29.483234-10.339607c0 6.756574 1.228468 24.364617 2.661681 36.137436-3.583032 0.358303-8.54809 0.716606-14.588058 0.716606 0.716606 12.796542 2.149819 35.830319 1.433212 46.579415zM720.941944 873.512662c-3.224729-3.173543 3.890149-13.154846 7.114877-31.633053s3.531846-49.497026-10.237233-66.95151a61.935265 61.935265 0 0 1-10.902655-17.659228 336.549064 336.549064 0 0 1-141.785689 59.785446 22.931404 22.931404 0 0 1-1.74033 2.712867 127.965424 127.965424 0 0 1-32.759148 29.227302 190.514923 190.514923 0 0 1-29.892723 12.079936c-1.433213 11.36333-3.275915 36.802856-0.358303 45.555691 1.07491 3.173543 14.229755 11.056213 18.887696 19.553117 0.460676 0.921351 0.870165 1.791516 1.33084 2.610495A444.091207 444.091207 0 0 0 721.863295 874.382827l-0.870165-0.870165zM824.235634 165.300821a443.681717 443.681717 0 0 0-256.391523-127.044073 113.530924 113.530924 0 0 1 9.674186 44.173664c13.871452-6.039968 24.518175-9.264697 30.251026-18.529393s13.513149-7.473181 18.478207-0.716607 5.118617 15.355851-8.138601 23.494452a209.504992 209.504992 0 0 1-25.593084 13.513149c-2.866425 1.433213-0.358303 3.941335 2.866425 9.264697s11.312143 18.529393 12.796542 46.067552a4.402011 4.402011 0 0 0 0 0.818979A340.643958 340.643958 0 0 1 813.9984 629.866495c2.968798 1.484399 6.961319 11.824005 8.292159 25.593085a45.146201 45.146201 0 0 1-1.740329 19.962606 200.496226 200.496226 0 0 1-27.435787 37.724207 10.237234 10.237234 0 0 1-13.871452-2.149819c-3.173543-4.606755-3.531846-2.149819-6.039968 0.358303s-11.056213 14.946361-13.154846 18.119904-9.264697 6.449457-4.657941 19.245999 9.981303 22.419542 8.189787 29.53442-2.456936 9.264697 7.114878 17.454484 9.264697 18.119904 5.118617 24.518175a74.680621 74.680621 0 0 0-8.548091 25.593085A447.162377 447.162377 0 0 0 824.235634 165.300821zM310.22412 811.9357c-1.228468-12.02875-3.07117-33.834058 5.374548-49.343468a344.636479 344.636479 0 0 1-48.473303-40.334701 339.876165 339.876165 0 0 1 7.114878-487.804195A23.084962 23.084962 0 0 1 276.54362 230.614373a117.72819 117.72819 0 0 1-117.72819-29.022558 447.878983 447.878983 0 0 0 171.012993 690.757357 208.378896 208.378896 0 0 1 9.264696-31.27475c3.890149-10.237234-2.149819-34.141175-12.131122-46.6306a99.045238 99.045238 0 0 0-16.737877-2.508122zM428.873661 41.225546a439.689196 439.689196 0 0 0-82.307361 22.880217 118.035307 118.035307 0 0 1-9.623 123.461041A338.289394 338.289394 0 0 1 416.179491 153.835119c1.791516-1.791516 3.634218-3.48066 5.47692-5.118617-10.237234-17.096181-24.211058-44.480781-12.131122-81.488382A60.246121 60.246121 0 0 1 428.873661 41.225546z" fill="#007934" p-id="5446"></path><path d="M607.769323 175.99873a30.251026 30.251026 0 0 1 16.737878 35.830319c-1.791516 8.189787-8.650463 16.072457-9.264697 19.245999-1.07491 5.118617-12.284681 14.383314-15.816526 21.498192a23.443266 23.443266 0 0 0-3.071171 16.123643 93.721876 93.721876 0 0 0 25.593085 14.946361c5.579292 1.945074 5.118617 3.429473 2.815239 7.114878 3.941335 0.358303 5.937596 2.764053 9.623 7.114878s14.229755 1.791516 20.474468-1.433213a15.970085 15.970085 0 0 1 21.037516 3.583032 130.729477 130.729477 0 0 1 20.474468 35.830318 181.096668 181.096668 0 0 0 11.056212 26.667995c1.382027 2.149819-5.118617 41.307239-6.80776 56.970206s-3.173543 22.419542-3.531846 24.927665 10.237234-8.906393 10.237234 4.606755a529.82804 529.82804 0 0 0 11.107399 70.995217c1.484399 6.500644 3.019984 12.438239 4.504382 17.249739 4.299638 0.716606 7.831484 9.264697 10.237234 22.419542s7.831484 21.344633 8.189788 27.742904 2.149819 7.473181 4.248452 8.548091 1.433213 4.299638-5.118617 11.721632a59.683074 59.683074 0 0 1 5.118617 4.657942c1.791516-1.791516 6.756574-7.473181 6.756574-7.473181s19.604303 7.831484 23.852755 9.264697 9.367069-9.111138 22.061239-3.583032a27.691718 27.691718 0 0 1 10.237234 11.107399 332.710102 332.710102 0 0 0-200.752157-457.246052c0 5.118617-0.409489 9.520628-0.409489 11.260957zM710.602338 735.821866c-5.118617-2.508122-8.240973 1.07491-10.69791-18.529394a34.243547 34.243547 0 0 0-8.855207-16.686691 16.43076 16.43076 0 0 1-2.149819-16.072457 68.179978 68.179978 0 0 0 3.224728-24.159872 18.887697 18.887697 0 0 1 11.005027-20.474468 31.070005 31.070005 0 0 1-6.398271-12.796542c-14.588058-4.8115-17.50567-5.118617-20.474468-12.284681a187.75087 187.75087 0 0 1-9.520628-38.594372 104.675717 104.675717 0 0 1-1.33084-12.796542c-4.657941-8.855207-15.048734-28.510696-23.084962-43.252313-2.917612-5.528106-5.579292-10.237234-7.524367-13.717894-7.114878-12.438239 0-28.817813 3.583031-38.440813s6.398271-18.119904 3.173543-27.742904a79.748052 79.748052 0 0 1-3.890149-15.662968c-0.716606-3.890149-3.941335-8.906393-8.189787 4.657942s-12.438239 33.424569-17.096181 54.052595a140.506035 140.506035 0 0 0-3.838962 36.854042 69.459632 69.459632 0 0 0 6.347085 26.872739c9.264697 19.194814 20.474468 37.007601 18.83651 47.654323a32.656776 32.656776 0 0 1-3.890149 12.847729 377.958676 377.958676 0 0 1-15.355851 71.660637c-4.606755 11.414516-22.777845 52.670568-26.71918 70.125052a451.154898 451.154898 0 0 1-18.222276 58.915282 331.481634 331.481634 0 0 0 143.321274-65.108808c1.228468-3.019984 0.972537-5.784037-2.098633-7.319622zM315.086806 268.799255a46.067553 46.067553 0 0 0 15.816526 13.257218c17.403298 8.906393 20.986329 15.355851 20.98633 30.711702s2.866425 46.6306 7.831484 51.953962a55.844111 55.844111 0 0 0 7.47318-9.264697 102.372339 102.372339 0 0 0 30.967633 37.007601c1.07491 0.767793 0.563048 4.657941 3.173543 5.374548 5.374548 1.382027 39.874026 6.756574 40.948935 13.871451a130.473546 130.473546 0 0 0 20.474468-30.711701 180.738364 180.738364 0 0 1 23.852755-35.830319 36.854042 36.854042 0 0 1 0.358303-7.831484 46.067553 46.067553 0 0 1-12.131122 9.981303c-5.681665 2.456936-25.593085 11.005026-39.82284 18.119904-5.118617 2.508122-13.871452 5.118617-17.454484-20.474468s0-39.515723 2.508123-45.55569 7.114878-11.414516 16.021271-8.906394a251.682395 251.682395 0 0 0 27.026297 7.831484c0.716606-2.866425 3.224729-8.189787-6.398271-9.264697a54.666829 54.666829 0 0 1-34.755409-19.655489A36.802856 36.802856 0 0 1 414.746278 247.556995c-20.474468 3.173543-66.95151 9.264697-77.23993 11.721633s-19.092441 4.606755-22.419542-18.836511c-1.433213-10.237234-3.941335-23.852755 3.224729-18.887696a33.117452 33.117452 0 0 1 27.3846-7.114878 10.237234 10.237234 0 0 1 6.654202 4.504383 33.424569 33.424569 0 0 1-2.40575 14.383314c-3.07117 9.520628-9.059952 16.328388 10.237234 11.926377 20.474468-4.709128 46.067553-8.54809 52.824127-10.237234a58.249861 58.249861 0 0 1 13.35959-25.593084 31.325936 31.325936 0 0 0 8.189788-16.737878c0.358303-2.508122-1.996261-3.07117-5.118617 0s-15.662968 10.697909-26.719181 7.831484c-4.248452-1.126096-9.623-9.264697-12.438239-13.871452a120.952919 120.952919 0 0 1 15.355851-21.856494 328.973511 328.973511 0 0 0-104.931648 56.304786 86.709371 86.709371 0 0 0 2.917612 23.238521 67.258627 67.258627 0 0 0 11.260957 24.108686zM339.809726 755.016679c14.588058-5.681665 26.05376-5.425734 37.365904 9.623 3.173543 4.248452 5.681665 16.737877 33.066265 5.681665C395.653837 752.713302 386.901002 732.238834 378.915959 704.49593c-12.642984-43.815361-40.948936-93.619504-30.711701-116.397349-6.039968-5.681665-13.154846-27.742904-20.474468-25.234782-5.118617 1.637957-12.079936 1.74033-6.398271-14.946361a102.372339 102.372339 0 0 1 14.792803-27.589346 249.839693 249.839693 0 0 1 49.957701-48.575675c2.149819-1.791516 2.508122-3.224729 1.07491-4.657941a42.689265 42.689265 0 0 0-7.473181-6.756575 5.630479 5.630479 0 0 0-7.114878 1.433213 53.694292 53.694292 0 0 1-7.831484 6.039968c-2.098633 1.433213-19.194814-15.355851-28.101207-27.3846a52.721755 52.721755 0 0 0-20.986329-17.454484c3.531846-3.890149 11.568074-12.387053 8.54809-11.36333A21.856494 21.856494 0 0 1 299.9357 404.647349c-11.772819-12.438239-7.114878-18.887697-9.623-20.474468s-15.355851 1.023723-24.876478-13.922638S251.974259 348.342563 259.703371 338.105329a15.816526 15.816526 0 0 0 4.299638-14.588059c-1.07491-6.807761 0-11.056213 8.906393-19.604302s14.229755-16.379574 18.119904-15.662968-5.886409-10.749096-11.312143-19.297186A46.477042 46.477042 0 0 1 276.54362 262.86166a55.434622 55.434622 0 0 1-4.146079-15.765341 332.300612 332.300612 0 0 0 0.25593 469.786664 342.128357 342.128357 0 0 0 47.398393 39.413351 13.35959 13.35959 0 0 1 19.757862-1.126096z" fill="#FFFFFF" p-id="5447"></path><path d="M150.67683 53.151923c29.176117 7.473181 51.186169 31.070005 60.65561 44.224851 2.456936 3.327101 5.118617 2.815239 6.039968 0.358303a118.547169 118.547169 0 0 0 6.398272-35.830319c0-29.841537 4.094894-41.716728 11.568074-55.58818a111.58585 111.58585 0 0 0-84.661924 46.6306zM133.222346 144.72398c54.769201 5.118617 71.660637-25.593085 75.397227-30.302212s-0.716606-7.473181-2.508122-9.930117c-9.469441-13.257218-30.711702-36.75167-59.836632-44.22485A111.790594 111.790594 0 0 0 133.222346 144.72398z" fill="#993921" p-id="5448"></path><path d="M350.507635 142.574161c-23.136149-9.623-50.571935-0.716606-70.176238 16.379575S250.950536 189.153576 244.040403 229.693022h-2.456936a111.073988 111.073988 0 0 1-75.192483-29.176117c33.475755-8.54809 61.679334-23.852755 93.312387-53.745478a188.979338 188.979338 0 0 0 51.595658-81.078892c4.299638-16.379574-1.74033-6.756574-5.118617 0.716606a234.279098 234.279098 0 0 1-53.745478 72.940292C220.238834 169.600459 195.311169 184.54682 161.528297 195.91015a111.022802 111.022802 0 0 1-25.593084-41.256053c11.36333 0.716606 47.244834-3.429473 65.21118-18.119904 23.596824-19.399558 26.360877-42.382148 29.534419-75.141297s8.036229-42.433335 15.816527-54.922759A111.688222 111.688222 0 0 1 353.322875 118.0048a110.408568 110.408568 0 0 1-2.712867 24.518175z" fill="#993921" p-id="5449"></path><path d="M347.436465 153.835119c-5.118617-7.473181-24.415803-11.056213-54.615643 7.831483-2.866425 1.791516-4.8115 3.019984-1.433213 6.398272a110.715685 110.715685 0 0 1 22.777846 34.908967 111.790594 111.790594 0 0 0 33.27101-49.138722zM305.259061 209.832788a155.913072 155.913072 0 0 0-17.7616-34.908968c-3.275915-4.197266-3.941335-6.039968-10.237234-0.66542-16.84025 14.843989-23.340893 37.314718-26.872739 55.127505a111.432291 111.432291 0 0 0 54.615643-19.553117z" fill="#993921" p-id="5450"></path><path d="M274.649732 334.727042c-4.606755-1.433213-8.189787 3.890149-10.237234 8.189787s-4.657941 8.906393 2.098633 18.529393 11.005026 15.355851 22.777846 14.588058A18.682952 18.682952 0 0 0 301.727216 368.81703c1.74033-2.508122 2.098633 1.74033-0.716607 6.039968a19.399558 19.399558 0 0 0 0.358304 20.98633c5.118617 6.756574 16.379574 12.438239 30.967632 3.941335a58.556978 58.556978 0 0 0 23.084963-23.494452c2.508122-4.657941 2.508122-6.756574 0-9.623S344.774784 350.390009 343.085641 323.722015c-1.07491-16.021271 1.791516-26.360877-8.189787-32.042542S302.136705 272.484659 299.219093 245.970224c-1.07491-10.237234-0.358303-25.285968-10.237233-17.096181a26.002574 26.002574 0 0 0-11.005027 19.91142c-1.07491 6.091154 3.890149 14.280941 8.189787 19.962606s9.213511 18.119904 13.154846 21.344633 6.398271 5.681665 9.623 6.039968a172.958067 172.958067 0 0 1 19.194813 1.433212c3.224729 1.07491 5.118617 5.118617-2.815239 5.118617a217.080545 217.080545 0 0 0-25.285968 2.81524c-5.118617 0.716606-10.237234 1.07491-12.796542 11.721633s-6.091154 23.136149-6.449458 27.077483-2.456936 6.039968-2.456936 8.189787 4.248452 12.438239 13.871452 2.098633a71.660637 71.660637 0 0 0 15.355851-25.593084c1.791516-5.118617 3.890149-4.299638 2.149819 3.531845s-2.303378 27.435787 1.382027 34.192361 12.182308 14.741617 22.470728 9.623a16.891436 16.891436 0 0 1 8.343346-2.40575c2.866425 0.358303-0.511862 5.118617-3.019984 7.473181s-10.646723 11.209771-25.081223-1.791516a32.707962 32.707962 0 0 1-9.623-19.194813 3.327101 3.327101 0 0 0-6.039968-1.433213c-1.791516 2.508122-11.36333 11.36333-18.119904 5.118617s-9.571814-9.930117-5.732851-23.494452c0.716606-2.456936 2.098633-5.118617 0.358303-5.681665z" fill="#E69E6C" p-id="5451"></path><path d="M281.662237 314.815622c-1.535585 4.606755-2.815239 10.646723-3.531845 12.796542s-3.941335 6.756574-6.756575 0.716606a12.02875 12.02875 0 0 1 1.74033-15.35585c1.433213-1.433213 3.583032-4.248452 5.118617-2.866426s3.890149 3.583032 3.531846 4.657941zM297.785881 298.436047c-2.917612 1.484399-9.162324 1.433213-11.36333 6.398272-1.433213 3.224729-7.114878-0.358303-4.299638-4.248453s5.118617-3.583032 6.756574-4.657941 2.508122-4.248452 6.091154-2.456936 4.248452 4.248452 2.81524 5.118617zM532.474468 122.253252c-10.237234 1.07491-19.246 7.166064-28.45951 13.564335s-42.689265 34.499478-50.571936 40.181143c8.189787 4.299638 10.237234 12.847729 7.473181 27.077484-0.614234 3.122356 0 4.248452 2.149819 2.098633s12.079936-12.796542 11.772819-21.344633a26.002574 26.002574 0 0 0-5.118617-14.588058c-0.716606-1.07491 2.866425-5.118617 6.756574 3.583031s2.866425 21.344633-8.855207 35.216085-21.037516 13.513149-26.002574 16.021271-9.981303 6.398271-5.118617 13.871452 13.513149 4.606755 17.044994 2.149819a26.360877 26.360877 0 0 1 19.962607-4.299638c11.36333 1.07491 15.355851-6.14234 7.47318-13.871452-2.508122-2.508122-8.906393-8.189787-1.074909-8.189787 4.606755 0 10.237234 10.237234 13.513148 13.154845s10.237234 3.941335 19.91142 4.657942 24.569361 4.248452 24.569362 13.513149c0 5.681665-3.07117 7.370808-7.114878 2.866425-1.586771-1.791516-3.890149 1.023723-5.681665 2.815239-6.039968 6.091154-21.549377 22.419542-32.554403 25.285968s-15.355851-0.358303-29.739165-8.189787-28.101207-15.662968-31.991356-18.17109-12.131122-8.189787-8.189787 3.224729 13.513149 23.136149 32.707962 29.534419A134.107764 134.107764 0 0 1 481.288298 293.112686c4.248452 2.098633 1.791516 4.248452-3.941335 3.531845-5.118617-0.614234-10.237234-5.118617-6.039968 4.657942s10.697909 19.91142 30.251026 17.403298 20.116165-6.603016 32.400846-27.026298c2.098633-3.583032 4.248452-1.07491 2.815239 8.189787a92.749339 92.749339 0 0 1 20.474468-7.473181 47.398393 47.398393 0 0 0 30.251026-24.569361c5.118617-9.264697 7.677925-12.438239 6.807761-22.061239-0.358303-3.583032 5.118617-10.697909 10.237233-15.662968s19.91142-23.852755 12.489426-37.365904-19.962606-6.756574-26.002574 3.224729a71.046403 71.046403 0 0 0-13.154846 38.08251 8.95758 8.95758 0 0 0-10.697909 3.531846c-1.07491 1.791516-16.737877-0.358303-22.061239 1.074909s-7.114878-1.791516-1.433213-9.264696 25.593085-34.550664 24.569361-54.820388a31.018819 31.018819 0 0 1 1.433213-11.721633c1.228468-5.886409 1.791516-5.937596-5.528106-10.237234-4.760314-2.610495-5.118617-9.981303-5.88641-15.662967s-2.047447-6.039968-8.855207-4.606756c-5.118617 1.07491-13.564335-3.941335-17.454484-10.237234z" fill="#E69E6C" p-id="5452"></path><path d="M490.655367 233.685543c-1.945074 4.402011-7.319622 8.701649-19.706675 7.268436-6.244713-0.716606-12.335867-0.767793-13.35959 4.094894-0.716606 3.378287-3.531846 3.173543-7.473181 3.019984s-8.54809-1.228468-8.752835 0 17.454484 11.926377 23.340893 14.588058 14.4345 9.008766 21.344633 8.343346c9.264697-0.870165 17.300925-5.47692 30.711702-19.91142 5.630479-5.988782 10.237234-9.111138 4.8115-11.568075a27.282228 27.282228 0 0 0-12.079936-2.149819c-4.8115 0-15.355851-0.716606-19.092442-3.890149zM424.318092 233.839101c-4.8115 0-5.118617-3.73659-2.149819-9.059952a45.504505 45.504505 0 0 1 10.237233-13.513148 11.568074 11.568074 0 0 0 4.299639 6.398271 16.737877 16.737877 0 0 0-5.937596 14.280941l-6.705388 1.893888z" fill="#E69E6C" p-id="5453"></path><path d="M532.474468 211.726676a42.023845 42.023845 0 0 1-21.65175-6.398271c-6.603016-4.504383-8.804021-6.654202-7.626739-13.308404 0.716606-4.094894 1.07491-6.347085 1.33084-7.831484s0.307117-1.842702 0.460676-2.661681a7.933856 7.933856 0 0 0-0.563048-6.295899 2.559308 2.559308 0 0 0-2.047447-0.921351 10.237234 10.237234 0 0 0-5.47692 2.661681c-3.73659-2.815239-7.319622-5.988782-9.930117-8.292159a52.824127 52.824127 0 0 0-4.453197-3.787777 3.275915 3.275915 0 0 1-1.740329-2.201005 3.173543 3.173543 0 0 1 1.177282-2.40575 2.661681 2.661681 0 0 1 2.047446-0.614234h0.870165a3.429473 3.429473 0 0 0 2.610495-0.870165c0.767793-0.921351 0.921351-2.354564 0.614234-4.8115 0 0 0-0.409489 1.842702-0.409489h2.661681a4.248452 4.248452 0 0 0 1.893888-0.307117 2.40575 2.40575 0 0 0 1.177282-1.74033c0-0.818979 0-1.126096 1.484399-1.126096a11.005026 11.005026 0 0 1 2.764053 0.460676h0.563048a2.559308 2.559308 0 0 0 2.149819-1.586772v-0.307117a1.945074 1.945074 0 0 1 1.893888-1.074909h0.767793a21.702936 21.702936 0 0 1 2.559308 0.563048 12.02875 12.02875 0 0 0 2.712867 0.460675 3.122356 3.122356 0 0 0 3.07117-2.764053c0.66542-2.40575 1.126096-3.122356 2.098633-3.122356a8.240973 8.240973 0 0 1 3.787777 1.535585 7.319622 7.319622 0 0 0 3.787776 1.33084 3.122356 3.122356 0 0 0 3.173543-2.815239h0.460675a12.02875 12.02875 0 0 1 5.118617 1.842702l0.921351 0.563048a63.88034 63.88034 0 0 1 18.222277 15.048734 7.421995 7.421995 0 0 1 2.201005 4.094893H552.948936a3.48066 3.48066 0 0 0-3.429474 3.531846 5.118617 5.118617 0 0 1-0.972537 2.815239 5.784037 5.784037 0 0 1-0.614234-1.023723c-0.511862-0.921351-1.126096-1.945074-2.201005-1.945074h-0.563048a3.378287 3.378287 0 0 1-0.40949-0.870165c0-0.511862-0.716606-1.893888-1.99626-1.893889a2.354564 2.354564 0 0 0-1.535585 0.614234c0-0.511862-0.716606-1.842702-1.996261-1.842702a3.787777 3.787777 0 0 0-0.870165 0 4.299638 4.299638 0 0 1 0-0.511861 1.535585 1.535585 0 0 0-1.484399-0.870165 6.193527 6.193527 0 0 0-1.586771 0.307117 5.374548 5.374548 0 0 1-1.535585 0.358303 0.511862 0.511862 0 0 1-0.460675 0 1.74033 1.74033 0 0 0-1.586772-1.07491 3.941335 3.941335 0 0 0-1.791516 0.614234 2.917612 2.917612 0 0 1-1.279654 0.511862l-0.563048-0.358303a2.149819 2.149819 0 0 0-1.637957-1.023723c-0.818979 0-1.33084 0.716606-1.74033 1.228468v0.25593c-0.409489 0.511862-0.66542 0.716606-0.972537 0.716607H522.237234a2.917612 2.917612 0 0 0-1.228468 0 2.303378 2.303378 0 0 0-2.098633 1.382026c-0.307117 0.460676-0.358303 0.460676-0.460676 0.460676a1.279654 1.279654 0 0 1-0.614234 0 3.07117 3.07117 0 0 0-1.228468-0.307117c-1.433213 0-2.047447 1.228468-2.456936 2.047447s-0.563048 1.07491-0.818979 1.074909a5.988782 5.988782 0 0 0-1.484399 0c-1.996261 0-2.252191 1.689144-2.559308 3.531846v0.972537a146.597189 146.597189 0 0 0-1.586771 17.863973c0 2.866425 3.890149 2.866425 5.118617 2.866426a89.678169 89.678169 0 0 0 10.697909-1.126096 77.956536 77.956536 0 0 0 33.066266-13.513149 7.166064 7.166064 0 0 1 4.40201-1.99626 1.279654 1.279654 0 0 1 0.818979 0 9.213511 9.213511 0 0 1-3.019984 4.453196l-0.716606 0.614234a41.56317 41.56317 0 0 1-20.935144 10.237234 249.993252 249.993252 0 0 1-26.207319 4.350825 1.945074 1.945074 0 0 1-0.818978 0h-0.614234a1.228468 1.228468 0 0 0-1.228468 0.818978c0 0.66542 0 1.433213 1.023723 2.14982a6.603016 6.603016 0 0 0 4.350824 1.586771 6.500644 6.500644 0 0 0 1.433213 0c0.409489 0 1.689144 1.228468 2.661681 2.098633a17.403298 17.403298 0 0 0 11.36333 5.937595c6.398271 0 15.355851-6.858947 18.222276-8.957579a21.958867 21.958867 0 0 1 5.579292-2.81524 9.827745 9.827745 0 0 1-1.33084 1.433213l-0.460676 0.460676c-5.835223 5.886409-11.875191 11.926377-17.7616 12.079936zM607.769323 203.79282c-4.14608 2.917612-6.398271 3.890149-6.756574 8.855207s-1.33084 13.513149-3.224729 14.229755-2.098633-4.606755-2.815239-2.815239-4.094894 1.433213-5.118617-0.870165c-0.358303-1.023723-9.213511-0.921351-2.149819-11.260957a45.350946 45.350946 0 0 1 16.021271-16.328388c4.657941-2.149819 12.489425 2.098633 3.941335 8.189787z" fill="#2D2A26" p-id="5454"></path><path d="M781.955858 626.744139c-1.637957-4.197266 1.228468-11.209771 10.237234-6.244713s15.662968 9.264697 9.264697 28.817813-11.005026 30.711702-13.513149 39.15742-12.079936 18.478207-8.906394 4.606755a124.484764 124.484764 0 0 0 3.531846-39.106233c-2.456936-15.662968 2.559308-14.741617 0.921351-21.907681a35.267271 35.267271 0 0 0-1.433213-5.118617zM815.585171 643.635574c2.559308 7.677925 5.374548 25.285968 1.07491 32.400846a279.578858 279.578858 0 0 1-22.419542 31.684239c-5.118617 5.118617-8.906393 2.815239-5.681665-2.508123a59.017653 59.017653 0 0 0 7.473181-14.946361 23.750383 23.750383 0 0 1 3.890148-13.564335 344.380548 344.380548 0 0 0 12.489426-37.673021c0.66542-2.149819 2.456936 2.456936 3.173542 4.606755zM723.757183 709.460988c-2.098633-6.398271-3.173543-15.662968-6.756574-20.986329 2.866425-7.831484 12.233495-28.869 28.152393-35.216085a3.122356 3.122356 0 0 0 2.098633-3.941335c-0.716606-1.433213 2.149819-2.456936 3.583032 2.508123s3.890149 19.194814 3.890149 19.194813c0.716606 3.224729-0.716606 5.681665-1.382027 10.237234a63.214919 63.214919 0 0 0-1.433213 18.83651c1.023723 5.118617 2.815239 8.54809 12.796543 6.449458 5.118617-1.07491 4.606755-2.508122 6.039968-6.807761s5.118617-16.328388 6.756574-23.136148a85.327345 85.327345 0 0 0-1.228468-27.53816c-1.433213-4.299638 0.511862-18.682952-0.511862-21.549377s-1.791516-7.114878-10.697909-9.930117-11.36333-3.583032-17.454484 2.456936-8.189787 8.54809-11.005026 11.414516-9.981303 0.307117-3.941335-5.374548 11.772819-11.36333 13.513148-13.154845l-1.740329-4.657942h-3.224729a65.927786 65.927786 0 0 1-30.967633 17.096181c-3.224729 0.66542-9.264697 1.07491-5.118616 6.807761 1.07491 1.382027 1.382027 5.118617 3.890148 3.890148s6.398271-7.831484 9.981303-5.118617-0.716606 9.623-5.118617 12.796543a120.952919 120.952919 0 0 1-12.131122 8.189787 8.087415 8.087415 0 0 0-4.606755 9.264697 57.737999 57.737999 0 0 1-2.508122 23.852755c-3.224729 7.780298-1.433213 9.930117 1.433213 15.35585s7.473181 9.981303 8.906393 18.529394 2.149819 10.646723 7.831484 9.981303a11.926377 11.926377 0 0 0 10.237234-6.807761l0.66542-12.438239z" fill="#E69E6C" p-id="5455"></path><path d="M725.907002 725.840563a37.928952 37.928952 0 0 0-6.756574 17.09618c0 6.039968-6.039968 12.438239-5.118617 15.355851s8.54809 10.237234 13.154846 18.119904a71.967754 71.967754 0 0 1 10.646723 39.15742 273.794821 273.794821 0 0 1-7.268436 49.752957 9.111138 9.111138 0 0 0 2.815239 11.414515c5.118617 5.118617 13.871452 14.229755 17.096181 35.216085s5.118617 32.042542 6.756574 33.117452 1.07491 2.815239 1.07491 6.756574a136.615886 136.615886 0 0 0 6.039968 30.711702c2.508122 4.248452 2.149819-24.211058 1.791516-32.400846a514.830493 514.830493 0 0 1 1.740329-53.028871 21.088702 21.088702 0 0 0-2.098633-19.194814 42.075031 42.075031 0 0 1-7.114877-40.232329c6.398271-20.474468 16.737877-20.474468 13.513149-28.45951a59.120026 59.120026 0 0 0-13.154846-18.478207c-4.299638-4.657941-0.870165-15.662968-1.07491-20.474468-0.358303-8.54809-7.114878-9.981303-7.831483-19.553117s-1.433213-17.454484 5.681664-27.077484-2.456936-9.213511-5.681664-15.35585a37.007601 37.007601 0 0 1-2.14982-26.667995c1.433213-6.398271 0.716606-8.189787-1.074909-8.906393s-9.264697-2.149819-9.264697-2.149819l-11.005026 22.061239a43.917733 43.917733 0 0 1 2.508122 14.997547l-3.224729 18.119904z" fill="#993921" p-id="5456"></path><path d="M623.073988 292.754383c-8.752835 11.670447-22.419542 41.256053-28.817814 59.785446S573.423403 415.140514 583.660637 444.367817s30.711702 10.646723 35.216085-0.40949 11.772819-29.841537 13.922638-34.857781 3.173543-7.831484 7.114878 3.941335a346.274437 346.274437 0 0 1 9.571813 42.330962 176.694657 176.694657 0 0 1-8.138601 20.474468c-4.299638 11.056213-6.807761 18.887697-2.508122 25.593085s20.986329 35.830319 26.309691 48.012627c3.224729 7.524367 6.039968 8.906393 14.588058 6.756574a299.746209 299.746209 0 0 0 35.216085-12.079936c6.091154-2.815239 3.224729-7.831484 1.433213-13.871452-2.661681-9.213511-13.513149-60.502052-13.513149-67.258627s1.842702-15.355851-7.114878-5.681665c-3.173543 3.531846-7.473181 0-6.398271-5.118616s11.721633-74.373504 12.438239-82.870409c-6.039968-13.206032-23.801569-54.820388-28.817813-62.293568s-6.756574-7.831484-14.229755-3.941335-24.159872 9.930117-30.251026-4.248452c-1.07491-2.508122-2.815239-8.189787 1.433213-8.906394l-3.224729-1.074909a32.656776 32.656776 0 0 0-3.531846 3.583032zM716.284002 548.634044a180.53362 180.53362 0 0 1-38.389627 14.946361c-9.520628 1.433213-7.114878 3.890149-5.118617 11.005027s7.114878 28.45951 9.981303 35.830318 6.756574 7.370808 14.229756 7.114878a73.554526 73.554526 0 0 0 44.480781-18.119904c-3.941335-4.657941-10.749096-26.821553-12.796543-36.290994s-2.149819-20.474468-12.131122-14.588058zM512.358303 343.223946a9.725372 9.725372 0 0 1-8.855207 5.681665c-5.681665 0-10.237234-1.74033-13.922638 3.224728s-23.084962 28.817813-27.384601 43.405872c4.299638 8.906393 10.237234 24.927665 14.229755 36.290994 13.922638-11.721633 58.198675-54.973946 66.542021-63.317292 3.224729-3.224729 3.583032-6.091154-1.023724-9.264696s-21.754122-13.871452-24.569361-15.662968-4.299638-1.791516-5.118617-0.358303zM400.260592 405.927003a176.643471 176.643471 0 0 1-17.044994 45.197388c3.531846 5.681665 6.398271 10.646723 10.646723 12.438239a276.405315 276.405315 0 0 0 34.192361-30.967632 72.889105 72.889105 0 0 0 12.284681-18.171091c0-2.098633-2.508122-2.815239-5.681665-2.098632s-16.379574-4.555569-29.176117-7.114878c-3.583032-0.716606-4.657941-0.716606-5.118617 0.716606zM392.480294 395.229094c-3.941335-0.767793-17.454484-15.355851-22.112425-23.136149s-5.118617-7.114878-7.063691-1.433212a107.490956 107.490956 0 0 1-13.206032 24.211058c-4.606755 6.039968-16.686691 21.702936-19.91142 25.285967s0 5.118617 2.866425 7.831484 17.403298 20.474468 20.474468 24.518176 6.756574 11.056213 15.355851 3.224728a92.135105 92.135105 0 0 0 23.494452-36.649297c4.606755-14.588058 5.118617-22.265984 8.855207-21.344633v-3.07117l-1.074909-1.74033-2.149819-1.791516a3.48066 3.48066 0 0 1-0.358304 3.736591c-0.870165 1.433213-3.73659 0.716606-5.47692 0.358303zM610.277445 67.842354c-9.623 11.312143-28.869 21.344633-61.423403 29.53442S485.690309 128.242034 472.535463 139.349433s-46.37467 38.184882-62.293568 44.839084c-4.248452 1.791516-13.35959 7.831484-1.791516 9.264697 8.54809 1.07491 14.588058-3.890149 33.117452-17.454484a407.595468 407.595468 0 0 0 46.988903-37.007601c13.154846-12.796542 37.007601-24.876478 62.600686-32.042542s59.32477-18.273463 69.050142-28.817813c4.606755-5.118617 5.118617-7.473181 0.716607-11.721633s-6.756574-3.224729-10.646724 1.433213zM446.891192 179.73532c-2.764053 1.535585-3.890149 3.224729-7.114877 13.513149s-2.815239 16.379574 0 18.887697a9.213511 9.213511 0 0 0 6.193526 1.945074c1.07491 0 2.149819 0.358303 1.996261-2.661681s-0.409489-15.918899 9.21351-21.702936c1.791516-1.07491 0-8.54809-6.551829-7.47318-2.149819 0.358303 0-4.453197-3.583032-2.508123zM336.9433 220.377139c5.118617 0 8.189787 0 7.831484 5.732851s-2.866425 13.513149-3.224728 18.83651-0.358303 7.473181 2.866425 7.473181-4.606755 3.224729-8.906393 3.941335-10.851468 3.122356-14.229756-14.997548c-1.07491-5.681665-0.716606-14.588058-1.433212-16.686691A42.945196 42.945196 0 0 1 336.9433 220.377139zM431.535342 235.73299c1.33084 7.21725 3.275915 7.063691 1.842702 8.138601s-2.917612-2.712867-8.701649-1.791516-50.367191 7.831484-53.59192 8.189787c-9.930117 1.07491-10.237234-0.563048-1.228468-2.508122s43.098755-8.138601 53.18243-10.237234l8.496905-1.791516zM377.533933 779.944344c4.606755 2.815239 15.355851 6.039968 34.499478-1.791516s39.874026-2.508122 43.047569 11.056213 3.327101 30.711702-2.456937 38.389627c-5.118617 6.449457-9.623 5.732851-15.35585 3.941335-10.237234-3.224729-34.192361-14.229755-40.948936-17.454484a72.581988 72.581988 0 0 0-26.309691-6.756574 33.475755 33.475755 0 0 1-0.716607-22.777846c2.098633-4.248452 2.098633-8.54809 3.890149-7.473181s4.299638 2.866425 4.299639 2.866426zM452.26574 842.903332a15.867713 15.867713 0 0 1 15.662968 10.237234c2.098633 6.756574 15.970085 8.54809 22.010053 8.189787s5.118617 2.866425 4.657941 6.398272-1.433213 14.229755-1.433212 18.529393a197.425056 197.425056 0 0 0 1.791516 22.061239c0.716606 2.815239-1.791516 4.248452-5.118617 5.681665s-14.946361 5.118617-22.368356-0.358303c-3.941335-2.815239-8.54809-6.756574-3.941336-7.114878s-5.681665-40.590632-8.54809-47.70551-11.005026-16.021271-2.815239-16.021271zM329.828423 758.958014c1.893888 0.614234 2.866425 2.456936 4.248452 5.118617a5.118617 5.118617 0 0 1-0.358303 7.114878c-3.890149 4.248452-8.496904 23.852755-7.831484 37.724207a26.258505 26.258505 0 0 0-10.646724-1.07491c-1.07491-7.831484-0.358303-32.400845 3.224729-40.232329s7.063691-9.930117 11.36333-8.496904zM330.545029 976.038559c8.855207 9.930117 25.593085 25.234782 38.08251 30.711702a58.403419 58.403419 0 0 0 31.633053 6.039968c8.95758-0.870165 7.166064 2.815239 0 3.890149a64.238643 64.238643 0 0 1-34.141175-4.606755 112.097711 112.097711 0 0 1-38.389627-31.786612c-2.456936-3.583032 0-7.473181 2.866425-4.248452zM515.941335 951.110895a199.216572 199.216572 0 0 1-33.424569 13.154845 58.505792 58.505792 0 0 1 1.74033 11.056213c7.831484 0 22.931404-5.47692 35.267271-13.206032 2.815239-1.74033 3.890149-3.890149 2.815239-6.398271s-2.508122-6.398271-6.398271-4.606755zM431.586528 921.934778c-1.74033-1.791516 8.394532-3.941335 10.237234-3.941335a76.779254 76.779254 0 0 1 8.752835 7.319622c1.07491 1.07491 0.511862 1.791516-0.563048 2.508123a38.543186 38.543186 0 0 1-10.237234 2.456936c-3.173543-2.815239-7.626739-7.473181-8.54809-8.343346zM450.576597 773.904376c-2.866425-2.149819-2.508122-3.224729-1.07491-5.118617a12.284681 12.284681 0 0 1 4.248452-4.248452c1.433213-0.716606 3.583032-1.07491 6.091154 2.456936s15.970085 26.002574 18.836511 32.042542 6.398271 2.149819 5.118617-1.433213a112.967876 112.967876 0 0 0-5.118617-11.363329 162.669647 162.669647 0 0 0 7.831484-42.689266 78.417212 78.417212 0 0 0-5.118617-28.510696 174.032976 174.032976 0 0 0 38.74793-2.456936c8.240973-2.508122 1.433213-3.224729-1.74033-2.866426a324.98099 324.98099 0 0 1-43.098755-1.740329c-29.176117-3.583032-57.789185-20.013792-66.849137-31.377122-1.433213-1.74033-9.981303-1.023723-2.866425 4.657941s25.285968 22.675473 51.953962 27.384601c6.039968 1.07491 15.662968 2.866425 17.09618 24.927664a239.244156 239.244156 0 0 1-0.716606 38.440814c0 2.149819-1.433213 2.815239-3.224729 0.358303a58.65935 58.65935 0 0 0-11.056212-12.438239 6.449457 6.449457 0 0 0-8.138601 0.66542 68.231164 68.231164 0 0 0-8.906394 8.54809l8.189787 5.118617zM393.145714 843.46638a132.213876 132.213876 0 0 1-22.061239 0c-3.378287-1.228468-5.528106-5.118617-3.173542-6.756574s8.343346 0.511862 13.871452 0.511862a68.179978 68.179978 0 0 1 12.796542-0.511862c1.433213 0.870165 3.378287 0.511862 3.378287 7.268436l-4.8115-0.511862zM354.397784 941.129592c-4.657941-2.815239-9.981303-16.021271-11.056212-42.330963a96.537116 96.537116 0 0 1 6.039968-30.711701c2.866425-7.114878-1.791516-4.248452-2.81524-1.791516a102.065222 102.065222 0 0 0-5.732851 19.962606 100.529637 100.529637 0 0 0 0 34.499478c2.866425 16.021271 4.299638 20.986329 5.118617 23.852755l8.54809-3.224729z" fill="#FFFFFF" p-id="5457"></path><path d="M517.118617 91.336806c4.8115 0.511862 10.237234 0 11.414516-3.224729s0-5.528106-1.433213-6.244713-2.303378-0.511862-1.586771-3.73659 3.019984-2.815239 2.866425-7.831484-3.941335-5.118617-7.319622-4.043707-4.657941 2.610495-7.831484 6.910132-1.791516-2.866425-1.228468-4.094893 1.74033-9.367069-2.610495-10.851468l-7.21725 3.480659c-0.767793 1.586771-1.382027 3.429473-2.047446 5.118617-1.791516 4.606755-3.941335 1.126096-5.528107-1.074909-4.760314 2.661681-8.906393 5.118617-12.028749 7.166064l-1.07491 0.716606a14.690431 14.690431 0 0 0 5.681665 7.626739c2.303378 1.637957 0.870165 4.657941-1.945075 4.657942s-6.398271-1.945074-10.237234 2.303377-1.228468 8.343346 2.14982 8.343346a7.063691 7.063691 0 0 1 7.47318 5.118617c1.228468 3.941335 2.303378 5.528106 6.910133 6.039968a8.804021 8.804021 0 0 0 8.548091-5.118617c1.279654-2.098633 2.866425-5.118617 4.811499-4.402011 2.917612 1.023723 2.559308 4.094894 1.637958 7.319623 3.378287-1.945074 6.756574-3.787777 10.237234-5.579293a15.355851 15.355851 0 0 0-3.736591-7.114877c-1.586771-1.586771-1.07491-2.303378 3.736591-1.74033zM556.890271 39.689961l-5.118617 1.382026c0.870165 4.043707 2.508122 9.264697 1.586771 10.237234a41.358425 41.358425 0 0 1-8.343346 2.456936c-3.224729 0.921351-10.851468 8.036229-6.961319 13.206032a29.739164 29.739164 0 0 1 5.88641 10.851468 6.858947 6.858947 0 0 0 11.568074 0.511862c4.453197-5.118617 7.831484-11.209771 8.906394-7.473181a47.70551 47.70551 0 0 1 0 14.792803l2.815239-0.563048a68.538281 68.538281 0 0 0-10.237234-45.197388zM459.175873 135.254539c-2.456936-1.945074-3.173543-5.118617 0-5.835223a99.761844 99.761844 0 0 0 14.588058-4.8115c7.473181-3.224729 3.531846-8.752835 0-10.237234s-3.73659-4.606755-3.378287-7.985043-0.511862-8.343346-7.114877-5.886409-4.248452 8.906393-6.244713 11.056213-2.968798 1.433213-2.661681-1.791516a6.347085 6.347085 0 0 0-4.094893-6.039968 21.395819 21.395819 0 0 0-6.295899-1.07491 131.906759 131.906759 0 0 0-17.761601 18.938883 11.209771 11.209771 0 0 0 5.118617 5.118617 5.118617 5.118617 0 0 1 3.890149 5.016244c0 2.968798-6.910133 3.173543-11.36333 3.275915a55.281063 55.281063 0 0 0 10.800282 19.399558c0.972537-0.307117 2.303378-0.767793 4.14608-1.535585 5.47692-2.303378 7.268436-10.646723 8.189787-13.154845s3.173543-1.945074 4.8115 1.228468a17.556856 17.556856 0 0 1 1.689143 6.347085c3.122356-3.122356 6.14234-6.039968 9.162325-8.855207-0.921351-0.870165-2.047447-1.945074-3.583032-3.173543zM553.665542 347.881887c1.07491 0-1.791516-12.796542 0.563048-13.308404s3.327101 6.910133 8.343345 6.039968 6.193527-5.886409 5.528107-11.414516 2.456936-2.456936 5.118617-6.398271-2.866425-9.213511-8.906394-5.528106-5.118617-1.228468-1.791516-3.173543 0.66542-9.059952-5.988782-6.705388c-5.118617 1.689144-7.370808-1.484399-9.725372-2.866425l-5.118617 2.252191a10.237234 10.237234 0 0 0 0.307117 5.118617c0.511862 2.303378 1.637957 8.189787-2.098633 5.681665s-7.677925-3.378287-8.906393 0.716606 1.228468 4.453197 0.870165 6.961319-6.756574 3.019984-3.736591 8.189787 7.473181 2.303378 10.493165 0.358304 5.886409 0.358303 4.8115 3.019984a53.84785 53.84785 0 0 0-2.610495 13.717893l4.453197 3.019984a18.324649 18.324649 0 0 1 8.650463-5.118617zM456.718937 335.648393c2.610495-0.716606 7.780298 4.760314 12.438239 1.586771s-1.945074-6.398271-1.074909-9.111138 3.019984-7.780298 0-10.237234-6.603016 0-10.237234 3.583032-2.149819-3.429473-0.358304-6.449458c2.303378-3.890149 0-6.55183-3.941335-7.268436s-5.118617 4.8115-7.831483 2.303378c-4.197266-3.941335-10.851468-2.303378-9.213511 3.173542s3.378287 7.319622 0 8.036229-6.603016-8.189787-10.237234-1.07491 2.303378 9.264697 1.74033 14.588059 1.637957 11.056213 4.8115 11.568074 6.603016-3.019984 8.343345-5.118617 6.091154-3.73659 5.528107 0.358303c-0.358303 2.815239-0.563048 8.701649-0.66542 12.079936 6.55183-3.173543 13.564335-6.500644 17.403297-7.780297h0.460676a35.830319 35.830319 0 0 1-6.705389-3.531846c-3.531846-2.508122-2.968798-5.732851-0.307117-6.398271zM377.892236 497.703805c8.138601-2.456936 8.496904 3.941335 7.421994 9.264697a120.696988 120.696988 0 0 0-0.66542 22.419542l13.513149 0.716607a127.35119 127.35119 0 0 1 0.358303-19.91142c0.358303-6.039968 6.398271-15.355851 8.548091-6.039968s11.36333 9.571814 17.7616 5.681664 11.056213-12.438239 17.812787-24.569361S440.339363 469.960901 435.220746 470.677508s-10.697909 1.433213 1.433213-8.548091c11.260957-9.264697-7.677925-13.922638-16.379575-15.662967-14.383314 15.048734-31.991356 32.144914-47.70551 45.55569l-5.681665 5.118617a13.564335 13.564335 0 0 0 11.056213 0.716607zM363.560108 587.43316c6.756574-2.149819 11.056213 12.438239 21.037516 3.890149s2.815239-15.662968 2.456936-22.777845 7.831484-10.237234 5.374548-18.887697c-3.838963-13.513149-16.379574-0.66542-24.211058 6.756575s-8.189787 1.433213-0.358303-10.646724-5.118617-16.021271-12.796543-12.796542a16.584319 16.584319 0 0 1-17.454483-3.583032 142.962971 142.962971 0 0 0-7.473181 13.871452c-6.756574 13.922638-2.149819 14.229755 2.866425 14.229755s15.355851 21.037516 17.044995 24.927665a133.544716 133.544716 0 0 0 9.008766 13.564335 7.268436 7.268436 0 0 1 4.504382-8.548091zM558.067553 447.183056c-6.398271-1.433213-14.690431-2.508122-15.611782 10.697909-0.358303 5.118617 4.606755 8.906393 9.21351 10.646724s3.941335 5.118617-1.074909 3.224728-8.855207-2.866425-12.438239 7.473181 2.866425 11.721633 6.039968 12.438239 5.681665 1.433213 5.118617 5.732851-2.866425 16.686691 5.118617 17.761601 15.355851-8.906393 17.812786-13.871452 5.118617-9.981303 6.039968-4.248452a23.64801 23.64801 0 0 1-3.224728 14.895175c-2.815239 6.449457-2.815239 9.264697 1.433213 8.906394s11.36333 0 13.513148-5.118617a74.475877 74.475877 0 0 0 5.732851-21.344633c0-4.248452 3.890149-4.709128 6.654202-4.453197 0.818979-7.21725 1.893888-14.280941 2.917612-20.474467-13.973824 2.098633-25.849016-14.946361-29.995095-29.739165a19.91142 19.91142 0 0 1-17.249739 7.473181zM491.525532 444.72612c-2.456936 4.248452-9.571814 16.328388-6.398271 20.474468s6.756574-3.941335 9.623-1.07491 9.264697 6.039968 9.264697 3.890149a93.875435 93.875435 0 0 1 1.945074-12.182308c1.07491-5.681665 3.583032-8.906393 6.091154-4.248452a11.568074 11.568074 0 0 0 14.895175 6.398271c8.906393-2.149819 7.831484-11.414516 6.091155-18.17109s4.606755-9.930117 7.831484-11.721633 11.36333-8.189787 5.118617-13.871452-11.414516 2.456936-16.737878 3.531845-3.173543-3.531846 7.831484-12.079936c9.520628-7.370808 1.586771-14.741617-4.248452-17.300925-15.355851 15.355851-42.433335 40.437074-48.422116 46.067553a33.168638 33.168638 0 0 0-5.681665 7.319622c14.332127-6.654202 15.355851-1.07491 12.796542 3.019984zM580.026419 587.740277c4.606755 4.299638 15.662968 10.237234 23.443266 3.224729s-1.74033-14.946361-2.815239-20.474468 5.681665-9.264697 2.149819-18.529393c-6.193527-16.072457-15.355851 3.224729-20.474468 8.54809s-4.453197-3.73659 0.358303-8.54809c2.508122-2.456936 13.564335-9.213511 7.114878-16.737878s-15.662968-3.173543-20.474468 0-8.189787 7.166064-15.355851 5.118617-13.154846-2.866425-17.454484 7.473181 3.941335 7.473181 10.69791 14.946362 2.508122 7.831484-2.866426 6.039968-7.831484-8.54809-15.662968-7.473181-7.831484 13.513149-5.118617 16.737877 7.473181 5.118617 3.941335 11.005027 1.74033 13.206032 8.138601 16.021271 16.021271-8.54809 19.604303-13.154846 7.114878-3.583032 6.398271 0a122.846807 122.846807 0 0 0-2.508122 17.812787c5.425734-1.74033 10.800282-3.327101 15.918899-4.760314a67.975233 67.975233 0 0 0-2.354564-15.35585c-2.149819-7.831484 2.815239-5.681665 7.473181-1.433213zM487.481825 625.822787c-8.54809 2.508122-9.981303-1.433213-15.662968-3.531845s-6.039968 2.815239-2.149819 8.906393 8.189787 11.721633 3.583032 11.721633-8.189787 0.716606-8.906394 4.299638-8.189787-0.716606-10.237234-8.189787-3.531846-21.702936-7.47318-14.639244-7.473181 18.887697-17.403298 13.564335-3.224729-12.489425-8.189787-17.454484-9.623-11.36333-4.657942-20.474468 9.264697-1.433213 13.922638-1.433213 5.118617-4.299638 1.023724-7.47318-9.571814-18.529393 9.981303-17.454484a35.267271 35.267271 0 0 0 22.061239-6.756575c6.398271-4.606755 23.136149-2.149819 16.379574 9.623s-4.606755 14.229755-0.716606 9.981303 8.906393-12.131122 16.379574-9.981303 4.248452 7.831484-0.358303 14.229755a8.292159 8.292159 0 0 0 1.791516 13.154846c3.531846 2.508122 10.237234 15.970085-9.623 21.702936zM523.772819 541.87747a61.0651 61.0651 0 0 1-14.229755-1.433213c-0.716606 6.756574-7.268436 16.43076-13.871452 26.309691-0.716606 1.07491-4.606755 1.07491-6.398271-0.358303s-6.756574-3.890149-2.866426-8.189787 10.237234-13.154846 9.264697-17.044995-3.941335-7.473181-8.189787-2.149819-11.056213 16.379574-18.529394 16.737877-14.895175-6.398271-11.363329-13.154845 4.606755-10.237234-0.358303-16.430761-3.122356-13.76908 7.47318-18.478207a14.02501 14.02501 0 0 1 12.796543 3.224729c3.941335 3.173543 6.039968 0 0.716606-3.224729a18.119904 18.119904 0 0 1-10.237234-14.229755c-0.716606-6.756574 3.531846-13.871452 12.796543-9.981303a16.584319 16.584319 0 0 0 18.83651-2.456936c3.941335-3.224729 20.474468-7.21725 18.17109 7.473181-1.791516 10.646723-6.756574 11.005026-8.189787 16.686691s2.815239 2.149819 5.118617-2.098633 8.189787-21.754122 19.91142-8.54809c2.866425 3.173543 1.791516 8.54809-1.74033 14.588058a10.237234 10.237234 0 0 0 1.433213 12.796542c2.098633 3.224729 7.063691 18.938883-10.69791 19.962607z" fill="#007934" p-id="5458"></path><path d="M817.325501 258.817952l10.902654-7.677925 23.545638 34.960154 13.871452-9.827745-24.262244-34.294734 10.544351-7.421994 25.797829 36.188622 13.871452-9.878931-38.287255-53.694292-63.061361 44.685526 34.755409 49.44584 13.871452-9.827745-21.549377-32.656776zM862.932378 380.333919l20.628026-9.571814-14.229755-30.814074 48.319744-20.167351-8.804021-19.297186-68.179978 29.636792 22.265984 50.213633zM875.217059 412.939509l2.149819 19.041255 45.760435-5.374548 1.791516 19.809047 20.525654-1.484399-5.732851-66.593206-20.525654 1.535585 1.791516 27.691718-45.760435 5.374548zM877.520436 477.843571l0.307117 22.675474 67.258627-0.204745-0.255931-22.675473-67.309813 0.204744zM909.153489 532.612773a44.22485 44.22485 0 0 0-34.038803 6.80776 35.062526 35.062526 0 0 0-14.485686 24.415803 58.352233 58.352233 0 0 0 2.14982 25.593085l17.7616-6.14234a25.593085 25.593085 0 0 1-0.614234-16.635505 21.65175 21.65175 0 0 1 25.593085-15.867713c12.847729 1.893888 20.116165 13.666707 17.812787 27.640532a19.450744 19.450744 0 0 1-10.237234 14.178568l11.056213 13.257218a40.948936 40.948936 0 0 0 17.198553-23.903941 42.535707 42.535707 0 0 0-6.500644-32.042542 36.598111 36.598111 0 0 0-25.900202-17.352111zM896.766436 626.641766c-9.367069-2.456936-22.163611 7.88267-28.357138 13.820266-3.583032 3.429473-16.021271 15.970085-21.754122 14.02501s-3.583032-9.571814-1.791516-14.69043a33.168638 33.168638 0 0 1 12.387053-17.812787l-11.158585-5.118617a46.937717 46.937717 0 0 0-13.922638 19.194813 54.410898 54.410898 0 0 0-2.815239 24.72292c1.535585 8.138601 4.350824 13.35959 13.564335 12.489426 7.114878-0.614234 24.927665-12.182308 35.164898-21.907681 5.118617-5.118617 9.674186-5.425734 11.977564-4.14608 3.73659 2.098633 3.531846 8.496904 2.149819 12.540612-1.791516 5.118617-4.350824 13.564335-8.650463 16.584319l15.355851 10.237234a48.063813 48.063813 0 0 0 11.260958-24.364617c4.402011-21.191074-7.063691-34.089989-13.257218-35.830319zM812.25807 179.837693a49.292281 49.292281 0 0 0-12.950101-27.486973 38.184882 38.184882 0 0 0-31.377122-8.496905 43.354686 43.354686 0 0 0-28.408324 17.608043 44.071292 44.071292 0 0 0-7.421994 33.731686 35.113712 35.113712 0 0 0 16.277202 23.289707 57.99393 57.99393 0 0 0 24.108686 8.496904l1.893888-18.631766a25.593085 25.593085 0 0 1-15.355851-6.347085 22.214798 22.214798 0 0 1-3.992521-29.790351 22.829032 22.829032 0 0 1 32.656776-5.118617 19.450744 19.450744 0 0 1 7.421994 15.355851l17.300926-3.019984zM123.804091 567.624113c0.511862-5.118617 0-14.383314 5.732851-15.355851s8.804021 4.043707 9.930116 9.367069c1.637957 7.729112 3.787777 13.717893 0.716607 20.474468l14.332127-1.484399a46.579414 46.579414 0 0 0 0-23.136149 34.499478 34.499478 0 0 0-11.107399-20.474468 19.450744 19.450744 0 0 0-19.962606-5.118617c-5.528106 1.177282-15.355851 11.056213-15.714154 30.711702 0 3.73659-0.972537 10.95384-4.350824 11.107399-4.299638 0-7.473181-5.118617-8.343346-9.059952a51.186169 51.186169 0 0 1 2.559309-22.470728H82.548038a71.199962 71.199962 0 0 0-1.126096 29.227302c4.094894 19.348372 15.76534 25.593085 25.285968 24.620548s15.355851-11.721633 17.096181-28.050021zM93.808995 486.135731l53.131244-0.716606-0.255931-16.686692-53.131244 0.66542-0.204744-22.624286-17.044995 0.204744 0.716607 63.419664 16.993808-0.204744-0.204745-24.0575zM189.783063 319.320005l-41.051308-23.699197 0.102372-0.204745 54.359712-0.870165 12.950101-20.013792-66.951509-38.645558-10.083676 15.76534 45.658063 28.715442-62.293568 1.740329-8.701649 16.789064 65.8766 38.287255 10.134862-17.863973zM123.343415 358.119121a21.447005 21.447005 0 1 1-21.447005 21.447005 21.395819 21.395819 0 0 1 21.447005-21.447005z m0 62.549499a40.948936 40.948936 0 1 0-40.948936-40.948935 40.948936 40.948936 0 0 0 40.948936 40.948935zM149.857851 671.634409a21.447005 21.447005 0 1 1 21.395819-21.293446 21.447005 21.447005 0 0 1-21.395819 21.447005z m40.948935-21.447005a40.948936 40.948936 0 1 0-40.948935 40.948936 40.948936 40.948936 0 0 0 40.948935-40.948936zM227.097781 746.110286l-1.433213-1.689144c-4.504383-5.47692-19.860234-21.702936-13.513149-27.640531s20.474468 13.052473 24.466989 18.017531l1.74033 2.098633-11.260957 9.213511z m-25.285968 22.829031c-5.425734-6.500644-21.600564-19.246-14.690431-25.593084s22.829032 13.615521 24.825292 16.072457l-10.237233 9.725372z m-2.508122-71.660637a23.289707 23.289707 0 0 0-3.378288 27.896462c-6.500644-3.173543-19.553117-4.248452-25.593084 0.972538-14.792803 12.847729 3.173543 31.428308 17.915159 46.067552l20.474468 20.474468L263.439961 747.594685l-22.163611-25.593085c-7.729112-9.725372-29.176117-35.830319-41.972659-24.415803z" fill="#FFFFFF" p-id="5459"></path><path d="M442.437996 909.803656c2.354564-1.023723 5.528106-2.456936 6.961319-1.382027s9.930117 7.114878 15.355851 11.721633 7.114878 6.039968 2.866425 8.54809-8.240973 5.118617-7.473181 2.81524a7.268436 7.268436 0 0 0-1.074909-8.138601c-2.866425-2.866425-9.827745-8.240973-12.847729-10.69791-1.945074-1.586771-3.73659-2.866425-3.73659-2.866425zM422.373017 915.690065a4.197266 4.197266 0 0 0 0 6.398272c2.098633 2.149819 14.02501 12.131122 15.970085 14.076196a8.445718 8.445718 0 0 0 8.036229 1.945075c3.173543-0.716606-3.73659 3.941335-6.398271 4.453196a9.059952 9.059952 0 0 1-8.548091-2.149819L409.627661 919.6314c-3.224729-3.019984 0.870165-3.019984 3.73659-3.378287s5.118617 0 9.264697-0.563048zM402.410411 824.373939c1.07491 3.275915 1.433213 6.244713-3.531846 5.528106s-26.002574-2.661681-32.042542-2.661681c-1.433213 0-0.870165-3.531846-3.019984-2.149819s-1.228468 4.606755-1.228468 8.189787-0.307117 5.732851 0 8.189788c0 3.73659 2.508122 8.906393 12.079936 9.418255a46.425856 46.425856 0 0 0 21.549378-2.456936c2.866425-1.996261 0-5.118617-2.866426-5.118617a132.213876 132.213876 0 0 1-22.061239 0c-3.378287-1.228468-5.528106-5.118617-3.173542-6.756575s8.343346 0.511862 13.871451 0.511862a68.179978 68.179978 0 0 1 12.796543-0.511862c1.433213 0.870165 3.378287 0.511862 3.378287 7.268436 0 1.433213 3.378287 1.996261 5.118617 1.996261s2.303378 2.661681 2.098633 6.193526 0 4.299638-6.193527 4.299639-33.987617-0.358303-38.08251-0.358303c-1.586771 0-1.791516-1.279654-1.945074-4.453197s-1.279654-25.593085-1.637958-27.231042 4.299638-1.945074 8.036229-1.228468a109.282472 109.282472 0 0 0 14.383314 1.740329c6.039968 0.358303 15.355851 1.279654 15.355851 1.279655s4.657941 0.511862 5.118616-0.921351 1.945074-1.74033 2.303378-0.716607zM500.124809 67.125747c0.66542-1.74033 1.228468-3.634218 1.945074-5.118617l-7.421994 3.992522c1.535585 2.252191 3.685404 5.784037 5.47692 1.177282zM564.363451 70.657593c-1.07491-3.73659-4.453197 2.149819-8.906393 7.473181a6.858947 6.858947 0 0 1-11.568074-0.511862 29.739164 29.739164 0 0 0-5.88641-10.800282c-3.890149-5.118617 3.73659-12.284681 6.961319-13.206031a41.358425 41.358425 0 0 0 8.343346-2.456936c0.921351-0.767793-0.716606-5.988782-1.586771-10.237234a272.771097 272.771097 0 0 0-42.126218 17.09618c4.197266 1.586771 2.917612 9.725372 2.456936 10.902654s-1.945074 8.343346 1.228468 4.094894 4.453197-5.886409 7.831484-6.910133 7.114878-0.921351 7.319622 4.043707-2.149819 4.657941-2.866425 7.831484 0 3.019984 1.586771 3.736591 2.661681 2.866425 1.433213 6.244712-6.603016 3.73659-11.414516 3.224729-5.118617 0-3.73659 1.74033a15.355851 15.355851 0 0 1 3.685404 7.166064 197.220311 197.220311 0 0 1 47.296021-14.792803 49.189909 49.189909 0 0 0 0-14.792803zM451.907437 140.936204c-1.637957-3.173543-3.941335-3.73659-4.8115-1.228468s-2.712867 10.851468-8.189787 13.154845a28.561883 28.561883 0 0 1-4.197266 1.484399 38.338441 38.338441 0 0 0 6.500644 5.630479c4.350824-4.555569 8.445718-8.752835 12.335866-12.69417a17.403298 17.403298 0 0 0-1.637957-6.347085zM505.089867 98.451683c-1.945074-0.716606-3.531846 2.303378-4.8115 4.402011a8.804021 8.804021 0 0 1-8.54809 5.118617c-4.606755-0.511862-5.681665-2.098633-6.910133-6.039968a7.063691 7.063691 0 0 0-7.473181-5.118617c-3.378287 0-5.732851-4.094894-2.149819-8.343346s7.114878-2.303378 10.237234-2.303378 4.248452-3.019984 1.945074-4.657941a15.918899 15.918899 0 0 1-5.630478-7.677925 326.260644 326.260644 0 0 0-37.41709 28.408324 21.754122 21.754122 0 0 1 6.193526 1.535585 6.347085 6.347085 0 0 1 4.094894 6.039968c-0.307117 3.224729 0.716606 3.941335 2.661681 1.791516s-0.307117-8.54809 6.244712-11.056213 7.473181 2.508122 7.114878 5.88641 0 6.603016 3.378287 7.985042 7.319622 6.961319 0 10.237234a99.761844 99.761844 0 0 1-14.588058 4.8115c-3.019984 0.870165-2.303378 3.890149 0 5.835223a32.400845 32.400845 0 0 1 3.480659 3.275915 223.274071 223.274071 0 0 1 28.408325-22.675473c5.47692-3.685404 10.237234-7.012505 15.714154-10.237234 0.870165-3.224729 1.177282-6.295899-1.689144-7.319622zM435.220746 131.722693a5.118617 5.118617 0 0 0-4.248452-5.374547 11.568074 11.568074 0 0 1-4.8115-5.118617 55.332249 55.332249 0 0 0-4.606756 7.063691c0.767793 2.40575 1.535585 4.606755 2.303378 6.654202 4.453197 0 11.209771-0.307117 11.36333-3.275915zM585.708084 297.719441a95.206275 95.206275 0 0 0-38.799116 6.756574c2.354564 1.382027 4.8115 4.504383 9.622999 2.866426 6.756574-2.303378 9.059952 4.8115 5.835224 6.756574s-4.248452 6.910133 1.791516 3.173543 11.36333 1.637957 8.906393 5.528106-5.681665 0.921351-5.118617 6.398271-0.563048 10.237234-5.528106 11.414516-6.039968-6.603016-8.343346-6.039968 0.511862 13.154846-0.563048 13.308404a18.478207 18.478207 0 0 0-8.445718 5.579293l0.40949 0.307117c19.604303 14.02501 24.569361 6.398271 27.435787-0.358304a251.835954 251.835954 0 0 0 11.005026-37.365903 64.085084 64.085084 0 0 0 1.791516-18.17109zM543.172377 336.518557c1.07491-2.661681-1.791516-5.118617-4.8115-3.019984s-7.473181 4.8115-10.493164-0.358303 3.378287-5.681665 3.73659-8.189787-2.149819-2.866425-0.870165-6.961319 5.630479-2.866425 8.906394-0.716606 2.610495-3.378287 2.098632-5.681665a12.335867 12.335867 0 0 1-0.358303-4.8115 101.502174 101.502174 0 0 0-11.209771 5.732851c-18.273463 11.209771-18.83651 20.474468-14.588058 24.211058s11.670447 4.657941 24.978851 13.35959a54.308526 54.308526 0 0 1 2.610494-13.717893zM484.973703 325.820648a50.162446 50.162446 0 0 1-19.91142-21.702936s0.358303-1.382027-1.791516-1.382026A81.897871 81.897871 0 0 1 440.339363 297.156393c-13.154846-4.606755-14.946361-1.791516-16.686692 3.941335a130.627105 130.627105 0 0 0-3.583031 33.066266c-0.358303 17.096181 7.114878 27.742904 11.721632 26.002574 2.252191-0.870165 8.087415-3.787777 14.332128-6.807761 0-3.378287 0-9.264697 0.614234-12.079936 0.563048-4.094894-3.73659-2.456936-5.528106-0.358303s-5.118617 5.732851-8.343346 5.118617-5.118617-6.193527-4.8115-11.568074-5.681665-7.473181-1.74033-14.588059 7.114878 1.791516 10.237234 1.07491 1.586771-2.508122 0-8.036229 5.118617-7.114878 9.213511-3.173542c2.712867 2.508122 3.941335-3.019984 7.831484-2.303378s6.244713 3.378287 3.941335 7.268436c-1.791516 3.019984-3.019984 10.237234 0.358303 6.449458s6.756574-6.091154 10.237234-3.583032 1.023723 7.626739 0 10.237234 5.681665 5.886409 1.074909 9.111138-9.827745-2.303378-12.438239-1.586771-3.224729 3.890149 0.307117 6.398271a37.468276 37.468276 0 0 0 6.55183 3.583032 110.152637 110.152637 0 0 0 18.938883-9.111139l4.606755 0.358304c0.358303-6.039968 0-10.237234-2.149819-11.056213zM458.664011 404.135487c-2.866425-6.398271-3.838963-1.484399-11.772819 11.005027a259.309135 259.309135 0 0 1-26.71918 31.325936c8.752835 1.791516 27.640532 6.449457 16.43076 15.662967C424.47165 472.11072 430.102129 471.189369 435.220746 470.677508s14.229755 2.508122 7.473181 14.588058-11.414516 20.474468-17.812787 24.569361-15.662968 3.531846-17.761601-5.681664-8.189787 0-8.548091 6.039968a127.35119 127.35119 0 0 0-0.358303 19.91142l-13.513149-0.716607a120.696988 120.696988 0 0 1 0.614234-22.368356c1.07491-5.118617 0.716606-11.721633-7.421994-9.264697a13.513149 13.513149 0 0 1-10.95384-0.972537 151.408689 151.408689 0 0 0-29.329675 32.554404 16.686691 16.686691 0 0 0 17.505669 3.531846c7.780298-3.224729 20.474468 0.716606 12.796543 12.796542s-7.473181 18.17109 0.358303 10.646723 20.474468-20.474468 24.211058-6.756574c2.456936 8.906393-5.732851 11.772819-5.374548 18.887696s7.473181 14.229755-2.456936 22.777846-14.280941-6.039968-21.037515-3.890149a7.370808 7.370808 0 0 0-4.657942 8.343346c8.855207 12.540612 21.754122 30.251026 26.360877 37.877765 7.166064 11.772819 7.166064 26.002574 10.237234 23.852755s9.623-8.54809 11.772819-10.237234a7.114878 7.114878 0 0 0 3.173543-7.88267 149.207684 149.207684 0 0 1-3.890149-39.464537 128.528472 128.528472 0 0 1 14.946361-45.55569c5.47692-10.237234 22.061239-42.382148 25.951388-50.879053s11.056213-18.529393 12.847729-26.360877 8.496904-25.951388 11.36333-34.499478a158.011705 158.011705 0 0 0-12.796543-38.440814zM512 324.745739c-2.149819 5.732851-5.118617 12.847729-6.449457 16.379574s-7.933856 2.201005-7.473181-0.358303c1.07491-5.118617-6.500644-1.791516-5.681665-6.039968s-0.716606-9.264697 3.224729-9.264697 11.36333-0.716606 16.379574-0.716606z" fill="#8B6F4B" p-id="5460"></path><path d="M500.124809 67.125747c0.66542-1.74033 1.228468-3.634218 1.945074-5.118617l-7.421994 3.992522c1.535585 2.252191 3.685404 5.784037 5.47692 1.177282zM523.772819 541.87747a61.0651 61.0651 0 0 1-14.229755-1.433213c-0.716606 6.756574-7.268436 16.43076-13.871452 26.309691-0.716606 1.07491-4.606755 1.07491-6.398271-0.358303s-6.756574-3.890149-2.866426-8.189787 10.237234-13.154846 9.264697-17.044995-3.941335-7.473181-8.189787-2.149819-11.056213 16.379574-18.529394 16.737877-14.895175-6.398271-11.363329-13.154845 4.606755-10.237234-0.358303-16.430761-3.122356-13.76908 7.47318-18.478207a14.02501 14.02501 0 0 1 12.796543 3.224729c3.941335 3.173543 6.039968 0 0.716606-3.224729a18.119904 18.119904 0 0 1-10.237234-14.229755c-0.716606-6.756574 3.531846-13.871452 12.796543-9.981303a16.584319 16.584319 0 0 0 18.83651-2.456936c3.941335-3.224729 20.474468-7.21725 18.17109 7.473181-1.791516 10.646723-6.756574 11.005026-8.189787 16.686691s2.815239 2.149819 5.118617-2.098633 8.189787-21.754122 19.91142-8.54809c2.866425 3.173543 1.791516 8.54809-1.74033 14.588058a10.237234 10.237234 0 0 0 1.433213 12.796542c2.098633 3.224729 7.063691 18.938883-10.69791 19.962607z m-36.290994 83.945317c-8.54809 2.508122-9.981303-1.433213-15.662968-3.531845s-6.039968 2.815239-2.149819 8.906393 8.189787 11.721633 3.583032 11.721633-8.189787 0.716606-8.906394 4.299638-8.189787-0.716606-10.237234-8.189787-3.531846-21.702936-7.47318-14.639244-7.473181 18.887697-17.403298 13.564335-3.224729-12.489425-8.189787-17.454484-9.623-11.36333-4.657942-20.474468 9.264697-1.433213 13.922638-1.433213 5.118617-4.299638 1.023724-7.47318-9.571814-18.529393 9.981303-17.454484a35.267271 35.267271 0 0 0 22.061239-6.756575c6.398271-4.606755 23.136149-2.149819 16.379574 9.623s-4.606755 14.229755-0.716606 9.981303 8.906393-12.131122 16.379574-9.981303 4.248452 7.831484-0.358303 14.229755a8.292159 8.292159 0 0 0 1.791516 13.154846c3.531846 2.508122 10.237234 15.970085-9.623 21.702936z m126.327466-63.675594a68.691839 68.691839 0 0 1-12.438239-37.007601 181.506157 181.506157 0 0 1 1.33084-35.062526c-2.764053 0-6.449457 0-6.654202 4.453197a74.475877 74.475877 0 0 1-5.732851 21.344632c-2.149819 5.118617-9.213511 4.606755-13.513148 5.118617s-4.248452-2.456936-1.433213-8.906393a23.64801 23.64801 0 0 0 3.224729-14.895175c-0.716606-5.732851-3.583032-0.716606-6.039968 4.248452s-9.623 14.946361-17.812787 13.871452-6.039968-13.513149-5.118617-17.761601-1.791516-5.118617-5.118617-5.732851-9.623-2.149819-6.039968-12.438239 7.473181-9.264697 12.438239-7.473181 5.732851-1.433213 1.074909-3.224729-9.571814-5.681665-9.21351-10.646723c0.921351-13.206032 9.213511-12.131122 15.611782-10.69791a20.474468 20.474468 0 0 0 17.403297-7.217249l-0.307117-0.972538c-9.469441-36.239808 8.54809-80.771775 13.513149-93.210014a622.57738 622.57738 0 0 1 30.711702-58.045117c-3.583032-1.74033-13.001287-6.55183-18.171091-9.21351s-7.985042-3.941335-9.418255-1.996261-3.224729 3.019984-5.681665 6.603016c-5.118617 7.114878-0.716606 6.039968 0.716607 6.039968s7.473181 7.831484 8.54809 9.623 0 3.173543-2.508122 8.906394c-3.275915 7.421995-5.118617 24.518175-8.189787 34.857781-8.650463 31.27475-22.061239 28.101207-28.101207 24.211058s-7.831484 2.149819-13.922638 10.646723a114.042786 114.042786 0 0 1-9.827745 10.749096c5.784037 2.610495 13.666707 10.237234 4.14608 17.403298-11.005026 8.54809-13.154846 13.154846-7.831484 12.079936s10.697909-9.264697 16.737877-3.531846-2.149819 12.079936-5.118617 13.871452-9.623 5.118617-7.831484 11.721633 2.815239 16.021271-6.091154 18.17109a11.568074 11.568074 0 0 1-15.151106-6.55183c-2.508122-4.657941-5.118617-1.433213-6.091154 4.248452a93.875435 93.875435 0 0 0-1.74033 12.079936c0 2.149819-6.398271-1.023723-9.264697-3.890149s-6.398271 5.118617-9.622999 1.07491 3.941335-16.021271 6.398271-20.474468 1.382027-9.623-12.745356-3.07117a194.507444 194.507444 0 0 0-13.922639 36.137436 394.133505 394.133505 0 0 1-32.86152 68.333536c-19.194814 30.711702-22.624287 59.990191-19.757862 78.161281s5.118617 16.686691 9.264697 16.686691S435.220746 652.900271 441.567831 660.578197s8.906393 4.248452 12.079936 1.740329a348.065953 348.065953 0 0 1 60.143749-35.216084 397.562978 397.562978 0 0 1 45.197388-17.403298 121.567153 121.567153 0 0 1 2.508122-17.812787c0.716606-3.583032-2.866425-4.657941-6.398271 0s-13.154846 16.021271-19.604303 13.154846-11.721633-10.237234-8.138601-16.021271-1.433213-7.831484-3.941335-11.005027-2.508122-15.662968 5.118617-16.737877 10.237234 5.681665 15.662968 7.47318 9.623 1.433213 2.866425-6.039968-14.946361-4.657941-10.697909-14.946361 10.237234-9.623 17.454483-7.473181 10.646723-1.791516 15.355851-5.118617 13.871452-7.473181 20.474468 0-4.606755 14.280941-7.114877 16.737878c-4.8115 4.8115-5.681665 13.871452-0.358304 8.54809s14.485686-24.620548 20.474468-8.54809c3.531846 9.264697-3.224729 12.796542-2.149819 18.529393s10.646723 13.513149 2.815239 20.474468-18.83651 1.07491-23.443265-3.224729-9.623-6.398271-7.473181 1.433213a67.565744 67.565744 0 0 1 2.354564 15.355851 128.835589 128.835589 0 0 1 35.830318-6.295899c10.237234 0.921351 17.812787 3.941335 17.454484-5.118617s-5.118617-15.662968-14.588058-30.711702z" fill="#8B6F4B" p-id="5461"></path></svg>