<svg t="1712738083609" class="icon" viewBox="0 0 1024 1024" version="1.1" xmlns="http://www.w3.org/2000/svg" p-id="1508" width="200" height="200"><path d="M78.592 458.752c-8.704 7.936-13.056 18.176-13.056 30.72V714.24c0 12.8 4.352 23.04 13.056 30.976s19.2 11.264 32 9.984c20.224-1.792 40.192-3.072 60.416-4.608v-42.496c-20.224 1.024-40.192 2.304-60.416 3.328v-219.392c20.224 1.28 40.192 2.304 60.416 3.328v-43.008c-20.224-1.536-40.192-3.072-60.416-4.608-12.544-0.512-23.296 2.816-32 11.008M225.024 456.448c-14.848-1.024-29.952-2.048-44.8-3.072V750.08c32.512-2.304 65.536-4.096 98.048-5.888v-40.704c-17.664 0.768-35.584 1.28-53.248 2.048v-249.088zM286.976 743.68c15.104-0.768 30.72-1.536 45.824-2.048V461.312c-15.104-0.512-30.72-1.28-45.824-2.048v284.416zM417.792 464.128c-25.344-0.512-50.432-1.28-75.776-2.304v279.552c14.848-0.512 30.208-1.024 45.056-1.536v-118.528h30.72c12.544 0 23.04-3.84 31.744-11.264 8.96-7.68 13.568-16.896 13.568-27.648v-78.336c0-10.752-4.352-20.224-13.568-27.648-8.704-8.192-19.456-12.032-31.744-12.288m0 118.016h-30.72v-79.104c10.24 0.256 20.48 0.256 30.72 0.512v78.592zM815.616 610.56c8.96-8.192 13.312-17.92 13.312-29.696v-83.968c0-11.52-4.352-21.248-13.312-28.672-8.704-7.936-19.2-11.264-31.744-10.496-25.344 1.536-50.176 2.816-75.52 3.584V742.4c14.848 0.512 29.952 1.28 45.056 2.048v-121.088c12.544 40.448 25.088 81.408 37.376 122.88 14.848 1.024 29.952 1.792 44.8 2.816-13.056-43.776-26.368-86.272-39.168-128.256 7.168-1.792 13.824-5.12 19.2-10.24m-61.952-110.592c10.24-0.256 20.48-0.768 30.72-1.28V581.12c-9.984 0-20.48 0.256-30.72 0.256v-81.408zM547.584 464.896c-25.344 0.256-50.432 0.256-75.776 0v273.92c14.848-0.256 30.208-0.256 45.056-0.256v-117.248h30.72c12.544 0 23.04-3.584 31.744-11.264 8.96-7.68 13.568-16.896 13.568-27.904v-78.592c0-10.752-4.352-19.968-13.568-27.392-8.704-7.68-19.2-11.264-31.744-11.264m0 117.248h-30.72v-78.08h30.72v78.08zM601.856 739.072c32.768 0.512 65.792 1.536 98.304 2.816v-39.936c-17.664-0.512-35.584-1.024-53.248-1.28v-79.36c10.24 0 28.416 0 38.4 0.256v-39.68c-10.24 0-28.416 0-38.4 0.256v-79.36c17.92-0.256 35.584-0.768 53.248-1.28v-39.936c-32.768 1.28-65.792 2.304-98.304 2.816v274.688M963.328 534.272v-45.056c0-12.544-4.352-22.528-13.312-30.464-8.704-8.192-19.2-11.52-31.488-10.496-12.544 1.024-25.344 2.048-37.888 3.072-12.544 1.024-23.296 5.888-32 14.848-8.704 8.704-13.056 18.944-13.056 30.464v84.224c0 11.776 4.352 21.76 13.056 29.952 8.704 8.192 19.456 12.544 32 12.544 12.544 0.256 25.344 0.256 37.888 0.512V711.68c-12.544-0.768-25.344-1.536-37.888-2.304v-43.008c-14.848-0.512-29.952-1.024-44.8-1.536v42.24c0 11.776 4.352 22.016 13.056 30.72 8.704 8.96 19.456 13.568 32 14.592 12.544 1.024 25.344 2.048 37.888 3.072 12.288 1.024 22.784-2.304 31.488-9.984 8.96-7.936 13.312-18.176 13.312-30.976v-90.112c0-12.544-4.352-23.04-13.312-31.744-8.704-8.96-19.2-13.056-31.488-12.8-12.544 0.256-25.344 0.256-37.888 0.512V494.08c12.544-0.768 25.344-1.536 37.888-2.304v44.032c14.848-0.256 29.952-1.024 44.544-1.536" p-id="1509"></path><path d="M112.896 453.12c17.664 1.536 36.352 3.072 55.04 4.352v-1.792c-19.2-1.536-38.4-3.072-57.6-4.352-1.536-0.256-2.816-0.256-4.096-0.256-9.984 0-18.432 3.072-25.6 9.728-8.192 7.424-12.032 16.896-12.032 28.416V714.24c0 9.472 2.816 17.664 7.936 24.32-3.84-6.144-5.888-13.312-5.888-21.504v-225.024c0-11.776 4.096-21.248 12.288-28.928 7.168-6.912 15.616-9.984 25.856-9.984h4.096M221.952 461.056v-1.792c-13.056-0.768-26.112-1.792-38.912-2.56v290.048l2.048-0.256V458.752h0.256c11.776 0.768 24.064 1.28 36.608 2.304M329.984 466.176v-2.048c-13.056-0.512-26.624-1.024-39.68-1.792v277.76h2.048V464.896h0.256c12.288 0.512 24.576 1.024 37.376 1.28M420.352 468.992c8.96 0.256 17.152 2.56 24.32 6.912-7.68-5.632-16.64-8.96-26.88-8.96-24.064-0.512-48.64-1.28-72.704-2.048v273.408h2.048v-271.36h0.256c24.064 1.024 48.896 1.536 72.96 2.048M789.76 462.336c8.192 0 15.104 2.048 21.504 5.888-6.912-5.376-14.848-7.936-24.064-7.936h-3.072c-23.808 1.28-48.384 2.56-72.96 3.328v275.456h2.048V465.92h0.256c24.576-1.024 49.408-2.304 73.216-3.328 1.28-0.256 2.304-0.256 3.072-0.256M517.376 470.016h33.536c9.216 0 17.152 2.304 24.32 6.656-7.68-5.888-16.384-8.704-26.88-8.704h-33.536c-13.056 0-26.368 0-39.68-0.256v267.776h2.048V470.016h40.192M697.344 464.64c-30.72 1.28-61.696 2.048-92.416 2.816v269.056h2.048V469.248h0.256c29.696-0.512 60.16-1.536 90.112-2.56v-2.048zM921.344 453.12c1.28 0 2.816-0.256 3.84-0.256 7.424 0 13.824 1.792 19.712 5.376-6.4-4.864-13.824-7.424-22.272-7.424-1.28 0-2.816 0-3.84 0.256-12.544 1.024-25.344 2.048-37.888 3.072-11.776 1.024-21.76 5.632-29.952 14.08-8.192 8.192-12.288 17.408-12.288 28.16v84.224c0 8.96 2.56 16.384 7.68 23.04-3.84-5.888-5.632-12.8-5.632-20.48v-84.224c0-11.008 3.84-20.48 12.288-28.672 8.448-8.704 18.432-13.312 30.464-14.336 12.544-0.768 25.344-1.792 37.888-2.816" fill="#BEC0C2" p-id="1510"></path><path d="M65.792 804.096c297.472-37.12 600.32-37.12 897.792 0V788.48c-297.472-34.304-600.32-34.304-897.792 0v15.616z" fill="#1D428A" p-id="1511"></path><path d="M174.08 845.568c224.768-58.112 456.448-58.112 681.216 0v-14.848c-224.768-56.576-456.192-56.576-681.216 0v14.848" fill="#C8102E" p-id="1512"></path><path d="M425.472 420.864c-120.32-3.072-240.384-11.776-359.68-26.624v15.616c126.976 14.848 254.72 23.04 382.464 25.344-7.936-4.608-15.616-9.216-22.784-14.336M603.648 420.864c-7.168 5.376-14.848 9.984-22.784 14.08 127.744-2.304 255.744-10.496 382.464-25.344v-15.616c-119.296 14.848-239.104 24.064-359.68 26.88" fill="#1D428A" p-id="1513"></path><path d="M395.52 390.912c-73.984-6.656-148.224-19.456-221.44-38.4v14.848c77.568 19.712 155.648 32.512 233.984 38.4-4.352-4.864-8.704-9.728-12.544-14.848M633.6 390.912c-3.84 5.12-8.192 9.984-12.8 14.848 78.592-6.144 156.672-18.944 233.984-38.4v-14.848c-72.96 18.944-146.944 31.744-221.184 38.4" fill="#C8102E" p-id="1514"></path><path d="M376.064 301.312c0-76.288 61.952-138.496 138.496-138.496 76.288 0 138.496 61.952 138.496 138.496s-61.952 138.496-138.496 138.496c-76.288 0-138.496-61.952-138.496-138.496" fill="#FFFFFF" p-id="1515"></path><path d="M514.56 163.072c-76.288 0-138.496 61.952-138.496 138.496s61.952 138.496 138.496 138.496 138.496-61.952 138.496-138.496-62.208-138.496-138.496-138.496m100.096 61.44c15.872 20.736 24.832 44.8 26.112 70.912h-52.224c1.024-25.856 10.24-50.176 26.112-70.912m-200.192 0c15.872 20.736 24.832 44.8 26.112 70.912h-52.224c1.28-25.856 10.496-50.176 26.112-70.912m0 153.6c-15.872-20.736-24.832-44.8-26.112-70.912h52.224c-1.024 26.112-10.24 50.688-26.112 70.912m106.24 49.408v-36.096h-12.032V427.52c-32.768-1.536-63.232-15.616-85.76-39.68 18.432-23.04 28.928-50.688 30.208-80.128v-12.032c-1.28-29.44-11.776-57.088-30.208-80.128 22.528-24.064 52.992-38.4 85.76-39.68v35.84h12.032V175.36c32.768 1.536 63.232 15.616 85.76 39.68-18.432 23.04-28.928 50.688-30.208 80.128v12.032c1.28 29.44 11.776 57.088 30.208 80.128-22.528 24.576-52.992 38.656-85.76 40.192m93.952-49.408c-15.872-20.736-24.832-44.8-26.112-70.912h52.224c-1.28 26.112-10.496 50.688-26.112 70.912" p-id="1516"></path><path d="M483.584 243.456v115.456h61.952V343.04h-45.312V243.456z" fill="#C8102E" p-id="1517"></path><path d="M566.272 282.368V234.752c0-7.168-3.072-9.984-9.728-9.984h-83.968c-6.912 0-9.728 3.072-9.728 9.984v133.632c0 7.168 3.072 9.984 9.728 9.984h83.968c7.168 0 9.728-3.072 9.728-9.984v-47.616h-16.64v43.008h-70.4V239.104h70.4v43.008l16.64 0.256z" fill="#1D428A" p-id="1518"></path><path d="M545.536 338.688V243.456h-39.936l-0.512 95.232h15.872l0.256-29.696h8.192v29.696h16.128z m-16.128-45.568h-8.192v-33.536h8.192v33.536z" fill="#C8102E" p-id="1519"></path></svg>