<svg t="1712738037853" class="icon" viewBox="0 0 1024 1024" version="1.1" xmlns="http://www.w3.org/2000/svg" p-id="8705" width="200" height="200"><path d="M260.8128 965.3248a21.248 21.248 0 0 0-21.248-21.248H199.68V1018.88h17.408v-23.3472h16.128a9.5232 9.5232 0 0 1 9.3696 9.5232v13.824h17.408v-13.7216a26.8288 26.8288 0 0 0-5.4784-16.2304 21.6064 21.6064 0 0 0 6.144-15.36z m-21.248-3.84a3.8912 3.8912 0 0 1 3.84 3.84v8.3456a4.4032 4.4032 0 0 1-4.4032 4.4032h-21.76v-16.5888zM653.0048 1018.8288h-61.952v-74.8032h17.408v57.3952h44.544v17.408zM825.4464 961.4848v-17.408h-61.952v74.752h61.952v-17.408h-44.544v-12.1344h38.4v-17.408h-38.4v-10.3936h44.544zM433.7152 1018.8288H366.4384l38.5536-57.344h-34.3552v-17.408h67.0208l-38.5536 57.344h34.6112v17.408zM541.7472 1018.8288H474.4704l38.6048-57.344h-34.4064v-17.408h67.072l-38.6048 57.344h34.6112v17.408zM696.3712 944.0768h17.408v74.752h-17.408zM307.2 944.0768h17.408v74.752H307.2z" fill="#072340" p-id="8706"></path><path d="M307.2 944.0768h17.408v74.752H307.2zM603.1872 780.288h-63.6416v136.9088h31.4368v-44.032h32.2048a38.4 38.4 0 0 0 38.3488-38.3488v-16.1792a38.4 38.4 0 0 0-38.3488-38.3488m6.912 54.528a6.9632 6.9632 0 0 1-6.912 6.912h-32.2048v-30.0032h32.2048a6.9632 6.9632 0 0 1 6.912 6.912z" fill="#072340" p-id="8707"></path><path d="M556.5952 917.1968h-2.6624v-122.5216h49.2544a24.0128 24.0128 0 0 1 23.9616 23.9616v16.1792a24.0128 24.0128 0 0 1-23.9616 23.9616h-46.592z m0-61.0304h46.592a21.3504 21.3504 0 0 0 21.2992-21.3504v-16.1792a21.2992 21.2992 0 0 0-21.2992-21.2992h-46.592z" fill="#6188B8" p-id="8708"></path><path d="M359.4752 811.7248v-31.4368H255.744v136.9088h103.7312V885.76H287.1808v-21.2992h61.1328v-31.4368H287.1808v-21.2992h72.2944z" fill="#072340" p-id="8709"></path><path d="M359.4752 797.2864v-2.56H270.1312v108.032h89.344v-2.6112H272.7424v-50.0736h75.5712v-2.6112H272.7424v-50.176h86.7328z" fill="#6188B8" p-id="8710"></path><path d="M484.3008 780.3904h-108.544v136.7552h31.4368v-105.3184h26.3168v105.3696h31.4368v-105.3696h19.3536a6.912 6.912 0 0 1 6.912 6.912v98.4576h31.488v-98.4576a38.4 38.4 0 0 0-38.4-38.3488" fill="#072340" p-id="8711"></path><path d="M484.3008 794.8288H390.1952v122.3168h2.6112v-119.7056h55.1424v119.7568H450.56v-119.7568h33.7408a21.3504 21.3504 0 0 1 21.3504 21.3504v98.4064h2.6112v-98.4064a24.0128 24.0128 0 0 0-23.9616-23.9616" fill="#6188B8" p-id="8712"></path><path d="M200.3968 780.3904h-108.544v136.7552h31.4368v-105.3184h26.3168v105.3696h31.4368v-105.3696h19.3536a6.9632 6.9632 0 0 1 6.912 6.912v98.4576h31.488v-98.4576a38.4512 38.4512 0 0 0-38.4-38.3488" fill="#072340" p-id="8713"></path><path d="M200.3968 794.8288H106.24v122.3168h2.6112v-119.7056H163.84v119.7568h2.6112v-119.7568h33.792a21.3504 21.3504 0 0 1 21.3504 21.3504v98.4064h2.6112v-98.4064a24.0128 24.0128 0 0 0-23.9616-23.9616" fill="#6188B8" p-id="8714"></path><path d="M778.7008 780.288h31.4368v136.96h-31.4368z" fill="#072340" p-id="8715"></path><path d="M793.088 780.288h2.6112v136.96h-2.6112z" fill="#6188B8" p-id="8716"></path><path d="M726.8352 780.288v52.736h-39.1168v-52.736h-31.4368v136.96h31.4368v-52.7872h39.1168v52.7872h31.4368V780.288h-31.4368z" fill="#072340" p-id="8717"></path><path d="M741.2224 780.288v67.1232H673.28V780.288h-2.6112v136.96h2.6112v-67.1744h67.9424v67.1744h2.6112V780.288h-2.6112z" fill="#6188B8" p-id="8718"></path><path d="M152.8832 1018.88h-39.7824a21.248 21.248 0 0 1-20.9408-21.2992v-32.256a21.248 21.248 0 0 1 21.1968-21.248h18.5856a21.248 21.248 0 0 1 21.1968 21.248v3.4816h-17.408v-3.4816a3.84 3.84 0 0 0-3.7888-3.84h-18.8416a3.84 3.84 0 0 0-3.7888 3.84v32.256a3.84 3.84 0 0 0 3.7888 3.84h22.3744v-6.8608h-10.24v-17.408h27.7504z" fill="#072340" p-id="8719"></path><path d="M152.8832 1018.88h-39.7824a21.248 21.248 0 0 1-20.9408-21.2992v-32.256a21.248 21.248 0 0 1 21.1968-21.248h18.5344a21.248 21.248 0 0 1 21.248 21.248v3.4816h-17.408v-3.4816a3.84 3.84 0 0 0-3.84-3.84h-18.7904a3.84 3.84 0 0 0-3.7888 3.84v32.256a3.84 3.84 0 0 0 3.7888 3.84h22.3744v-6.8608h-10.24v-17.408h27.7504zM910.4896 1018.88h-18.5856a21.248 21.248 0 0 1-21.1968-21.248v-2.6112h17.3568v2.6112a3.84 3.84 0 0 0 3.84 3.84h18.5856a3.84 3.84 0 0 0 3.84-3.84v-3.2256l-32.3072-8.5504a15.9232 15.9232 0 0 1-11.3152-15.36v-4.6592a21.76 21.76 0 0 1 21.7088-21.76h18.0736a21.2992 21.2992 0 0 1 21.248 21.248v3.5328h-17.408v-3.5328a3.8912 3.8912 0 0 0-3.84-3.84h-18.0736a4.4032 4.4032 0 0 0-4.352 4.352v3.584l32.3584 8.6016a15.872 15.872 0 0 1 11.3152 15.36v4.2496a21.248 21.248 0 0 1-21.248 21.248M893.5424 916.992h-64.5632v-43.52h31.4368v12.288h33.1264a7.168 7.168 0 0 0 7.168-7.168v-6.2976l-51.2-15.7696a28.672 28.672 0 0 1-20.48-27.5456V819.2a38.7072 38.7072 0 0 1 38.656-38.656h64.512v45.1584h-31.4368v-13.7216h-33.0752a7.2192 7.2192 0 0 0-7.2192 7.2192v7.8336l51.2 15.7184a28.928 28.928 0 0 1 20.48 27.8528v7.9872a38.656 38.656 0 0 1-38.6048 38.6048" fill="#072340" p-id="8720"></path><path d="M893.5424 902.6048h-50.176v-29.1328h2.6624v26.4704h47.5136a21.6064 21.6064 0 0 0 21.5552-21.5552V870.4a12.0832 12.0832 0 0 0-8.4992-11.5712l-53.0432-16.2816a14.3872 14.3872 0 0 1-10.24-13.7728V819.2a24.2688 24.2688 0 0 1 24.2688-24.2176h50.1248v30.72h-2.6624v-28.1088h-47.4624a21.6064 21.6064 0 0 0-21.6064 21.6064v9.7792a11.7248 11.7248 0 0 0 8.2944 11.264l53.0432 16.2816a14.6944 14.6944 0 0 1 10.24 14.08v7.9872a24.2688 24.2688 0 0 1-24.2176 24.2176" fill="#6188B8" p-id="8721"></path><path d="M844.8 173.568a113.2032 113.2032 0 0 0 13.9776-52.8384 116.3776 116.3776 0 0 0-52.3776-94.72c-42.496-28.928-106.3424-32.9216-151.5008 21.0944a286.72 286.72 0 0 0-142.2336 17.7664A286.72 286.72 0 0 0 370.2272 47.104C325.0688-6.912 261.12-2.9184 218.6752 26.0096a116.48 116.48 0 0 0-52.3264 94.72 112.64 112.64 0 0 0 13.9776 52.8384C146.2272 222.72 122.88 281.0368 122.88 340.4288c0 71.68 30.72 108.3904 42.0352 124.2112L174.08 455.68c32.3072 82.3296 87.7056 126.6176 154.5728 167.0144l2.816-15.36c71.68 62.4128 106.24 47.0528 181.0432 131.6864 74.5472-84.3264 109.7728-69.8368 181.0944-131.6864l2.816 15.36c29.7472-17.9712 113.7152-63.0272 154.5728-167.0144 4.3008 4.2496 9.216 9.216 9.216 9.216 7.0656-9.6768 42.0864-48.7424 42.0864-124.2112 0-59.3408-23.6032-117.76-57.6512-166.8608" fill="#5E6367" p-id="8722"></path><path d="M823.9616 174.592c68.608-105.3696-87.04-215.04-162.5088-109.0048a268.4416 268.4416 0 0 0-149.0432 18.3296A268.1344 268.1344 0 0 0 363.52 65.5872c-75.5712-106.1376-231.2704 3.6352-162.6112 109.0048C122.88 282.0096 130.56 387.9424 166.8608 437.76l15.0016-15.0016s21.2992 103.5264 133.9904 171.52l4.0448-22.3232c69.376 74.0864 132.7104 72.448 192.512 140.0832 59.8016-67.6352 123.1872-65.9968 192.5632-140.0832l4.0448 22.3232c112.64-67.9936 133.9904-171.52 133.9904-171.52l15.0016 15.0016c36.4032-49.9712 44.2368-155.648-34.048-263.168" fill="#072340" p-id="8723"></path><path d="M513.1264 568.6272s-54.1184 0.8192-62.1056 5.8368c0 0-9.3184 16.0768 62.1056 15.7696 67.8912-0.3072 57.9072-12.6976 58.368-14.4896a215.8592 215.8592 0 0 0-58.368-7.1168M466.2272 505.7536s8.448-24.4224 17.408-16.6912c12.544 10.7008 28.8256 32.512 28.8256 34.816V552.96l-19.7632 1.024c-11.3152 0.3072-47.872 9.0112-47.872 9.0112-50.2784-124.5696-22.3744-218.8288-8.96-252.4672-49.8688 10.8032-57.9072-49.0496-57.9072-49.0496a38.6048 38.6048 0 0 1 21.4016 5.12 252.7232 252.7232 0 0 1 41.5232 26.9312c3.6864 2.8672 7.1168 5.632 10.24 8.192 33.8944 28.5184 61.44 22.7328 61.44 22.7328v122.1632s-98.9696-7.6288-46.08 59.136M558.9504 505.8048c62.9248-63.8976-39.7824-60.16-46.08-59.136 10.5472 0.5632 90.1632 1.024 46.08 59.136" fill="#6188B8" p-id="8724"></path><path d="M600.7808 312.32c56.6784 152.576-15.36 250.88-15.36 251.3408 44.5952-116.7872 15.9232-213.9136-3.584-250.0096a176.3328 176.3328 0 0 1-22.0672 0.4608 206.9504 206.9504 0 0 0 24.832-18.176l2.2528-2.048a147.712 147.712 0 0 1 42.3936-27.1872 81.92 81.92 0 0 1 21.7088-5.376s-5.12 50.3296-49.9712 51.2" fill="#6188B8" p-id="8725"></path><path d="M690.4832 115.0464s23.1424-57.8048 93.952-43.8272c0 0-65.024-42.8032-110.2848 34.56 0 0-64.9216-30.464-161.7408 11.4176 0 0-90.9824-32-160.1024-13.8752 0 0-40.3456-69.9904-97.28-40.96s-27.1872 95.488-17.3056 112.64c0 0-94.1056 95.8464-58.6752 214.3744l18.8928-23.6032S225.28 494.7968 294.912 535.5008l4.1472-31.744s72.8064 87.8592 158.72 125.184c8.1408 3.84 53.504 26.368 54.8864 37.4784v-61.44s-59.392 5.12-75.0592-22.4768c-10.9056-18.688-79.2064-140.4928-45.4656-268.0832 0 0-32.8192-5.12-39.0144-60.3648a116.48 116.48 0 0 0-54.9376-9.4208s54.4256-17.1008 105.472 2.6624S468.3776 317.44 502.9376 295.1168L512.4096 153.6l10.24 141.7216c34.56 22.2208 48.2816-28.0576 99.2768-47.8208s105.5232-2.6624 105.5232-2.6624A161.6896 161.6896 0 0 0 670.72 222.2592c-29.2352-5.888-72.192 12.9024-72.192 12.9024s5.9392-40.192 25.6-61.44c16.7424-18.432 54.6816-22.528 66.56-58.5216M250.112 163.84c-2.048-19.3024 22.3232-38.4512 22.3232-38.4512-10.24-10.24-27.5968-1.3312-27.5968-1.3312 15.9232-31.1808 51.6096-15.9232 51.6096-15.9232-13.5168-16.5888-42.1376-15.36-42.1376-15.36 35.3792-35.1232 78.1312 18.5344 78.1312 18.5344C294.4 119.808 250.112 163.84 250.112 163.84" fill="#6188B8" p-id="8726"></path><path d="M440.8832 293.7856c-5.4784-1.7408-14.5408 3.8912-19.5584 13.7216-16.896-5.12-22.6816-23.1424-21.9648-40.6528a250.5728 250.5728 0 0 1 41.5232 26.9312M607.0784 307.5072c-5.12-10.24-15.0528-16.0768-20.48-13.4144a146.5856 146.5856 0 0 1 42.3424-27.1872c0.768 17.5104-5.12 35.84-21.9648 40.6016" fill="#FFC52F" p-id="8727"></path></svg>