<svg t="1712738272641" class="icon" viewBox="0 0 1024 1024" version="1.1" xmlns="http://www.w3.org/2000/svg" p-id="11655" width="200" height="200"><path d="M235.44948 290.797027c2.24299-25.029734 93.033124-58.368727 240.254857-63.568387a84.010186 84.010186 0 0 0-33.797787 56.839415L440.632124 294.977145a92.06456 92.06456 0 0 1-4.740866 20.390822c-5.658453 14.8853-21.614271 27.119793-38.691585 36.448594-59.235337-7.44265-108.734057-19.932028-137.638046-35.683938-15.853864-8.564145-24.519963-17.740015-23.857262-25.131688z m564.927717-7.595582c5.607476 6.219201 5.097705 10.195411 5.097705 11.520815-0.662702 7.136788-9.583686 15.75191-24.519963 23.602376-31.452843 16.567543-85.539497 29.056921-149.87254 35.683938a54.239586 54.239586 0 0 1 9.226847-4.791843l1.070518-0.407817c18.453694-7.493627 39.45624-16.006795 40.424804-46.593027 0-5.097705 0.407816-19.779097 3.109601-25.131688 3.46644-6.881902 12.28547-17.434153 20.033982-20.390822l-12.999149-2.59983h-2.039082a35.021236 35.021236 0 0 0 9.889548-11.011043c52.251481 10.858113 87.425648 25.488527 100.577729 40.169918z m64.231088-38.283767c-27.629563-30.586233-88.598121-55.20815-167.102784-70.144427 0.356839-9.022939 5.811384-12.846218 15.598979-19.626166a132.540341 132.540341 0 0 0 16.720473-13.050126c25.488527-24.06117-4.435004-61.172465-5.70943-62.446892l-16.363634-19.983005 3.925233 25.488527c2.701784 17.48513-3.721325 23.653353-22.735766 36.907387a39.45624 39.45624 0 0 0-6.321155 5.607476 126.321141 126.321141 0 0 0-2.548853-40.781643 44.248083 44.248083 0 0 0-11.979607-22.939675l-2.09006 23.653354s-1.835174 18.504671-26.30416 40.781643a88.700075 88.700075 0 0 0 5.862362-7.391673c11.979608-17.48513 8.513168-37.315204 4.48598-60.356832l-0.815633-5.097706c-4.129141-23.959216 2.293967-38.895493 6.372132-41.393368 4.027187-5.097705 12.030585-12.999149 12.030585-12.999149a33.899741 33.899741 0 0 0-16.006795-0.356839c-15.293116 2.090059-41.087506 11.265929-40.373827 32.217498a90.637203 90.637203 0 0 0 5.862361 25.488528c2.803738 8.258283 5.454545 16.057772 3.1096 20.084959-1.886151 3.160577-7.544604 5.70943-16.465588 7.340696-36.040777 6.57604-63.670341 23.449445-77.790985 47.510615a75.80288 75.80288 0 0 0-9.379778 25.488527c-89.46473 0.254885-174.239572 11.41886-239.898018 31.758705C203.028073 213.71972 162.450338 244.917678 159.238784 280.601616c-1.682243 18.912487 6.881902 45.879349 54.137631 72.33644l-0.305862 0.356839L226.528495 359.718004l7.034834 3.364486a446.864859 446.864859 0 0 0 75.853857 25.08071 157.060305 157.060305 0 0 0-27.782495 19.881052 197.841948 197.841948 0 1 0 319.524177 192.846196c15.955818-47.7655 14.120644-99.048417 13.406965-118.419697-1.580289-43.840267 19.779097-68.36023 33.695833-79.524205 62.548846-7.901443 117.85895-21.614271 159.04841-39.96601l6.677994-3.160578 14.273576-6.830925-0.407817-0.356839c33.186062-18.504671 51.690733-40.271873 53.729815-63.466433 1.37638-15.293116-4.384027-30.586233-17.077313-44.401015z" fill="#2D2A26" p-id="11656"></path><path d="M337.760428 894.008511l25.233642-103.177558h-41.699231l-25.386573 103.177558h41.852162zM429.11131 816.217526l2.446898 42.107047H410.045891l21.971111 35.683938h38.079859l-5.964315-103.177558H401.175884s-51.384871 103.177558-50.977055 103.177558h40.220896l38.58963-77.790985zM332.203929 988.723878l-8.513168 35.225145h39.150378l25.386573-103.126581h-39.150378l-9.634663 39.966011-29.413761 0.050977 9.634664-40.016988h-39.150378l-25.386573 103.126581h39.150378l8.462191-35.225145h29.464737zM425.797801 1000.703486l2.854715-14.01869h48.479179l6.168223-22.786743h-48.683087l3.109601-15.140185h48.734064l7.44265-27.935426H405.508933l-25.386573 103.126581h87.731511l6.321155-23.19456-48.377225-0.050977zM677.471519 894.008511l25.233642-103.177558h-41.699231l-25.386573 103.177558h41.852162zM746.49445 870.508089c5.505522 7.697535 11.622768 22.735766-14.171621 34.409512-29.923531 13.559896 0 48.173316-40.781643 48.173316h-16.873405l-16.97536 70.858106h-41.852161l17.077313-70.858106h-28.241288l8.870007-32.268475h72.489372c42.973657 0 12.846218-29.7706 34.715374-33.797787 14.936277-2.752761 24.163124-5.454545 25.896343-16.516566zM223.979643 843.949044l-6.627017-53.118091H165.763847l-25.386574 103.177558h38.07986l14.069667-53.933723h0.203908l7.595581 53.933723h22.378927l31.096003-53.933723h0.254886l-12.132539 53.933723h35.887846l25.386573-103.177558h-49.702628l-29.260829 53.118091h-0.254885zM564.251481 843.949044l-6.677994-53.118091H506.035685l-25.386573 103.177558h38.079859l14.01869-53.933723h0.254885l7.595582 53.933723H562.977054l31.096004-53.933723h0.254885l-12.183516 53.933723h35.887846l25.386573-103.177558h-49.651651l-29.311806 53.118091h-0.203908zM557.879349 946.209015l2.446899 42.107047h-21.716226l21.971111 35.683938H598.660992l-5.964315-103.126581h-62.701777s-51.435848 103.126581-50.977054 103.126581h40.220896l38.640607-77.790985z" fill="#2D2A26" p-id="11657"></path><path d="M217.046763 574.637265A125.709416 125.709416 0 0 0 266.749391 652.734113a132.540341 132.540341 0 0 0 29.005944 15.293116c-6.372132-10.90909-13.814782-21.920133-21.410363-33.084108-14.171621-20.900592-28.802036-42.463886-38.079859-65.709423A137.638047 137.638047 0 0 1 228.210738 494.705244 190.144413 190.144413 0 0 0 216.333084 560.618575c0 4.740866 0 9.379778 0.560748 14.01869z" fill="#8A2432" p-id="11658"></path><path d="M248.958399 564.085015c8.768053 21.869156 22.939674 42.871703 36.703479 63.109594a448.139285 448.139285 0 0 1 28.90399 46.491073 160.78163 160.78163 0 0 0 26.915885 3.925233 230.875079 230.875079 0 0 1-24.825825-46.593027c-27.476632-68.258276-23.500422-152.625301 10.55225-201.461319A181.427337 181.427337 0 0 1 392.968578 372.360314c23.296514-12.744264 37.875951-16.516566 52.710274-25.488528 16.108749-9.634663 24.723871-25.488527 14.120644-61.733212a65.913331 65.913331 0 0 1-3.007646-25.488528 77.230237 77.230237 0 0 0-7.901443 25.029734 159.864043 159.864043 0 0 1-6.728972 32.8802C427.989814 355.130069 359.068837 375.87773 349.892967 378.630491A166.542037 166.542037 0 0 0 286.32458 413.141957a136.669483 136.669483 0 0 0-37.366181 150.943058z" fill="#8A2432" p-id="11659"></path><path d="M536.92778 226.718869a49.49872 49.49872 0 0 1 1.529311 6.779948c1.835174 13.050126-2.141036 23.602376-18.147831 26.202206s-22.073065-11.724723-23.347491-23.398468a50.977054 50.977054 0 0 1 0.50977-9.634663h-8.258282a87.833465 87.833465 0 0 0-18.759556 14.426507c-3.262531 7.085811-7.238742 16.873405-1.121496 39.762102 10.705181 40.373827 6.168224 64.740859-26.30416 78.708572-41.291414 17.892946-67.748505 28.343242-103.177558 72.948165-16.873405 21.206455-26.049275 56.380622-27.578586 91.758698a250.807108 250.807108 0 0 0 17.689038 101.087499 227.612548 227.612548 0 0 0 28.649104 52.455389 185.505501 185.505501 0 0 0 33.491925-4.33305 86.660992 86.660992 0 0 1-20.696684-51.639756c-4.231096-65.505515 31.045026-93.033124 85.335589-136.567529l24.265078-20.390822c96.856403-82.327943 68.666092-166.032266 79.320297-237.502096-7.697535-0.305862-15.293116-0.509771-23.398468-0.662702z" fill="#8A2432" p-id="11660"></path><path d="M575.721318 228.09525a318.912452 318.912452 0 0 0-5.097705 44.553945c-3.823279 62.29396-1.937128 132.540341-80.747655 202.786723L466.120651 494.705244c-52.761251 42.259978-82.939668 68.717069-80.849608 126.219187a70.450289 70.450289 0 0 0 22.022087 48.63211 210.79012 210.79012 0 0 0 43.381474-18.606625c68.513161-38.895493 111.639749-96.856403 128.156314-171.639742a494.936221 494.936221 0 0 0 10.195411-116.380615c0-15.598979 1.937128-46.185211 1.937128-46.185212A174.035664 174.035664 0 0 1 618.287158 234.722267c0.713679-1.172472 1.529312-2.344945 2.242991-3.46644q-21.410363-2.141036-44.808831-3.364486z" fill="#8A2432" p-id="11661"></path><path d="M598.660992 428.435073a0.86661 0.86661 0 0 1 0 0.35684c-2.141036 11.163975-2.701784 23.70433-4.027187 36.193708q-1.019541 7.187765-1.988105 13.916736c0 1.274426-0.509771 2.548853-0.815633 3.823279C574.6508 560.975415 529.841969 622.14788 457.811391 662.929524a235.768877 235.768877 0 0 1-37.570089 17.179267 94.766344 94.766344 0 0 0 62.701777 15.802887c64.689882-9.68564 96.244679-51.945618 111.384864-96.856403 15.598979-46.338142 13.916736-95.785885 13.203057-116.278662-2.497876-68.36023 50.416307-93.593872 50.416307-93.593871-41.138483-2.192013-54.596425 15.700933-59.133383 39.252331z" fill="#8A2432" p-id="11662"></path><path d="M555.585382 680.414653a134.171607 134.171607 0 0 1-67.901437 28.954967 107.051814 107.051814 0 0 1-82.327943-23.143582 12.846218 12.846218 0 0 0-1.274426-1.070519 201.716204 201.716204 0 0 1-34.307558 6.015293c26.151229 27.833472 60.662695 43.942221 106.542044 47.051821h0.662702a191.469816 191.469816 0 0 0 79.42225-58.572635l-0.86661 0.713678zM314.871731 727.517452a93.28801 93.28801 0 0 0-10.195411-42.769749 189.940505 189.940505 0 0 1-46.236189-20.390822 115.208143 115.208143 0 0 1-22.684789-20.390822 190.909069 190.909069 0 0 0 79.167366 83.449438zM446.800347 747.143618A171.639742 171.639742 0 0 1 379.459659 717.373018a173.780778 173.780778 0 0 1-27.119793-25.488527 176.584516 176.584516 0 0 1-31.096004-3.058624 93.950711 93.950711 0 0 1 6.830926 45.471533 189.889528 189.889528 0 0 0 79.269319 17.281221 192.234472 192.234472 0 0 0 39.711126-4.180118h-0.254886zM668.499557 278.511556c-4.435004 14.8853-19.116395 13.101103-23.347491 5.097706-6.728971-12.693287-4.180118-22.480881 2.854715-29.158875s18.453694-10.195411 29.566692-15.293117c-12.846218-2.192013-26.508068-4.180118-40.781644-5.862361l-0.611724 0.662702c-1.274426 1.478335-2.59983 2.905692-3.82328 4.435004a161.087492 161.087492 0 0 0-28.139334 79.982998l-0.713678 6.066269a324.010158 324.010158 0 0 0-1.121496 38.487677v6.423108c0 5.097705-0.407816 10.195411-0.611724 15.293117h0.305862v-1.835174a59.388268 59.388268 0 0 1 35.327099-40.169919c18.249785-7.391673 36.244686-14.222598 37.111295-40.781644a91.350881 91.350881 0 0 1 3.670348-27.782494 23.857261 23.857261 0 0 1 12.846218-12.948172c-8.81903-0.86661-18.504671 2.854715-22.786743 17.12829z" fill="#8A2432" p-id="11663"></path><path d="M690.41969 173.549801c1.325403-17.740015 18.096854-21.053523 34.358535-36.448593 20.849615-19.830074-6.270178-52.863205-6.270178-52.863206 3.415463 22.225996-6.881902 30.586233-25.488527 43.78929a23.653353 23.653353 0 0 0-10.909089 17.383175 225.777374 225.777374 0 0 1-2.95667 26.151229L690.41969 173.549801zM633.172458 142.657706c-5.097705 3.772302-9.736617 7.595581-14.120644 11.520815-3.1096 2.956669-6.168224 5.964315-8.971961 8.81903 18.300763 1.580289 36.142732 3.619371 53.321999 6.117247 10.960067-19.983005 16.159726-42.616817 9.68564-81.206448 0 0-1.529312 26.151229-39.915034 54.749356zM530.759556 159.174272c20.951569 0 41.495322 1.070518 61.529305 2.446899l2.039082-2.039082c13.457942-14.426506 34.256581-26.610022 45.369578-42.820726s6.677994-35.9898 2.548853-59.949016c-7.085811-41.342391 10.195411-48.988949 10.195411-48.988949s-34.919282 4.791843-34.256581 25.029733c0.917587 27.068816 28.853013 52.60832-13.254034 60.254879-46.185211 8.411214-74.885293 33.389971-81.206447 66.27017z" fill="#FFA400" p-id="11664"></path><path d="M530.657602 170.032385c-193.712807-1.937128-355.004207 48.020385-360.611683 111.537795-2.24299 25.488527 20.390822 48.937972 61.172465 68.36023a443.143534 443.143534 0 0 0 93.593872 30.586232 192.693266 192.693266 0 0 1 23.19456-8.666099A296.788411 296.788411 0 0 0 379.459659 360.329729c-54.188609-7.901443-98.079853-20.033982-125.046715-34.664397-19.932028-10.756158-30.586233-22.888697-29.515714-35.683938C228.414646 247.415553 364.166542 214.331445 527.293116 215.758802s292.761223 37.468135 288.988922 80.13593c-1.019541 11.622768-11.826677 22.531858-30.280371 32.217498-34.154626 17.943923-94.409505 31.758705-167.663532 38.181814a57.960911 57.960911 0 0 0-6.57604 11.622769c33.288017-12.591332 71.673738 6.066269 71.673739 6.066269a24.163124 24.163124 0 0 1 4.384027 2.192013c48.581133-8.666099 90.33134-20.951569 121.631251-35.683938 36.958364-17.638061 59.439245-38.844515 61.427351-61.835167 5.658453-63.51741-146.711963-116.533546-340.220861-118.419697z" fill="#FFFFFF" p-id="11665"></path></svg>