<svg t="1712738138211" class="icon" viewBox="0 0 1027 1024" version="1.1" xmlns="http://www.w3.org/2000/svg" p-id="2843" width="200" height="200"><path d="M250.4192 468.7872H177.6128V547.84l-43.8272 21.4528 43.8272 22.8864v70.2464l48.384 29.6448c17.8176-2.3552 40.5504-5.12 66.8672-7.7824L480.1024 792.064l34.048 156.8256c0-0.3584 34.4576-156.8256 34.4576-156.8256l186.6752-107.52c26.3168 2.7136 49.1008 5.4272 66.9184 7.7824l48.3328-29.6448v-70.5024l43.8784-22.3744-44.0832-21.9648V468.7872h-72.8064a176.7936 176.7936 0 0 0 25.6-35.4816c5.9392-10.24 11.6224-23.0912 18.5344-38.2464 53.0432-16.1792 92.16-50.0736 109.0048-83.0976 45.4656-83.2512 79.6672-185.0368 79.6672-185.0368s-19.6096 9.472-43.3152 21.1456c19.2512-58.624 30.72-108.4416 30.72-108.4416s-209.664 138.752-372.992 269.056l-14.1824-8.448c0-1.3824 0.4608-13.312 0.4608-14.2848 0 0 1.5872-13.824-22.784-22.1184l-4.352-1.4336c11.8272-8.9088 30.208-22.4768 43.6224-31.6416 21.3504-14.6432 18.8416-30.72 18.8416-30.72l-77.4656 57.6a177.5616 177.5616 0 0 0-109.824 0L381.6448 199.936s-2.56 16.1792 18.7904 30.72c13.4144 9.1648 31.7952 22.7328 43.6736 31.6416l-4.352 1.4336c-24.4224 8.2944-22.784 22.1184-22.784 22.1184 0 0.9728 0.3584 12.9024 0.4096 14.2848L403.3024 308.6848C239.9232 178.3808 30.2592 39.6288 30.2592 39.6288s11.4688 49.8176 30.72 108.4416c-25.344-12.544-43.3152-21.1456-43.3152-21.1456s34.2016 101.7856 79.7184 185.0368C114.1248 344.9856 153.2928 378.88 206.3872 395.0592c0 0 8.96 20.48 16.6912 35.2768a238.592 238.592 0 0 0 27.3408 38.4512z" fill="#201747" p-id="2844"></path><path d="M601.9072 350.2592c-0.7168 2.304-1.4848 4.5568-2.2528 6.7584 73.3696-47.9744 201.6768-131.6864 345.3952-225.024 0 0 0 3.1232 12.9024-33.8432-151.8592 91.7504-286.3104 195.6864-356.0448 252.1088zM426.0352 350.3104c-69.7344-56.32-204.1856-160.4096-356.0448-252.16 12.7488 36.9664 12.9024 33.8432 12.9024 33.8432C226.6112 225.28 354.8672 309.0432 428.3392 356.9664c-0.8192-2.2016-1.5872-4.4032-2.304-6.656zM292.7104 472.8832a188.7744 188.7744 0 0 1-56.32-72.9088l14.336 4.5056c47.0016 12.4416 136.8064 24.832 136.8064 24.832-43.264 0.9728-79.872 4.352-100.7104 6.656a75.2128 75.2128 0 0 1-11.264-17.3056 141.9776 141.9776 0 0 0 5.12 26.7776 158.72 158.72 0 0 0 11.8272 27.648z m221.184-48.4352a117.76 117.76 0 0 1-63.1296-61.9008c15.36 13.4144 35.4304 17.7152 51.2 2.304-19.4048-8.3968-21.8112-43.0592-25.6-52.1728a55.7568 55.7568 0 0 0-29.1328-31.6416c4.6592-1.5872 9.0624-3.0208 13.2096-4.2496a56.9344 56.9344 0 0 1 29.0304 38.8608s1.9456-25.6-10.8032-43.8784a149.8624 149.8624 0 0 1 70.2464 0c-12.8512 18.1248-10.8544 43.9296-10.8544 43.9296a56.832 56.832 0 0 1 29.0816-38.912l13.2608 4.3008a55.7568 55.7568 0 0 0-29.1328 31.6416c-3.7376 9.1136-6.1952 43.776-25.6 52.1728 4.4544 26.368-1.024 51.2-11.9296 59.5968zM746.9568 445.44a141.9776 141.9776 0 0 0 5.12-26.7776 76.8 76.8 0 0 1-11.264 17.3056c-20.8896-2.304-57.4464-5.6832-100.7104-6.656 0 0 89.8048-12.3904 136.8064-24.832l14.3872-4.3008a188.7744 188.7744 0 0 1-56.32 72.9088 158.72 158.72 0 0 0 11.8272-27.648zM402.0736 695.8592L310.5792 643.072c-6.5536 0.6144-13.056 1.2288-19.2512 1.8944l127.0272 73.3184a130.6624 130.6624 0 0 1-16.2816-22.4256zM625.8176 695.8592l91.4944-52.7872c6.6048 0.6144 13.056 1.2288 19.3024 1.8944l-127.0784 73.3184a128 128 0 0 0 16.2816-22.4256zM473.2928 708.1984c-40.3968-8.7552-57.1392-28.672-57.1392-28.672a110.1312 110.1312 0 0 0 35.84 41.8304s17.0496-5.12 21.0432-13.1584zM448.5632 665.0368c-2.8672-2.7648-5.7856-5.632-8.6528-8.6528a71.68 71.68 0 0 0-24.064 12.9024c8.9088 8.4992 25.9584 19.8144 56.32 26.2144-3.7376-10.496-13.2096-19.9168-23.8592-30.72z" fill="#00758D" p-id="2845"></path><path d="M513.1776 760.3712a65.0752 65.0752 0 0 0-26.1632 6.6048c-3.328-6.3488-7.2704-12.7488-10.9568-18.432a73.1648 73.1648 0 0 0 21.6576-0.7168 139.264 139.264 0 0 1-33.6384-16.5888c1.3824-0.5632 2.816-1.2288 4.2496-1.9456a44.6976 44.6976 0 0 0 12.0832-8.448 22.528 22.528 0 0 0 6.8608-15.9232c0-20.0704-13.4656-26.8288-28.672-41.8304-3.0208-3.0208-6.2976-6.0928-9.6256-9.3696a243.1488 243.1488 0 0 1 58.3168-7.1168l6.0928 85.1456h0.8704l6.2976-85.1456a243.1488 243.1488 0 0 1 58.3168 7.1168c-3.328 3.2768-6.6048 6.3488-9.6256 9.3696-15.36 15.0016-28.7232 21.76-28.7232 41.8304a22.3744 22.3744 0 0 0 6.912 15.9232 44.4416 44.4416 0 0 0 12.032 8.448c1.4848 0.7168 2.9184 1.3824 4.3008 1.9456a138.24 138.24 0 0 1-33.5872 16.5888 72.704 72.704 0 0 0 21.6064 0.7168c-3.6864 5.6832-7.5776 12.0832-10.9568 18.432a64.768 64.768 0 0 0-26.112-6.6048z" fill="#00758D" p-id="2846"></path><path d="M575.6416 721.3568a109.824 109.824 0 0 0 36.1472-41.8304s-16.7424 19.9168-57.1392 28.672c3.9936 8.2432 20.992 13.1584 20.992 13.1584zM555.52 695.5008c30.72-6.4 47.616-17.7152 56.32-26.2144a72.1408 72.1408 0 0 0-24.1152-12.9024c-2.8672 3.0208-5.7856 5.888-8.6016 8.6528-10.6496 10.5472-20.1728 19.968-23.8592 30.72z" fill="#00758D" p-id="2847"></path><path d="M486.6048 367.1552a43.9808 43.9808 0 0 1-17.2032-30.72s-19.2 32.1536 17.2032 30.72zM542.4128 367.1552a43.9808 43.9808 0 0 0 17.2032-30.72s19.2 32.1536-17.2032 30.72zM531.3024 791.5008c-2.6112-2.7648-6.5024-5.9392-18.2784-5.9904a24.3712 24.3712 0 0 0-18.2784 5.4784l18.9952 75.3152 17.5616-74.8032zM657.4592 460.6976v27.5456h-9.2672v-27.5456h-7.68v-7.8848h24.576v7.8848h-7.6288zM614.3488 460.6976v27.5456h-9.3184v-27.5456h-7.68v-7.8848h24.6784v7.8848h-7.68zM478.6688 467.712h-9.8816V460.8h9.8816v7.0144z m5.12 7.9872h3.328v-19.0976l-3.8912-3.7888h-23.1936v35.4304h8.7552v-12.544h6.5536l5.12 12.544h8.6528l-5.12-12.544zM710.8096 460.6976v-7.8848h-26.0096v35.4304h26.0096v-7.936h-16.9472v-5.8368h16.9472v-7.936h-16.9472v-5.8368h16.9472zM518.7584 480.3072v-27.4944h-9.1136v35.4304h22.1696v-7.936h-13.056zM567.808 480.3072h-10.24V460.8h10.24v19.6096z m4.8128-27.4944h-23.552v31.4368l3.9424 3.9936h23.5008v-31.488l-3.8912-3.9424zM420.096 468.736V460.8h10.24v8.0384zM439.1424 488.2432v-31.488l-3.9424-3.9424h-24.064v35.4304h8.96v-11.52h10.24v11.52zM382.8736 452.8128v15.9232h-9.984v-15.9232h-8.96v35.4304h8.96v-11.52h9.984v11.52h8.9088v-35.4304h-8.9088zM914.8416 201.1648c17.2544-40.4992 30.208-69.1712 30.208-69.1712-143.7184 93.3376-272.0256 177.0496-345.3952 225.28a155.7504 155.7504 0 0 1-9.5232 21.4016L879.4624 220.672 653.6704 384l10.24-1.8432 119.3984-11.5712s80.7936-7.8848 125.7984-68.2496C930.2528 269.9264 966.5024 175.1552 966.5024 175.1552l-51.2 26.0096zM223.1296 578.8672l27.8016-11.9808v63.1808c7.9872-1.0752 16.1792-2.0992 24.5248-3.072v-138.752h-24.4736v49.9712l-27.8016 11.7248v-61.44H198.5024v71.68s-20.48 9.728-20.1728 9.9328l20.1728 10.24v58.2656c7.8848-1.4336 16.2304-2.816 24.6272-4.1472v-55.296zM414.0032 532.48h27.7504v21.76l-27.648 0.4608V532.48z m0 46.08c6.0928 0 12.0832-0.3584 18.2272-0.4608 4.5056 11.7248 9.1648 25.0368 13.6704 36.8128 8.0896 0 16.2816-0.4096 24.4736-0.5632-4.5056-11.8272-9.0624-25.088-13.568-36.7616h9.3696v-56.9856l-10.8544-10.7008H380.2112l9.2672 11.0592v96.256l24.576-1.2288V578.56zM509.7472 532.48h28.1088v81.5616c8.448 0 17.2032 0 25.6 0.3584v-93.3888l-11.1616-11.1104h-76.8l9.2672 11.0592v93.0304h25.088V532.48zM655.1552 594.3808c-15.872-0.8192-31.488-1.536-47.4112-2.0992v-17.408c15.9232 0.4608 31.5904 0.9728 47.4624 1.6384v-24.4736c-15.9232-0.4096-31.6416-0.768-47.5136-1.0752V532.48h47.5136v-22.5792h-82.5344l9.1648 11.008v93.8496c25.088 0.768 49.664 1.8432 73.3184 3.328v-23.7056zM716.9536 532.48h21.0944v-22.5792h-69.2736V532.48h21.5552v88.2688c8.8576 0.7168 18.0224 1.4848 26.624 2.304V532.48zM346.6752 595.6096c-9.4208 0.5632-18.688 1.1776-28.1088 1.8432V532.48H346.9824v63.232z m24.6784-74.6496l-11.1104-11.0592H284.8256l8.9088 10.752v91.5968l9.728 11.5712c21.6064-2.1504 44.4928-4.0448 67.7888-5.5296v-97.28zM826.8288 579.584q11.3664-5.12 22.8352-10.24c-24.4736-11.3152-48.9472-21.6064-73.4208-31.1296v-28.0064h25.9072v10.24h24.6784v-32.2048h-84.4288l9.3696 10.9056v57.344l50.3808 22.0672v32.0512l-25.9072-3.328v-10.24l-24.4736-2.9184v32.7168c26.7776 3.1232 51.9168 6.7584 75.0592 10.9056V579.584zM335.104 477.2352v3.072h-7.936v-19.6096h7.936v2.9184h8.9088v-10.8032h-25.6v31.4368l3.9936 3.9936h21.6064v-11.008h-8.9088zM113.152 201.1648c-17.2544-40.4992-30.208-69.1712-30.208-69.1712C226.6112 225.28 354.9184 309.0432 428.3392 357.0176a162.1504 162.1504 0 0 0 9.472 21.4016L148.3264 220.672 374.3232 384l-10.24-1.8432L244.5824 370.4832s-80.8448-7.7824-125.7472-68.1472c-21.1456-32.4096-57.1392-127.1808-57.1392-127.1808l51.2 26.0096z" fill="#FFFFFF" p-id="2848"></path><path d="M250.4192 468.7872H177.6128V547.84l-43.8272 21.4528 43.8272 22.8864v70.2464l48.384 29.6448c17.8176-2.3552 40.5504-5.12 66.8672-7.7824L480.1024 792.064l34.048 156.8256c0-0.3584 34.4576-156.8256 34.4576-156.8256l186.6752-107.52c26.3168 2.7136 49.1008 5.4272 66.9184 7.7824l48.3328-29.6448v-70.5024l43.8784-22.3744-44.0832-21.9648V468.7872h-72.8064a176.7936 176.7936 0 0 0 25.6-35.4816c5.9392-10.24 11.6224-23.0912 18.5344-38.2464 53.0432-16.1792 92.16-50.0736 109.0048-83.0976 45.4656-83.2512 79.6672-185.0368 79.6672-185.0368s-19.6096 9.472-43.3152 21.1456c19.2512-58.624 30.72-108.4416 30.72-108.4416s-209.664 138.752-372.992 269.056l-14.1824-8.448c0-1.3824 0.4608-13.312 0.4608-14.2848 0 0 1.5872-13.824-22.784-22.1184l-4.352-1.4336c11.8272-8.9088 30.208-22.4768 43.6224-31.6416 21.3504-14.6432 18.8416-30.72 18.8416-30.72l-77.4656 57.6a177.5616 177.5616 0 0 0-109.824 0L381.6448 199.936s-2.56 16.1792 18.7904 30.72c13.4144 9.1648 31.7952 22.7328 43.6736 31.6416l-4.352 1.4336c-24.4224 8.2944-22.784 22.1184-22.784 22.1184 0 0.9728 0.3584 12.9024 0.4096 14.2848L403.3024 308.6848C239.9232 178.3808 30.2592 39.6288 30.2592 39.6288s11.4688 49.8176 30.72 108.4416c-25.344-12.544-43.3152-21.1456-43.3152-21.1456s34.2016 101.7856 79.7184 185.0368C114.1248 344.9856 153.2928 378.88 206.3872 395.0592c0 0 8.96 20.48 16.6912 35.2768a238.592 238.592 0 0 0 27.3408 38.4512z m754.2784-295.6288A1166.2848 1166.2848 0 0 1 935.7824 323.84c-25.6 43.9296-76.8 70.144-106.8032 79.8208 0 0-14.592 35.1232-29.5936 54.4768h61.44v83.2512l58.1632 27.8528-58.2144 29.3376v69.8368l-56.32 34.5088s-45.0048-5.5808-66.9184-7.8848l-178.944 103.3728c-35.84 161.9968-44.3904 209.152-44.3904 209.152S505.7024 963.072 469.8624 798.4128l-179.2-103.3728c-21.9136 2.304-66.8672 7.8848-66.8672 7.8848l-56.32-34.5088v-69.8368l-58.2144-29.3376 58.1632-27.8528V458.1376h61.44c-14.7456-18.432-29.5936-54.4768-29.5936-54.4768a224.1024 224.1024 0 0 1-50.3296-23.8592 173.4656 173.4656 0 0 1-56.32-55.9616A1142.1184 1142.1184 0 0 1 23.2448 173.1584C12.9024 146.944 0 106.9056 0 106.9056L43.5712 128C27.5968 80.0768 14.1824 16.4352 14.1824 16.4352s229.2224 150.6816 389.9904 279.552l2.56-1.536v-8.192a24.9856 24.9856 0 0 1 1.3824-8.704 34.048 34.048 0 0 1 15.36-17.6128c-11.8272-8.6528-33.0752-23.3984-34.9696-25.6-15.36-13.4656-18.176-28.672-16.9984-36.1984l2.6624-17.1008 87.04 64.9216a181.504 181.504 0 0 1 105.6768 0l87.04-64.9216 2.6624 17.1008c1.1776 7.5264-1.4336 22.7328-16.9984 36.1984-1.792 1.9456-23.1424 16.7936-34.9696 25.6a34.048 34.048 0 0 1 15.36 17.6128 23.808 23.808 0 0 1 1.3824 8.704v8.192l2.56 1.536c164.608-131.84 389.9904-279.552 389.9904-279.552S1002.5984 68.8128 984.4224 128l43.52-20.9408c-9.8816 31.8464-23.2448 66.2528-23.2448 66.2528z" fill="#898A8D" p-id="2849"></path></svg>