<svg t="1712739170345" class="icon" viewBox="0 0 1027 1024" version="1.1" xmlns="http://www.w3.org/2000/svg" p-id="14075" width="200" height="200"><path d="M867.456768 680.5504l106.2912-244.0704H479.258368l-20.48 47.2576L444.032768 436.48H345.165568l-84.0192 191.8464a130.0992 130.0992 0 0 0 2.6624-26.624v-3.6352c7.3216-16.7424 65.0752-149.0944 76.8-175.872h271.36l58.3168-133.4272H348.851968l-105.728 242.0224a131.8912 131.8912 0 1 0-3.8912 147.5072l-22.528 51.8144h54.1184l31.8464-73.0624h60.928l21.9648 73.0624h569.1392l21.7088-49.5616zM324.378368 607.488l14.3872-32.9216 9.9328 32.9216z m189.0304 57.1392L459.392768 486.0416h132.352c-39.0144 88.9856-63.1808 144.1792-78.1824 178.5856m204.4416 15.9232h-62.464l84.736-194.56h62.7712c-45.7216 104.2944-71.1168 162.2016-85.1968 194.56" fill="#FFFFFF" p-id="14076"></path><path d="M8.115968 607.6416a123.904 123.904 0 0 0 37.5808 83.1488 118.528 118.528 0 0 0 40.2432-83.1488z" fill="#0A2240" p-id="14077"></path><path d="M96.794368 607.6416a129.0752 129.0752 0 0 1-42.9056 90.4192 123.1872 123.1872 0 0 0 72.704 27.5968v-117.76z" fill="#FFA400" p-id="14078"></path><path d="M8.115968 596.736h77.824a118.272 118.272 0 0 0-40.2432-84.0192 123.4432 123.4432 0 0 0-37.5808 84.0192" fill="#0A2240" p-id="14079"></path><path d="M53.888768 505.3952a129.28 129.28 0 0 1 42.9568 91.3408H126.592768V477.7984a123.1872 123.1872 0 0 0-72.704 27.5968" fill="#FFA400" p-id="14080"></path><path d="M255.719168 607.6416H177.792768a118.4768 118.4768 0 0 0 40.192 83.1488 123.904 123.904 0 0 0 37.5808-83.1488" fill="#0A2240" p-id="14081"></path><path d="M167.040768 607.6416h-29.696v117.76a123.1872 123.1872 0 0 0 72.6016-27.5968 129.28 129.28 0 0 1-42.9056-90.4192M209.946368 505.3952a123.1872 123.1872 0 0 0-72.6016-27.5968v118.9376h29.696a129.2288 129.2288 0 0 1 42.9056-91.3408" fill="#295135" p-id="14082"></path><path d="M353.971968 296.6016L243.840768 548.7104a124.2112 124.2112 0 0 0-25.6-35.84 118.4768 118.4768 0 0 0-40.448 83.8656h77.9776l79.5648-182.3744h232.5504l51.2-117.76z" fill="#0A2240" p-id="14083"></path><path d="M606.899968 414.3616l51.4048-117.76h-21.9136l-51.4048 117.76h21.9136z" fill="#295135" p-id="14084"></path><path d="M391.399168 722.2272h92.6208L400.359168 444.3648h-50.0736l-121.7536 277.8624h37.0176s13.7216-31.3856 32-73.0624h71.68l21.9648 73.0624z m-79.0528-106.9056l27.8016-63.3856 19.0976 63.3856z" fill="#0A2240" p-id="14085"></path><path d="M492.416768 694.272l12.9024-29.184-66.9696-220.7744h-21.9136l75.9808 249.9584z" fill="#295135" p-id="14086"></path><path d="M815.693568 688.384l106.9568-244.0192h-155.648l-14.7456 33.8432h62.7712l-106.9568 244.0192h241.4592l14.848-33.8432z" fill="#0A2240" p-id="14087"></path><path d="M650.419968 672.7168l99.5328-228.4032h-21.9648l-99.4816 228.4032h21.9136zM862.285568 672.7168l99.4816-228.4032h-21.9136l-99.4816 228.4032h21.9136z" fill="#295135" p-id="14088"></path><path d="M711.194368 444.3648h-226.816L469.632768 478.208h134.0928l-107.0592 244.0192h195.6352l14.6944-33.8432H604.288768l106.9056-244.0192zM699.674368 396.1856h-28.8768l43.9808-99.584h-21.248L648.064768 399.36c-3.584 8.0896 0 14.592 8.1408 14.592h41.8304a25.6 25.6 0 0 0 21.0432-14.592l45.5168-102.9632h-20.8896l-44.032 99.584zM858.035968 296.6016h-73.984l-7.936 18.0224h28.7232l-43.9808 99.5328h21.1968l44.032-99.5328h23.9104l8.0384-18.0224zM887.731968 325.888l-12.3904 51.456h-20.48l32.9216-51.456z m23.9616-29.2864h-20.9408l-79.9744 117.76h20.0192l11.776-17.8688h28.16l-4.096 17.8688h21.0944l23.9616-117.76zM1006.464768 296.6016l-21.9648 49.7152h-28.5696l21.9648-49.7152h-21.248l-51.968 117.5552h21.248l21.9648-49.7152H976.512768l-21.9648 49.7152h21.1968L1027.712768 296.6016h-21.248z" fill="#0A2240" p-id="14089"></path></svg>