<svg t="1712737977101" class="icon" viewBox="0 0 1024 1024" version="1.1" xmlns="http://www.w3.org/2000/svg" p-id="6162" width="200" height="200"><path d="M238.08 345.088s84.736-138.496 258.048-138.496 254.208 134.4 254.208 134.4H985.6l-9.216 57.856s-6.912 23.04-17.408 25.344h16.128s5.376 20.224-26.88 90.112h68.608s2.816 122.368-145.152 180.224c0 0-76.544 24.32-115.712-17.408 0 0-77.824 145.152-259.328 145.152S232.704 673.024 232.704 673.024H21.504l33.536-60.416h-22.784l26.88-49.664H104.96l8.192-18.944h-21.504l52.48-96.768h29.44l12.032-29.44h-25.6l39.168-72.704H238.08z" fill="#FFFFFF" p-id="6163"></path><path d="M498.688 790.016c148.48 0 268.8-122.112 268.8-272.896s-120.32-272.896-268.8-272.896-268.8 122.112-268.8 272.896 120.32 272.896 268.8 272.896" fill="#FAB624" p-id="6164"></path><path d="M709.888 340.736c-3.328-3.84-8.192-12.032-41.216-40.96-48.64-42.24-112.896-61.696-173.568-61.696-44.544 0-83.712 9.984-126.72 33.792-55.296 30.208-77.824 65.28-83.456 72.448-4.096 5.376-4.864 8.192-2.048 9.728 2.048 1.024 5.632-3.072 8.96-7.68 16.384-21.76 37.888-43.008 60.416-55.808 7.168 1.024 16.896 10.752 20.736 16.128-14.592 7.936-38.656 26.112-47.616 33.28-7.936 6.144-10.496 9.472-8.448 12.032 1.792 2.048 7.936-2.048 12.8-6.144 8.704-7.168 34.56-25.344 47.36-32.256 8.704 9.984 5.888 28.928 2.816 33.28-1.792 2.304-1.792 4.608 0 5.632 1.792 1.024 3.84-1.536 6.4-5.376 6.144-8.448 3.584-29.44-1.536-36.864 15.616-9.472 38.144-16.128 51.712-19.2 1.28 2.304 17.664 50.432 20.736 58.88 1.792 4.864 3.584 10.496 6.912 9.216 2.304-0.768 0.768-6.144-1.28-11.264-2.56-6.656-14.848-46.848-18.688-58.88 4.608-2.56 31.488-7.936 38.4-7.68-3.328 17.664 8.96 24.832 23.296 34.048 7.68 4.864 55.04 32.256 65.024 38.4 5.632 3.584 9.984 5.888 11.264 4.096 1.28-2.048-2.56-5.888-7.936-8.704-4.352-2.56-48.384-28.16-66.816-39.936-13.312-8.192-20.48-17.408-17.152-28.928 4.352-1.28 17.664-1.28 31.488-1.28 94.208 0.768 169.984 55.04 178.432 63.488 4.352 4.352 10.24 8.192 12.544 6.4 1.792-0.768-0.768-5.888-2.816-8.192m-328.96-37.376c-2.56-4.352-14.592-15.104-20.992-17.408 15.104-11.008 50.176-27.136 63.488-29.952 2.304 3.84 8.448 20.224 10.496 26.88-11.52 2.56-42.752 14.08-52.992 20.48m103.168-30.208c-12.288 0.768-34.56 5.632-42.496 7.936-2.048-5.376-7.68-22.016-9.472-27.136 22.784-6.4 48.896-8.448 69.376-6.912-5.888 4.096-15.36 20.992-17.408 26.112m61.184-0.768c-20.48-1.536-37.12-2.048-51.712-0.512 4.352-10.496 12.544-20.736 19.2-24.832 13.824 0.512 28.16 2.56 39.936 4.864 36.608 7.424 93.184 29.44 117.76 62.208-32.768-22.016-87.04-39.168-125.184-41.728M730.368 663.808c3.584-6.4 6.4-9.984 3.328-11.776-2.816-1.536-5.376 4.608-8.704 9.984-11.008 19.2-23.04 35.072-50.176 59.648-29.952 27.392-64.768 43.264-76.8 47.36-10.24-28.672-49.408-151.552-50.432-155.136-1.536-5.376-2.816-6.912-4.608-6.144-2.048 0.768-0.768 3.584 0.256 8.192 1.024 4.608 47.616 149.76 49.152 155.136-9.216 4.608-46.592 15.104-72.96 15.872-23.552 0.768-50.688 0-64.512-3.328-16.128-13.056-53.248-65.28-67.072-92.928-16.64-32.768-27.392-62.72-30.208-75.52-1.28-6.144-3.072-10.496-6.144-9.728-3.328 0.768-1.536 5.632 0.512 12.032 5.12 16.896 13.056 40.704 30.208 74.752 18.176 36.096 50.688 78.08 60.16 89.856-29.696-6.4-65.792-20.224-100.096-45.568-29.44-22.016-55.04-50.176-67.84-70.656-2.304-3.584-4.864-8.448-7.936-6.4-1.536 1.024 0.256 5.12 2.56 8.704 18.688 33.28 63.744 80.384 121.856 106.496 67.584 30.208 141.056 28.416 207.36 3.072 57.344-22.784 107.264-68.608 132.096-113.92" fill="#0B1A23" p-id="6165"></path><path d="M621.312 545.28c-25.088 30.464-39.424 40.96-64.768 40.96-8.448 0-13.056-2.048-10.752-6.144l30.208-60.672h11.52c12.8 0 11.008 10.752 7.68 25.344-0.768 2.048 1.024 2.304 2.56 0.512l28.672-50.432c1.536-3.328-2.304-3.84-4.096-1.536-14.336 19.712-29.44 18.176-36.096 18.176h-5.376l32.256-61.696h13.056c16.384 1.024 24.064 14.848 19.456 48.384h6.912l23.808-46.848c2.048-4.096-2.304-7.68-6.656-7.68h-161.024c-9.216 0-9.728 7.168-0.768 7.168 7.424 0 6.912 10.24 0.256 15.36l-68.352 54.272 13.824 64c1.024 4.864 4.096 7.168 9.472 7.168H596.48c5.632 0 7.936-2.304 9.472-4.608l24.32-41.472c2.816-5.888-4.864-5.376-8.96-0.256m-93.184-29.44h-11.776c-0.768 0-1.536 0.768-1.536 1.536s0.768 1.536 1.536 1.536h11.776c4.096 0 7.936 0.512 6.912 2.304l-30.72 58.368c-3.84 7.168-11.776 5.376-13.056-0.256l-15.36-78.848 53.76-41.472c5.376-4.608 15.616-12.032 20.992-11.776h11.52c7.168 0 9.472 3.328 8.192 7.68l-2.048 4.096c-1.28 2.304-5.632 2.56-8.96 2.56h-6.912c-0.768 0-1.536 0.768-1.536 1.536s0.768 1.536 1.536 1.536h6.656c2.816 0 6.656 0 5.12 2.304l-24.832 47.36c-1.536 1.28-6.656 1.536-11.264 1.536" fill="#542C81" p-id="6166"></path><path d="M417.792 584.704c-3.584 0-6.144-2.56-6.912-5.12-1.28-3.584-1.024-9.472 0.256-12.032l62.208-110.08c1.024-2.048 3.584-6.4 6.656-6.4 5.632 0 7.936-7.424-1.536-7.424h-49.664c-9.216 0-9.216 7.168-0.512 7.168 3.584 0 5.12 3.584 4.096 5.888l-13.824 24.832c-1.792 2.816-5.632 3.072-9.472 3.072h-11.776c-0.768 0-1.536 0.768-1.536 1.536s0.768 1.536 1.536 1.536h11.776c3.328 0 5.888 1.024 3.84 4.864l-45.824 83.712c-3.328 4.608-9.728 5.632-9.472-3.328l16.384-122.624c0.768-3.84-0.256-6.4-4.608-6.4h-24.832c-3.072 0-4.864 1.536-6.144 3.328l-8.704 11.008c-1.28 1.28-3.584 1.28-6.4 1.28h-20.736c-0.768 0-1.536 0.768-1.536 1.536s0.768 1.536 1.536 1.536h16.896c3.072 0 6.656 0.768 5.376 2.048l-23.808 29.696c-0.768 0.768-3.072 1.024-4.608 1.024h-6.912c-0.768 0-1.536 0.768-1.536 1.536s0.768 1.536 1.536 1.536h5.632c1.792 0 1.792 0.768 1.024 1.536l-22.272 27.904c-1.28 1.024-3.328 1.28-5.632 1.28h-19.712c-0.768 0-1.536 0.768-1.536 1.536s0.768 1.536 1.536 1.536h16.896c2.56 0 4.608 0.512 3.328 2.304l-31.488 39.68c-6.144 7.68-34.56 11.264-40.192 11.264l107.008-200.192c1.024-2.304 5.12-5.888 8.96-5.888h22.784c10.496 0 10.24-7.168 1.024-7.168H223.232c-9.216 0-9.472 7.168 1.024 7.168h21.248c6.144 0 7.936 3.584 6.4 6.656l-3.072 5.632c-1.024 1.792-2.56 2.56-8.192 2.56H203.008c-0.768 0-1.536 0.768-1.536 1.536s0.768 1.536 1.536 1.536h37.376c2.048 0 5.12 0.512 3.328 4.352l-5.376 9.728c-1.024 1.536-3.328 2.304-5.888 2.304h-16.896c-0.768 0-1.536 0.768-1.536 1.536s0.768 1.536 1.536 1.536h16.896c2.56 0 2.56 1.536 1.024 3.84l-12.032 22.528c-1.024 2.048-3.072 2.304-6.912 2.304h-6.912c-0.768 0-1.536 0.768-1.536 1.536s0.768 1.536 1.536 1.536h6.912c2.56 0 3.328 1.536 2.048 3.84l-9.728 18.432c-1.536 2.56-3.584 3.84-9.984 3.84H159.488c-0.768 0-1.536 0.768-1.536 1.536s0.768 1.536 1.536 1.536h37.376c4.352 0 5.888 2.048 4.096 5.12L181.76 519.168c-1.28 1.536-4.352 1.792-9.472 1.792H134.656c-0.768 0-1.536 0.768-1.536 1.536s0.768 1.536 1.536 1.536h37.12c4.608 0 7.424 0.256 5.888 2.56l-11.008 20.992c-2.048 3.328-7.936 3.328-9.984 3.328h-11.776c-0.768 0-1.536 0.768-1.536 1.536s0.768 1.536 1.536 1.536h11.776c4.096 0 6.4 0.768 5.376 3.072l-14.848 27.904c-1.28 2.56-7.168 2.56-11.52 2.56H77.568c-0.768 0-1.536 0.768-1.536 1.536s0.768 1.536 1.536 1.536h57.856c3.84 0 8.448 0.512 6.912 3.584l-9.472 17.92c-1.024 1.536-4.096 1.536-8.704 1.536h-11.776c-0.768 0-1.536 0.768-1.536 1.536s0.768 1.536 1.536 1.536h11.776c2.816 0 6.4 0.256 5.12 2.56l-5.888 11.264c-2.048 2.816-3.84 5.376-8.192 5.376H85.248c-10.496 0-10.24 7.168-1.024 7.168h170.24c5.12 0 5.12-0.768 7.68-4.352l25.088-44.032h129.024c9.472-2.56 6.912-9.728 1.536-9.984m-101.376-13.056c-1.28 7.424-8.448 12.032-17.664 14.336l-9.472 2.304 7.936-14.08c2.048-3.84-2.56-6.144-7.424-0.512-33.024 38.4-43.264 56.832-94.208 57.088H181.76c-4.096 0-8.448-1.536-5.888-5.632l17.92-33.536h68.352c9.216 0 6.912-7.168 1.536-7.424-3.584 0-7.68-2.304-10.24-6.656-0.768-1.28-2.56-6.144 0.256-9.728l26.112-34.816h43.008l-6.4 38.656z m9.984-43.776H284.16l53.76-70.912-11.52 70.912zM971.776 549.632c-0.768-3.584-2.048-1.28-4.352 3.072-0.768 1.28-3.072 1.28-5.12 1.28h-6.912c-0.768 0-1.536 0.768-1.536 1.536s0.768 1.536 1.536 1.536h6.912c2.56 0 2.56 1.792 1.536 4.352-4.864 9.984-9.472 16.64-15.872 24.832-1.024 1.28-3.584 2.304-5.632 2.304h-6.912c-0.768 0-1.536 0.768-1.536 1.536s0.768 1.536 1.536 1.536h6.912c3.328 0 0 2.048-0.512 2.816-11.776 15.872-20.224 23.04-28.672 29.952-1.024 0.768-6.144 0.512-9.216 0.512h-6.912c-0.768 0-1.536 0.768-1.536 1.536s0.768 1.536 1.536 1.536h6.656c5.12 0 1.28 3.072 0.512 3.584-18.688 15.36-46.08 20.48-58.624 18.944-41.216-5.12-49.408-36.352-52.48-48.64-0.768-2.56-2.56-7.936-3.328-11.264-1.28-6.656 17.152-8.192 22.528-5.12 7.936 5.376 25.6 10.496 40.192 10.496 13.056 0 40.192-9.472 47.872-32 8.192-23.296-12.032-48.64-20.992-57.856-11.264-11.264-22.016-29.184-17.408-42.496 3.328-9.728 8.96-14.336 21.248-14.336 15.616 0 27.136 9.984 27.136 24.576 0 1.28-0.768 2.816-1.792 2.816h-5.632c-0.768 0-1.536 0.768-1.536 1.536s0.768 1.536 1.536 1.536h5.376c1.536 0 2.304 1.024 2.048 3.072-1.024 4.864-1.28 8.192-2.56 12.8-0.512 2.816 3.584 4.864 4.864 2.816l24.832-44.032c1.792-3.328-2.304-4.352-5.12-3.328-6.912 2.304-17.664 4.096-21.76 1.28-9.216-6.656-17.664-10.752-30.464-10.752-22.016 0-37.376 5.376-47.104 23.552-0.768 1.536-3.072 1.28-4.864 1.28h-4.352c-0.768 0-1.536 0.768-1.536 1.536s0.768 1.536 1.536 1.536h3.584c1.536 0 2.56 0.512 1.792 2.304-0.768 1.536-1.28 3.328-1.792 5.12-2.56 7.936-1.792 18.688 2.304 28.416 0.256 0.768-0.512 1.024-2.048 1.024h-6.912c-0.768 0-1.536 0.768-1.536 1.536s0.768 1.536 1.536 1.536h6.912c3.072 0 3.84 0.256 5.12 2.048 3.584 4.864 7.168 8.448 11.264 14.08 1.536 1.792-4.608 2.304-7.936 2.304h-26.368c-0.768 0-1.536 0.768-1.536 1.536s0.768 1.536 1.536 1.536h26.88c4.352 0 11.776 0 12.544 0.768 6.656 7.68 14.336 19.2 15.616 28.672 0.256 2.816-0.768 4.096-4.096 4.096h-3.584c-0.768 0-1.536 0.768-1.536 1.536s0.768 1.536 1.536 1.536h3.328c2.816 0 4.352 0.512 3.584 2.56-3.584 11.008-8.704 19.2-29.952 19.2-22.528 0-26.88-22.016-20.48-44.8 1.28-4.608 0-6.656-2.048-3.072l-15.616 24.576c-0.512 0.512-1.792 2.048-4.352 2.048h-2.304c-0.768 0-1.536 0.768-1.536 1.536s0.768 1.536 1.536 1.536c2.048 0 2.816 1.024 2.048 2.048l-5.888 8.704c-9.216-21.504-25.088-47.872-33.536-57.6l0.256-0.512c20.736-1.28 51.2-20.736 56.32-38.144 8.448-29.952-20.736-41.216-36.608-41.216h-70.144c-9.216 0-9.984 7.168-1.024 7.168 4.864 0 8.96 4.352 6.912 8.448l-15.616 27.904c-1.28 2.304-6.144 2.304-12.288 2.304h-6.912c-0.768 0-1.536 0.768-1.536 1.536s0.768 1.536 1.536 1.536h6.656c4.608 0 9.216 0.256 7.936 3.584l-18.432 33.024c-1.024 1.536-3.328 1.792-9.472 1.792h-6.912c-0.768 0-1.536 0.768-1.536 1.536s0.768 1.536 1.536 1.536h6.656c5.12 0 6.912 0.768 5.376 3.328l-24.576 44.288c-3.072 3.328-6.4 3.84-12.288 3.84-8.704 0-8.704 7.168 0.512 7.168h59.904c9.216 0 7.168-7.424 1.536-7.424-3.328 0-6.656-6.144-4.608-9.472l30.464-58.112h3.072c13.568 0 16.896 22.528 19.456 46.592 0.256 1.792-3.072 1.792-9.728 1.792h-17.152c-0.768 0-1.536 0.768-1.536 1.536s0.768 1.536 1.536 1.536h16.896c4.608 0 10.496 0 10.752 1.536 1.28 10.496 2.048 20.224 4.096 28.672 0.768 2.816-4.096 2.304-9.216 2.304H711.68c-0.768 0-1.536 0.768-1.536 1.536s0.768 1.536 1.536 1.536h21.76c6.912 0 10.24 0 10.496 1.28 9.216 34.304 49.408 61.184 88.32 59.648 33.28-1.28 61.44-19.456 75.776-30.976 19.2-15.36 47.36-47.616 58.88-71.168 2.048-5.12 5.632-10.752 4.864-14.592m-224.768-45.568c-4.864 3.84-12.032 8.192-13.312 6.912-2.048-2.048-8.192-6.4-11.52-7.936l27.648-50.688c1.28-1.792 2.56-2.816 5.632-2.816 10.752 0 14.336 11.776 9.216 26.368-3.584 10.24-9.216 21.504-17.664 28.16" fill="#542C81" p-id="6167"></path><path d="M409.6 398.592c-5.632 7.424-13.056 8.96-21.504 8.96h-2.304l14.848-29.184c0.768-1.28 2.304-2.304 4.352-2.304 1.792 0 1.536-3.84-0.768-3.84h-23.296c-2.048 0-2.816 3.84-0.768 3.84s2.304 2.304 1.536 4.096l-13.056 25.856c-1.024 1.536-2.304 1.792-4.096 2.304-2.048 0.512-3.328 4.096-1.024 4.096h37.12c2.816 0 3.584-1.024 4.352-2.048l7.68-11.52c0-1.28-2.048-1.536-3.072-0.256M778.752 383.744l3.328-6.144c1.536-2.56-1.024-5.632-4.608-5.632h-43.264c-3.072 0-2.304 3.328-1.024 3.328 2.816 0 3.584 3.328 2.048 6.4l-13.056 24.064c-2.048 2.304-3.328 3.328-6.144 3.328-2.304 0-3.072 3.328 0 3.328h43.776c1.792 0 2.56-0.768 3.328-1.536l6.144-7.936c1.536-2.048-1.792-2.048-2.56-1.024-7.68 7.68-15.616 7.424-21.76 7.424h-5.12l6.144-13.312h1.28c3.84 0 8.192 0 9.472 3.072 0.256 0.768 2.304 1.28 3.072 0l5.12-10.24c0.768-1.536-1.536-1.792-2.048-0.768-2.048 3.584-10.752 2.56-13.312 2.56h-1.28l7.68-14.848h8.192c5.376 0 9.472 3.84 11.008 7.68 0.512 0.768 3.072 1.536 3.584 0.256M941.056 373.504c-1.024 0.512-3.84 1.024-5.12 0-3.072-2.56-8.704-4.352-11.776-4.352-8.704 0-15.104 1.792-18.944 9.984-3.328 7.168 0 12.8 7.936 16.64 3.328 1.536 7.936 3.584 6.144 7.68-1.28 3.072-4.864 3.328-7.936 3.328-4.096 0-10.24-3.072-11.264-8.96-0.256-2.048-2.56-1.536-3.328-0.512l-5.376 10.496c-0.768 1.536 1.28 3.072 2.304 2.048 1.792-2.048 5.888-2.304 7.68-1.024 2.56 1.792 9.216 4.864 13.312 4.864 8.704 0 14.592-2.304 19.712-9.728 4.608-7.168 1.792-13.824-6.4-17.664-4.352-2.048-7.936-5.632-6.144-9.472 1.28-2.56 5.12-2.048 7.168-1.792 3.584 0.512 8.192 4.096 8.704 7.168 0.256 1.28 1.792 1.536 2.56 0.256l2.816-6.656c0.512-1.792-1.536-2.816-2.048-2.304M824.832 398.592c-5.632 7.424-13.056 8.96-21.504 8.96h-2.304l14.848-29.184c0.768-1.28 2.304-2.304 4.352-2.304 1.792 0 1.536-3.84-0.768-3.84H796.16c-2.048 0-2.816 3.84-0.768 3.84s2.304 2.304 1.536 4.096l-13.056 25.856c-1.024 1.536-2.304 1.792-4.096 2.304-2.048 0.512-3.328 4.096-1.024 4.096h37.12c2.816 0 3.584-1.024 4.352-2.048l7.68-11.52c0-1.28-2.048-1.536-3.072-0.256M880.64 375.808c5.376 0 9.472 3.84 11.008 7.68 0.256 1.024 3.072 1.792 3.84 0.512l3.328-6.144c1.536-2.56-1.024-5.632-4.608-5.632h-43.264c-3.072 0-2.304 3.328-1.024 3.328 2.816 0 3.584 3.328 2.048 6.4l-13.056 24.064c-2.048 2.304-3.328 3.328-6.144 3.328-2.304 0-3.072 3.328 0 3.328h43.776c1.792 0 2.56-0.768 3.328-1.536l6.144-7.936c1.536-2.048-1.792-2.048-2.56-1.024-7.68 7.68-15.616 7.424-21.76 7.424h-5.12l6.144-13.312h1.28c3.84 0 8.192 0 9.472 2.816 0.256 0.768 2.304 1.28 3.072 0l5.12-10.24c0.768-1.536-1.536-1.792-2.048-0.768-2.048 3.584-10.752 2.56-13.312 2.56h-1.28l7.68-14.848h8.192zM667.904 372.224h-15.36c-3.072 0-2.304 3.328-1.024 3.328 3.328 0 6.4 3.84 4.608 7.424l-6.4 11.52-14.08-20.736c-1.024-1.28-3.328-2.048-5.12-2.048h-15.104c-3.072 0-2.56 3.328-1.024 3.328 3.328 0 2.304 2.56 1.536 4.096l-12.032 23.296c-0.768 1.792-4.096 2.048-5.12-0.256l-9.216-30.464c-0.512-1.28-5.888-1.28-7.424 0l-23.552 19.456h-12.032c-2.56 0-3.328 1.024-3.328 2.304s1.024 2.56 3.584 2.56h6.4l-6.4 5.376c-3.584 2.56-7.168 6.4-9.472 6.4h-1.536c-2.304 0-3.584 0.256-3.584 2.304 0 1.792 1.024 2.56 3.072 2.56h18.944c3.584 0 2.816-4.608 1.024-4.608-2.048 0-5.376-2.56-2.304-6.144l5.888-5.632h11.264c6.912 0 11.264 7.936 7.68 10.24l-3.072 1.792c-1.536 0.768-2.048 4.352 0 4.352H611.84c2.816 0 2.304-3.584 1.024-3.584-3.84 0-2.048-5.632-1.28-6.912l9.728-18.432 13.568 26.368c1.024 1.792 1.792 2.56 3.328 2.56h5.376c1.792 0 2.304-1.024 3.072-2.304l15.616-27.904c2.56-5.12 4.608-6.656 7.68-6.656 0.256 0 1.28-3.584-2.048-3.584m-103.424 19.2l14.336-11.776v11.776h-14.336zM449.024 370.688c-13.056 0-26.368 6.4-28.928 20.224-2.304 11.776 5.888 24.32 20.48 24.32 13.824 0 26.368-8.96 29.184-22.272 2.304-13.312-7.68-22.272-20.736-22.272m3.584 25.088c-4.096 8.192-11.008 13.056-15.36 10.752-4.352-2.304-4.608-10.496-0.512-18.944 4.096-8.192 11.008-13.056 15.36-10.752 4.608 2.304 4.864 10.496 0.512 18.944M521.216 373.504c-1.024 0.512-3.84 1.024-5.12 0-3.072-2.56-8.704-4.352-11.776-4.352-8.704 0-15.104 1.792-18.944 9.984-3.328 7.168 0 12.8 7.936 16.64 3.328 1.536 7.936 3.584 6.144 7.68-1.28 3.072-4.864 3.328-7.936 3.328-4.096 0-10.24-3.072-11.264-8.96-0.256-2.048-2.56-1.536-3.328-0.512l-5.376 10.496c-0.768 1.536 1.28 3.072 2.304 2.048 1.792-2.048 5.632-2.304 7.68-1.024 2.56 1.792 9.216 4.864 13.312 4.864 8.704 0 14.592-2.304 19.712-9.728 4.608-7.168 1.792-13.824-6.4-17.664-4.352-2.048-7.936-5.632-6.144-9.472 1.28-2.56 5.12-2.048 7.168-1.792 3.584 0.512 8.192 4.096 8.704 7.168 0.256 1.28 1.792 1.536 2.56 0.256l2.816-6.656c0.768-1.792-1.28-2.816-2.048-2.304M711.936 390.4h-16.64c-3.072 0-2.304 3.328-1.024 3.328s2.56 0.768 2.56 2.816c0 6.912-2.816 9.216-8.448 9.216-6.4 0-8.448-7.936-4.352-17.152 2.816-6.144 9.984-11.52 18.688-11.52 5.376 0 9.472 1.28 10.24 6.144 0.256 1.28 2.048 1.28 2.56 0l4.096-7.168c0.512-0.768-0.256-1.792-1.536-1.792-1.024 0-3.328 1.28-4.864 0.256-3.328-2.56-10.496-4.864-16.128-4.864-8.96 0-21.504 2.048-29.952 16.64-7.68 13.312 3.584 27.136 13.824 27.136 5.888 0 12.288-4.352 16.128-5.888l4.352 2.816c0.768 0.768 2.048 1.792 3.328 1.792h1.536c1.536 0 2.048-2.048 2.56-3.328l6.656-15.872c0.512-1.28 0-2.56-3.584-2.56" fill="#542C81" p-id="6168"></path></svg>