<svg t="1712738818105" class="icon" viewBox="0 0 1024 1024" version="1.1" xmlns="http://www.w3.org/2000/svg" p-id="4282" width="200" height="200"><path d="M412.2624 657.5616c54.9376-8.3968 109.7216-5.9392 157.696 14.336l5.8368-12.8512c-77.6192-24.9856-175.1552-23.7056-247.8592 16.0768l20.48-48.128c-91.3408 24.7296-152.7808 76.2368-214.5792 129.28 45.056-106.3936 143.0016-193.8944 253.7472-225.6384l-5.632 17.664a634.5728 634.5728 0 0 1 289.6896-23.4496l-20.1728-26.2656 49.4592 12.5952 31.7952-47.4624L745.472 522.24l48.64 15.7696s-35.4304 14.848-33.7408 15.36c184.32 75.8784 125.2352 327.68-49.8688 329.2672-88.6272 0.768-157.3376-79.2576-154.3168-163.0208-45.056-29.6448-90.2144-43.8784-143.9232-62.4128" fill="#8C9091" p-id="4283"></path><path d="M377.6512 321.3824v-0.6656a24.0128 24.0128 0 0 1 9.0112-16.9984 30.2592 30.2592 0 0 1 16.9472-5.6832l10.24-0.6656 15.8208-1.024v113.92l-13.8752 0.9728-22.528 1.4848-15.8208 1.024v-92.16z m-77.3632-3.072a73.9328 73.9328 0 0 1 17.664-50.8928 73.0624 73.0624 0 0 1 48.7424-22.4768c37.4784-3.4816 75.5712-5.5808 113.2544-6.3488l27.8016-0.6144v319.7952l-0.4608 27.5456-27.6992-0.4608c-5.12 0-41.8304 1.28-48.6912 1.7408H430.08l-29.952 2.6624V588.8l-18.7392 0.8704c-2.56 0-47.1552 4.608-49.3568 5.12l-31.6928 5.12v-281.6zM986.7776 659.7632l-42.8032-13.1072h-0.6656c-16.7424-4.7616-31.8464-8.96-42.9056-11.9296l-19.968-5.12a81.408 81.408 0 0 1-45.8752-27.4944 79.3088 79.3088 0 0 1-16.128-50.5344v-207.872c0-20.48 6.0928-39.0144 20.8384-50.4832a53.2992 53.2992 0 0 1 33.5872-10.9056 83.6608 83.6608 0 0 1 19.9168 2.56c2.5088 0.5632 9.7792 2.6112 21.2992 5.8368l40.2432 11.3664 56.7296 16.0768 10.8032 3.1232v141.1584l-90.5728-27.8528-1.4336-9.1648s-2.56-16.4352-5.12-31.6416v158.0544a3.7888 3.7888 0 0 0 0.3584 1.0752s-0.4096 0 2.5088 1.1776l9.728 2.6112 5.12-21.7088 3.5328-15.36 75.8272 22.7328v128l-35.328-10.5984z" fill="#8C9091" p-id="4284"></path><path d="M0 361.984a55.0912 55.0912 0 0 1 16.1792-38.144 70.4 70.4 0 0 1 28.0064-17.9712 832.8704 832.8704 0 0 1 103.3728-22.9376l15.872-2.5088a75.52 75.52 0 0 1 21.6576-8.192c20.48-4.3008 82.3808-15.9232 85.1968-16.4352l32.256-6.0416v325.2224L302.08 599.04l-24.0128 2.7648c-1.9968 0-47.0528 7.7824-49.152 8.3968l-33.536 7.5264v-52.3776l-93.4912 22.1184V619.52l-0.3584 21.1968-20.48 5.12c-0.4096 0-7.168 2.048-14.4384 4.3008l-22.2208 6.8608-7.424 2.4064L0 672.9216V361.984zM786.6368 609.28h-0.512l-1.792-0.3584-5.6832-1.024-16.0768-2.7136-24.3712-3.8912-11.1616-1.2288-13.312-1.4848V253.184l29.5936 2.304c3.072 0.3584 9.6768 1.4336 18.944 2.9184 8.96 1.4336 19.4048 3.2256 26.9312 4.5056 5.12 0.9216 8.2432 1.4336 10.5984 1.9968l20.48 5.12v312.7808l-0.4096 33.792-33.28-7.3728z" fill="#8C9091" p-id="4285"></path><path d="M681.728 593.92c-2.9696-0.6144-21.6064-2.4064-40.96-3.8912-18.5344-1.4848-38.912-2.9184-51.8656-3.7376l-14.336-0.512a71.68 71.68 0 0 1-49.9712-19.8656 70.4 70.4 0 0 1-18.0736-50.3808V299.264a59.904 59.904 0 0 1 16.7424-44.4416 61.8496 61.8496 0 0 1 44.0832-15.36H578.56c3.84 0 8.704 0 15.7696 0.6144l7.936 0.3072c7.8336 0.512 17.664 1.28 30.3104 2.2528 42.3424 3.2768 53.4528 4.4032 59.904 5.7344a26.1632 26.1632 0 0 1 5.888 1.9456l15.7696 7.6288v113.152L624.64 359.5264l-2.2528-10.24S619.52 337.92 617.472 327.68h-3.84l0.256 40.96v8.9088h6.6048c2.6112 0 5.888 0.3072 11.4176 0.7168l18.9952 1.6384c14.0288 1.2288 29.0816 2.7136 36.5056 3.584a53.248 53.248 0 0 1 5.4272 0.768l21.4016 4.7104-0.256 211.1488-32.256-5.9904z" fill="#8C9091" p-id="4286"></path><path d="M398.4896 391.5264l10.5984-0.7168V318.5152h-4.0448a10.9568 10.9568 0 0 0-5.5296 1.4336c-0.512 0.4608-0.768 0.6144-1.024 2.304v69.2736z m-89.2928-73.216c-0.4608-36.4544 22.2208-61.44 58.3168-64.4608 37.2736-3.4816 75.1616-5.5808 112.64-6.2976l18.688-0.4096v329.1136l-18.688-0.3584c-4.8128 0-47.2576 1.4848-50.5344 1.8432l-20.1728 1.8432V458.3424l-10.5984 0.7168v120.8832l-17.408 0.8192c-3.3792 0-46.8992 4.5568-50.176 5.12l-21.3504 3.3792V318.3616zM989.3888 651.2128l-41.3696-12.6976-1.6384-0.512c-18.432-5.12-34.8672-9.8304-46.08-12.8512l-17.408-4.3008c-35.072-8.192-55.3472-33.5872-54.9888-69.1712V343.7056c0-18.8928 5.5296-34.2016 17.4592-43.52a43.9296 43.9296 0 0 1 28.0576-8.96 75.1616 75.1616 0 0 1 17.92 2.304c5.8368 1.3312 117.76 33.1776 117.76 33.1776l4.3008 1.2288V450.56l-73.6768-22.6304-0.5632-3.6864-7.9872-50.7904-10.24-2.9696-1.8944-0.512-2.6112-0.7168v183.04a13.9264 13.9264 0 0 0 1.3824 5.12 11.3664 11.3664 0 0 0 8.1408 5.7856s9.8816 2.6112 18.7904 5.12c2.7648-12.3904 6.9632-30.72 6.9632-30.72l1.3824-6.1952 60.3136 18.0736v109.2608l-23.7568-7.1168zM9.1136 361.984c0.4096-26.6752 23.1936-42.7008 37.9904-47.5648A832.5632 832.5632 0 0 1 149.0432 291.84l17.6128-2.7136a65.2288 65.2288 0 0 1 20.48-8.0384c20.48-4.1984 82.2784-15.9232 84.992-16.4352l21.6576-3.9936v314.368l-0.3072 16.2816-16.1792 1.8432c-3.2768 0.3584-46.9504 7.7312-50.176 8.5504l-22.6304 5.12V352.3072h-0.4608c-6.4 1.9968-7.5264 3.2256-8.96 10.24v193.2288l-88.6272 20.992v-202.24l-1.536 0.4096a23.7568 23.7568 0 0 0-8.6016 4.2496 7.5264 7.5264 0 0 0-3.1744 6.144v248.4736l-13.824 3.3792c-3.0208 0.768-42.1376 12.8-44.9536 13.8752l-24.832 9.1136V361.984zM788.7872 600.576c-3.072-0.768-46.336-7.8848-49.6128-8.192l-11.264-1.2288-5.12-0.6144v-327.68l19.8656 1.536c5.12 0.512 50.2272 8.0384 55.04 9.1648l13.8752 3.5328v305.7152l-0.256 22.784-22.3232-5.12zM592.8448 318.6176z m12.0832 186.4704a9.0112 9.0112 0 0 0 0.8704 3.7888c0.4608 0.7168 1.28 1.6896 5.6832 2.048l4.5056 0.3072v-61.44l-8.0896-0.6144h-2.9696v56.32z m78.4896 80.0768c-8.6528-1.6896-67.2768-6.0928-93.952-7.7312l-14.592-0.5632c-18.3808-0.7168-33.4848-6.4-43.8784-17.1008-10.24-10.752-15.36-26.0096-15.36-44.2368V299.264a50.5856 50.5856 0 0 1 13.824-38.144c11.9296-11.4688 27.5456-12.8512 37.888-12.9024H578.816c7.8848 0 22.1184 1.0752 53.0944 3.4304 42.1376 3.2256 53.6064 4.4544 58.6752 5.5808a16.8448 16.8448 0 0 1 3.84 1.2288l10.7008 5.12v97.3312l-73.216-9.4208-0.8704-4.096s-3.84-17.3568-6.2464-28.1088h-3.8912l-11.6224-1.024h-1.6384a12.1344 12.1344 0 0 0-2.6624 0v4.864l0.3584 45.4656v18.176l14.9504-0.5632h0.6144c3.6352 0 19.4048 1.3824 35.84 2.8672 16.2816 1.4848 31.3856 2.9696 34.6624 3.584l14.4384 3.2256v193.1264l-21.6576-3.9936z" fill="#2D2A26" p-id="4287"></path><path d="M419.1232 307.8656v92.16l-30.72 2.048V321.5872c0.8192-5.5296 2.816-11.6224 15.872-12.8512l14.7968-0.8704z m61.44-47.36v-2.9696c-37.2224 0.768-74.8544 2.9184-111.872 6.2976-31.5392 2.6624-49.5104 22.4768-49.2032 54.4768v259.2768l9.7792-1.7408c2.6624-0.4096 48.5376-5.12 51.2-5.12H388.5056V449.6896l30.72-2.0992v121.1904l9.216-1.024c2.5088-0.3584 44.9536-1.9456 51.2-1.9456h9.1648V257.3824h-8.448v2.9696zM1002.8544 556.544l-42.8544-12.8512-0.7168 3.1232s-5.12 23.3472-7.6288 33.8944c-17.2032-5.12-24.7296-7.2704-28.8256-7.9872a21.7088 21.7088 0 0 1-14.5408-11.008 23.552 23.552 0 0 1-2.4576-9.7792v-184.32a13.7728 13.7728 0 0 1 1.8432-6.8608 5.6832 5.6832 0 0 1 5.12-2.048 20.48 20.48 0 0 1 5.6832 0.9216H919.3472c0.6656 0 7.8336 2.1504 20.48 5.888 1.6896 10.6496 8.2432 52.6336 8.2432 52.6848l0.256 1.8432 54.6816 16.8448V335.6672l-2.1504-0.6144s-106.5984-30.464-112.0256-31.6928a65.8432 65.8432 0 0 0-15.7184-2.0992 34.3552 34.3552 0 0 0-21.8112 6.8096c-9.2672 7.2704-13.6192 19.6096-13.6192 35.84v207.8208c0 31.1808 16.3328 51.968 47.0528 59.3408l0.5632 0.3072h1.1776c3.584 0.6144 32.9728 8.5504 62.5664 17.1008l43.4176 13.2608 10.752 3.2768v-88.32zM189.1328 290.816a55.6032 55.6032 0 0 0-28.928 16.0256v-6.656l-9.5744 1.536a797.8496 797.8496 0 0 0-100.5056 22.272c-12.8512 4.2496-30.72 18.1248-30.72 37.9904v283.9552L30.72 641.536c2.3552-0.8704 43.52-13.5168 46.08-14.1824l3.9936-0.9216 2.304-0.512v-240.64c0-12.1856 11.3664-17.7152 19.0464-20.0704 2.56-0.8192 8.704-1.9456 14.336-2.9184v202.1376l68.608-16.1792v-6.6048V361.7792a20.1728 20.1728 0 0 1 16.7424-19.3024h0.3072l12.4928-1.9968v253.8496l10.24-2.6112c2.6624-0.6656 48.64-8.448 51.2-8.7552l4.7104-0.3584h2.6624V272.9984l-9.7792 1.792S209.2032 286.72 189.1328 290.816zM741.632 274.432l-5.7344-0.4096-3.1744-0.256v307.968h2.7136l5.12 0.4608c2.56 0 48.2304 7.7312 50.7392 8.3968l10.24 2.5088v-308.224l-6.2464-1.5872c-3.9424-0.9216-49.3568-8.448-53.4528-8.8576zM538.4704 270.6432z m82.2784 125.7472H612.3008v42.752h2.7136l10.8544 0.8192V522.24l-15.36-0.9728a15.8208 15.8208 0 0 1-13.6704-7.0656 17.92 17.92 0 0 1-2.2016-8.8576V368.64l-0.3072-45.4144v-4.5568a10.7008 10.7008 0 0 1 2.2016-7.2192 13.5168 13.5168 0 0 1 10.5984-3.4304 16.2304 16.2304 0 0 1 2.2016 0h1.024c1.3824 0 9.1648 0.5632 22.272 1.6384 1.8432 8.5504 6.7072 30.464 6.7072 30.72l0.4608 1.9968 54.8864 7.1168V270.592l-4.7104-2.56c-2.304-0.8704-4.4544-1.7408-59.2384-5.9392-33.1264-2.56-46.6944-3.3792-52.9408-3.3792h-11.1104a43.0592 43.0592 0 0 0-30.72 10.24 40.96 40.96 0 0 0-10.9056 30.72v216.32c-0.3584 31.5904 17.92 50.3808 49.7152 51.2h1.28c8.2432 0 96.2048 6.1952 108.544 8.5504l9.8304 1.792V404.5312l-6.5536-1.4848c-4.4032-0.8704-61.8496-6.144-67.9424-6.1952z" fill="#FFFFFF" p-id="4288"></path><path d="M994.6112 562.688l-28.4672-8.4992-8.3456 37.0176c-18.4832-5.4784-37.0688-10.8032-37.12-10.5472a30.0544 30.0544 0 0 1-19.712-15.36 29.696 29.696 0 0 1-3.3792-13.6192 3.3792 3.3792 0 0 1 0-0.7168V367.2576a20.8896 20.8896 0 0 1 3.4304-11.7248c2.7136-3.584 8.2944-7.3728 19.6608-4.3008 0 0 12.1344 3.328 26.4192 7.6288l8.5504 54.528 39.0144 11.9808V342.2208s-102.8096-29.6448-107.52-30.72c-27.136-6.656-40.96 4.5568-40.96 32.3584v207.872c0 27.8016 13.8752 44.7488 40.96 51.2 0-0.6144 34.4576 8.8064 64.4096 17.3568l43.4688 13.312v-70.9632zM151.8592 340.6336v-30.72a828.3136 828.3136 0 0 0-99.1744 22.016c-10.24 3.328-25.2416 15.36-25.2416 30.1056v271.872c3.0208-1.1776 44.032-13.7728 47.1552-14.4896V385.3824c0-16.384 13.4144-24.576 24.8832-28.0064 6.2976-1.8944 25.0368-4.7104 25.0368-4.7104v201.4208l52.0192-12.3392V361.216A28.5696 28.5696 0 0 1 199.68 334.4896c13.2096-2.2016 22.8352-3.6864 22.8352-3.6864V583.68c3.1744-0.8192 49.408-8.704 52.5824-8.96V282.5216s-64.4608 12.0832-84.6336 16.2816a51.2 51.2 0 0 0-38.9632 41.728m589.1072 233.5232c3.2256 0 48.9472 7.8336 52.1216 8.6016V291.3792c-3.1744-0.8704-48.896-8.3968-52.1216-8.6528v291.4304zM327.68 318.3104v249.4464c3.2256-0.6144 49.3056-5.12 52.5824-5.12V442.0096c15.7184-1.3824 31.488-2.4064 47.1552-3.2768v120.7296c3.2768-0.3584 49.8688-2.0992 53.1456-1.8944v-291.84q-55.6032 1.28-111.36 6.3488c-27.6992 2.56-41.6768 18.432-41.6768 46.08m52.6848 2.9696c0.4608-5.6832 3.6864-19.3024 23.6032-20.7872 7.8336-0.512 15.6672-1.024 23.552-1.4336v109.056c-15.6672 0.8192-31.4368 1.8944-47.1552 3.1744V321.28z m240.64 110.4896l13.568 0.9728v98.1504c-8.0384-0.6144-16.128-1.1264-24.1152-1.6896a23.552 23.552 0 0 1-20.48-11.1104 26.7264 26.7264 0 0 1-3.3792-13.0048V368.5888c0-26.0608-0.3584-45.6704-0.3584-47.0016v-3.1232a19.0976 19.0976 0 0 1 4.352-12.544 22.784 22.784 0 0 1 19.5072-6.0928c0-0.256 13.7728 0.8192 29.5424 2.1504l7.2192 32.768 39.7824 5.12V275.5584c-3.328-1.536-111.0528-9.6768-111.1552-8.5504h-1.8432c-8.5504-0.4096-22.784-0.8704-31.5904 7.6288a32.9728 32.9728 0 0 0-8.3968 24.7808v216.2688c0 27.8528 14.08 41.9328 41.8304 43.0592 0-0.9216 97.28 5.9392 111.1552 8.5504V410.88c-3.2256-0.7168-62.8736-6.1952-66.2016-6.0928v27.136z" fill="#0055B8" p-id="4289"></path><path d="M151.8592 340.6336v-30.72a828.3136 828.3136 0 0 0-99.1744 22.016c-10.24 3.2768-25.2416 15.36-25.2416 30.1056v271.872c3.0208-1.1776 44.032-13.824 47.1552-14.4896V385.3312c0-16.3328 13.4144-24.5248 24.8832-27.9552 6.2976-1.8944 25.0368-4.7104 25.0368-4.7104v201.4208l52.0192-12.3392V361.1648A28.6208 28.6208 0 0 1 199.68 334.4896c13.2096-2.2016 22.8352-3.6864 22.8352-3.6864V583.68c3.1232-0.8192 49.3568-8.704 52.5824-8.96V282.5216s-64.4608 12.0832-84.6336 16.2816a51.2 51.2 0 0 0-38.9632 41.728m589.1072 233.5232c3.2256 0 48.9472 7.7824 52.0704 8.6016V291.328c-3.1232-0.8192-48.8448-8.3456-52.0704-8.6016v291.4304z m-119.8592-142.2848l13.568 0.9728v98.1504c-8.0384-0.6144-16.128-1.1264-24.1152-1.6896a23.7056 23.7056 0 0 1-20.48-11.1104 27.0848 27.0848 0 0 1-3.328-13.0048V368.7424c0-26.0608-0.3584-45.6704-0.3584-47.0016v-3.1232a18.944 18.944 0 0 1 4.3008-12.544 22.6304 22.6304 0 0 1 19.5072-6.0928c0-0.256 13.7728 0.8192 29.5424 2.1504l7.2192 32.768 39.7824 5.12V275.5584c-3.328-1.536-111.0528-9.6768-111.1552-8.5504h-1.8944c-8.4992-0.4096-22.7328-0.8704-31.5392 7.6288a32.9216 32.9216 0 0 0-8.3968 24.7296v216.32c0 27.8528 14.08 41.8816 41.8304 43.0592 0-0.9216 97.28 5.9392 111.1552 8.5504V410.88c-3.2768-0.7168-62.8736-6.1952-66.2016-6.0928v27.136z" fill="#0055B8" p-id="4290"></path><path d="M333.1584 224.1536a1.8432 1.8432 0 0 1-0.768 1.3824 7.424 7.424 0 0 1-3.4816 1.4848l-6.7072 1.28a4.8128 4.8128 0 0 1-1.1264 0h-0.9728v-51.712s0-0.5632 0.6656-1.3312a7.7824 7.7824 0 0 1 3.6352-1.5872l5.8368-1.1264h1.4848a2.9184 2.9184 0 0 1 1.3312 0.256v51.6096z m18.0736-63.1296a10.24 10.24 0 0 0-5.5808-3.5328 16.6912 16.6912 0 0 0-4.7104-0.5632 35.84 35.84 0 0 0-6.6048 0.6656l-16.896 3.1744a30.3104 30.3104 0 0 0-10.7008 4.0448 16.1792 16.1792 0 0 0-5.12 5.12 15.36 15.36 0 0 0-2.2528 8.192v54.2208a12.3904 12.3904 0 0 0 2.7136 7.7312 10.24 10.24 0 0 0 5.632 3.4816 17.6128 17.6128 0 0 0 3.9936 0.4096 36.608 36.608 0 0 0 7.168-0.8704l16.6912-3.1744a30.72 30.72 0 0 0 10.752-3.7376 16.1792 16.1792 0 0 0 5.12-4.7616 15.0016 15.0016 0 0 0 2.3552-8.2432V168.96a12.544 12.544 0 0 0-2.4064-7.8848zM606.464 150.5792a14.4896 14.4896 0 0 0-5.12-4.5056 30.0032 30.0032 0 0 0-11.0592-2.56c-11.1104-0.768-22.272-1.3312-33.3824-1.6896h-3.2768v82.176h3.072l14.4896 0.6144h3.328V156.2624l6.7584 0.4096c7.936 0.8704 6.656 3.328 7.0656 4.2496v64.7168h2.9184c4.8128 0.3584 9.6256 0.6656 14.3872 1.0752l3.4304 0.3072V158.72a14.1312 14.1312 0 0 0-2.3552-8.0896zM653.5168 217.1904a6.0416 6.0416 0 0 1-3.0208 0.5632h-2.6112l-7.4752-0.9216V161.9456l6.7072 0.8192a12.8 12.8 0 0 1 5.4784 1.6896 3.6352 3.6352 0 0 1 1.6896 3.4304v47.4112c0 1.4848-0.3072 1.4848-0.768 1.8944z m19.0464-58.9824a15.36 15.36 0 0 0-5.12-4.7616 29.44 29.44 0 0 0-10.9056-3.328c-4.5568-0.7168-27.0848-3.328-33.1776-3.8912l-3.4304-0.256V228.352h2.8672c10.9568 1.1264 21.9648 2.4064 32.8704 3.8912a37.6832 37.6832 0 0 0 5.12 0.3584 23.0912 23.0912 0 0 0 5.8368-0.7168 11.1104 11.1104 0 0 0 5.7344-3.6352 11.9808 11.9808 0 0 0 2.5088-7.8336V166.3488a14.3872 14.3872 0 0 0-2.304-8.1408zM398.336 181.0432a3.072 3.072 0 0 1-1.2288 2.304 11.3664 11.3664 0 0 1-5.9904 2.1504l-6.1952 0.768v-22.7328l6.9632-0.8704a24.832 24.832 0 0 1 3.072 0 5.9904 5.9904 0 0 1 3.1744 0.5632v18.0224zM419.1744 225.28v-27.7504a8.5504 8.5504 0 0 0-4.0448-7.3216 5.12 5.12 0 0 0-0.9728-0.6144 11.0592 11.0592 0 0 0 5.12-8.5504v-20.8384a12.2368 12.2368 0 0 0-2.5088-7.936 11.6736 11.6736 0 0 0-5.9904-3.7888 20.48 20.48 0 0 0-6.656-0.9216c-1.3824 0-2.8672 0-4.4544 0.256q-16.4352 1.9456-32.768 4.3008l-2.6624 0.4096v82.5856l3.584-0.5632q7.1168-1.0752 14.2848-1.9968l2.7648-0.3584v-31.744l7.168-0.9216h2.6112a6.3488 6.3488 0 0 1 3.2256 0.6144c0.4608 0.3072 0.6144 0.8192 0.6144 1.9968V230.4l3.4816-0.4096 14.336-1.536 2.8672-0.256V225.28zM476.6208 206.6944v-10.6496h-3.3792l-12.4416 1.024-4.7616 14.4384-5.4784 0.3584V143.36l-3.3792 0.256c-5.12 0.3072-9.6768 0.7168-14.5408 1.0752l-2.8672 0.256v82.432l3.3792-0.3072q20.48-1.5872 40.6016-2.56h3.0208v-17.8176zM521.472 179.2h-13.9264v-21.504a1.9456 1.9456 0 0 1 0.9216-1.4336 10.24 10.24 0 0 1 6.0416-1.4336h6.9632V179.2z m17.8176-37.888h-33.5872a27.4944 27.4944 0 0 0-11.0592 2.048 13.824 13.824 0 0 0-5.4784 4.3008 13.2096 13.2096 0 0 0-2.4064 8.0384V224.1024h3.2256l14.3872-0.3072h3.1232v-30.72H521.4208v30.72h20.8896V141.312h-3.072zM718.1824 227.7376v0.3072a2.7136 2.7136 0 0 1-1.28 0h-1.792l-6.6048-1.28a4.1984 4.1984 0 0 1-3.1232-1.8432 2.3552 2.3552 0 0 1-0.3072-1.024v-51.2a2.7648 2.7648 0 0 1 1.3312 0 11.8272 11.8272 0 0 1 1.6384 0l5.888 1.1264a6.7072 6.7072 0 0 1 3.328 1.4848 2.4064 2.4064 0 0 1 0.9216 1.6384v51.2z m18.2272-57.856a16.64 16.64 0 0 0-4.8128-5.12 31.8464 31.8464 0 0 0-11.0592-4.0448l-16.6912-3.2768a34.7136 34.7136 0 0 0-6.1952-0.6144 18.9952 18.9952 0 0 0-5.12 0.6144 11.0592 11.0592 0 0 0-5.6832 3.4304 12.2368 12.2368 0 0 0-2.304 8.0896v54.272a15.36 15.36 0 0 0 2.1504 8.0896 15.36 15.36 0 0 0 5.12 4.8128 32.6656 32.6656 0 0 0 11.0592 3.7888l16.5888 3.2256a35.1744 35.1744 0 0 0 6.912 0.768 19.4048 19.4048 0 0 0 3.9424-0.4096 10.496 10.496 0 0 0 5.8368-3.3792 11.8272 11.8272 0 0 0 2.5088-7.7824V178.0224a15.9744 15.9744 0 0 0-2.0992-8.1408z" fill="#2D2A26" p-id="4291"></path><path d="M394.7008 617.9328l10.3424-5.12 8.6016 7.68-1.6896-11.3664 9.9328-5.7856-11.3152-1.9968-2.4576-11.2128-5.3248 10.1888-11.4688-1.1264 8.0384 8.192-4.6592 10.5472z" fill="#FFFFFF" p-id="4292"></path><path d="M742.4 553.8304l29.0304-12.6976 1.4336-0.6144-1.4848-0.4608s-30.4128-10.24-36.9664-12.1344c-0.9728-6.912-5.7856-39.9872-5.7856-39.9872l-0.256-1.5872-11.0592 17.9712-9.7792 15.8208-38.656-9.8816-1.6384-0.4096 1.024 1.3824s12.8 16.4352 20.48 26.4704a520.6016 520.6016 0 0 0-110.1824-10.7008c-13.7728 0-28.0576 0.4096-42.9568 1.2288A589.568 589.568 0 0 0 368.64 561.6128l6.144-18.3296-1.1264 0.3584C289.3312 569.9584 197.12 649.0112 156.3648 727.04l0.9216 0.6656c57.6512-54.016 135.6288-97.28 205.5168-112.896l-18.3296 42.8032 1.3824-0.6656c32.5632-15.7184 75.264-22.6816 118.3232-22.6816a372.8896 372.8896 0 0 1 122.88 19.8144l-13.1584 28.7232a299.1104 299.1104 0 0 0-114.3296-24.064 178.0736 178.0736 0 0 0-19.2512 0.9728v1.1264c44.4416 12.544 90.4192 26.7264 126.8736 55.9616 0 3.072-0.3072 6.1952-0.3072 9.2672 0 76.8 66.56 146.5856 144.384 146.5856h1.536c85.9136-1.024 149.5552-79.7696 149.5552-161.8944 0-60.4672-34.6112-122.88-120.1664-157.0304z" fill="#2D2A26" p-id="4293"></path><path d="M695.3472 694.7328c-31.744 0-63.488-11.6224-95.3344-23.3472a127.0784 127.0784 0 0 0-9.0112 85.76h7.8848a361.0112 361.0112 0 0 0 179.6096-48.384 239.5648 239.5648 0 0 0-21.4528-32.0512 112.1792 112.1792 0 0 1-61.696 17.92z" fill="#8C9091" p-id="4294"></path><path d="M596.6848 769.1776h-2.048c19.2512 49.7664 63.3344 82.7392 117.1968 83.5072 17.2032-42.4448 36.3008-88.832 80.0256-110.4896a229.9904 229.9904 0 0 0-8.192-22.4256 372.8896 372.8896 0 0 1-186.9824 49.408zM729.7024 613.0176a194.56 194.56 0 0 0-32.4608-9.7792c-5.376 0.7168-12.6464 1.4336-18.4832 2.6112a199.68 199.68 0 0 1 80.64 55.552 117.76 117.76 0 0 0 30.72-34.56c-22.1696-21.504-63.7952-47.872-167.7312-56.32 43.8784 10.24 84.224 24.5248 107.52 40.96l-0.5632 1.0752zM438.3744 598.5792h20.48c73.8304 0 187.7504 8.7552 231.936 61.44l-0.7168 0.9216c-15.36-8.5504-46.08-22.6304-64.9216-22.6304h-1.8432a164.3008 164.3008 0 0 0-17.5104 23.552c29.4912 10.8544 59.392 21.6576 89.0368 21.6576a103.6288 103.6288 0 0 0 55.3984-15.36c-51.2-55.808-137.8304-80.128-219.5968-80.128a379.2896 379.2896 0 0 0-92.5184 11.0592zM787.712 703.0272a187.136 187.136 0 0 0 37.7856-32.9216 144.1792 144.1792 0 0 0-27.9552-36.1984 129.2288 129.2288 0 0 1-31.232 36.608 287.1808 287.1808 0 0 1 21.4016 32.512z" fill="#8C9091" p-id="4295"></path><path d="M724.3264 852.1728a129.3824 129.3824 0 0 0 69.8368-29.0816 136.1408 136.1408 0 0 0 4.4032-35.2256 187.2896 187.2896 0 0 0-3.2768-33.8944c-39.1168 18.7904-55.3472 60.0576-70.9632 98.2016zM810.1376 795.4944c0 3.9424 0 7.8336-0.3072 11.776a139.8272 139.8272 0 0 0 27.904-64.8704 145.8688 145.8688 0 0 0-32.6144 6.2976 215.5008 215.5008 0 0 1 5.12 46.6944zM793.088 713.8816a271.0016 271.0016 0 0 1 9.1136 23.9616 145.5104 145.5104 0 0 1 36.7104-6.7584v-2.7136a132.096 132.096 0 0 0-7.936-46.08 234.1888 234.1888 0 0 1-37.888 31.3856z" fill="#8C9091" p-id="4296"></path><path d="M838.912 731.0848a145.5104 145.5104 0 0 0-36.7104 6.7584 271.0016 271.0016 0 0 0-9.1136-23.9616 234.1888 234.1888 0 0 0 37.888-31.3856 132.096 132.096 0 0 1 7.936 46.08v2.7136z" fill="#8C9091" p-id="4297"></path><path d="M838.912 731.0848a145.5104 145.5104 0 0 0-36.7104 6.7584 271.0016 271.0016 0 0 0-9.1136-23.9616 234.1888 234.1888 0 0 0 37.888-31.3856 132.096 132.096 0 0 1 7.936 46.08v2.7136zM797.5424 633.9072a144.1792 144.1792 0 0 1 27.9552 36.1984 187.136 187.136 0 0 1-37.7856 32.9216 287.1808 287.1808 0 0 0-21.4016-32.512 129.2288 129.2288 0 0 0 31.232-36.608z" fill="#8C9091" p-id="4298"></path><path d="M797.5424 633.9072a144.1792 144.1792 0 0 1 27.9552 36.1984 187.136 187.136 0 0 1-37.7856 32.9216 287.1808 287.1808 0 0 0-21.4016-32.512 129.2288 129.2288 0 0 0 31.232-36.608zM622.5408 570.7776c103.936 8.192 145.5616 34.56 167.7312 56.32a117.76 117.76 0 0 1-30.72 34.56 199.68 199.68 0 0 0-80.64-55.552c5.8368-1.1776 13.1072-1.8944 18.4832-2.6112a194.56 194.56 0 0 1 32.4608 9.7792l0.5632-1.0752c-23.5008-16.64-63.8464-30.72-107.52-40.96z" fill="#8C9091" p-id="4299"></path><path d="M622.5408 570.7776c103.936 8.192 145.5616 34.56 167.7312 56.32a117.76 117.76 0 0 1-30.72 34.56 199.68 199.68 0 0 0-80.64-55.552c5.8368-1.1776 13.1072-1.8944 18.4832-2.6112a194.56 194.56 0 0 1 32.4608 9.7792l0.5632-1.0752c-23.5008-16.64-63.8464-30.72-107.52-40.96zM599.04 757.248h-7.8848a127.0784 127.0784 0 0 1 9.0112-85.76c31.8464 11.7248 63.5904 23.3472 95.3344 23.3472a112.1792 112.1792 0 0 0 61.696-17.92 239.5648 239.5648 0 0 1 21.4528 32.0512A361.0112 361.0112 0 0 1 599.04 757.248z" fill="#8C9091" p-id="4300"></path><path d="M599.04 757.248h-7.8848a127.0784 127.0784 0 0 1 9.0112-85.76c31.8464 11.7248 63.5904 23.3472 95.3344 23.3472a112.1792 112.1792 0 0 0 61.696-17.92 239.5648 239.5648 0 0 1 21.4528 32.0512A361.0112 361.0112 0 0 1 599.04 757.248z" fill="#8C9091" p-id="4301"></path><path d="M711.68 852.6848c-53.8624-0.768-97.9456-33.7408-117.1968-83.5072h2.048a372.8896 372.8896 0 0 0 186.9824-49.408 229.9904 229.9904 0 0 1 8.192 22.4256c-43.7248 21.6576-62.8224 68.0448-80.0256 110.4896z" fill="#8C9091" p-id="4302"></path><path d="M711.68 852.6848c-53.8624-0.768-97.9456-33.7408-117.1968-83.5072h2.048a372.8896 372.8896 0 0 0 186.9824-49.408 229.9904 229.9904 0 0 1 8.192 22.4256c-43.7248 21.6576-62.8224 68.0448-80.0256 110.4896zM809.8304 807.2704c0-3.9424 0.3072-7.8336 0.3072-11.776a215.5008 215.5008 0 0 0-5.12-46.6944 145.8688 145.8688 0 0 1 32.6144-6.2976 139.8272 139.8272 0 0 1-27.904 64.768z" fill="#8C9091" p-id="4303"></path><path d="M809.8304 807.2704c0-3.9424 0.3072-7.8336 0.3072-11.776a215.5008 215.5008 0 0 0-5.12-46.6944 145.8688 145.8688 0 0 1 32.6144-6.2976 139.8272 139.8272 0 0 1-27.904 64.768zM750.4896 667.648a103.6288 103.6288 0 0 1-55.3984 15.36c-29.6448 0-59.5456-10.8032-89.0368-21.6576a164.3008 164.3008 0 0 1 17.5104-23.552h1.8432c19.0464 0 49.6128 14.08 64.9216 22.6304l0.7168-0.9216c-44.1856-52.4288-158.1056-61.1328-231.936-61.44h-20.48a379.2896 379.2896 0 0 1 92.5184-11.0592c81.92 0 168.3968 24.32 219.5968 80.128z" fill="#8C9091" p-id="4304"></path><path d="M750.4896 667.648a103.6288 103.6288 0 0 1-55.3984 15.36c-29.6448 0-59.5456-10.8032-89.0368-21.6576a164.3008 164.3008 0 0 1 17.5104-23.552h1.8432c19.0464 0 49.6128 14.08 64.9216 22.6304l0.7168-0.9216c-44.1856-52.4288-158.1056-61.1328-231.936-61.44h-20.48a379.2896 379.2896 0 0 1 92.5184-11.0592c81.92 0 168.3968 24.32 219.5968 80.128zM794.1632 823.0912a129.3824 129.3824 0 0 1-69.8368 29.0816c15.616-38.144 31.8464-79.4112 70.9632-98.2016a187.2896 187.2896 0 0 1 3.2768 33.8944 136.1408 136.1408 0 0 1-4.4032 35.2256z" fill="#8C9091" p-id="4305"></path><path d="M794.1632 823.0912a129.3824 129.3824 0 0 1-69.8368 29.0816c15.616-38.144 31.8464-79.4112 70.9632-98.2016a187.2896 187.2896 0 0 1 3.2768 33.8944 136.1408 136.1408 0 0 1-4.4032 35.2256zM691.5072 564.9408l22.5792-7.8848 17.152 19.456-1.9968-25.4464 21.9136-9.5232-23.808-7.8336-3.7376-25.344-12.6976 20.5824-24.1152-6.144 15.9744 20.5824-11.264 21.5552z" fill="#8C9091" p-id="4306"></path><path d="M571.136 583.2192l15.6672-7.7312 13.1072 11.6224-2.56-17.3056 15.104-8.7552-17.2544-2.9696-3.7376-17.0496-8.0896 15.5136-17.408-1.792 12.2368 12.4928-7.0656 15.9744zM394.6496 617.9328l10.3424-5.12 8.6016 7.68-1.6896-11.3664 9.9328-5.7856-11.3152-1.9968-2.4576-11.2128-5.3248 10.1888-11.4688-1.1264 8.0384 8.192-4.6592 10.5472z" fill="#FFFFFF" p-id="4307"></path><path d="M785.3568 773.9904v-2.0992l-14.5408 24.3712 4.1984-21.4528-1.0752-0.512a169.472 169.472 0 0 0-36.096 67.4304l-0.3584 1.1264 1.0752-0.4096a133.5296 133.5296 0 0 0 41.4208-21.9136c3.584-7.7824 5.12-23.3984 5.12-42.5984v-3.7376zM736.6144 717.5168a395.6736 395.6736 0 0 1-75.4176 7.4752h-11.0592l53.504-15.8208v-1.1776c-35.328-1.6384-62.5664-2.304-97.28-18.4832h-0.512v0.512a75.1104 75.1104 0 0 0-8.0384 35.1744 77.3632 77.3632 0 0 0 2.9696 21.8112v0.4096h3.9424c15.36 0 78.7968-1.7408 132.4032-28.4672l-0.4096-1.0752zM748.4416 760.8832c-26.9824 20.0192-47.2576 36.1984-87.04 43.7248 36.8128-19.1488 61.44-32.3072 84.736-55.808l-0.7168-0.9216c-40.96 23.9616-94.7712 34.2016-132.608 35.84h-1.024l0.5632 0.8704c31.1296 49.2544 70.5536 53.7088 83.3536 53.7088a36.3008 36.3008 0 0 0 4.1984 0c16.6912-26.4192 27.3408-51.8656 48.8448-75.9296l-0.768-0.8704z" fill="#0055B8" p-id="4308"></path><path d="M720.8448 596.6336c-1.9968-1.024-3.9424-1.9968-6.0416-2.9184a202.8032 202.8032 0 0 1 65.3312 30.9248c-1.8432 2.7648-3.9424 5.12-6.0416 7.936a156.2112 156.2112 0 0 0-53.248-35.84M819.2 774.9632v-2.048a164.1984 164.1984 0 0 0 2.9696-25.6c2.2528-0.6144 4.5568-1.0752 6.8608-1.536a150.7328 150.7328 0 0 1-9.728 29.2352m13.2608-55.8592c-4.1472 0.5632-7.9872 1.1776-11.776 1.9968a167.2192 167.2192 0 0 0-3.6352-18.2784c4.096-3.4816 8.0384-6.9632 12.0832-10.752a105.1648 105.1648 0 0 1 3.328 27.0336m-14.1824-52.2752c-3.5328 3.7888-6.9632 7.168-10.24 10.24a158.0544 158.0544 0 0 0-13.568-23.7568c2.7136-3.2768 5.12-6.656 7.7824-10.24a108.6976 108.6976 0 0 1 16.2304 23.7056" fill="#FFFFFF" p-id="4309"></path></svg>