<svg t="1712738298518" class="icon" viewBox="0 0 1024 1024" version="1.1" xmlns="http://www.w3.org/2000/svg" p-id="12910" width="200" height="200"><path d="M959.3344 521.216l26.7776-66.2528-89.2416 49.8688c-0.3072 0-26.4192 14.6944-64.3072 30.976a1278.72 1278.72 0 0 0 52.3264-159.1296C916.48 256 933.376 123.3408 934.0928 117.76l6.656-53.5552-184.32 51.2a325.0176 325.0176 0 0 0-497.2544 0.768l-185.344-52.0192 6.9632 53.9136c0 1.3312 17.92 137.5232 51.2 260.1472a1295.36 1295.36 0 0 0 52.6336 153.6c-40.2944-17.0496-74.0864-33.1264-74.496-33.28L27.136 459.1104l25.6 63.9488-30.2592-11.4688 27.7504 74.7008c1.8944 5.4272 13.6704 37.1712 103.168 278.6304l12.288 33.2288 26.0096-8.2432c5.12 13.3632 17.8176 48.2304 17.8176 48.2304l36.2496-18.7392c27.5456-14.1312 86.6304-38.0928 134.4512-45.824 56.832 77.9776 101.2224 118.3744 103.1168 120.1152l24.5248 22.1184 24.1664-22.5792a941.6192 941.6192 0 0 0 102.4-119.6544 361.1648 361.1648 0 0 1 121.9072 41.3696l35.2256 19.456 15.36-37.1712 3.8912-9.5744 20.0704 6.8096 13.0048-33.1776c2.5088-6.4 59.5968-140.4928 114.688-269.6192l36.7616-86.1184s-35.84 15.36-35.84 15.6672z" fill="#FFFFFF" p-id="12911"></path><path d="M904.0896 517.7856a836.2496 836.2496 0 0 1-98.6112 45.056A1303.0912 1303.0912 0 0 0 870.4 372.8896c31.5904-120.576 48.64-255.6416 48.7936-257.024l3.9424-31.488-30.72 8.4992-387.4304 107.52L91.392 84.48l4.096 31.6928c0 1.3312 17.7664 136.2432 50.6368 258.2016a1399.7568 1399.7568 0 0 0 65.536 184.832c-53.76-21.1968-107.52-46.7968-108.1344-47.1552l-48.6912-23.2448 19.9168 50.176c47.872 120.576 72.192 186.7776 103.0656 270.5408l39.7312 107.52 21.1968-10.8032c31.6928-16.2816 97.28-42.3936 147.968-48.64 58.3168 81.408 104.3456 123.2896 106.3424 125.0816l14.4384 13.0048 14.1824-13.2608c2.048-1.9456 48.896-46.08 105.8304-124.7232 59.0848 6.0416 109.8752 29.952 135.7312 44.2368l20.736 11.52 9.0624-21.9136c23.5008-56.9344 139.8272-344.4736 141.0048-347.3408l22.528-55.7568-52.48 29.3376z" fill="#2D2A26" p-id="12912"></path><path d="M946.5344 531.8656c-1.024 0.4096-94.1568 40.0384-170.3424 58.9824 29.7472-68.608 55.6544-130.048 79.616-221.696 31.2832-119.6544 48.2304-253.7984 48.384-255.1296l1.1776-9.2672-9.0112 2.5088-391.424 108.544-396.1856-110.8992 1.1776 9.3184a2240.3072 2240.3072 0 0 0 50.2784 256.256c21.3504 79.2576 46.4896 139.1104 70.8096 197.0176l7.9872 19.2c-65.8944-16.6912-155.1872-47.9744-156.1088-48.3328l-12.5952-4.4032 4.7104 12.4928c39.1168 104.0896 59.1872 160.0512 80.384 219.2384l43.008 119.1424 5.6832-1.792a1247.6928 1247.6928 0 0 1 188.5696-40.192c56.7808 81.92 109.6192 128.3584 110.1312 128.8192l4.1472 3.6352 4.096-3.6864c0.512-0.512 50.7904-46.336 109.1584-128 50.6368 3.3792 144.8448 24.6784 180.6336 38.8608l5.6832 2.2528 2.3552-5.6832c23.5008-56.7808 144.5888-336.0256 145.8176-338.8416l6.2464-14.336-14.3872 6.144z" fill="#FFFFFF" p-id="12913"></path><path d="M754.9952 608.5632l4.864-11.2128c32.9216-75.8784 58.88-135.7312 83.9168-231.3728a2267.7504 2267.7504 0 0 0 47.104-244.224L506.88 228.3008l-1.6896 0.4608-381.6448-106.752a2223.9232 2223.9232 0 0 0 48.64 245.248c21.1968 78.4384 46.08 137.9328 70.2976 195.4304l17.408 41.8304 138.7008 225.28 2.1504 3.1232A771.7888 771.7888 0 0 0 506.88 958.5152a906.24 906.24 0 0 0 105.3184-125.0816l1.9968-2.816 140.9024-222.0544z" fill="#8C9091" p-id="12914"></path><path d="M243.3024 472.4224c-3.6864-5.12-19.712-30.72-19.712-73.5232v-3.84a271.0016 271.0016 0 0 1-16.9984-94.6688 278.3232 278.3232 0 0 1 88.4736-202.2912A308.9408 308.9408 0 0 1 508.1088 14.2336a308.9408 308.9408 0 0 1 213.0432 83.8656 278.3232 278.3232 0 0 1 88.3712 202.2912 271.0528 271.0528 0 0 1-13.2608 84.0704 270.1312 270.1312 0 0 1-43.6224 147.0976 20.48 20.48 0 0 1-5.632 3.8912l-0.4608 0.4608a2.304 2.304 0 0 0-0.512 1.3824 29.696 29.696 0 0 1-1.536 5.7856h0.4608l-1.1776 1.5872a285.7472 285.7472 0 0 1-231.4752 116.5312c-125.184 0-231.4752-79.0016-269.1584-188.6208z" fill="#2D2A26" p-id="12915"></path><path d="M915.2512 556.6464c-1.8944 0.8192-192.1024 82.8416-410.0096 81.92-191.8464-0.8192-409.344-83.0976-411.5456-83.9168l-46.08-17.5616 16.3328 44.032c0.3072 1.1776 0.3072 1.1776 103.1168 278.4768l7.424 19.968 20.48-6.4a1068.5952 1068.5952 0 0 1 309.5552-47.8208c133.12 0 249.6 27.4432 297.3696 43.6736l20.1728 6.8608 7.8848-20.0192c2.8672-7.3216 70.2464-165.4784 114.8416-269.9776l22.0672-51.8144-51.5584 22.5792z" fill="#0056A8" p-id="12916"></path><path d="M917.3504 583.68l-19.4048 7.1168-43.2128 15.7696a95.232 95.232 0 0 0-29.8496 15.872 80.384 80.384 0 0 0-12.288 13.8752c0.768-2.0992 1.2288-3.3792 1.2288-3.4816l5.7856-15.9744-16.4352 4.352-39.0656 10.24-38.1952 8.5504-8.96 1.4848-45.7728 7.68c-1.8944 0.3072-19.6096 3.4304-28.8256 12.7488a45.1072 45.1072 0 0 0-5.4272 6.7072l2.6112-15.36-11.52 1.0752-36.9664 3.4816-1.2288 9.5744a18.944 18.944 0 0 0-3.3792-3.328 36.9152 36.9152 0 0 0-22.016-5.12l-54.1696 1.536-43.7248-0.3072a40.96 40.96 0 0 0-25.0368 9.6256 26.4192 26.4192 0 0 0-3.7376 4.5568c0-5.12-0.3584-8.2944-0.3584-8.2944l-0.3072-7.7824-46.08-4.1984L337.92 647.0144l2.4064 12.1344 0.6144 3.1744a69.4784 69.4784 0 0 0-32.1536-19.4048l-54.9888-12.4416 3.5328 14.08 2.6624 10.24a64.512 64.512 0 0 0-5.12-7.68 60.8256 60.8256 0 0 0-30.208-23.4496c-13.4144-4.864-40.96-11.3664-42.0864-11.6224l-15.36-3.6864c-14.08-6.0928-45.1584-16.2816-55.7056-19.712l-17.4592-5.6832 6.3488 17.2544 90.5216 244.736 37.4272-10.24 39.8848-9.5232 38.9632-6.7584 33.2288-5.12 29.6448-4.2496 37.6832-3.8912c3.9936 0 16.2304-1.4848 22.7328-6.656a32.3072 32.3072 0 0 0 5.8368-6.0928l0.5632 10.24 44.288-1.4336H481.28a39.5776 39.5776 0 0 0 21.2992-9.0624 25.6 25.6 0 0 0 2.5088-2.8672l-0.4096 11.3664 35.84 0.9216 40.4992 1.024 29.2352 2.2528 37.1712 4.0448a48.64 48.64 0 0 0 26.368-5.12 31.232 31.232 0 0 0 3.072-1.9456l-3.072 10.24 37.888 6.4 33.5872 6.144 4.1984 1.1264a105.4208 105.4208 0 0 0 33.8944 3.3792c17.408-2.0992 35.1744-16.2304 43.2128-34.4064l37.632-87.04c0.6656-1.4848 53.4016-124.0064 53.4016-124.0064z" fill="#FFFFFF" p-id="12917"></path><path d="M582.9632 793.9584l23.552 1.792 22.3232-132.7104-29.8496 2.816-16.0256 128.1024zM680.4992 672.8192l-11.1104 47.5136 29.44-0.768L718.336 650.24l-45.2096 7.68s-16.5376 2.7136-24.0128 10.24c-10.24 10.24-12.8 29.44-12.8 29.44l-18.0736 99.2256 29.4912 3.0208a42.0352 42.0352 0 0 0 21.504-3.584 31.4368 31.4368 0 0 0 13.9264-18.2272c2.4576-7.168 9.1648-35.328 9.1648-35.328h-27.8528l-5.888 28.16a26.5728 26.5728 0 0 1-5.12 11.1104 15.36 15.36 0 0 1-12.0832 5.12l19.2512-88.7296a73.8304 73.8304 0 0 1 7.3728-18.2272 15.36 15.36 0 0 1 12.288-7.168zM731.2384 722.5856l25.2416-80.3328-25.6 5.5296-45.5168 156.9792 20.1728 3.2256 21.2992-67.0208h6.0928a5.9392 5.9392 0 0 1 3.9424 5.12 25.088 25.088 0 0 1-1.8432 8.2944L716.8 809.9328l23.7568 4.4544 19.6096-57.6A45.7216 45.7216 0 0 0 762.88 742.4a27.1872 27.1872 0 0 0-5.12-12.6976 18.6368 18.6368 0 0 0 11.4176-6.3488 29.2352 29.2352 0 0 0 8.192-15.872c1.6384-4.7616 27.904-77.2608 27.904-77.2608l-33.9968 8.5504-20.0704 64.768a37.9904 37.9904 0 0 1-4.7616 11.3152c-3.2768 4.7616-5.4784 6.4512-7.424 6.8096a41.3696 41.3696 0 0 1-7.8336 0.768zM849.4592 643.4304l-22.1184 59.4432 30.3104-1.5872L901.12 599.04l-43.3152 15.872a86.7328 86.7328 0 0 0-27.0336 14.2848 112.64 112.64 0 0 0-22.1184 30.72 356.864 356.864 0 0 0-13.8752 34.9184c-1.6384 7.1168-16.384 46.7456-16.384 46.7456h34.4064l-14.7456 38.8608a40.192 40.192 0 0 1-7.3728 15.872 22.4256 22.4256 0 0 1-13.9264 7.936l19.6608-49.9712h-21.2992l-23.0912 62.208a92.6208 92.6208 0 0 0 30.3616 3.4304 49.408 49.408 0 0 0 36.096-29.1328c7.3728-16.6912 31.9488-73.7792 31.9488-73.7792l-40.96 2.048 12.4928-36.4544a169.8304 169.8304 0 0 1 14.592-28.2624 81.5104 81.5104 0 0 1 13.1072-11.0592zM108.4928 597.4016L196.1984 834.56l25.9072-7.2704-64.9728-191.7952s9.8304 0.768 18.0224 15.8208a154.2656 154.2656 0 0 1 14.7456 35.84c2.4576 9.5232 43.776 137.5744 43.776 137.5744l26.3168-6.144-50.4832-168.6528s6.5536 0 13.1072 11.0592a89.088 89.088 0 0 1 9.0112 20.48l38.8608 134.7584 25.6-5.12L263.5264 686.08a152.2176 152.2176 0 0 0-15.6672-33.4336 52.0704 52.0704 0 0 0-26.0096-19.968c-13.056-4.4544-40.96-11.6736-40.96-11.6736l4.1984 12.6464a90.368 90.368 0 0 0-18.0224-15.36c-7.68-4.1984-58.3168-21.248-58.3168-21.248zM314.2656 727.4496l-14.0288-61.44a31.5392 31.5392 0 0 1 13.2608 6.5536c5.12 4.7616 6.3488 18.0224 6.3488 18.0224l7.5264 36.7616z m29.3888 75.9296l22.1696-2.9696-18.944-98.6112s-4.352-22.1184-9.8816-30.72c-9.7792-15.36-30.72-20.48-30.72-20.48l-40.6528-8.3456L307.9168 808.96l25.088-4.1984L317.44 742.4h14.4384l11.6736 60.672zM349.184 657.408l27.8016 141.824 30.1056-3.1744s13.6704-0.4608 17.664-3.584a21.4016 21.4016 0 0 0 8.1408-15.8208l-3.6352-110.1312-28.9792-2.8672L410.8288 768a21.0944 21.0944 0 0 1-4.096 14.2848 9.6768 9.6768 0 0 1-8.192 3.1744l-14.8992-123.4944-34.4576-4.4544zM445.44 793.6l35.328-1.3824a30.72 30.72 0 0 0 15.872-6.8608 29.6448 29.6448 0 0 0 6.912-15.36l0.6656-20.0704h-23.7568v19.8656a14.3872 14.3872 0 0 1-2.7648 9.5232c-2.3552 2.304-10.24 2.1504-10.24 2.1504v-39.8336h36.8128l0.768-12.1344-38.3488 0.3584v-35.072a9.8304 9.8304 0 0 1 3.2768-7.68 17.1008 17.1008 0 0 1 10.24-1.9968v35.84h25.6l3.1744-51.6608-42.2912-0.8704a31.744 31.744 0 0 0-18.8416 7.168c-8.3968 7.936-7.3728 26.1632-7.3728 26.1632L445.44 793.6zM557.312 687.6672l-1.6384 31.0784a13.2096 13.2096 0 0 1-1.6384 6.3488 5.9904 5.9904 0 0 1-3.84 2.6112h-8.448l2.4576-46.08h6.2464a9.4208 9.4208 0 0 1 5.12 1.1776c1.9456 1.3824 1.536 5.12 1.536 5.12z m23.7056-15.0528c-4.608-5.12-16.128-4.2496-16.128-4.2496l-46.08 1.0752-4.7616 122.0608 23.1424 0.6144 2.9696-50.176s7.424-2.5088 10.9568 2.6624a12.7488 12.7488 0 0 1 2.048 7.424l-3.072 40.2944 22.784 1.0752 3.9936-40.5504a24.7808 24.7808 0 0 0-1.0752-12.3904 11.0592 11.0592 0 0 0-7.1168-5.8368s3.2768 0 8.192-5.5808a22.5792 22.5792 0 0 0 5.12-13.4656l2.816-28.0576a19.456 19.456 0 0 0-3.6352-14.8992zM561.152 846.8992l28.7744-7.0144-29.4912-2.816c-1.28 0-28.672-2.6624-42.24-2.56l-13.2096-40.96-5.12 13.6192c-0.3072 0.8192-6.4 17.7664-9.5744 27.2384-15.8208 0-36.9152 2.0992-37.888 2.2016l-30.72 3.2768 30.2592 6.5024c9.1136 1.9968 27.8528 8.5504 29.7984 16.5888-2.3552 9.3696-8.8064 25.9072-8.8576 26.0608l-5.9904 15.36 37.5808-26.368 36.8128 25.6-14.4384-41.3184c2.8672-5.12 19.3024-12.288 34.1504-15.872z" fill="#2D2A26" p-id="12918"></path><path d="M519.0656 861.8496c2.048-8.1408 15.7184-14.336 26.6752-18.0736-10.752-0.9216-24.832-1.9456-31.4368-1.9456h-1.8432s-5.12-15.6672-8.1408-23.808c-2.5088 7.0656-6.1952 17.5104-7.7824 22.3744l-0.5632 1.8432h-1.8944c-7.7312 0-18.0736 0.6656-26.4192 1.1776 9.5744 3.6864 20.48 9.9328 22.016 19.3024v0.9728a202.6496 202.6496 0 0 1-6.5536 20.48l21.5552-15.36 21.8624 15.36c-2.9184-8.2432-7.5776-21.7088-7.5776-21.7088v-0.768zM222.1568 300.3904c0-149.248 128-270.6432 285.952-270.6432s285.9008 121.3952 285.9008 270.6432-128.4096 270.592-285.9008 270.592-285.952-121.3952-285.952-270.592z" fill="#FFFFFF" p-id="12919"></path><path d="M335.5136 139.8272l12.1856-9.7792c7.7312-6.2464 10.24-14.3872 5.7856-20.0704-5.6832-7.1168-14.7968-4.4544-23.7056 2.7136l-9.7792 7.8848 15.36 19.2512z m-1.024-20.9408l0.5632-0.512c3.5328-2.816 6.6048-3.3792 8.8064-0.7168s0.4096 5.632-2.7648 8.192l-0.6144 0.4608-5.9904-7.424zM406.4768 91.0848l8.6016-3.4816 2.2528 2.4064 12.0832-5.12-20.48-18.3296-12.6464 5.12-1.5872 27.3408 12.0832-5.12v-3.2768z m0-6.2464L405.5552 76.8h0.4096a18.176 18.176 0 0 0 1.9456 2.6112l2.9696 3.5328-4.608 1.8432zM466.0736 51.5584l12.288-1.3824 1.8944 16.6912 10.2912-1.1776 0.8704 7.936-22.5792 2.5088-2.7648-24.576zM536.4736 50.1248l12.2368 1.792-2.4064 16.64 10.24 1.4848-1.1264 7.8336-22.528-3.2256 3.584-24.5248zM606.72 90.4192l8.5504 3.7376v3.2768l11.9808 5.12-1.28-27.4944-12.4928-5.4784-20.736 17.9712 11.9808 5.12 2.1504-2.4576z m4.4032-4.5056l5.12-5.9904h0.4096a22.9888 22.9888 0 0 0-0.512 3.2768l-0.4608 4.5568-4.5056-1.9968zM668.2624 118.8864v0.7168a16.2304 16.2304 0 0 0 4.5056 6.656c0.9216 0.768 2.6624 1.7408 3.3792 0.8704s-0.4608-1.9968-1.2288-2.816l-1.6896-1.8432c-3.328-3.5328-5.12-7.7312-2.7136-10.752 3.7376-4.5056 11.52-2.3552 17.2032 2.3552a26.3168 26.3168 0 0 1 7.2192 8.8064l-6.6048 2.7648a15.8208 15.8208 0 0 0-4.352-5.9904c-0.8192-0.7168-2.2528-1.4848-2.9184-0.7168s0.512 1.792 1.1776 2.5088l1.8432 2.1504c3.4816 3.9936 5.12 7.9872 2.4576 11.2128-3.7888 4.5568-11.3152 2.0992-16.9984-2.6112a40.96 40.96 0 0 1-8.6528-10.24l7.3728-3.0208zM747.52 231.2192a31.8464 31.8464 0 0 0-5.5808-3.9936 2.7648 2.7648 0 0 1-1.6896-1.8944 20.48 20.48 0 0 0-1.8432-6.6048 282.4192 282.4192 0 0 0-92.16-77.1072 37.9904 37.9904 0 0 0-12.288-3.2256 2.304 2.304 0 0 1-1.9456-1.024 33.28 33.28 0 0 0-10.9568-7.424 288.4096 288.4096 0 0 0-108.6464-21.0944 295.3216 295.3216 0 0 0-34.5088 2.048l14.8992-19.968c-59.4432-1.7408-102.0416 44.6464-102.0416 44.6464a286.1056 286.1056 0 0 0-40.96 23.1424 66.56 66.56 0 0 0-39.936 35.84A244.7872 244.7872 0 0 0 286.72 222.0032 64.8704 64.8704 0 0 0 276.48 230.4a114.2272 114.2272 0 0 0-27.136 52.992l-0.6144 1.3824c-0.3072 1.6384-0.5632 3.4304-0.8704 5.12-0.6656 3.3792-1.2288 6.912-1.6896 10.6496l0.256-0.4096v1.2288l-5.12 18.2784-8.8064 26.5216C210.7392 420.608 239.0016 465.92 243.8656 472.576c37.5808 109.4656 143.616 188.3136 268.5952 188.3136a285.1328 285.1328 0 0 0 230.9632-116.224 23.9616 23.9616 0 0 0 2.1504-6.9632 3.0208 3.0208 0 0 1 1.2288-2.2528 19.712 19.712 0 0 0 5.5296-3.84 270.2336 270.2336 0 0 0-4.608-300.3904z" fill="#2D2A26" p-id="12920"></path><path d="M393.5744 177.3056l1.9968-2.1504c0.9728-0.9728 1.3312-1.2288 1.4336-1.1776a113.2544 113.2544 0 0 1 3.4304-25.6c25.6-35.84 68.2496-45.5168 68.2496-45.5168 5.12-1.4848 1.8432 0.8192 1.8432 0.8192-26.7264 29.952-23.9104 54.7328-23.9104 54.7328l25.6 93.184s-20.48-7.3216-36.6592-40.0384c-7.2192 65.1776 54.3232 118.1184 54.3232 118.1184 2.7136 2.304-1.536 0-1.536 0a192.1536 192.1536 0 0 1-37.7856-28.672c1.28 5.12 31.232 155.6992 31.3344 156.16s0.5632 2.2016 0.8704 3.1744l10.24-25.6L501.76 510.5664c-39.0144 36.352-80.5888 21.9648-83.2 21.0432l1.8432 2.7648s33.7408 66.56 171.264 59.2896c0 0 3.328 0 2.816 0.4096s0 0-0.768 0.512a47.104 47.104 0 0 1-6.6048 1.5872c-166.0416 44.3392-252.0576-97.28-256-103.4752A123.2384 123.2384 0 0 1 317.44 468.48c0-0.3584-0.3072-1.4336 0.4608-0.6144 0 0 17.6128 18.3808 67.4816 22.9376h0.5632c-38.5024-43.008-54.9376-74.1376-57.344-78.8992a105.216 105.216 0 0 1-10.24-26.7264s0-0.9728 0.6144 0c1.8432 3.9424 14.6432 22.7328 30.1056 26.9824-13.0048-21.3504-21.4016-54.9376-22.2208-59.8528 17.92 25.088 49.7152 26.9312 49.7152 26.9312-52.3264-52.224-40.96-109.0048-19.8144-150.016a240.3328 240.3328 0 0 1 36.864-51.8656z" fill="#FFFFFF" p-id="12921"></path><path d="M550.0416 522.5984l-34.304 36.0448h0.0512l42.3936-32.512L536.2688 450.56l9.5744-90.9312-16.7936 86.784 20.992 76.1856zM541.3888 338.6368c0.6144-0.3072 1.3824-0.7168 2.2016-1.2288a44.1856 44.1856 0 0 0 9.3696-7.424 50.7904 50.7904 0 0 0 13.6192-36.6592 96.6144 96.6144 0 0 0-4.7616-28.4672c-0.6656 12.6976-3.9936 59.8528-20.48 73.7792zM557.312 184.32a46.848 46.848 0 0 1 39.936-19.712 70.4 70.4 0 0 0-19.8144-2.8672 66.56 66.56 0 0 0-20.48 3.1232 50.176 50.176 0 0 0-6.9632 2.7136 74.5984 74.5984 0 0 1 7.168 16.7424zM527.36 231.8848l0.5632-0.3072-0.5632 0.3072z m14.9504-9.8304a0.6656 0.6656 0 0 1 0.512 0.6144v5.12a413.5424 413.5424 0 0 1-14.2848 96.3072 225.8944 225.8944 0 0 0 18.944-90.4192 207.7184 207.7184 0 0 0-2.7648-34.304c-0.7168-4.2496-1.4336-7.5264-1.9456-9.728-3.7888 29.2352-14.9504 42.5472-15.0016 42.5984a0.512 0.512 0 0 1-0.512 0 0.512 0.512 0 0 1-0.4608-0.3072 178.7392 178.7392 0 0 0-41.2672-50.2272 167.5264 167.5264 0 0 0-21.3504-15.36c34.816 75.7248 45.056 134.0928 47.6672 153.6v-6.7584a389.9392 389.9392 0 0 0-7.8848-69.7344c-3.8912-20.48-7.8336-35.072-7.8336-35.1232a0.5632 0.5632 0 0 1 0-0.6656 0.5632 0.5632 0 0 1 0.6656 0c15.7184 12.1856 26.6752 46.6944 28.6208 53.1456a98.1504 98.1504 0 0 0 9.8816-20.992c3.328-9.0112 5.9392-17.2032 5.9392-17.2032a0.6144 0.6144 0 0 1 0.5632-0.4608z" fill="#8C9091" p-id="12922"></path><path d="M249.0368 379.1872c0 35.84 6.2464 73.6256 37.2224 121.7536 29.2864 61.44 83.2512 94.8224 108.3904 107.52 8.3456 4.1984 13.5168 6.144 13.568 6.1952a258.304 258.304 0 0 0 111.2064 25.6 265.9328 265.9328 0 0 0 146.176-45.4144c7.424-5.12 11.4176-8.3968 11.4176-8.3968l0.3584 0.4608-0.3584-0.4608q2.2528-1.8432 3.3792-2.9184l-1.3312 0.768c-1.5872 0.9728-3.072 1.8944-3.072 1.9456-54.8352 32.1536-105.3184 41.984-146.5856 41.984-64.5632 0-106.3424-24.1152-106.3936-24.1152C286.208 532.48 284.2112 407.7568 284.2112 407.6544a0.5632 0.5632 0 0 1 0.4608-0.5632 0.6144 0.6144 0 0 1 0.6656 0.3072c17.664 34.2528 39.0656 46.08 48.64 49.6128a25.6 25.6 0 0 0 3.328 1.1264c-39.8336-50.176-51.2-92.16-51.2-124.2624 0-42.1376 19.968-66.048 20.0192-66.0992a0.6144 0.6144 0 0 1 0.7168 0 0.5632 0.5632 0 0 1 0.3584 0.6656 208.128 208.128 0 0 0-3.9936 39.3728 139.6736 139.6736 0 0 0 5.7856 41.5744 85.504 85.504 0 0 0 4.2496 10.9568 254.0032 254.0032 0 0 1-1.7408-29.2864 231.5264 231.5264 0 0 1 66.56-162.9184 101.12 101.12 0 0 0-27.904 21.76c-9.5232 9.728-16.6912 18.7904-16.6912 18.7904a0.5632 0.5632 0 0 1-0.6656 0 0.6144 0.6144 0 0 1-0.4096-0.5632 56.6784 56.6784 0 0 1 6.656-21.3504 85.1968 85.1968 0 0 0-17.152 25.344 154.2144 154.2144 0 0 0-7.168 17.92v0.256a187.9552 187.9552 0 0 0-29.9008 46.6432A153.6 153.6 0 0 0 276.48 299.008a17.92 17.92 0 0 1-1.024 3.4816 0.7168 0.7168 0 0 1-0.6656 0.512c-0.8704 0-0.6144-0.6656-0.7168-0.8192a4.1472 4.1472 0 0 1 0-0.8192v-2.7648a142.1824 142.1824 0 0 1 10.7008-45.0048c-20.8384 22.4256-25.9584 52.8384-25.9584 77.2096a178.5856 178.5856 0 0 0 4.5568 40.4992 259.9936 259.9936 0 0 0 5.6832 46.08c2.7648 14.1312 5.5808 24.6272 5.5296 24.576a25.2928 25.2928 0 0 1 1.3312 4.7104 0.768 0.768 0 0 1 0 0.4096 0.7168 0.7168 0 0 1-0.6144 0.4096c-0.768 0-0.7168-0.512-1.0752-0.9216a10.9568 10.9568 0 0 1-0.8192-1.3824l-1.0752-1.9456C257.7408 420.9152 250.88 384 249.0368 374.784v4.4032z" fill="#8C9091" p-id="12923"></path><path d="M711.2192 220.672a250.88 250.88 0 0 0-192.256-89.7024h-1.5872a10.752 10.752 0 0 0-1.8432 0c-0.512 0-1.2288 0-1.3312 1.1264s0.5632 1.024 1.3824 1.5872a195.7888 195.7888 0 0 1 28.16 26.8288v0.3584h0.4608a57.2416 57.2416 0 0 1 8.192-2.816A82.2272 82.2272 0 0 1 614.4 165.7856c-6.144 3.0208-37.5808 18.8928-44.2368 36.8128v0.3584h0.3072s31.6416 28.8256 96.8192 28.8256a243.6096 243.6096 0 0 0 33.7408-2.4064 35.3792 35.3792 0 0 0 5.632-1.1776c2.7648-0.8704 5.8368-2.1504 5.9392-4.864a4.5568 4.5568 0 0 0-1.28-2.9184zM576.1536 346.3168a0.6144 0.6144 0 0 0-0.8704 0 0.7168 0.7168 0 0 0 0 0.8704 24.6272 24.6272 0 0 1 1.9968 2.4064 65.0752 65.0752 0 0 1 10.9056 38.8608A140.8 140.8 0 0 1 573.44 447.1296a148.48 148.48 0 0 0-2.2528-21.0944c-2.304-12.1344-6.8096-25.1904-16.3328-28.1088a0.5632 0.5632 0 0 0-0.512 0 0.5632 0.5632 0 0 0-0.256 0.4608l-5.9392 53.0432 21.2992 79.104-42.0864 34.1504a0.5632 0.5632 0 0 0 0 1.024 159.7952 159.7952 0 0 0 44.1856 5.12 247.2448 247.2448 0 0 0 53.1968-5.9904 10.24 10.24 0 0 0 6.8096-6.144 280.4736 280.4736 0 0 0 4.608-52.6336c0-46.08-10.24-112.3328-60.2112-159.8464z" fill="#0056A8" p-id="12924"></path><path d="M585.6768 324.9664z m59.7504 235.008a3.84 3.84 0 0 1-1.2288-3.1232 11.008 11.008 0 0 1 0.3072-2.3552s1.5872-6.2464 3.2256-17.1008a296.96 296.96 0 0 0 3.2768-44.1344c0-47.7696-11.4688-114.432-64.6144-166.144l-0.8704-0.6144c-0.4096-0.4096-0.9216-0.6656-1.024-1.4848a0.8704 0.8704 0 0 1 0.4608-0.7168 1.7408 1.7408 0 0 1 0.7168 0 9.2672 9.2672 0 0 1 2.3552 0.4096 59.4944 59.4944 0 0 1 24.1664 15.36 87.04 87.04 0 0 0-2.9184-14.0288 81.92 81.92 0 0 0-16.5888-31.5904l-1.1264-1.2288c-0.5632-0.768-1.1264-1.1776-1.2288-1.9456a0.7168 0.7168 0 0 1 0-0.512 0.9728 0.9728 0 0 1 0.512 0c0.7168 0 1.1776 0.512 2.7136 1.6384 3.328 1.5872 136.8576 66.2528 141.5168 196.7616s0 0.768 0 1.9456a17.6128 17.6128 0 0 1-4.7104 13.1584c-1.3312 1.6384-32.9728 40.96-79.5648 56.32a7.8848 7.8848 0 0 1-2.9696 0.5632 4.096 4.096 0 0 1-2.6112-0.768z" fill="#0056A8" p-id="12925"></path><path d="M745.3696 464.0768c-2.6112-107.52-104.192-181.1968-154.8288-211.1488-16.896-10.24-28.0576-15.36-28.1088-15.36l-2.4064-1.1264h3.1744a43.52 43.52 0 0 1 32.4096 14.6944 47.4112 47.4112 0 0 0-2.6624-13.8752l-0.4608-1.2288 1.2288 0.4608a150.784 150.784 0 0 0 51.2 7.3216 367.2064 367.2064 0 0 0 47.7696-3.4304c12.8512-1.6896 21.2992-3.3792 21.3504-3.3792a12.0832 12.0832 0 0 1 1.8944 0 10.24 10.24 0 0 1 10.24 4.8128c17.2032 19.2512 38.5024 63.744 42.0864 117.1968q0.6144 10.24 0.6144 19.5072c0 40.192-8.2944 71.0656-14.7456 84.1216-2.2528 4.352-3.9424 6.8096-5.9392 6.9632-1.8432 0-2.4064-2.2016-2.5088-5.5808" fill="#0056A8" p-id="12926"></path><path d="M452.7616 115.9168v-0.3584c-1.536 0.4096-28.928 8.4992-37.0688 50.3808 0 0 0 0.768 0.3584 0 2.5088-4.0448 11.1104-17.0496 18.944-13.1584v-0.8192a75.3664 75.3664 0 0 1 17.5104-35.84zM431.7184 494.1824c-5.9392-11.9808-44.032-95.1296-44.032-95.1296-11.8272 3.7376-26.5728-5.888-26.5728-5.888C379.8528 442.9824 424.0384 486.4 431.0528 494.3872c1.1776 1.3312 1.1776 0.8704 1.1776 0.8704l-0.6144-1.1776zM393.9328 223.1808c-34.3552 78.592 43.008 111.0016 44.032 111.4112l-4.1472-18.1248-2.304-10.24a58.88 58.88 0 0 1-5.5296-2.0992l-1.7408-0.8192-2.048-1.2288c-33.8432-17.9712-30.72-60.9792-28.4672-75.008v-1.1776c0-1.3312 0.4096-2.2016 0.512-2.6624a2.1504 2.1504 0 0 0 0-0.3584c0-1.024-0.3584 0-0.5632 0.6144z" fill="#2D2A26" p-id="12927"></path><path d="M444.8768 444.416L439.296 345.6512 472.4736 455.68s-10.8544-26.0608-27.5968-11.3664zM472.32 251.4944l-25.6-93.184a10.5472 10.5472 0 0 0 0 2.1504l7.3728 59.0848a11.6736 11.6736 0 0 1 0 2.1504c0 3.328-2.0992 7.6288-17.5616-8.9088-0.8192-0.8192-1.024-1.1264-1.2288-1.3312 15.9744 32.7168 36.6592 40.0384 36.6592 40.0384zM411.5456 268.1856a34.0992 34.0992 0 0 1-2.8672-13.2608 30.0032 30.0032 0 0 1 10.5984-22.4768h0.3072a230.4 230.4 0 0 1 0.256-24.1664c-8.4992 12.4928-26.5216 42.1376-5.12 65.3312a16.1792 16.1792 0 0 1-0.9216-1.3824 34.1504 34.1504 0 0 1-2.5088-4.0448z" fill="#8C9091" p-id="12928"></path><path d="M434.0736 280.2176A128 128 0 0 1 419.84 232.6528v-0.4608h-0.3072a30.0032 30.0032 0 0 0-10.5984 22.4768 26.9824 26.9824 0 0 0 5.376 17.3056 16.1792 16.1792 0 0 0 0.9216 1.3824 18.3296 18.3296 0 0 0 1.3824 1.4848 27.136 27.136 0 0 0 19.8144 8.4992 34.6624 34.6624 0 0 1-2.0992-3.3792z" fill="#2D2A26" p-id="12929"></path><path d="M464.9984 456.96s-16.3328-4.1472-15.36 29.8496a12.3392 12.3392 0 0 1 0.768-2.816c5.12-11.264 9.472-15.7696 13.6192-15.872s6.0416 3.1744 8.192 7.5264a75.008 75.008 0 0 1 5.12 15.9744c1.0752 4.7104 1.9456 9.4208 2.56 13.3632 0 2.4064 0.4608 5.4272 0.6144 9.1136v0.3072c0.5632-3.9936 7.936-50.944-15.7696-57.5488z" fill="#8C9091" p-id="12930"></path><path d="M480.768 514.4064v-0.3072c0-3.6864-0.4096-6.7072-0.6144-9.1136-0.6144-3.9424-1.4848-8.6528-2.56-13.3632a75.008 75.008 0 0 0-5.12-15.9744c-2.1504-4.352-4.7616-7.4752-8.192-7.5264s-8.4992 4.608-13.6192 15.872a12.3392 12.3392 0 0 0-0.768 2.816l8.0896 17.8176s4.608-47.7184 22.8864 9.6768z" fill="#2D2A26" p-id="12931"></path></svg>