<svg t="1712739228916" class="icon" viewBox="0 0 1024 1024" version="1.1" xmlns="http://www.w3.org/2000/svg" p-id="16895" width="200" height="200"><path d="M238.3872 892.0576c0 5.5808-0.3584 15.9744-12.1856 19.5584a39.5264 39.5264 0 0 1-11.4688 1.3824H205.312v-61.0816h13.7216c7.6288 0.256 15.36 0.4608 18.2272 7.3216a52.992 52.992 0 0 1 1.1776 9.728V892.0576m-32.8192 37.5296h9.8304c12.8 0.512 23.7568 1.8944 27.7504 12.8512a35.84 35.84 0 0 1 1.4336 11.3152v25.6c0 12.1344-0.8192 17.8176-5.7344 21.6576a24.576 24.576 0 0 1-14.9504 3.5328h-18.3808v-74.9568z m47.6672-4.1984a29.6448 29.6448 0 0 0-9.7792-5.12 22.7328 22.7328 0 0 0 11.4176-13.6192 40.1408 40.1408 0 0 0 1.3824-12.5952v-27.3408a34.2528 34.2528 0 0 0-6.8096-22.3744 28.7232 28.7232 0 0 0-22.6816-8.6528h-36.7616a2.816 2.816 0 0 0-2.816 2.816v179.8144a2.7648 2.7648 0 0 0 2.816 2.7648h37.376a38.0416 38.0416 0 0 0 25.344-8.3456c8.6528-7.7824 9.5744-17.2032 9.8816-27.8016v-30.72c0-9.216 0-20.48-9.4208-28.6208M329.8304 873.0624V901.12a13.4144 13.4144 0 0 1-9.0624 14.6944 29.44 29.44 0 0 1-9.7792 1.3824h-20.1216v-65.28h20.48a23.3472 23.3472 0 0 1 11.5712 2.1504c6.1952 3.5328 6.5024 11.4176 6.7072 18.9952m-5.12 58.8288a18.5856 18.5856 0 0 0 3.8912-1.4848 29.7984 29.7984 0 0 0 18.9952-20.48 63.8976 63.8976 0 0 0 1.1264-12.1344v-28.2112-1.3312a31.9488 31.9488 0 0 0-10.9568-25.6c-8.3456-6.4512-17.5104-6.7072-27.1872-6.9632h-34.7648a2.816 2.816 0 0 0-2.816 2.816v179.8144a2.816 2.816 0 0 0 2.816 2.7648h12.4928a2.7648 2.7648 0 0 0 2.7648-2.7648V933.376h14.8992L337.92 1019.1872a2.816 2.816 0 0 0 2.6112 1.792h13.3632a2.7648 2.7648 0 0 0 2.7648-2.7648 2.8672 2.8672 0 0 0-0.4608-1.5872L324.7104 931.84zM377.1904 875.52c0-10.24 3.072-17.664 9.1648-21.6576a22.528 22.528 0 0 1 12.2368-3.3792 22.3232 22.3232 0 0 1 10.752 2.5088 14.592 14.592 0 0 1 6.912 7.168c3.3792 6.5536 3.9936 14.8992 3.9936 29.0304v87.552c0 9.8304-0.4608 19.968-9.0624 26.0608a22.1184 22.1184 0 0 1-32.3072-8.3968 64.7168 64.7168 0 0 1-1.8944-19.5072V875.52z m46.7456-34.7136a40.96 40.96 0 0 0-24.576-7.2192h-0.8704c-17.664 0-31.1808 8.8064-36.1984 23.552a67.3792 67.3792 0 0 0-2.816 18.944v103.7824c0 10.24 0.5632 21.504 8.5504 31.5392 9.0112 10.8032 24.1152 11.9296 30.208 11.9296 21.8624 0 31.0272-11.8272 33.9456-16.8448a46.6944 46.6944 0 0 0 5.7344-24.8832v-99.328c0-14.4896 0-30.976-13.8752-41.5232M466.4832 875.52c0-10.24 3.0208-17.664 9.1648-21.6576a24.064 24.064 0 0 1 22.9888-0.8704 14.848 14.848 0 0 1 6.912 7.168c3.3792 6.5536 3.9936 14.8992 3.9936 29.0304v87.552c0 9.8304-0.4608 19.968-9.0624 26.0608a22.1184 22.1184 0 0 1-32.1024-8.2944 64.512 64.512 0 0 1-1.8944-19.5072V875.52z m46.7456-34.7136a40.96 40.96 0 0 0-24.5248-7.1168h-0.8192c-17.7152 0-31.232 8.8064-36.2496 23.552a67.3792 67.3792 0 0 0-2.816 18.944v103.5776c0 10.24 0.4608 21.504 8.4992 31.488 9.0112 10.8544 24.1152 11.9808 30.1568 11.9808 21.9136 0 31.0784-11.8272 33.9968-16.8448a46.6944 46.6944 0 0 0 5.7344-24.8832v-99.328c0-14.4896 0-30.976-13.8752-41.5232M576.0512 909.056l37.632-70.5024a2.7136 2.7136 0 0 0 0-2.7136 2.6624 2.6624 0 0 0-2.4064-1.3824h-13.9776a2.7648 2.7648 0 0 0-2.5088 1.536l-39.5264 77.7216v-76.4416a2.816 2.816 0 0 0-2.816-2.816h-12.4416a2.816 2.816 0 0 0-2.816 2.816v179.8144a2.816 2.816 0 0 0 2.816 2.816h12.2368a2.816 2.816 0 0 0 2.7648-2.816v-67.584l9.9328-18.688 30.72 87.04a2.7648 2.7648 0 0 0 2.6112 1.8944h13.568a2.816 2.816 0 0 0 2.816-2.816 2.7136 2.7136 0 0 0-0.4608-1.536l-38.0928-106.496zM684.0832 1004.1856H640v-165.7856a2.816 2.816 0 0 0-2.816-2.816H624.64a2.816 2.816 0 0 0-2.816 2.816v179.8144a2.816 2.816 0 0 0 2.816 2.7648h59.3408a2.7648 2.7648 0 0 0 2.7648-2.7648v-11.2128a2.816 2.816 0 0 0-2.7648-2.816M751.3088 835.584h-13.7728a2.8672 2.8672 0 0 0-2.6624 1.9456l-25.856 76.8-26.112-76.8a2.8672 2.8672 0 0 0-2.6624-1.9456h-13.2608a3.0208 3.0208 0 0 0-2.304 1.1776 2.816 2.816 0 0 0-0.3072 2.56l35.2256 99.8912v79.0016a2.816 2.816 0 0 0 2.816 2.7648h12.1856a2.816 2.816 0 0 0 2.816-2.7648v-79.0016l36.5056-99.84a2.9696 2.9696 0 0 0-0.3072-2.6112 3.0208 3.0208 0 0 0-2.304-1.1776" fill="#2D2A26" p-id="16896"></path><path d="M833.9456 835.584h-12.2368a2.8672 2.8672 0 0 0-1.9968 0.8704 2.816 2.816 0 0 0-0.8192 1.9456l1.024 131.2768c0 3.3792 0 6.656 0.3072 10.6496v6.144l-37.12-148.48a2.8672 2.8672 0 0 0-2.7136-2.1504h-18.3296a2.816 2.816 0 0 0-2.7648 2.816v179.8144a2.7648 2.7648 0 0 0 2.7648 2.7648h11.9808a2.6112 2.6112 0 0 0 1.9968-0.8192 2.816 2.816 0 0 0 0.8192-1.9968l-0.768-128v-16.9472l35.84 145.5104a2.7648 2.7648 0 0 0 2.7136 2.0992h19.0976a2.816 2.816 0 0 0 2.816-2.7648v-179.9168a2.816 2.816 0 0 0-2.816-2.816M898.304 107.52v-23.0912l-9.1136-4.5568C882.8416 76.8 729.6512 0.7168 517.12 0.7168h-10.24C294.4512 0.7168 141.1072 76.8 134.7072 80.128l-9.1136 4.5568v22.5792c-1.7408 90.5728 9.3696 320.4608 150.016 499.0976 114.1248 144.8448 221.0304 178.4832 232.8576 181.8112l4.5568 1.3312 4.5568-1.28c4.608-1.3312 113.5104-33.0752 230.7072-182.016 140.7488-178.688 151.808-408.32 150.016-498.688" fill="#2D2A26" p-id="16897"></path><path d="M513.024 764.8768c-8.6528-2.4576-110.4384-33.7408-219.7504-172.7488C149.1968 409.1392 148.48 169.5232 149.6576 113.1008v-12.4416h0.4608v-0.512l3.2256-1.4848c7.6288-3.4816 24.6784-10.9568 49.408-19.8144A902.1952 902.1952 0 0 1 507.136 24.6272h9.6768a903.3216 903.3216 0 0 1 304.0256 53.8112c24.9856 8.96 42.24 16.5376 49.92 20.0192l3.2256 1.4848v0.512h0.4608v12.4416c1.1264 56.32 0.512 296.0384-143.616 479.0272-109.6192 139.264-209.3568 170.4448-217.7024 172.7488m225.28-166.6048c137.6768-174.8992 148.48-400.1792 146.7392-488.9088V93.184l-3.0208-1.4848C875.52 88.5248 725.7088 13.9776 517.12 13.9776h-10.24c-208.4864 0-358.4 74.5472-364.9024 77.7216l-3.0208 1.4848v15.6672c-1.6896 89.0368 9.216 314.624 146.8416 489.4208 111.2064 141.3632 214.3232 174.08 225.6896 177.0496l1.536 0.4608 1.4848-0.4096c4.4032-1.2288 109.312-31.8976 223.6416-177.1008" fill="#FFFFFF" p-id="16898"></path><path d="M778.24 213.76c-51.2-52.9408-57.1392-61.44-57.1392-83.3024s9.472-24.4736 18.688-24.4736a66.56 66.56 0 0 1 17.5616 2.9696c37.0176 10.6496 37.0176 30.72 37.0176 46.08v21.504a3.9936 3.9936 0 0 0 2.7136 3.7888c8.96 3.072 13.4656 4.6592 22.784 8.1408a4.096 4.096 0 0 0 3.6864-0.512 3.9424 3.9424 0 0 0 1.7408-3.2768v-18.2272c0-22.6816 0-60.672-66.2528-79.6672-46.336-13.312-69.9392 0.9216-69.9392 40.96 0 33.3824 20.48 53.3504 54.3744 86.4768l6.8096 6.7072c40.2432 39.424 48.384 52.48 48.384 77.4144a33.4848 33.4848 0 0 1-4.1472 19.2 15.9744 15.9744 0 0 1-14.2848 5.8368 76.8 76.8 0 0 1-20.224-3.4816c-17.5616-5.12-30.3616-11.9808-37.9392-20.48-9.2672-10.24-9.2672-19.2512-9.2672-36.864v-19.0464a3.9936 3.9936 0 0 0-3.1232-3.9424c-9.8816-2.2016-14.6432-3.2256-24.1152-5.12a4.0448 4.0448 0 0 0-3.328 0.8704 3.7888 3.7888 0 0 0-1.4848 3.072v33.792c0 31.744 25.9584 55.9104 75.1104 69.9904a134.656 134.656 0 0 0 35.84 5.9392c38.5024 0 38.5024-31.0272 38.5024-44.288 0-34.9184-17.7664-54.8864-51.8144-90.112z m-103.1168-143.36a881.8688 881.8688 0 0 0-148.48-14.336 4.0448 4.0448 0 0 0-4.0448 3.9936v15.36a3.9424 3.9424 0 0 0 3.9424 3.9936c23.296 0 35.2768 0.8192 57.2928 2.56v221.8496a3.9936 3.9936 0 0 0 3.6864 3.9936c9.6768 0.8192 14.4384 1.2288 24.2176 2.304h0.4096a3.9424 3.9424 0 0 0 2.6624-1.024 3.9936 3.9936 0 0 0 1.3824-3.0208V84.8384c22.0672 2.4576 34.2016 4.3008 57.4976 8.5504a3.8912 3.8912 0 0 0 3.328-0.8704 3.9936 3.9936 0 0 0 1.4336-3.072v-15.36a3.9936 3.9936 0 0 0-3.2768-3.9424zM502.2208 56.32a878.336 878.336 0 0 0-124.7232 10.9568 3.9936 3.9936 0 0 0-3.3792 3.9424v240.64a3.7888 3.7888 0 0 0 1.4336 3.0208 3.7888 3.7888 0 0 0 2.6112 0.9728H378.88a877.312 877.312 0 0 1 122.88-10.8544 4.0448 4.0448 0 0 0 3.9424-3.9936v-14.9504a3.9936 3.9936 0 0 0-1.2288-2.8672 4.096 4.096 0 0 0-2.8672-1.1776 722.8416 722.8416 0 0 0-95.7952 6.912V193.6384a709.376 709.376 0 0 1 78.592-6.4512 4.0448 4.0448 0 0 0 3.84-4.0448v-14.6432a4.0448 4.0448 0 0 0-4.1472-4.0448 732.928 732.928 0 0 0-77.824 6.3488V86.1184a710.8608 710.8608 0 0 1 96-6.8608 4.0448 4.0448 0 0 0 3.9424-4.0448v-15.0016a4.096 4.096 0 0 0-1.2288-2.8672 3.84 3.84 0 0 0-2.8672-1.1264zM343.04 73.472c-9.5744 1.9456-14.2336 2.9184-23.6032 5.12a3.9936 3.9936 0 0 0-3.1232 3.9424l1.9456 175.1552c0 11.6224 0.3072 22.3232 0.768 31.8976-23.9104-60.5184-48.5888-123.1872-73.728-186.624a3.9936 3.9936 0 0 0-5.12-2.304c-13.9776 4.608-20.48 7.0144-34.5088 12.1856a4.096 4.096 0 0 0-2.6112 3.7888v240.64a4.096 4.096 0 0 0 1.7408 3.328 4.0448 4.0448 0 0 0 2.304 0.6656 3.328 3.328 0 0 0 1.3824 0c8.4992-3.1744 12.8-4.7616 21.8112-7.8848a3.9936 3.9936 0 0 0 2.7136-3.7888q-0.512-85.504-0.9728-170.9056c0-15.0016 0-23.3472-0.6656-33.9968 24.7296 62.8736 48.7424 124.416 71.68 183.296a3.9424 3.9424 0 0 0 4.7104 2.4576c14.6432-3.6352 21.8112-5.12 36.5056-8.192a4.0448 4.0448 0 0 0 3.2256-3.9424v-240.64a4.0448 4.0448 0 0 0-1.4848-3.1232 3.8912 3.8912 0 0 0-3.328-0.8192zM646.9632 618.5984l-7.2192 5.12c-6.7072 4.7104-13.312 8.6528-20.48 12.8512l-10.24 6.144c-23.9616 14.848-52.6336 31.2832-83.4048 40.96a181.4016 181.4016 0 0 1-25.1392 6.0416 146.7392 146.7392 0 0 1-21.248 1.6384h-1.3824a147.0464 147.0464 0 0 1-26.3168-2.4576 180.1728 180.1728 0 0 0 159.232-19.3024 119.6032 119.6032 0 0 0 36.9664-51.2l-1.0752 0.768z m-162.9696 63.4368a161.3824 161.3824 0 0 0 56.6272-17.2544c2.816-1.3824 5.5808-2.816 8.3456-4.3008l7.0656-3.584c16.3328-8.6016 33.8432-17.8688 55.1424-29.2864 7.4752-3.9936 14.9504-8.2944 22.1696-12.3904l8.4992-4.7104c3.2768-1.792 6.3488-3.4304 9.472-5.12l1.024-0.6656a168.1408 168.1408 0 0 0 5.12-32.1024c-20.8384 10.24-52.224 19.6096-98.2528 28.8256a285.2864 285.2864 0 0 1-167.936-15.36c-34.56-14.5408-51.2-34.7136-57.8048-46.08a185.4464 185.4464 0 0 0 4.3008 23.7568 177.7664 177.7664 0 0 0 74.9056 105.216v-0.3072l5.12 3.0208a66.9184 66.9184 0 0 0 15.36 6.2464 116.1728 116.1728 0 0 0 33.8944 5.12 146.2784 146.2784 0 0 0 17.2032-1.0752z m183.552-75.52c0-0.7168-0.3072-0.7168-0.6656-0.7168a9.0112 9.0112 0 0 0-4.352 1.8944l-1.3824 0.9216a12.7488 12.7488 0 0 0-1.2288 0.8704 160.1536 160.1536 0 0 1-17.2032 33.024 179.8656 179.8656 0 0 0 25.6-34.56h-0.256l-0.3072-1.4336z m6.8608-44.4416l-1.8432 1.3824-3.0208 2.1504a161.9968 161.9968 0 0 1-6.1952 33.536c5.632-1.9968 7.5776 0.3072 8.1408 1.5872v0.5632a175.872 175.872 0 0 0 17.92-58.5728 43.3152 43.3152 0 0 1-15.36 19.3536z m-4.352-9.7792l1.3312-0.9216a50.3296 50.3296 0 0 0 19.456-30.2592 174.08 174.08 0 0 0-5.4272-43.1616l-0.4608-1.7408a58.88 58.88 0 0 1-19.456 36.5568 171.6224 171.6224 0 0 1 4.5568 39.5264z m-268.4928 21.7088c42.496 14.0288 66.0992 18.4832 97.28 18.4832 11.3152 0 24.2176-0.6144 40.4992-1.9968a377.2928 377.2928 0 0 0 118.784-31.3344 228.9664 228.9664 0 0 0-3.3792-37.632 49.9712 49.9712 0 0 1-26.8288 6.7584 196.4032 196.4032 0 0 1-44.4928-7.0656c-24.7296-5.8368-60.0576-26.88-91.2384-45.4656-17.1008-10.24-33.28-19.8144-46.592-26.4192-50.944-25.1392-79.872-21.6576-87.552-19.968a176.7936 176.7936 0 0 0-24.9344 102.4c3.4304 5.12 20.7872 26.4704 68.6592 42.24z m26.0608-145.664C444.928 435.5584 467.6096 447.744 491.52 460.8c37.888 20.48 76.8 41.4208 103.5264 47.9744 23.6032 5.888 43.008 5.12 56.6272-1.4848v-0.768c0-0.9728-0.4096-1.9456-0.6656-2.9184-11.52-48.2304-71.68-153.9072-176.5376-153.9072-4.4032 0-8.8576 0-13.3632 0.6144a177.4592 177.4592 0 0 0-96.256 68.7104 49.8176 49.8176 0 0 1 15.616-2.304 127.1808 127.1808 0 0 1 47.2576 11.776z m234.3936 71.168a36.5568 36.5568 0 0 0 6.5536-9.216c12.6464-24.2688 1.28-51.456-3.4304-60.928a180.1216 180.1216 0 0 0-170.8544-85.5552c71.68 3.84 141.1584 67.9936 167.7312 155.6992z" fill="#FFFFFF" p-id="16899"></path><path d="M582.6048 557.312c0-13.056 0-32.4096-15.36-47.4624a52.992 52.992 0 0 0 4.1472-9.5232 65.3824 65.3824 0 0 0 2.6624-21.8624v-36.4544c-0.4096-13.3632-2.4576-27.4944-13.3632-39.7312-9.7792-11.0592-24.5248-16.8448-42.6496-16.8448h-48.7424a20.48 20.48 0 0 0-20.48 20.48l0.4608 235.9296a19.968 19.968 0 0 0 9.5744 17.152 21.5552 21.5552 0 0 0 11.0592 3.072h49.6128a66.56 66.56 0 0 0 44.5952-15.36c16.384-14.6944 18.1248-32 18.5344-48.5376v-40.6528z" fill="#FFFFFF" p-id="16900"></path><path d="M517.12 499.0464a51.968 51.968 0 0 1-15.36 1.8432h-9.216c-1.536 0-1.9968-0.7168-1.9968-1.8944V423.168c0-1.2288 0.4608-1.9456 1.7408-2.0992h15.36a41.5232 41.5232 0 0 1 18.944 3.4304 9.7792 9.7792 0 0 1 4.352 5.12 59.392 59.392 0 0 1 1.6896 12.8512v29.3376a13.4656 13.4656 0 0 0 0 2.2528c0 7.5776-0.3584 20.48-15.36 24.9344m17.152 122.4704c-3.6864 2.6112-8.0896 4.1472-19.456 4.5056h-21.2992c-1.792 0-2.4576-1.0752-2.4576-2.7136v-94.1568a1.4848 1.4848 0 0 1 1.6896-1.6896h9.7792c10.24 0.512 21.1456 1.2288 28.16 5.7344a19.9168 19.9168 0 0 1 8.5504 10.5472 48.4352 48.4352 0 0 1 1.8432 14.848v34.8672c0 15.9232-0.9728 23.3984-7.0144 28.1088m35.84-62.5664c0-13.2096 0-29.3376-13.7216-40.96a39.2704 39.2704 0 0 0-10.24-6.144 32.6656 32.6656 0 0 0 13.1584-17.5616 59.3408 59.3408 0 0 0 1.9968-18.0224V438.784c-0.3584-10.24-1.4848-22.1696-9.8816-31.744a42.4448 42.4448 0 0 0-32.9728-12.4416h-50.8416a6.0928 6.0928 0 0 0-4.096 1.6896 5.5808 5.5808 0 0 0-1.6896 4.0448l0.4608 246.1696a5.5808 5.5808 0 0 0 2.7648 5.12 5.7856 5.7856 0 0 0 3.2256 0.9216h51.712a55.1936 55.1936 0 0 0 36.4032-12.032c12.4416-11.264 13.7216-24.576 14.08-39.5264v-42.0864z" fill="#2D2A26" p-id="16901"></path></svg>