<svg t="1712739126490" class="icon" viewBox="0 0 1024 1024" version="1.1" xmlns="http://www.w3.org/2000/svg" p-id="12852" width="200" height="200"><path d="M509.6 923.8l-67.4-87.4c-85.6-28.2-145.2-105.6-150.8-195.8l-41.8-54.2c-39.8 17.2-79.4 44.2-79.4 44.2l-125.2-125.8 52.8-115.8-94.6-122.4h150.2l29-63.4 74.4-30 8.2-22.4 60.2 27.6 14.4-50 9.8-3.2c47.6-15.8 102.6-24.4 158.8-24.8 1.6 0 19.4 0.2 20 0.2 2 0 10.8 0.4 10.8 0.4 47.6 2.2 92.2 10.2 132.8 23.6l10 3.2 13.2 47.8 21.8-16.4 121.8 43.4 29.4 64.2h151L923.6 390l52 114-127.2 131s-46.6-34-78.6-46.6l-38.4 49.4C727 730 664.2 811 576 838l-66.4 85.8z" fill="#FFFFFF" p-id="12853"></path><path d="M509.6 863.2l434.2-559.6H78.6z" fill="#9EA2A2" p-id="12854"></path><path d="M42.8 286l466.8 606 470-606H42.8z m901 17.6l-434 559.6L78.6 303.6h865.2z" fill="#1D428A" p-id="12855"></path><path d="M881 342.6l-0.2-0.4-0.4-0.2-27.8-18.6 10.4-19.8 0.4-0.6-0.2-0.6-38.2-83.8-0.2-0.6-0.6-0.2-103-36.6-0.8-0.2-0.6 0.4-27.4 20.8-0.2 0.2-0.2 0.4-4.6 11.4s-42.8-10.8-105.4-17c-6.4-0.6-23.4-2-50.8-4.2l-2.6-0.2-2.8-0.2h-0.6l-0.4 0.4-20.4 20.2V192.4s-57.8 3.2-95.6 8.4-75 14.6-75 14.6l-6.8-14.6-0.2-0.4-0.4-0.2L277.8 178l-1.4-0.6-0.6 1.4L270 194l-1.2-3-0.6-1.2-1.2 0.6-69.6 28-0.6 0.2-0.2 0.6-128.4 282 105.4 105.6 5-2.8c3.2-1.8 7.6-4.4 12.8-7.4 12.8-7.6 30.2-17.8 38.6-21.8l1.6-0.8c10.8-5.2 16.2-7.8 67.4-29.8l4.2-1.6s5.8-2.2 16.4-5.8c28.2-9.4 101.2-31 172-31h0.8c2.8 0 5.6 0 8.4 0.2 48 1.4 104.4 11.6 143 19.8 37.2 8 65.2 15.8 73.2 18l5.4 1.6c35.2 13.6 78.4 36 118.2 61.6l5 3.2 106.6-109.8-71.2-157.8z" fill="#1D428A" p-id="12856"></path><path d="M869.6 352.4L767 284l-17.8-50 31.8 11.2 12.8 31.2 48.2 15.4-28-62.2-91-32.4-16.8 13 30.2 98.4 97.4 68.8 25 62.2-40.6-18.2-14-38.8-49.8-14.6 26.6 87.6c8.2 3 16.4 6.2 24.4 9.4 22.2 9 43.8 18.8 65 29.8 14.6 7.6 29.2 15.4 43.4 23.8l21.2-21.8-65.4-144.4zM178.2 398.8l34.2-30.6 8.2 9.6-33.8 97c18.4-8.2 37.2-15.6 56.2-22.4l24.4-80-21-34.8L290 296l25.6-85-31.4-14.2-28.2 80.2-45.2 39 41.2-104-44.2 17.6-122 267.6 19 19.2c11.4-6.6 22.8-13 34.4-19l39-98.6zM487.4 207.8l-37.4 2-17.6 200.8c15.8-1.6 32-2.6 48-3l7-199.8zM598.4 369l-43.4-2.6-7-123 36.8 1.8-4.4-33.8-49.4-3.6-22.2 22.2v153.8l23.2 23.8c24 0.8 47.8 2.6 71.2 5.4l-4.8-44zM352.2 287l15.6 76.4-10.2 57.8c15.2-3 30.4-5.4 46-7.4L428 212.4l-34.8 5-11.4 66-13-62-40.8 10.2-56.8 211.4c16.4-5.2 33-9.8 49.8-13.8l31.2-142.2zM654.2 357.8l12.2-16.6 17.8 14.8 16.4 74.8c17.2 4.4 34.2 9.2 51.2 14.6l-30.6-109.8-31.6-25.8 18-24-15-55.8-38.2-8.4 15 56.2-23.8 31.8-17.6-92.4-35.4-4.4s17.8 135.4 26 202c16 2.2 31.8 5 47.6 8.2l-12-65.2z" fill="#F58426" p-id="12857"></path><path d="M437.8 448.8s14.8-8.6 44.2-11.8l-1-23.2c-16.2 0.6-32.2 1.6-48.2 3 1.6 9 3.6 22.4 5 32zM531.4 435.4c12 1.4 24.8 5.4 36 8.4 10.2 2.4 21.2 6.8 30.2 10.8l5-35.8c-23.6-3-46-4.6-70.2-5.4-0.4 7.2-0.4 16.8-1 22zM376.6 492c13.8-10.2 22-20.6 36.4-29.4-2.8-13-6.4-29.8-9-42.6-15.8 2-31.2 4.6-46.6 7.6 5.6 19.2 13.2 45 19.2 64.4zM609.6 462c13.4 7.8 23.8 16.4 35.8 28.2l2.4 1.8 18.8-62.4c-16.2-3.4-32-6.2-48.6-8.6l-8.4 41zM669 516l45 10.6 37.8-74.8c-17.4-5.6-34.2-10.4-52-14.8L669 516zM307.8 526.6c11.8-4.4 28-10.2 43.4-14.4L322 435.2c-17.6 4.2-33 8.8-50.2 14.2 10.8 25.8 23 52.4 36 77.2zM240 554.4c2.6-2.2 28-13.2 45.6-20.6-13.2-24-29.2-50.4-42.6-74.8-19 6.8-36.4 13.8-54.8 22l51.8 73.4zM176.4 588.2c8.2-4.8 16.8-9.8 26.2-15.4l-59.6-70.2c-11.4 5.8-22.6 12-33.6 18.4l67 67.2zM737.8 536c35.8 13.8 85.8 42 105.6 55.2 9.2-8.8 59-61 65.8-68.2-41.4-24.2-84.8-45-130-61.6L737.8 536zM524.6 434.2l-17-0.6-0.4-41.4 17.8 18.4z" fill="#9EA2A2" p-id="12858"></path><path d="M511.4 426c-111 0-201 90-201 201S400.4 828 511.4 828s201-90 201-201S622.4 426 511.4 426z" fill="#1D428A" p-id="12859"></path><path d="M523.8 441c-15.4 5.4-30.2 13.2-45 20-10-6-15.8-7.6-22.6-12 21.2-7.4 44-8.6 67.6-8zM667.8 526.4c-47.4-47.8-118.4-44.2-178.6-61.2 0 0 35.4-16.8 53.8-21.6 49.2 8.6 96.8 38 124.8 82.8zM401.6 533.6c-45.4 69.8-51.6 155.8-15.4 231.2-46.8-39.4-74.8-115.4-53.8-189.4 17.2-24.2 39.4-45.4 69.2-41.8z" fill="#F58426" p-id="12860"></path><path d="M450.2 583.2c24.6 73 30 153.6 93.4 227-49.4 10-98.6-4.8-137.6-29.6-48.4-70.6-43.8-176.2 4.6-244.6 23.6 7 36.4 37.8 39.6 47.2z" fill="#F58426" p-id="12861"></path><path d="M416.2 528.4c7.4-10.4 15.6-20.2 25-29.4 103 29 201.2 135.8 218 240.8-5 8-16.6 19-24.6 26.8-25.6 23-53.8 35-80.8 41.4-48-49.8-64-114.6-80.8-178.4-13-49-22-86-56.6-101l-0.2-0.2z" fill="#F58426" p-id="12862"></path><path d="M656.8 528c-49.8-43.8-119-38.2-177.2-58.8-11.2 6.8-22.2 15-31.6 23.4 103 32.2 196.4 133 218.6 237 16.2-23.4 25.8-50.4 29.8-79.2 2.6-44 2.2-84.2-39.6-122.4zM432.8 495.8c-10 9.6-17.4 19-25.2 30h-0.2c-27.2-6.2-48.8 8-66 25.6 8.2-20.8 25.6-45.4 43.8-61.6 16.8 0.6 29 0.4 47.6 6M440 489.4c9.8-8.6 19.2-16.2 30.8-23.2l-26.4-13c-17.6 7.2-36.4 16.6-49.4 28.4 20.2 2.2 28.8 3.4 45 7.8z" fill="#F58426" p-id="12863"></path><path d="M483 179.6l-8.2 8-14 0.8-5.2-4.6-6.6 5.6-15.2 1.4-6.6-6.4 8.8-59.4 11.4-1.6-6.2 52.4 8.2-1 6.4-52.6 11.4-1-4.8 52.2 8-0.8 4.2-52c4.8-0.6 7.4-0.4 11.6-0.8l-3.2 59.8zM520.2 119.6l0.2 37.4h7.4l-0.4-37.2s7.6 0.2 11.2 0.6l1.4 42-7 7-2.4 0.2 0.4 18-12.4-0.4-0.2-18-2.4-0.2-7.6-7.8 0.4-41.6c3.8-0.2 11.4 0 11.4 0zM427.8 126.6l-2 12.2-13.8 2.6-2.6 14.4c5-1 8.2-1.4 14.2-2.2-0.8 5.4-1 7.2-2 12.2l-14 2-2.6 13.8 14.2-2s-1.4 9.2-2.2 13.4c-10 1.2-20 2.6-29.6 4.4 0 0 10.8-49.8 13.4-65.2l27-5.6zM375.4 199.4l-14.4 2.8 6.6-27.2-4.4-9.8-11.4 39-14.2 3.2c5.8-21.2 12-42.4 17.8-63.4 4.8-1.6 8.4-2.8 12.8-4 1.6 3.6 5.4 10.8 5.4 10.8l3.4-13.2s9-2.4 13.4-3.4l-15 65.2zM579 131.2c1.4 17 4.2 33.4 6 49.2l-6.4 9.6-20.4-1.4-7.4-8c-1.4-17.4-2.2-34.8-3.2-52.2 1.8-2.4 4.8-4.4 7-6.8l17 1.6 7.4 8z m-19.2 2.8l3.6 40.6 7.2 0.6-3.8-40.4-7-0.8zM645 137.2c2.6 9.8 7.6 29.8 7.6 29.8l4.8 1 2.4-3.2-6-25s6 1.6 12.4 3.6l6.4 24.2-3 4.4 5.6 6.2 8.4 29.4-14-3.2-5.4-20.6-8.8-2 4.8 20.6-14.2-2.8c-5-22.2-14-65.8-14-65.8s7.4 1.6 13 3.4zM623 139.6l4.6 24.2-2.8 3.8 4.8 5.6 4.2 24.2-13.6-2.4-3.8-20-8.2-1 2.8 19.6-13.6-1.8-9-66.6 26 4.6 8.6 9.8z m-19.8 0.8l2.4 17 7.6 0.8-3.2-16.6-6.8-1.2z" fill="#1D428A" p-id="12864"></path></svg>