<svg t="1712738997917" class="icon" viewBox="0 0 1024 1024" version="1.1" xmlns="http://www.w3.org/2000/svg" p-id="9451" width="200" height="200"><path d="M513.536 895.744c-210.944 0-382.464-171.52-382.464-382.464s171.52-382.464 382.464-382.464S896 302.336 896 513.28s-171.52 382.464-382.464 382.464" fill="#FFC627" p-id="9452"></path><path d="M513.536 150.528c200.192 0 363.008 162.56 363.008 362.752s-162.816 362.752-363.008 362.752S150.784 713.216 150.784 513.28c0-200.192 162.816-362.752 362.752-362.752" fill="#8B2332" p-id="9453"></path><path d="M857.856 514.304c0 190.72-154.624 345.344-345.344 345.344S167.424 705.024 167.424 514.304 321.792 168.96 512.512 168.96s345.344 154.624 345.344 345.344" fill="#0D2240" p-id="9454"></path><path d="M512.512 768.512c138.496 0 250.88-112.64 250.88-251.136 0-138.24-112.64-250.88-250.88-250.88s-250.88 112.896-250.88 250.88c-0.256 138.496 112.384 251.136 250.88 251.136" fill="#8B2332" p-id="9455"></path><path d="M278.016 517.376c0-129.28 104.96-234.24 234.24-234.24s234.24 104.96 234.24 234.24-104.96 234.24-234.24 234.24c-128.768 0-234.24-104.96-234.24-234.24" fill="#0D2240" p-id="9456"></path><path d="M718.592 570.112c0.256-40.192-21.504-95.232-40.704-131.84l-28.416 15.872-2.816-4.608-7.168 4.608-282.624 177.664v0.256l-13.056 15.616-0.256-0.512c-4.096-0.768-9.216-4.864-13.312-11.776-4.352-6.4-5.888-13.312-4.864-16.64l-0.256-0.512 19.456-5.12 0.256 0.256 145.408-94.72-98.048-61.696-12.288-7.68-3.072 4.608-28.416-15.872c-19.456 36.864-40.704 91.904-40.704 131.84-14.848-46.592 0.512-110.08 21.504-151.04l0.256-0.256-5.12-3.072 16.896-26.112 4.864 3.584c28.416-36.096 79.104-76.288 127.488-82.432-36.352 16.64-77.312 58.88-102.656 91.904l26.368 19.2-3.328 4.608 6.656 4.608 111.872 72.704 110.336-71.68 8.448-5.376-3.328-4.608 26.368-19.2c-25.088-32.512-66.048-75.264-102.4-91.904 48.384 6.144 99.072 46.336 127.744 82.432l4.608-3.584 16.896 26.112-5.12 3.072c22.016 41.728 37.376 105.216 22.528 151.296m-36.608 43.264L547.84 526.592l-23.296 13.824 145.408 91.648-0.256 0.256 13.056 15.616 0.512-0.512c4.096-0.768 9.216-4.864 13.312-11.776 4.096-6.4 5.888-13.312 4.864-16.64l0.256-0.512-19.712-5.12z" fill="#FFC627" p-id="9457"></path><path d="M536.32 334.336l-9.984 13.312-14.08-33.024v153.344l46.848-59.904 47.104 12.288z" fill="#FFC627" p-id="9458"></path><path d="M536.32 370.688v-36.096l-9.984 13.056zM512.256 314.624L427.52 417.792l37.376-9.472 47.36 59.648z" fill="#FFFFFF" p-id="9459"></path><path d="M460.288 704.768c12.288-11.776 27.904-18.944 44.8-20.736V660.48H440.32c1.536 17.408 8.704 32.512 19.968 44.288M505.088 726.528v-27.904c-12.8 1.536-24.064 6.656-33.792 15.36 9.984 6.912 21.76 11.008 33.792 12.544" fill="#FFC627" p-id="9460"></path><path d="M519.68 582.4v27.648c12.544-1.536 24.32-6.656 33.536-15.36-9.728-6.656-21.248-11.008-33.536-12.288M564.48 604.416c-12.288 11.776-27.904 18.944-44.8 20.48v21.504h64.768c-2.048-16.384-9.472-31.232-19.968-41.984M505.088 610.048v-27.648c-12.544 1.28-23.808 5.632-33.536 12.544 9.472 8.448 21.248 13.568 33.536 15.104" fill="#FFFFFF" p-id="9461"></path><path d="M519.68 660.48v23.296c16.896 1.536 32.512 8.704 44.8 20.736 11.264-11.776 18.688-26.88 20.224-44.032H519.68z" fill="#FFC627" p-id="9462"></path><path d="M440.576 646.144h64.768V624.64c-16.896-1.536-32.256-8.96-44.8-20.48-11.008 11.008-18.176 25.856-19.968 41.984" fill="#FFFFFF" p-id="9463"></path><path d="M519.68 726.528c12.544-1.28 23.808-5.632 33.536-12.288-9.472-8.704-21.248-13.824-33.536-15.36v27.648zM791.04 483.072l9.216 15.616-22.784 21.248 29.44-11.008 9.216 15.872 1.536-17.92 19.456-1.024-15.872-9.728 19.712-31.232-32.512 26.368zM234.24 482.816l-8.96 15.616 22.528 21.248-29.44-11.008-9.216 15.872-1.536-17.92-19.712-1.024 16.128-9.728-19.712-31.232 32.512 26.368z" fill="#FFC627" p-id="9464"></path><path d="M284.416 371.456l-45.568-32.256 10.24-14.336c1.792-2.304 3.84-4.608 5.888-6.4 1.28-1.28 2.816-2.304 4.352-3.072 0.256-0.256 0.512-0.512 0.768-1.024 0.256-0.256 0.256-0.512 0.512-0.768l0.512-1.024 40.192 28.416c-0.256 2.816-1.024 5.376-2.048 8.192-1.024 2.56-2.304 4.864-4.096 7.168l-0.256 0.256-10.496 14.848zM255.744 330.24c-1.024 1.536-1.024 3.328-0.256 4.352l0.768 0.768 27.904 19.968c1.536 0.256 3.072-0.256 3.84-1.536l0.256-0.256c1.28-1.792 1.024-4.096-0.256-4.864l-27.136-19.456c-1.792-1.536-3.84-1.024-5.12 1.024zM352 298.24L325.888 258.56l-2.56 1.792-4.608-7.424 28.928-18.944 4.608 7.168-14.08 9.472 7.936 11.776 11.008-7.168 2.56 7.68-9.472 6.144 9.216 13.568 14.336-9.216 4.608 7.168zM460.544 250.88l-11.264-18.688-1.28 0.256 4.352 20.224-13.312 2.56-9.472-46.336-2.816 0.512-1.792-8.448 14.08-2.56 13.056 18.432 1.024-0.256-4.352-20.224 13.312-2.816 11.52 54.528zM549.632 247.552l1.28-56.576 12.544 2.048-1.792 34.56 1.28 0.256 10.24-33.28 12.544 2.048c-4.864 14.848-17.152 49.408-18.688 53.504l-17.408-2.56zM747.52 343.552l-3.072-4.096-15.872 12.544-7.936-10.496 44.288-34.048 10.752 13.824c1.792 2.304 3.328 4.608 4.608 7.424 0.768 1.536 1.536 3.328 2.048 4.608 0.256 0.512 0.512 0.768 0.768 1.024l0.512 0.512 0.768 0.768-23.552 18.176c-1.28-0.768-2.816-1.536-4.096-2.304l-0.512-0.256-12.8 19.456-7.68-9.728 11.776-17.408z m20.736-17.152c-1.024-1.28-2.56-2.048-3.84-1.792-0.256 0-0.512 0.256-0.768 0.512l-10.496 8.192c-1.536 1.28-1.28 3.328-0.256 4.608v0.256c1.28 1.792 3.328 2.304 4.608 1.536l10.752-7.936c1.536-1.28 1.536-3.584 0-5.376zM642.048 278.272l24.576-40.704-2.56-1.536 4.352-7.424 29.696 18.176-4.608 7.168-14.336-8.96-7.168 12.032 11.264 6.912-6.4 6.656-9.472-6.144-8.448 13.824 14.848 8.96-4.608 7.424zM418.56 829.696c-3.072-0.768-5.632-2.048-8.448-3.84-2.816-1.536-4.864-3.328-6.912-5.12l14.336-47.616c2.816-0.768 5.632-0.768 8.704-0.768 3.328 0.256 6.144 0.768 9.216 1.792 3.072 0.768 5.632 2.048 8.448 3.84 1.28 0.768 2.56 1.536 3.584 2.304 0.512 0.512 1.28 0.768 2.048 1.024 0.256 0 0.512 0.256 0.768 0.256l1.28 0.256-0.512 1.28-4.352 13.568-12.8-3.84 1.792-5.888c0.512-1.536-0.512-3.328-2.304-4.096-0.256 0-0.512-0.256-0.768-0.256-2.048-0.768-4.352 0.256-4.608 2.048l-10.496 34.048c-0.256 0.768 0 1.536 0.256 2.304 0.512 1.024 1.536 1.792 2.816 2.048 2.048 0.768 4.352-0.256 4.608-2.048l4.608-14.336-4.096-2.304 4.352-6.912 15.104 4.608-8.704 28.928c-2.816 0.768-5.632 0.768-8.704 0.768-3.328-0.768-6.656-1.28-9.216-2.048M529.92 842.24c-3.072 0.256-6.144 0-9.216-0.512-3.072-0.512-5.632-1.536-8.192-2.816l-2.816-49.664c2.304-1.536 4.864-2.816 7.936-3.584 3.072-0.768 6.144-1.536 9.216-1.536 3.072-0.256 6.144 0 9.216 0.512 1.536 0.256 2.816 0.512 4.352 1.024 0.768 0.256 1.536 0.256 2.048 0.256h0.768l1.28-0.256v1.28l0.768 14.08-13.312 0.768-0.256-6.144c0-1.536-1.536-3.072-3.584-3.072h-0.768c-2.304 0.256-4.096 1.792-3.84 3.584l1.792 35.584c0 0.768 0.512 1.536 1.024 2.048 0.768 0.768 2.048 1.024 3.328 1.024 2.304 0 4.096-1.792 3.84-3.584l-0.768-15.104-4.608-0.512 1.536-7.936 15.616-0.768 1.792 30.208c-2.304 1.536-4.864 2.816-7.936 3.584-2.816 0.768-6.144 1.28-9.216 1.536M317.952 778.24c-2.56-1.792-4.608-4.096-6.656-6.4-2.048-2.304-3.584-4.864-4.608-7.424l27.136-34.816-2.304-1.792 5.12-6.656 13.056 9.984-28.416 36.864c-1.024 1.536-0.512 3.84 1.28 4.864 1.792 1.28 4.096 1.28 5.12-0.256l28.672-36.864 10.496 8.192-32.512 41.984c-2.816-0.256-5.376-1.28-8.192-2.56-3.328-1.536-5.888-3.072-8.192-5.12M719.616 768l-30.72-36.096-8.192 7.168-5.888-6.656 26.88-23.04 5.888 6.656-8.192 7.168 30.464 35.84zM788.736 690.432c-1.536 2.56-3.584 4.864-5.632 7.168-2.048 2.048-4.608 3.84-6.912 4.864l-11.52-7.168 6.912-11.264 5.888 3.84c0.768 0.512 1.792 0.512 2.56 0.256 1.024-0.256 1.792-1.024 2.304-1.792v-0.256c1.024-1.792 0.768-4.096-0.768-4.864l-13.056-7.936-7.68 12.032c-2.048 3.328-5.632 4.608-8.192 3.072-0.512-0.256-1.024-0.512-1.28-0.768l-18.176-11.52c0-2.816 0.768-5.376 1.792-8.448 1.024-3.072 2.304-5.632 4.096-8.192 1.536-2.56 3.584-4.864 5.632-7.168 1.28-1.28 2.56-2.304 3.84-3.328 0.512-0.512 0.768-0.768 1.024-1.28 0.256-0.256 0.256-0.512 0.256-0.768l0.512-1.024 13.312 8.192-6.912 11.264-5.376-3.584c-0.256-0.256-0.512-0.256-0.768-0.256-1.536-0.256-3.072 0.512-4.096 2.048v0.256c-1.024 1.792-0.768 4.096 0.768 4.864l9.216 5.632 0.256 0.256 0.512 0.256 7.424-11.776c2.304-3.584 5.888-4.608 8.704-3.328l2.304 1.536 0.512 0.256 17.92 11.264c0 2.816-0.768 5.376-1.792 8.448-0.512 3.84-2.048 6.656-3.584 9.216M607.232 778.24l-2.816 1.28-3.072-7.68 32-13.312 3.328 7.936-15.872 6.4 5.376 13.056 12.032-5.376 1.536 8.96-10.496 4.352 6.4 14.592 15.616-6.4 3.584 7.936-29.184 12.288zM243.712 699.648l13.312-17.408-0.768-1.024-17.152 11.52-7.68-11.264 39.424-26.368-1.792-2.56 7.168-4.608 8.192 12.032-12.544 18.944 1.024 0.768 17.152-11.264 7.424 11.008-46.336 31.232z" fill="#FFFFFF" p-id="9465"></path></svg>