<svg t="1712738640422" class="icon" viewBox="0 0 1024 1024" version="1.1" xmlns="http://www.w3.org/2000/svg" p-id="8498" width="200" height="200"><path d="M895.488 512.512c0 211.712-171.52 383.488-383.488 383.488-211.712 0-383.488-171.52-383.488-383.488 0-211.712 171.52-383.488 383.488-383.488 211.968 0.256 383.488 172.032 383.488 383.488z" fill="#BEC0C2" p-id="8499"></path><path d="M873.472 512.512c0 199.424-161.536 361.472-361.472 361.472S150.528 712.192 150.528 512.512 312.576 151.296 512 151.296c199.68 0 361.472 161.536 361.472 361.216z" fill="#002D62" p-id="8500"></path><path d="M512 167.936c-190.208 0-344.32 154.112-344.32 344.576 0 190.208 154.112 344.32 344.32 344.32s344.32-154.112 344.32-344.32C856.576 322.56 702.208 167.936 512 167.936z" fill="#FDBB30" p-id="8501"></path><path d="M747.776 512.512c0 132.864-105.728 240.64-235.776 240.64-130.304 0-235.776-107.776-235.776-240.64s105.472-240.64 235.776-240.64c130.304 0 235.776 107.776 235.776 240.64z" fill="#002D62" p-id="8502"></path><path d="M732.672 512.512c0 124.416-98.816 225.024-220.672 225.024s-220.672-100.864-220.672-225.024 98.816-225.024 220.672-225.024c122.112 0 220.672 100.864 220.672 225.024z" fill="#FFFFFF" p-id="8503"></path><path d="M270.08 445.184l-2.304 8.96-70.656-17.408 2.56-9.216zM279.808 336.896l30.464 23.296-5.376 6.912-57.344-44.032 2.816-4.096 41.728 11.008-31.488-24.064 5.376-7.168 57.344 44.032-2.816 4.352zM391.68 278.528l3.84-2.048c3.84-1.792 4.352-5.376 3.072-8.192-7.424-14.848-13.056-25.088-20.48-39.936-1.536-3.072-4.864-4.096-7.936-2.56l-4.352 2.304 25.856 50.432z m-37.632-52.992l14.336-7.168c6.144-3.072 13.824-2.816 17.664 4.608 8.96 17.92 13.312 25.6 22.272 43.264 3.584 7.168-0.512 13.568-6.144 16.384l-14.848 7.424-33.28-64.512zM503.04 256.512l-9.216 0.512-4.096-72.448 9.472-0.512zM618.752 226.304l-0.512-0.256-14.848 24.32 9.728 3.584 5.632-27.648z m-10.24 49.408l3.072-14.08-12.288-4.608-7.168 12.544-8.448-3.328 38.656-62.976 8.96 3.328-13.824 72.448-8.96-3.328zM716.288 304.128L688.384 330.24l-5.888-6.144 52.736-49.92 3.072 3.328-17.152 39.68 28.928-27.136 5.888 6.144-52.736 49.92-3.328-3.84zM797.44 415.744l-0.256-0.512-28.16 3.84 3.328 9.728 25.088-13.056z m-44.8 23.296l12.8-6.4-4.096-12.544-14.336 2.304-2.816-8.704 73.216-9.728 3.072 8.96-64.768 35.072-3.072-8.96zM254.976 647.424l5.12 9.728 25.6-13.568-5.12-9.728-25.6 13.568z m-31.488 16.384l-4.352-8.192 64.256-33.536 10.496 20.48c2.048 4.096 1.024 7.168-2.048 8.704-11.52 5.888-17.408 8.96-28.672 15.104-3.328 1.792-6.4 0.768-8.448-2.816l-6.4-12.544-24.832 12.8zM344.064 734.976l-0.512-0.512-21.248 18.688 7.936 6.4 13.824-24.576z m-24.832 44.288l6.912-12.544-10.24-8.192-10.496 9.472-7.168-5.632 55.808-48.384 7.424 5.888-34.56 65.28-7.68-5.888zM448 811.52l8.96 2.304-4.608 18.688c-0.768 3.328-3.84 5.12-6.912 4.352-6.4-1.536-11.008-2.816-17.664-4.352-3.328-0.768-5.12-3.84-4.352-7.168 5.632-23.04 8.704-35.84 14.592-58.88 0.768-3.328 3.84-5.12 6.912-4.352 6.4 1.536 11.264 2.816 17.92 4.352 3.072 0.768 4.864 3.84 4.096 7.168L463.36 788.48l-8.96-2.048 3.072-13.056-11.008-2.56-13.568 55.296 11.008 2.56 4.096-17.152zM581.376 836.352l-23.296 4.352-12.544-71.424 23.04-4.096 1.28 7.68-14.08 2.304 4.096 23.552 13.312-2.56 1.28 7.936-13.056 2.304 4.352 24.832 14.08-2.304zM688.128 790.784l-7.68 5.12-40.96-60.16 19.968-13.568c3.584-2.56 6.656-1.28 8.448 1.536 5.632 8.192 9.216 13.824 15.104 22.016 2.304 3.328 1.28 6.656-1.536 8.448l-1.024 0.768 26.368 22.784-8.448 5.888-29.952-25.856-0.256-3.328 6.144-4.096-13.312-19.2-9.728 6.656 36.864 52.992zM762.112 681.472l14.592 8.96 4.096-6.656-14.08-8.704-26.88 1.28c-1.792 0-3.584 0-4.864-1.024-5.12-3.328-7.424-4.864-13.312-8.192-2.56-1.536-3.584-5.12-1.792-7.936 2.816-4.608 5.12-8.192 8.192-13.056 2.048-3.072 5.12-3.328 7.936-1.536l12.8 7.936-4.864 7.68-11.264-6.912-4.096 6.656 11.008 6.656 25.6-1.536c2.56 0 4.608 0 6.4 1.28 6.656 4.352 8.96 5.632 16.128 9.984 2.816 1.792 3.84 5.12 2.048 7.936-2.816 4.608-5.12 8.192-8.192 13.056-1.536 2.56-4.864 3.584-7.936 1.536l-16.128-9.984 4.608-7.424z" fill="#002D62" p-id="8504"></path><path d="M441.6 375.808l-59.648 271.104h118.016s13.312-53.76 14.336-58.88h51.2c38.4 0.256 69.632-12.8 90.88-37.632 38.656-41.984 31.744-103.424 2.816-138.24-20.736-25.088-50.688-39.168-84.224-39.168h-132.864l-0.512 2.816z" fill="#BEC0C2" p-id="8505"></path><path d="M505.856 577.28l-14.336 58.88h-96.256l55.808-252.16h124.16c30.72 0 57.6 12.8 76.288 35.328 27.392 33.28 30.208 88.576-2.816 124.416-20.224 23.552-49.92 34.304-82.688 34.048l-60.16-0.512z" fill="#002D62" p-id="8506"></path><path d="M438.016 441.6h54.528c6.144 0 13.056 5.12 9.984 13.312-1.792 4.864-3.072 10.496-3.84 16.128-0.512 4.096 4.096 6.656 6.656 6.656h110.848c2.048 0 3.072-0.512 3.072-1.536s0-4.608-0.512-7.168c-0.512-2.304-0.768-2.816-2.816-2.816-13.824 0-19.456-6.144-34.048-15.616s-35.84-14.848-54.272-14.848h-89.088l-0.512 5.888zM505.344 513.28c-2.048-4.096-3.584-8.96-4.864-13.568-1.28-5.632-6.144-10.24-14.848-10.24h-58.368l1.536-6.4 189.184 0.256c1.792 0 1.536 0.768 1.28 2.816 0 2.048-0.512 5.888-0.768 8.192-0.256 2.304-2.048 1.792-3.84 1.792-4.352 0-12.288 1.024-16.896 4.608-7.68 5.888-24.576 16.384-34.048 19.2-9.984 3.072-47.616 14.592-58.368-6.656" fill="#FDBB30" p-id="8507"></path><path d="M417.024 537.088h98.816c4.352 0 7.936 1.024 11.264 3.328 8.192 6.656 19.2 12.032 30.464 15.36 5.12 1.536 14.08-0.512 22.016-4.864 19.712-11.264 32.256-32.256 36.864-46.08 1.024-3.584-1.024-3.328-3.584-3.072-8.192 0.512-17.152 7.936-28.416 15.616-11.776 7.168-35.072 14.336-57.344 14.336h-108.288l-1.792 5.376zM561.92 404.736c1.28-0.256 6.4-0.512 8.96 0.512 18.944 7.424 36.608 26.88 44.032 47.616 1.536 4.096 1.792 6.4 0 6.656-8.448 1.024-12.544-3.328-22.784-9.984-9.984-6.656-19.456-11.52-32-15.616-12.8-3.84-35.84-4.608-38.656-4.608s-2.56-1.28-1.28-2.56c11.008-11.008 25.856-19.2 41.728-22.016zM651.776 476.16c0 0.768-0.768 1.792-1.792 1.792h-21.76c-2.816 0-2.816-1.28-2.816-2.816-0.256-1.536-0.512-4.608-0.512-6.656 0-1.792-0.768-3.84 1.536-4.864 5.888-2.56 11.776-8.448 14.336-13.568 0.768-1.792 2.048-4.352 3.584-2.048 5.376 7.936 6.912 17.92 7.424 28.16zM644.096 514.816c-0.256 0.768-1.792 1.28-2.048 0-3.072-8.448-10.496-14.336-15.872-17.152-1.536-0.768-1.536-1.792-1.536-3.328 0.256-1.536 0.768-6.4 1.024-8.448 0-1.536 0.768-2.816 2.048-2.816h22.528c0.768 0 1.792 0.768 1.792 1.28-0.256 10.752-3.328 21.504-7.936 30.464z" fill="#FDBB30" p-id="8508"></path><path d="M585.472 557.056c-1.536 0.256-5.12-0.256 0.256-3.328 16.384-9.472 30.976-31.744 35.072-44.8 1.536-4.864 1.536-5.12 3.584-4.608 2.56 0.768 6.4 4.096 9.472 8.192 3.072 4.096 4.352 12.544 2.56 14.592-11.776 16.128-30.464 27.136-50.944 29.952zM627.2 456.192c-3.84 2.048-4.608 1.536-5.376-1.28-7.168-24.832-28.16-43.52-36.864-48.896-1.536-1.024-1.28-1.792 0-1.536 20.48 2.816 40.704 14.08 50.688 29.184 6.144 8.704-4.864 20.48-8.448 22.528z" fill="#FDBB30" p-id="8509"></path></svg>