<svg t="1712737996753" class="icon" viewBox="0 0 1024 1024" version="1.1" xmlns="http://www.w3.org/2000/svg" p-id="7274" width="200" height="200"><path d="M953.088 434.688l2.816 1.024v-50.432c0-7.936-1.28-15.872-4.096-23.552-2.816-7.68-6.656-15.104-11.776-21.76-4.608-5.888-9.984-11.52-15.872-16.128-5.376-4.096-11.008-7.68-17.152-10.496-3.84-2.56-11.52-6.144-32.256-14.592-17.664-6.912-46.08-17.664-82.944-28.416-33.536-9.984-76.8-20.992-124.672-29.184-0.256-0.512-32.512-40.704-80.896-19.968-1.536 0.768-3.328 1.536-4.864 2.304-7.168 3.584-13.568 6.656-25.856 3.328-7.168-2.048-16.384-6.4-12.8-22.528 0.768-3.584 3.584-8.448 8.192-11.008 3.072-1.792 6.4-2.304 9.984-1.28 6.4 1.792 9.216 5.376 8.192 10.752-0.256 2.048-1.792 4.096-3.84 4.864-2.048 0.768-4.096 0.256-6.656-1.28-2.304-1.536-5.376-1.024-7.168 1.28-1.536 2.304-1.024 5.632 1.28 7.168 5.376 3.584 11.264 4.608 16.384 2.304 5.12-2.048 8.96-6.912 9.728-12.544 0.768-4.096 1.792-17.408-15.36-22.272-6.144-1.792-12.544-1.024-17.92 2.048-6.144 3.584-11.264 10.496-12.8 17.664v0.512c-2.048-2.816-4.096-5.12-5.12-6.144l-16.64-17.152-16.64 17.152c-1.024 1.024-3.072 3.328-5.12 6.144v-0.512c-1.536-6.912-6.656-13.824-12.8-17.664-5.632-3.328-11.776-3.84-17.92-2.048-17.152 5.12-16.128 18.432-15.36 22.272 1.024 5.376 4.864 10.24 9.728 12.544 5.12 2.304 11.008 1.28 16.384-2.304 2.304-1.536 2.816-4.864 1.28-7.168-1.536-2.304-4.864-2.816-7.168-1.28-2.56 1.792-4.608 2.048-6.656 1.28-1.792-0.768-3.328-2.816-3.84-4.864-1.024-5.376 1.792-8.96 8.192-10.752 3.584-1.024 6.912-0.512 9.984 1.28 4.352 2.56 7.168 7.424 8.192 11.008 3.84 16.128-5.376 20.736-12.8 22.528-12.288 3.328-18.688 0.256-25.856-3.328-1.536-0.768-3.328-1.536-4.864-2.304-48.384-20.736-80.64 19.456-81.152 19.968 0 0 0 0.256-0.256 0.256-46.08 7.936-87.808 18.432-120.32 27.904-62.464 18.432-112.896 41.216-114.944 42.24l-6.656 3.072v1.024c-2.816 0.512-5.888 1.28-8.704 2.816-10.752 4.864-21.248 10.24-31.744 15.36L64 337.92v27.392c0 6.656 1.28 12.032 3.84 16.64 0.512 1.024 1.024 1.792 1.792 2.56v30.464c-3.584 6.656-5.376 13.568-5.376 20.224 0 6.656 1.792 12.544 5.376 17.152v63.488l0.768 1.792c0.512 1.536 10.496 28.416 40.704 39.424l-0.768 0.512s15.872 25.6 40.448 30.976l-4.608 2.048s17.408 28.16 50.944 34.048l-4.864 2.304s21.76 23.296 55.552 27.648c35.84 111.36 140.288 192.256 263.424 192.256 123.136 0 227.584-80.896 263.424-192.256 33.792-4.352 55.552-27.648 55.552-27.648l-4.864-2.304c33.536-5.888 50.944-34.048 50.944-34.048l-4.608-2.048c24.576-5.376 40.448-30.976 40.448-30.976l1.536-2.048c28.16-12.032 44.544-39.424 44.544-65.28v-32.256c-0.768-7.936-2.56-15.872-5.12-23.296zM649.728 238.592c-19.968-3.072-40.448-5.376-61.44-6.912 0.512-0.256 1.28-0.512 1.792-0.768 27.392-11.776 48.384-1.024 59.648 7.68z m-218.368-7.68c0.768 0.256 1.28 0.512 1.792 1.024-20.992 1.536-41.728 4.096-61.696 7.168 11.52-8.96 32.768-19.968 59.904-8.192z" fill="#B4975A" p-id="7275"></path><path d="M929.792 413.184l14.848 5.888v-33.792c0-6.656-1.28-13.312-3.328-19.712-2.304-6.656-5.888-13.056-9.984-18.688-4.096-5.376-8.704-9.984-13.824-14.08-4.864-3.84-9.984-6.912-15.616-9.472-2.816-2.048-10.496-5.888-30.976-13.824-17.408-6.912-45.568-17.408-81.92-28.16-59.648-17.92-149.504-38.912-243.2-40.192-2.304-6.4-7.424-11.264-14.592-13.056-0.768-12.288-9.728-21.76-11.52-23.808l-8.704-8.96-8.704 8.96c-1.792 1.792-10.752 11.52-11.52 23.808-6.912 1.536-12.288 6.4-14.592 12.8-92.16 1.536-180.224 22.016-238.848 39.424-62.464 18.432-113.408 41.728-113.408 41.728v6.912s-0.768-0.512-1.28-0.768c-1.792-0.768-3.584-1.28-5.632-1.28-2.56 0-5.376 0.768-8.448 2.048-10.496 4.864-20.992 9.984-31.232 15.104l-1.792 0.768v20.736c0 4.608 0.768 8.192 2.56 11.008 0.768 1.536 2.048 2.816 3.328 3.84v37.632c-3.328 5.632-5.376 11.776-5.376 17.408s1.792 9.984 5.376 12.8v65.792s9.984 27.392 41.216 34.56c0.768 0.256 1.536 0.256 2.304 0.512h0.256c4.864 1.024 10.24 1.536 16.128 1.28-5.632 2.816-11.008 5.376-16.64 8.448 0 0.256 16.64 27.392 56.064 23.552-6.656 3.072-13.056 6.4-19.712 9.472 0 0.256 18.944 26.88 60.928 26.368-9.728 4.864-15.36 7.936-15.36 7.936 0 0.256 18.944 18.432 50.432 20.48 32.768 109.312 134.144 189.184 254.208 189.184s221.44-79.616 254.208-189.184c31.744-2.304 50.432-20.48 50.432-20.48s-5.888-3.072-15.36-7.936c41.728 0.768 60.672-25.856 60.928-26.368-6.656-3.328-13.056-6.4-19.712-9.472 39.68 3.84 56.064-23.04 56.064-23.552-5.632-2.816-11.008-5.632-16.64-8.448 13.568 1.024 24.576-2.816 33.024-7.68 21.248-11.52 32.512-33.536 32.512-52.48v-32.256c-0.512-20.736-16.896-44.8-16.896-44.8z" fill="#0A2240" p-id="7276"></path><path d="M687.36 669.184c4.864 3.84 9.984 7.68 14.848 11.52 0-0.512-58.88 16.128-101.12-2.304l-4.608-2.304c-10.496 37.632-45.056 65.536-86.016 65.536s-75.52-27.904-86.016-65.536c-1.536 0.768-2.816 1.536-4.608 2.304-41.984 18.432-101.12 1.792-101.12 2.304 4.864-3.84 9.984-7.68 14.848-11.52-20.48 3.072-39.424-0.768-52.48-4.864 37.12 90.112 125.696 153.6 229.12 153.6s192-63.488 229.12-153.6c-12.544 4.352-31.488 7.936-51.968 4.864z" fill="#CE0E2D" p-id="7277"></path><path d="M486.144 266.752c-4.608-2.304-7.936-6.144-9.728-10.752-148.48 3.84-296.704 57.088-296.192 59.136-6.4 2.304-9.984 7.936-9.984 11.776v5.376c102.4-39.68 209.152-60.672 316.16-63.232l-0.256-2.304zM850.688 318.976c0.256-2.048-155.136-59.136-305.664-62.976-1.792 4.608-5.376 8.448-9.728 10.752v2.048c110.08 3.072 220.16 25.6 325.376 67.072v-5.376c0-3.584-3.584-9.216-9.984-11.52z" fill="#FFFFFF" p-id="7278"></path><path d="M527.104 239.872c-9.728-1.28-11.264 12.544-11.52 17.152h-3.072c0-13.056 6.4-18.432 6.4-27.136 0-8.704-7.936-16.896-7.936-16.896s-7.936 8.192-7.936 16.896c0 8.704 6.144 14.08 6.144 27.136h-3.072c-0.256-4.608-1.792-18.432-11.52-17.152-10.496 1.28-9.216 15.616 0 16.896 0 0-1.792-6.4 3.328-6.4 3.84 0 4.864 4.352 5.12 6.656h-4.608v5.12h10.24c-1.28 4.864-4.608 6.4-4.608 6.4s1.28 2.816 4.352 3.072c0 0 0 3.328 2.56 6.144 2.56-2.56 2.56-6.144 2.56-6.144 3.072-0.256 4.352-3.072 4.352-3.072s-3.328-1.536-4.608-6.4h9.984v-5.12h-4.352c0.256-2.304 1.28-6.656 5.12-6.656 5.12 0 3.328 6.4 3.328 6.4 8.96-1.28 9.984-15.616-0.256-16.896" fill="#CE0E2D" p-id="7279"></path><path d="M479.488 339.968v-32c0-4.352-0.768-8.448-2.56-11.52-1.536-3.328-3.84-5.888-6.656-7.936-2.816-2.048-6.144-3.584-9.984-4.352-3.84-0.768-7.936-1.024-12.544-0.768-4.352 0.256-8.704 1.024-12.544 2.56-3.84 1.28-7.168 3.328-10.24 5.632-2.816 2.304-5.12 5.376-6.656 8.96-1.536 3.584-2.56 7.424-2.56 12.032v32.256c-3.328 0.768-5.888 4.096-5.888 7.424 0 3.584 2.56 5.888 5.888 6.144v36.096c0 4.352 0.768 8.192 2.56 11.52 1.536 3.072 3.84 5.888 6.656 7.68 2.816 2.048 6.144 3.328 10.24 4.096 3.84 0.768 7.936 1.024 12.544 0.768 4.352-0.256 8.704-1.024 12.544-2.304 3.84-1.28 7.168-3.072 9.984-5.376 2.816-2.304 5.12-5.12 6.656-8.704 1.536-3.328 2.56-7.424 2.56-11.776v-36.096c3.584-0.512 6.4-3.584 6.4-6.912 0-4.352-2.816-7.168-6.4-7.424z m-17.664 49.664c0 2.304-0.512 4.352-1.28 5.888-0.768 1.536-2.048 3.072-3.328 4.096-1.28 1.024-2.816 1.792-4.352 2.56-1.536 0.512-3.328 1.024-4.864 1.024-1.792 0-3.328 0-5.12-0.256s-3.072-1.024-4.608-1.792c-1.28-0.768-2.304-2.048-3.328-3.584-0.768-1.536-1.28-3.328-1.28-5.888v-80.384c0-2.304 0.512-4.352 1.28-5.888 0.768-1.536 2.048-3.072 3.328-4.096 1.28-1.024 2.816-2.048 4.608-2.56 1.792-0.512 3.328-1.024 5.12-1.024s3.328 0 4.864 0.512c1.536 0.256 3.072 1.024 4.352 2.048s2.304 2.048 3.328 3.584c0.768 1.536 1.28 3.584 1.28 5.888v79.872zM139.008 426.496c0 0.256 0 0.512-0.256 0.256l-0.512-0.512c-0.512-1.536-21.504-71.68-22.784-74.752-1.024-3.328-1.792-4.864-1.792-5.12-0.256-1.024-0.768-1.792-1.536-2.048-0.768-0.256-1.792-0.256-3.072 0.512-6.4 3.072-12.544 5.888-18.944 8.96v5.888c0 2.048 0.256 3.584 0.768 4.352 0.512 1.024 1.28 1.536 2.048 2.048 0.768 0.512 1.792 0.512 2.816 0.512v53.504c-3.072 2.048-5.376 5.888-5.376 9.472 0 3.328 2.304 5.12 5.376 4.096v75.52c4.864-2.304 9.728-4.608 14.848-6.912v-94.72c0-0.768 0-1.024 0.256-1.024l0.256 0.256s0.512 1.792 1.792 4.864c1.024 3.072 21.76 72.192 22.016 72.704 0.512 1.792 1.28 3.072 1.792 4.096 0.512 1.024 1.792 1.28 3.072 0.512 3.328-1.28 6.656-2.816 9.984-4.096 1.28-0.512 2.304-1.536 3.072-2.56 0.768-1.28 1.024-2.304 1.024-3.584v-70.912c2.816-2.048 4.864-5.376 4.864-8.448 0-3.072-2.048-4.864-4.864-4.608v-52.48c0-1.024 0.256-2.048 0.512-2.56 0.256-0.512 0.768-1.28 1.024-1.792 1.024-1.024 1.792-2.56 2.816-4.096 1.024-1.536 1.28-3.584 1.28-5.376v-5.12c-6.912 2.816-13.824 5.632-20.736 8.704v94.464zM840.192 427.776c0 0.256 0 0.256-0.256 0s-0.256-0.512-0.512-0.768c-0.512-1.792-1.28-5.12-2.816-10.24-1.28-5.12-3.072-11.008-4.864-17.664-1.792-6.656-3.584-13.824-5.632-20.992-2.048-7.424-3.84-14.08-5.632-20.224-1.792-6.144-3.328-11.264-4.352-15.616-1.28-4.096-1.792-6.4-1.792-6.656-0.256-1.28-0.768-2.304-1.536-3.328-0.768-0.768-1.792-1.536-3.072-2.048-6.656-2.048-13.056-4.352-19.712-6.4v5.888c0 2.048 0.256 3.584 0.768 5.12 0.512 1.536 1.28 2.56 2.048 3.584 0.768 1.024 1.792 2.048 3.072 2.816v41.728c-3.072-0.512-5.632 1.792-5.632 5.12s2.304 6.912 5.632 8.448v61.184c5.12 1.536 10.24 3.328 15.36 4.864V378.88c0-0.768 0-1.024 0.256-0.768 0 0.256 0.256 0.256 0.256 0.768 0 0.256 0.512 2.304 1.792 6.4 1.28 4.096 2.56 9.216 4.352 15.36s3.584 12.8 5.632 19.968c2.048 7.168 3.84 13.824 5.632 20.224 1.792 6.4 3.328 11.776 4.608 16.128 1.28 4.608 2.048 7.168 2.304 7.68 0.512 2.304 1.28 4.096 1.792 5.632 0.768 1.536 1.792 2.56 3.072 3.072l9.984 3.84c1.28 0.512 2.304 0.512 3.072-0.256 0.768-0.768 1.024-1.536 1.024-2.816V417.28c2.816 0.256 4.864-1.536 4.864-4.608 0-3.072-2.048-6.656-4.864-8.448V363.52c0-1.024 0.256-1.792 0.512-2.048l1.024-1.024c1.024-0.256 1.792-1.024 2.816-1.792 1.024-1.024 1.28-2.304 1.28-4.352v-5.12c-6.912-2.816-14.08-5.376-20.992-7.936v86.528zM927.744 441.088c-2.048-4.608-4.864-9.216-7.936-13.568-2.56-3.584-5.376-7.168-8.448-10.752 0.256-0.512 0.256-1.024 0.256-1.536 0-3.84-3.072-8.192-6.656-9.984-1.536-0.768-3.072-0.768-4.096-0.256-0.512-0.512-1.024-1.28-1.536-1.792-3.072-3.584-5.888-6.912-7.936-9.984-2.048-3.072-3.328-5.632-3.328-8.192v-27.904c0-1.28 0.512-2.304 1.28-2.816 0.768-0.768 1.792-1.024 3.072-1.28 1.28-0.256 2.56 0 3.84 0 1.28 0.256 2.56 0.768 3.84 1.28 1.024 0.512 2.304 1.28 3.84 2.048 1.28 1.024 2.816 2.048 3.84 3.072 1.28 1.28 2.048 2.56 2.816 3.84 0.768 1.536 1.28 2.816 1.28 4.352v6.656c0 2.816 1.024 5.632 2.816 8.448 1.792 2.816 4.352 4.864 7.168 6.144 2.56 1.28 5.12 2.304 7.424 3.584v-13.056c0-4.352-0.768-8.704-2.048-12.8-1.536-4.096-3.584-7.68-6.144-11.264-2.56-3.328-5.632-6.656-9.216-9.216-3.584-2.816-7.424-5.12-11.52-6.912-4.096-1.792-7.936-3.072-11.52-3.584-3.584-0.512-6.656-0.256-9.216 0.768s-4.608 3.072-6.144 5.632c-1.536 2.816-2.304 6.4-2.304 11.264v23.04c0 4.864 1.024 9.472 3.072 13.824 2.048 4.352 4.864 8.448 7.936 12.288 3.072 3.84 6.4 7.68 9.984 11.264-0.256 0.768-0.512 1.536-0.512 2.56 0 3.84 3.072 8.192 6.656 9.728 2.048 1.024 3.84 0.768 5.12-0.256 2.816 3.328 5.376 6.912 7.168 10.24 2.048 3.84 3.072 7.424 3.072 11.52v33.024c0 1.536-0.512 2.816-1.28 3.584-0.768 0.768-2.048 1.28-3.328 1.792-1.28 0.256-2.816 0.256-4.352 0-1.536-0.256-3.072-0.512-4.608-1.28-1.536-0.768-3.072-1.536-4.608-2.816-1.536-1.28-3.072-2.56-4.352-3.84s-2.304-2.816-3.328-4.352c-0.768-1.536-1.28-3.072-1.28-4.608v-7.68c0-2.816-0.768-5.12-2.304-7.168-1.536-2.048-3.84-3.84-6.912-5.12-2.816-1.024-5.376-2.304-8.192-3.328v13.312c0 4.352 0.768 8.704 2.56 12.8 1.536 4.096 3.84 7.68 6.656 11.008 2.816 3.328 6.144 6.4 9.728 8.96 3.84 2.56 7.68 4.864 11.776 6.912 4.096 1.792 8.192 3.072 11.776 3.84 3.84 0.768 6.912 0.512 9.728-0.256 2.816-0.768 5.12-2.56 6.656-5.12 1.792-2.56 2.56-6.144 2.56-10.496v-31.744c0.256-4.608-0.768-9.216-2.816-13.824zM332.8 364.8c-0.768 6.144-1.536 12.288-2.048 18.432-0.768 6.144-1.28 11.264-2.048 16.128-0.512 4.608-1.024 8.448-1.536 11.264-0.256 2.816-0.512 4.352-0.768 4.352-1.536-8.192-2.816-15.616-3.84-22.272-1.024-6.656-2.304-13.824-3.84-22.016-1.28-8.192-2.816-16.128-4.096-24.064-1.536-7.936-2.816-15.104-4.096-22.016-1.28-6.656-2.304-12.032-3.328-15.872-0.256-1.28-1.28-2.048-3.328-2.56-2.048-0.512-3.84-0.256-5.888 0-1.792 0.512-3.584 1.28-5.632 2.304-2.048 1.024-3.072 2.56-3.328 4.096-1.024 4.096-2.048 9.728-3.328 17.152-1.28 7.168-2.56 15.104-4.096 23.808-1.28 8.448-2.816 17.152-4.096 25.856-1.28 8.704-2.56 16.896-3.84 24.064-1.024 7.168-2.304 15.36-3.84 24.32 0 0-0.256-1.28-0.768-4.096-0.512-2.816-0.768-6.4-1.536-10.752-0.512-4.352-1.024-9.472-1.792-15.104-0.768-5.632-1.536-11.52-2.048-17.408-1.536-13.824-7.424-64-7.424-64l-21.504 6.144v5.376c0 2.048 0.512 3.584 1.28 4.608 0.768 1.024 1.792 1.792 2.56 2.048 0.512 0.256 1.024 0.768 1.536 1.024 0.512 0.512 0.768 1.024 1.024 2.048 1.792 14.08 3.328 27.136 4.608 39.424-2.56 1.792-4.352 4.608-4.352 7.68 0 3.328 2.56 5.632 5.888 5.12v0.768c0.768 6.656 1.536 13.312 2.304 19.712 0.768 6.4 1.536 12.032 2.048 17.152 0.768 5.12 1.28 9.216 1.536 12.288 0.512 3.072 0.512 4.864 0.512 5.12 0 1.024 0.512 1.792 1.024 2.304 0.768 0.768 1.536 1.024 2.816 0.512l19.968-5.376c1.28-0.256 2.304-1.024 3.072-1.792 0.768-0.768 1.28-2.048 2.048-3.84 5.12-29.952 9.984-59.648 15.104-89.344 4.864 27.392 9.728 55.04 14.848 82.688 0.512 1.28 1.28 2.304 2.048 2.816 0.768 0.512 1.792 0.768 3.072 0.512l19.968-3.84c1.28-0.256 2.048-0.768 2.816-1.792 0.768-1.024 1.024-2.048 1.28-2.816 0-0.256 0.256-2.048 0.768-5.376 0.512-3.328 1.024-7.68 1.536-13.056 0.768-5.376 1.28-11.264 2.048-18.176 0.768-6.656 1.536-13.568 2.304-20.736v-0.768c3.328-1.024 5.888-4.352 5.888-7.68 0-2.816-1.792-5.12-4.352-5.632 1.536-12.8 3.072-26.624 4.864-41.472 0.256-1.024 0.512-1.792 1.024-2.56 0.512-0.768 1.024-1.28 1.536-1.792 1.024-0.768 1.792-1.792 2.56-3.328 0.768-1.536 1.28-3.072 1.28-5.12v-5.376c-7.424 1.28-14.592 2.304-21.76 3.84 1.024 0-4.864 52.48-6.656 67.072zM774.144 383.488c0-3.328-2.56-6.912-5.888-8.448-0.768-4.864-1.536-9.728-2.56-14.592-1.024-6.656-2.048-12.544-3.072-17.92-0.768-5.376-1.536-9.728-2.304-13.312-0.512-3.328-1.024-5.376-1.024-5.888-0.256-2.304-1.28-4.352-2.816-6.4-1.536-2.048-3.84-3.328-6.656-4.096-7.936-2.048-15.872-4.096-23.808-5.888v4.096c0 5.12 1.536 8.448 4.352 10.496 0.512 0.256 0.768 1.024 0.768 1.792 0 0.768 0 1.536-0.256 2.56 0 0-0.256 1.536-0.768 4.096-0.512 2.56-1.28 6.144-2.048 10.496-0.768 4.352-1.792 9.216-2.816 14.848-0.512 2.816-1.024 5.376-1.536 8.192-3.84-0.768-6.912 1.536-6.912 5.376 0 2.816 1.792 5.632 4.352 7.424-3.328 17.152-11.52 58.88-11.52 58.88l16.896 3.84s4.864-28.672 5.12-29.184c0.256-2.304 1.28-3.328 3.072-2.816 6.656 1.536 13.568 3.328 20.224 5.12 1.024 0.256 2.048 0.768 2.56 1.28 0.768 0.768 1.28 1.792 1.28 3.328 0 0.512 3.84 31.488 3.84 31.488 5.888 1.792 11.776 3.328 17.664 5.12 0 0-7.168-43.52-11.008-65.024 3.328-0.512 4.864-2.304 4.864-4.864z m-17.92 13.312c-0.512 0.512-1.024 0.512-2.048 0.256-5.632-1.536-11.008-2.816-16.64-4.352-0.768-0.256-1.28-0.512-1.792-1.28-0.512-0.512-0.768-1.28-0.512-2.048 0 0 0.256-1.024 0.512-2.816 0.256-1.792 0.768-4.096 1.024-6.912 0.512-2.816 1.024-5.888 1.536-9.472 0.512-3.584 1.28-7.168 2.048-10.752 1.792-9.728 3.584-19.456 5.376-29.44h0.256c1.792 10.752 3.584 21.248 5.376 32 0.768 4.096 1.28 7.936 2.048 11.776 0.512 3.84 1.024 7.424 1.536 10.24 0.512 3.072 0.768 5.632 1.28 7.68 0.256 2.048 0.512 3.072 0.512 3.072 0.256 1.024 0 1.792-0.512 2.048zM558.592 401.664c-0.512-0.512-1.024-0.768-1.536-1.024-0.512-0.256-0.512-1.024-0.512-2.304v-30.208c0-4.352-0.768-8.448-2.048-12.032-1.28-3.584-3.328-6.4-6.144-8.448-1.28-1.28-1.536-2.56-0.256-3.584 2.56-1.792 4.608-4.352 6.144-7.424 1.536-3.072 2.304-6.4 2.304-10.24v-13.824c0-4.352-0.512-8.448-1.536-12.032-1.024-3.584-2.816-6.912-5.12-9.472-2.304-2.56-5.376-4.864-8.96-6.4-3.584-1.536-7.936-2.56-13.312-2.56-12.544-0.256-24.832-0.256-37.376 0v5.12c0 2.56 0.512 4.352 1.28 5.632 1.024 1.28 1.792 2.304 2.816 2.816 0.512 0.256 1.024 0.512 1.28 1.024 0.256 0.512 0.512 1.28 0.512 2.304v40.192c-3.328 0.768-5.632 3.584-5.632 6.912 0 3.328 2.304 6.144 5.632 6.656v61.184h17.664V355.84c0-1.536 0.768-2.56 2.304-2.56 3.84 0 7.424 0 11.264 0.256 3.84 0 6.656 1.28 8.448 3.584 1.792 2.304 2.56 5.632 2.56 9.728v38.656c0 2.56 0.768 4.608 2.304 6.4 1.536 1.536 3.84 2.56 6.912 2.56 5.12 0.256 9.984 0.512 15.104 0.768v-6.912c0-2.048-0.512-3.584-1.28-4.608-0.768-0.512-1.792-1.28-2.816-2.048z m-19.968-75.52c0 4.096-0.768 7.424-2.56 9.728-1.792 2.304-4.608 3.584-8.448 3.584-3.84 0-7.68 0-11.52-0.256-0.512 0-1.024-0.256-1.536-0.512-0.512-0.256-0.768-0.768-0.768-1.28V299.52c0-1.536 1.024-2.56 2.816-2.56 3.584 0 7.168 0 10.752 0.256 3.84 0 6.656 1.28 8.448 3.84 1.792 2.56 2.56 5.632 2.56 9.728v15.36zM615.168 368.128c-1.792 0.512-2.816 2.304-2.816 4.864 0 0.768 0.256 30.464-0.256 31.232-0.512 0.512-1.024 0.768-1.792 0.768-5.376-0.512-10.496-1.024-15.872-1.536-0.768 0-1.536-0.512-1.792-1.28-0.256-0.768-0.512-1.536-0.512-2.56 0-32.256 0-64.512-0.256-97.024 0-1.28 0.256-2.048 0.512-2.56 0.256-0.512 0.768-0.768 1.28-1.024 1.024-0.512 1.792-1.536 2.816-2.816 1.024-1.28 1.536-2.816 1.536-4.864v-5.376c-9.984-1.024-20.224-1.792-30.208-2.304v5.376c0 2.048 0.512 3.584 1.536 5.12 1.024 1.28 2.048 2.304 2.816 3.072 0.512 0.512 1.024 0.768 1.536 1.28 0.256 0.512 0.512 1.28 0.512 2.56v40.192c-3.328 0.512-5.632 3.072-5.632 6.4s2.56 6.4 5.632 7.168v61.184c15.872 1.024 31.744 2.56 47.616 4.352 1.28 0.256 2.304 0.256 3.584 0.512 1.024 0 1.792-0.256 2.816-0.768 1.024-0.768 1.536-1.792 1.536-3.072V368.64c-2.56-0.256-5.12-0.512-7.68-1.024-2.56-0.256-5.12 0-6.912 0.512zM222.72 326.912c-0.256 0-0.512 0-0.768 0.256h-0.256c-18.432 5.888-36.864 12.288-55.04 19.456v5.12c0 2.304 0.256 4.096 1.024 5.12 0.512 1.024 1.536 1.536 2.56 1.792l1.536 0.768c0.512 0.512 0.768 1.024 0.768 2.304v39.936c-3.072 1.792-5.376 5.376-5.376 8.96 0 3.328 2.304 5.376 5.376 4.608V476.16c1.536-0.512 3.072-1.024 4.352-1.792 7.936-3.072 15.872-5.888 23.552-8.448 3.328-1.28 6.656-2.304 10.24-3.328 2.56-0.768 5.12-1.792 7.68-2.56 1.024-0.256 2.048-0.768 3.072-1.024h0.256c0.512-0.256 0.768-0.256 1.28-0.768 0.512-0.512 1.024-0.768 1.536-1.536 0.768-1.024 1.28-2.304 1.28-3.584v-17.92-19.2c-2.56 0.768-4.864 1.536-7.424 2.304-2.56 0.768-5.12 2.048-6.912 3.584-1.792 1.28-2.56 3.328-2.56 6.144 0 0.768 0.256 19.2-0.256 19.968-0.512 0.768-1.024 1.28-1.792 1.536-2.304 0.768-4.352 1.536-6.656 2.304l-9.216 3.072c-1.28 0.512-2.048 0-2.048-1.792v-40.96c0-1.536 0.768-2.816 2.56-3.328 6.912-2.56 13.824-4.864 20.736-7.168 1.792-0.512 2.56-1.792 2.56-3.328v-9.984c0-1.024-0.256-1.536-1.024-1.792-0.512-0.256-1.28-0.256-1.792 0-6.912 2.304-13.824 4.608-20.736 7.168-1.792 0.512-2.56 0-2.56-1.536v-36.864c0-0.768 0.256-1.536 0.768-2.048 0.512-0.768 1.024-1.28 1.536-1.28 5.632-2.048 11.008-3.84 16.64-5.632 0.256 0 0.512 0.256 0.768 0.512 0.512 0.512 0.256 19.2 0.256 19.968 0 2.816 0.768 4.096 2.56 4.352 1.792 0.256 4.352-0.256 6.912-1.024 2.56-0.768 4.864-1.536 7.424-2.304v-37.888c0-1.024-0.512-1.792-1.28-2.304 0-0.512-0.768-0.768-1.536-0.768zM695.296 300.544c-0.256-0.256-0.512-0.256-0.768-0.256h-0.256c-18.944-3.584-37.888-6.912-56.832-9.472v5.12c0 2.304 0.256 4.096 1.024 5.632 0.768 1.28 1.536 2.56 2.816 3.072l1.536 1.536c0.512 0.512 0.768 1.536 0.768 2.56v39.936c-3.328 0.256-5.632 2.56-5.632 5.888 0 3.328 2.56 6.4 5.632 7.424v60.928l4.608 0.768 24.576 3.84c3.584 0.512 6.912 1.28 10.496 1.792 2.56 0.512 5.12 1.024 7.936 1.536 1.024 0.256 2.048 0.512 3.328 0.512h1.536c0.512 0 1.28-0.256 1.792-0.768 0.768-0.512 1.28-1.536 1.28-2.816v-37.376c-2.56-0.512-5.12-1.024-7.424-1.536-2.56-0.512-5.12-0.512-6.912 0-1.792 0.512-2.56 2.048-2.56 4.864 0 0.768 0.256 19.456-0.256 19.968-0.512 0.512-1.024 0.768-1.792 0.512-2.304-0.512-4.608-0.768-6.912-1.28-3.072-0.512-6.4-1.024-9.472-1.536-1.536-0.256-2.048-1.28-2.048-2.816v-40.96c0-1.536 1.024-2.304 2.816-2.048 7.168 1.28 14.336 2.304 21.504 3.84 1.792 0.256 2.56-0.256 2.56-2.048v-9.728c0-1.024-0.256-1.792-1.024-2.304-0.768-0.512-1.28-0.768-1.792-1.024-7.168-1.28-14.08-2.56-21.248-3.84-1.792-0.256-2.816-1.28-2.816-2.816v-36.864c0-0.768 0.256-1.28 0.768-1.792 0.512-0.512 1.024-0.512 1.792-0.512 5.632 1.024 11.52 1.792 17.152 3.072l0.768 0.768c0.512 0.768 0.256 19.2 0.256 19.968 0 2.816 1.024 4.608 2.56 5.888 1.792 1.28 4.352 2.048 6.912 2.56 2.56 0.512 5.12 1.024 7.424 1.536v-37.888c0-1.024-0.512-1.792-1.28-2.816-1.024-0.256-1.792-0.768-2.816-1.024z" fill="#FFFFFF" p-id="7280"></path><path d="M366.336 701.952l12.544 12.032c2.048 2.048 4.864 4.864 4.352 8.704-0.256 1.792-1.28 3.584-2.816 5.12-1.792 2.048-3.84 2.56-5.376 2.816-3.584 0.512-6.144-1.792-8.704-4.352l-7.168-6.912-7.424 7.68-5.12-4.864 19.712-20.224z m-3.84 13.824l6.4 6.144c1.536 1.536 3.84 3.84 6.4 1.024 1.024-1.024 1.28-2.048 1.28-3.072 0-1.28-0.768-2.048-3.072-4.096l-5.632-5.632-5.376 5.632zM399.872 731.136l22.528 13.568-2.56 4.352-16.384-9.984-3.328 5.376 15.872 9.472-2.56 4.352-15.872-9.472-3.584 5.888 17.152 10.24-2.56 4.352-23.296-13.824 14.592-24.32zM439.04 752.128l6.656 2.304-7.168 21.76 14.848 4.864-1.536 4.864-21.504-7.168 8.704-26.624zM477.696 762.624l6.912 1.024-4.352 27.904-6.912-1.024 4.352-27.904zM537.6 783.104c-0.512 1.792-1.024 3.84-3.328 6.144-2.304 2.048-5.888 4.608-13.056 4.864-9.984 0.512-17.152-4.608-17.664-14.336-0.512-10.496 7.936-15.36 16.64-15.616 3.328-0.256 12.544 0.256 16.64 8.192l-7.68 1.28c-0.768-1.28-3.072-4.352-8.704-4.096-6.4 0.256-9.728 4.864-9.728 10.24 0.256 6.144 5.12 9.728 10.496 9.472 6.144-0.256 7.936-3.84 8.704-5.632l7.68-0.512zM562.688 758.528l7.424-2.048 20.992 23.296-7.68 2.304-3.84-4.352-13.824 4.096-0.768 5.888-7.424 2.304 5.12-31.488z m6.656 6.912c-0.256-0.256-0.512-0.512-0.768-1.024-0.256-0.256-0.512-0.512-0.512-1.024v2.304l-1.536 10.24 9.472-2.816-6.656-7.68zM597.248 745.984l6.144-3.584 19.968 6.4c2.56 0.768 2.816 1.024 5.632 2.048-1.536-2.304-2.048-2.816-3.328-4.864l-7.424-12.288 5.888-3.584 14.592 24.32-6.4 3.328-20.224-6.4c-2.048-0.768-3.072-1.024-5.376-2.048 1.28 1.792 1.536 2.048 2.56 4.096l7.936 13.312-5.888 3.328-14.08-24.064zM655.36 728.832c3.584 1.28 7.168-0.768 9.984-3.328 1.28-1.28 4.864-5.12 2.56-7.68-1.536-1.536-3.072-0.512-4.352 0.512-1.024 0.512-5.888 4.096-6.912 4.864-2.304 1.536-7.68 5.12-12.288 0.512-1.024-1.024-1.792-2.304-2.048-3.584-1.024-4.352 2.048-8.704 5.376-11.776 3.072-2.816 5.632-4.608 8.96-5.632 3.072-0.768 5.376-0.256 6.4 0l-3.584 5.888c-0.512-0.256-1.536-0.512-3.328 0-2.048 0.768-3.84 2.304-4.864 3.072-2.304 2.048-4.096 4.864-2.304 6.656 1.28 1.28 2.816 0.512 4.608-0.512 1.024-0.512 5.888-3.84 6.912-4.608 2.816-1.792 7.68-4.864 12.032-0.512 6.4 6.4-1.28 14.336-3.84 16.64-3.328 3.328-8.96 7.68-16.64 5.12l3.328-5.632z" fill="#FFFFFF" p-id="7281"></path><path d="M478.208 593.664s-101.12-33.792-57.088-141.568c0 0-107.008 4.352-253.44 63.488 0 0-10.24 4.352-16.384 6.4-5.888 2.048-15.616 5.888-29.44-0.768 0 0 133.888-70.144 306.176-86.272 22.784-2.048 25.6 1.28 19.712 9.728-4.864 7.424-66.304 85.504 30.464 148.992z" fill="#FFFFFF" p-id="7282"></path><path d="M388.352 482.56c-86.528 11.264-171.264 41.472-171.264 41.472 14.336 25.6 53.504 14.848 53.504 14.848 73.472-20.736 106.24-27.904 116.736-29.952-0.512-7.936-0.256-16.896 1.024-26.368zM388.864 524.8c-14.336 2.816-75.008 15.36-136.192 38.144 0 0 19.2 22.016 57.6 11.008 32.256-9.216 73.472-22.272 85.76-26.368-3.072-6.656-5.376-14.336-7.168-22.784zM402.432 559.872c-13.056 4.096-78.336 25.344-105.984 36.096 0 0 15.872 21.248 61.44 3.328 31.744-12.544 49.408-19.968 57.088-23.04-4.608-4.864-8.704-10.24-12.544-16.384zM425.216 585.216c-11.52 4.864-53.76 23.552-78.336 35.328 0 0 30.976 15.104 69.632-8.704l24.064-15.872c-5.12-3.072-10.496-6.656-15.36-10.752zM452.352 602.112c-7.68 4.864-39.936 25.088-55.552 36.608 0 0 26.624 11.008 54.016-14.848 8.96-8.448 13.824-13.056 16.384-15.872-4.864-1.536-9.728-3.584-14.848-5.888z" fill="#B4975A" p-id="7283"></path><path d="M543.232 593.664s101.12-33.792 57.088-141.568c0 0 107.008 4.352 253.44 63.488 0 0 10.24 4.352 16.384 6.4 5.888 2.048 15.616 5.888 29.44-0.768 0 0-133.888-70.144-306.176-86.272-22.784-2.048-25.6 1.28-19.712 9.728 4.864 7.424 66.304 85.504-30.464 148.992z" fill="#FFFFFF" p-id="7284"></path><path d="M633.088 482.56c86.528 11.264 171.264 41.472 171.264 41.472-14.336 25.6-53.504 14.848-53.504 14.848-73.472-20.736-106.24-27.904-116.736-29.952 0.512-7.936 0.256-16.896-1.024-26.368zM632.576 524.8c14.336 2.816 75.008 15.36 136.192 38.144 0 0-19.2 22.016-57.6 11.008-32.256-9.216-73.472-22.272-85.76-26.368 3.072-6.656 5.376-14.336 7.168-22.784zM619.008 559.872c13.056 4.096 78.336 25.344 105.984 36.096 0 0-15.872 21.248-61.44 3.328-31.744-12.544-49.408-19.968-57.088-23.04 4.608-4.864 8.704-10.24 12.544-16.384zM596.224 585.216c11.52 4.864 53.76 23.552 78.336 35.328 0 0-30.976 15.104-69.632-8.704l-24.064-15.872c5.12-3.072 10.496-6.656 15.36-10.752zM569.088 602.112c7.68 4.864 39.936 25.088 55.552 36.608 0 0-26.624 11.008-54.016-14.848-8.96-8.448-13.824-13.056-16.384-15.872 4.608-1.536 9.728-3.584 14.848-5.888z" fill="#B4975A" p-id="7285"></path><path d="M593.408 652.288c0 45.824-37.12 82.688-82.688 82.688-45.824 0-82.688-37.12-82.688-82.688 0-45.824 37.12-82.688 82.688-82.688 45.824 0 82.688 37.12 82.688 82.688z" fill="#FFFFFF" p-id="7286"></path><path d="M576.256 669.44c0 36.352-29.44 65.792-65.536 65.792-36.352 0-65.536-29.44-65.536-65.792s29.44-65.536 65.536-65.536c36.352 0 65.536 29.44 65.536 65.536z" fill="#B4975A" p-id="7287"></path><path d="M510.72 563.2c-49.152 0-89.344 39.936-89.344 89.344 0 49.152 39.936 89.344 89.344 89.344 49.152 0 89.344-39.936 89.344-89.344 0-49.408-40.192-89.344-89.344-89.344z m75.008 74.752c-5.632 22.016-20.736 40.192-40.192 50.176 1.536-11.008 6.4-21.76 11.264-33.024 7.168-16.384 15.104-34.048 11.52-52.992 8.704 10.24 14.848 22.528 17.408 35.84z m-114.176-50.944c9.984-5.888 21.504-9.728 33.536-10.752V696.32c-6.144-0.512-12.032-1.536-17.664-3.328-0.512-14.848-6.656-28.672-12.8-42.24-9.728-22.528-18.176-41.984-3.072-63.744z m15.36 117.248c5.888 1.536 12.032 2.56 18.432 3.072v21.248c-9.984-0.768-19.456-3.328-28.16-7.68 4.096-3.84 8.448-9.472 9.728-16.64z m29.44 3.072c6.4-0.256 12.544-1.28 18.432-3.072 1.28 7.168 5.632 12.8 9.728 16.64-8.704 4.096-18.176 6.912-28.16 7.68v-21.248z m17.664-14.336c-5.632 1.792-11.52 3.072-17.664 3.328v-120.064c12.288 0.768 23.552 4.608 33.536 10.752 15.104 21.76 6.656 41.472-3.328 63.744-5.888 13.568-12.032 27.392-12.544 42.24zM453.12 602.368c-3.328 18.944 4.352 36.608 11.52 52.992 4.864 11.264 9.728 22.272 11.264 33.28-19.712-9.728-34.56-27.904-40.192-50.432 2.56-13.824 8.704-25.856 17.408-35.84z m-17.664 63.488c9.728 15.616 23.808 27.904 40.704 34.816 0 0.512 0 1.024-0.256 1.536-0.768 5.632-5.632 10.24-8.96 12.8-16.128-11.264-27.904-28.928-31.488-49.152z m118.784 49.152c-3.328-2.56-7.936-7.168-8.96-12.8 0-0.512 0-1.024-0.256-1.536 16.896-7.168 30.976-19.2 40.704-34.816-3.584 20.224-15.104 37.888-31.488 49.152z" fill="#0A2240" p-id="7288"></path><path d="M537.344 447.232s-0.768 2.816-2.304 2.816c-1.792 0-12.544-5.12-17.664-7.936-2.304-1.28-5.376-3.072-6.4-3.584 0 0-4.608 2.304-6.656 3.584-5.12 2.816-15.872 7.936-17.664 7.936-1.792 0-2.304-2.816-2.304-2.816s-28.16 16.896-28.16 63.744c0 34.816 18.176 50.688 18.176 50.688l2.56 9.984h68.096l2.56-9.984s18.176-15.872 18.176-50.688c-0.512-46.592-28.416-63.744-28.416-63.744z" fill="#0A2240" p-id="7289"></path><path d="M550.656 499.456c0-14.592-5.888-26.368-12.288-33.28 0 0-0.256 4.096-7.168-0.512-5.888-4.096-13.056-6.4-20.48-6.4-7.68 0-14.592 2.304-20.736 6.4-6.656 4.608-6.912 0.512-6.912 0.512-6.4 6.912-12.288 18.944-12.288 33.28 0 12.032 3.072 17.92 4.096 19.712 5.888 15.36 19.712 26.112 35.84 26.112 15.872 0 29.696-10.496 35.584-25.6 0.512-0.768 4.352-6.4 4.352-20.224z" fill="#FFFFFF" p-id="7290"></path><path d="M525.824 531.968c-0.256 0-0.256 0 0 0-0.256-0.256-4.096-7.68 2.304-12.8 0 0 14.848 3.072 15.104-16.384 0 0-0.256-2.048 1.792-6.144 0 0-3.84-3.328-12.032 2.816-8.192 6.144-12.544 23.552-17.152 19.456-4.352-4.096-2.816-26.88-5.12-27.648-2.304 0.768-0.768 23.552-5.12 27.648-4.352 4.096-8.96-13.312-17.152-19.456-8.192-6.144-12.032-2.816-12.032-2.816 2.048 4.096 1.792 6.144 1.792 6.144 0.256 19.456 15.104 16.384 15.104 16.384 6.4 5.12 2.56 12.544 2.56 12.544s0 0.256-0.256 0.256c-17.664-18.944-27.904-16.384-22.784 4.864 4.864 20.736 24.064 109.824 26.88 130.56-0.512 18.688-2.56 25.344-3.072 26.624l-1.792 3.84 2.048 4.352c3.328 4.864 5.632 10.24 6.4 12.288l7.168 18.432 7.168-18.432c0.768-2.048 3.072-7.68 6.4-12.544l2.304-4.096-2.048-4.096c-0.512-1.28-2.56-7.68-3.072-25.6 2.56-18.432 22.016-110.336 26.88-131.584 5.376-20.736-4.864-23.296-22.272-4.608z" fill="#0A2240" p-id="7291"></path><path d="M498.688 624.896c-6.4-33.28-11.264-57.6-15.36-75.52-3.072-13.568 5.12-8.192 9.472 0.256l5.888 75.264zM522.752 624.896c6.4-33.28 11.264-57.6 15.36-75.52 3.072-13.568-5.12-8.192-9.472 0.256l-5.888 75.264zM488.96 512.768a2.048 2.048 0 0 1-1.536-2.816c0.256-0.512 0.512-0.768 0.768-1.28-0.768-1.024-1.792-1.792-3.072-2.816 0 0-2.048 9.472 6.4 8.448 0 0-0.256-0.768-1.024-2.048-0.256 0.512-1.024 0.512-1.536 0.512zM536.32 505.856c-1.28 0.768-2.048 1.792-3.072 2.816 0.256 0.256 0.768 0.768 0.768 1.28 0.256 1.28-0.512 2.56-1.536 2.816-0.512 0.256-1.28 0-1.792-0.256-0.768 1.28-1.024 2.048-1.024 2.048 8.704 1.024 6.656-8.704 6.656-8.704zM514.816 637.184c2.816-51.2 6.912-87.552 6.912-92.16 0-1.536-0.256-3.584-0.768-5.888l-3.072 9.728-1.024-17.152c-1.536-2.048-3.584-3.84-6.144-5.632h-0.256c-2.56 1.792-4.352 3.84-5.888 5.632l-1.024 17.152-3.072-9.728c-0.768 2.304-0.768 4.352-0.768 5.888 0 4.608 4.096 40.704 6.912 92.16 2.816 51.2-3.584 60.672-3.584 60.672 3.584 5.376 7.68 14.848 7.68 14.848s4.096-9.472 7.68-14.848c0 0.256-6.4-9.216-3.584-60.672z" fill="#CE0E2D" p-id="7292"></path></svg>