<svg t="1712738595423" class="icon" viewBox="0 0 1024 1024" version="1.1" xmlns="http://www.w3.org/2000/svg" p-id="6460" width="200" height="200"><path d="M1010.0736 501.76A498.8928 498.8928 0 1 1 511.1808 2.7648 498.8928 498.8928 0 0 1 1010.0736 501.76" fill="#B1B1B1" p-id="6461"></path><path d="M995.7376 501.76A484.608 484.608 0 1 1 511.1808 17.1008 484.5568 484.5568 0 0 1 995.7376 501.76" fill="#003DA6" p-id="6462"></path><path d="M924.3648 501.76a413.2352 413.2352 0 1 1-413.2352-413.184A413.184 413.184 0 0 1 924.3648 501.76" fill="#DB0032" p-id="6463"></path><path d="M511.1808 891.1872a390.0928 390.0928 0 0 1-363.008-248.4736c69.2736 94.7712 205.9776 159.4368 363.008 159.4368s293.6832-64.8704 362.9568-159.4368a390.0416 390.0416 0 0 1-362.9568 248.4736m0-779.0592a390.0416 390.0416 0 0 1 362.9568 248.4736C804.864 265.8304 668.16 201.1648 511.1808 201.1648s-293.7344 64.6656-363.008 159.4368a390.0416 390.0416 0 0 1 363.008-248.4736m-389.12 401.7152h75.9296v-24.32H121.9584c0.256-9.216 0.768-18.3808 1.6896-27.392 26.9312-135.68 190.4128-240.384 387.5328-240.384s360.5504 104.704 387.4816 240.64c0.9216 9.0112 1.4336 18.176 1.6896 27.392H824.32v24.32h76.032c0 9.1648-0.768 18.3296-1.6896 27.3408-26.9312 135.68-190.4128 240.64-387.4816 240.64S150.5792 676.864 123.648 541.184c-0.9216-9.0112-1.4336-18.176-1.6896-27.3408m389.12-425.4208A413.2352 413.2352 0 1 0 924.3648 501.76a413.696 413.696 0 0 0-413.184-413.2352" fill="#FFFFFF" p-id="6464"></path><path d="M336.5376 643.7376h29.2352v-131.2768h-29.2352v131.2768zM448.5632 512.512h-46.1824c-8.8064 0-14.4384 4.1472-15.7696 11.776a11.6736 11.6736 0 0 0-0.256 2.1504c0 0.3072-2.048 24.8832 0.4096 31.8464 3.8912 11.264 13.0048 15.36 21.4016 18.0736h0.8704a6.7072 6.7072 0 0 1 1.6384 0.512 3.9424 3.9424 0 0 1 1.9456 1.4848v47.2576h-24.1152v17.4592h31.744c11.008-0.512 18.6368-5.12 21.4528-13.6192 0.768-6.4512 0.8704-50.432 0-59.648a11.4688 11.4688 0 0 0-5.12-8.7552 32.2048 32.2048 0 0 0-4.7616-3.072c-1.6896-0.9216-3.584-1.8432-5.12-2.6624-6.8608-3.328-14.6432-7.168-14.6432-15.872V532.48H435.2a12.032 12.032 0 0 0 10.9056-6.656 18.9952 18.9952 0 0 0 2.304-6.8608 40.5504 40.5504 0 0 0 0-5.5296v-0.8704zM572.4672 542.0032a46.592 46.592 0 0 1 0.9216-8.0896l0.512-0.512a26.2656 26.2656 0 0 1 4.1472-0.3072h0.512c9.9328 0 10.24 3.1232 10.24 21.0432V613.7344a29.5424 29.5424 0 0 1-0.512 4.4544l-0.5632 0.512a34.816 34.816 0 0 1-5.12 0.4096 10.24 10.24 0 0 1-7.7312-2.4576 15.36 15.36 0 0 1-2.2528-11.008v-55.3472-8.2944m9.6768-29.5936a72.3968 72.3968 0 0 0-18.9952 1.792c-14.2848 3.4304-21.248 13.0048-21.248 29.2352v78.08c0 20.0192 14.2848 24.1152 35.84 24.1152 26.0096 0 40.96-9.216 40.96-25.2416v-81.3568c0-26.624-16.9472-26.624-36.5568-26.624M686.3872 568.32c-13.9264-50.5344-36.352-56.32-45.6192-56.32a16.5888 16.5888 0 0 0-3.8912 0.4096h-0.7168v131.1744H665.6v-52.736l20.48 52.736h30.1056v-131.0208h-30.0544V568.32zM289.1776 570.6752h-16.4352V532.48h10.24c3.2768 0.4096 6.2464 1.6896 6.2464 5.5808v32.512m11.8272-58.2656H226.304v0.8704a19.2 19.2 0 0 0 16.5888 19.3024v111.1552h30.2592v-55.7056h25.6c13.4144 0 21.1456-8.8576 21.1456-24.2688v-4.7104c0-37.1712-1.4848-44.5952-18.7904-46.5408M532.8384 512.6144H464.384v20.48h19.5072v110.6944h30.0544v-110.6432h1.0752a16.8448 16.8448 0 0 0 12.7488-4.864 21.6576 21.6576 0 0 0 5.12-14.7456v-0.9216zM796.1088 512.512h-46.1824a14.1824 14.1824 0 0 0-15.7696 11.776 11.6736 11.6736 0 0 0 0 2.1504c0 0.3072-2.048 24.8832 0.4096 31.8464 3.8912 11.264 13.0048 15.36 21.4016 18.0736h0.8704a6.7072 6.7072 0 0 1 1.6384 0.512 3.7376 3.7376 0 0 1 1.9456 1.4848v47.2576h-24.1152v17.4592H768c11.008-0.512 18.6368-5.12 21.4528-13.6192 0.768-6.4512 0.8704-50.432 0.256-59.648a11.4688 11.4688 0 0 0-5.12-8.7552 34.2528 34.2528 0 0 0-4.7104-3.072c-1.7408-0.9216-3.6352-1.8432-5.4272-2.6624-6.8608-3.328-14.6432-7.168-14.6432-15.872V532.48h22.9376a12.032 12.032 0 0 0 10.9056-6.656 18.9952 18.9952 0 0 0 2.304-6.8608 40.5504 40.5504 0 0 0 0-5.5296v-0.8704zM527.7696 377.856h5.7856c7.6288 0 10.496 0 10.24 13.6704v17.7152a5.9392 5.9392 0 0 1-1.6384 4.2496 3.1744 3.1744 0 0 1-2.4064 1.0752h-11.776V377.856z m0 53.6064h5.12c5.12 0 13.1072 1.5872 13.1072 10.24 0 4.1984 0.3584 17.3568 0.512 22.272V465.92c0 0.768 0.3584 7.168 0.6656 8.3968a18.176 18.176 0 0 0 17.3568 13.2096h8.5504v-46.592a25.1392 25.1392 0 0 0-5.12-13.6704l-0.6144-0.8192a25.6 25.6 0 0 0 6.0928-18.688v-4.5568c0-36.3008-1.4336-43.5712-18.2784-45.4656H498.4832v128h29.184v-54.272zM709.0176 357.7344h-28.4672l-0.1024 128.0512 28.5696 0.0512V357.7344zM435.456 485.9904h29.3376V377.7024H465.92a16.4352 16.4352 0 0 0 12.4416-4.7616 21.1968 21.1968 0 0 0 4.864-14.5408v-0.8704h-66.56v20.3264h18.9952v108.1344zM743.0656 485.9904h29.3376V377.7024h1.0752a16.4864 16.4864 0 0 0 12.4416-4.7616 21.0432 21.0432 0 0 0 5.12-14.3872v-0.8704h-66.56v20.1728h19.0464v108.1344zM401.1008 465.2544h-30.72v-31.1296h21.0432v-27.8528h-21.0432v-28.8256h30.72v-19.712H341.9136l-0.1024 128.0512h59.2896v-20.5312zM294.5536 465.2544h-16.2304V377.856a35.84 35.84 0 0 1 12.3392 0.512c3.7888 1.4848 3.6864 8.5504 3.6864 8.704 1.0752 10.24 0.3072 70.144 0 78.1824m10.24-107.52H231.6288v0.8192a16.7936 16.7936 0 0 0 17.5104 19.2v107.8784h54.272c12.3904 0 20.48-10.24 20.48-26.2144v-59.392c0-32.8192 0-41.6256-19.5072-42.2912M619.008 386.7136a45.7728 45.7728 0 0 1 0.9216-7.936l0.512-0.512a33.1264 33.1264 0 0 1 4.096 0h0.5632c9.8304 0 10.24 3.0208 10.24 20.48v58.1632a28.0064 28.0064 0 0 1-0.5632 4.352l-0.512 0.512a34.0992 34.0992 0 0 1-5.12 0.4096 10.24 10.24 0 0 1-7.68-2.4064 14.6944 14.6944 0 0 1-2.2528-10.752V394.8032v-8.0896m9.5744-28.9792a73.3184 73.3184 0 0 0-18.7904 1.7408c-14.2336 3.3792-21.1456 12.7488-21.1456 28.6208v76.4416c0 19.5584 14.2336 23.6032 35.5328 23.6032 25.6 0 40.6528-9.0112 40.6528-24.6784V384c0-26.0608-16.8448-26.0608-36.3008-26.0608" fill="#FFFFFF" p-id="6465"></path></svg>