<svg t="1712738346677" class="icon" viewBox="0 0 1029 1024" version="1.1" xmlns="http://www.w3.org/2000/svg" p-id="14309" width="200" height="200"><path d="M1021.747978 513.143822A510.856178 510.856178 0 1 1 510.891799 2.287643 510.856178 510.856178 0 0 1 1021.747978 513.143822" fill="#C10230" p-id="14310"></path><path d="M510.790126 997.463337A484.268679 484.268679 0 0 1 164.695106 174.521769 481.065978 481.065978 0 0 1 505.553965 28.875143h5.439508a484.319515 484.319515 0 0 1 346.09502 822.992404 481.015142 481.015142 0 0 1-340.858859 145.59579h-5.439508" fill="#2D2A26" p-id="14311"></path><path d="M509.366704 97.809462l-5.083652 5.083652v61.715534l5.083652 5.083652h17.23358l5.083652-5.083652V102.893114l-5.083652-5.083652z m49.108077 82.81269l-16.776051 16.92856h-47.227126l-16.979397-16.92856v-93.539195l16.979397-16.979397h47.074616l16.928561 16.979397v93.539195zM885.404434 321.185126l-6.812093-2.33848-55.920171 26.638336-2.389317 6.761257 7.422132 15.250956 6.761257 2.389316 55.920171-26.638335 2.389316-6.761257-7.422131-15.555975z m-53.530854 80.016681l-22.520578-7.777987-20.334608-42.601003 7.981334-22.622251 84.337785-40.364196 22.622251 7.981333 20.334607 42.397657-8.083006 22.723924-84.337785 40.31336zM214.667404 228.764335v7.167949L259.200194 278.990816h7.16795l12.048255-12.353274v-7.16795L233.781935 216.309388h-7.167949L214.667404 228.764335z m93.590031 22.520578l0.457529 23.842327-32.891228 33.907958-23.994837 0.305019L184.775531 244.015291l-0.355856-23.994837 32.789555-33.704612 23.944-0.355856 67.104205 65.172417zM732.081493 124.091943l-49.667279 117.127339-20.385444-8.693045-5.388671-83.117708-28.976816 68.527627-22.266395-9.353919 49.718116-117.12734 27.502556 11.6924 0.355856 72.899568 26.129971-61.715534 22.978106 9.760612zM352.637716 162.371841l20.334608-8.743881 2.694335-6.608747-6.964603-15.911831-6.659584-2.643499-20.334607 8.693045 10.929851 25.418259z m51.954922-11.590726l-5.642853 19.826242 35.585563 35.026362-24.757385 10.777342-32.9929-31.620315-11.997419 5.083652L381.512859 228.764335l-22.673088 9.760612-50.836518-116.923994 54.496748-23.689818 23.028943 9.35392 18.911185 43.51606zM831.72107 238.118254l-16.572705-16.267686-70.154396 71.374473-19.012858-18.707839 70.154396-71.323636-16.572705-16.318523 19.216204-19.572059L850.937274 218.597031l-19.216204 19.521223zM152.443505 310.76364l-9.455593 21.198828 91.302388 40.872562-10.879015 24.350692-91.353224-40.872561-9.455593 21.198828-25.011567-11.184034 29.841036-66.748349 25.011568 11.184034zM850.530582 635.863178l-12.607457 23.944001-8.845554-4.626124-2.490989 4.67696-7.930497 15.250956 2.18597 6.761257 12.505784 6.608747-1.575932-0.86422 6.812093-2.084298 14.996773-28.46845 23.486472-7.01544 38.229062 20.334608 7.117113 22.92727-21.961376 41.787618s-23.07978 7.066276-23.232289 6.964603l-19.114532-10.167304 12.454948-23.740654 9.658938 5.083652 10.167304-19.775406-2.135134-6.86293-10.167304-5.337834-6.964603 2.135133-14.640917 27.909249-23.740654 7.218786-38.279899-20.334608-7.472968-23.333962 21.961376-41.787618 23.283125-6.710421 18.046965 9.35392zM180.861119 672.516308l10.167304 19.470387 6.86293 2.135134L213.447327 686.293005l2.185971-6.86293-10.167304-19.41955-24.401529 12.658293z m15.250956 50.836519l-20.334608-4.270267-32.484536 37.873206-12.454947-23.893164 29.230999-35.128034-5.99871-11.641563-37.212331 19.622896-11.438217-21.910539L218.530979 625.289182l27.451721 52.71747-7.828824 23.537309-42.092638 21.910539zM372.311449 854.714392l17.996128 7.472968 6.557911-2.745172 6.659584-16.013503-2.694336-6.608748-17.996128-7.472968-10.523159 25.41826z m-9.455593 22.774761l-18.402819 43.973588-22.113886-9.20141L371.040536 794.57479l53.835874 22.368069 8.947227 23.079779-17.843618 42.855186-17.741945 9.455592-35.585564-14.844263zM555.983792 855.578613l-23.232289 0.254183 1.118403 100.046269-26.689172 0.305019-1.118404-100.046269-23.181452 0.203346-0.30502-27.350047 73.102915-0.813385 0.305019 27.400884zM628.73085 837.175793l-2.948518 6.557911 21.91054 57.699449 6.507074 2.948518 16.115177-6.100382 2.948518-6.557911-21.91054-57.699449-6.507074-2.948518-16.115177 6.100382z m75.238048 60.037929l-9.658938 21.808866-44.126099 16.725215-21.859703-9.862284-33.196247-87.387976 9.862285-21.91054 43.922752-16.674378 21.91054 9.811448 33.14541 87.489649zM750.992678 800.065134l16.674378-14.183388 0.610039-7.117113-11.234871-13.268332-7.167949-0.559201-16.674378 14.183389 17.792781 20.944645z m46.312069-26.180807l0.355856 20.58879 44.126098 23.232289-20.334608 17.538599-40.669215-20.690463-10.167304 8.540535 27.248375 32.027007-18.860349 16.013504L696.394257 773.935164l45.295338-38.483245 24.757385 2.287643 30.501911 36.144765zM258.335974 818.010425l17.436926-35.128034-33.806285 20.334607 16.369359 15.250956z m-0.711712 60.444621l-19.927915-18.351983 9.252246-18.809512-27.248374-25.062404-17.996127 10.726506-19.927916-18.351984 115.195552-69.035992 19.927915 18.351983-59.275381 120.533386z" fill="#FFFFFF" p-id="14312"></path><path d="M609.972175 769.105694c0.406692 0.508365 0.711711 1.16924 1.01673 1.16924 1.423423 0 4.270268-0.508365 4.270268-0.508365l2.846845-1.270913 7.981333-3.101028s20.029588-9.506429 20.334608-9.608102l3.50772-1.880951 1.830114-0.762548 2.185971-1.474259 3.507719-2.18597 4.270268-2.33848 5.439508-3.558556 9.404756-6.659584 4.626123-3.609393 6.659584-4.829469 6.049545-4.473614 2.846846-2.135134 3.965248-3.711066 4.168595-4.117758 6.71042-7.167949 7.777987-7.472968 8.998064-10.167304 5.083652-6.608747 1.728442-2.389317 5.083652-6.507074 10.167303-14.844264 2.897682-4.829469 6.913767-13.675024 3.914412-7.422131 6.71042-13.573351 3.609393-8.235516 3.914412-12.658293s4.626123-16.674378 7.167949-25.41826a2.897682 2.897682 0 0 0 0-2.796008c-1.423423-2.033461-2.490989-4.575287-3.812739-6.812094-0.711711-1.220076-1.677605-2.389316-2.33848-3.35521s-2.440153-3.202701-3.101027-3.965248a15.250956 15.250956 0 0 0-2.49099-2.287644c-2.18597-2.033461-4.066922-4.016085-5.897036-5.388671a18.453656 18.453656 0 0 1-2.389316-1.677605 86.117063 86.117063 0 0 0-17.741945-10.573996c-2.643499-1.118403-5.439508-2.135134-8.18468-3.101027a49.057241 49.057241 0 0 0-7.167949-1.728442 3.761902 3.761902 0 0 0-2.999355 0.355856c-0.864221 0.610038-0.915057 1.931788-1.067567 3.304373-0.355856 3.456883-0.508365 7.269622-0.813384 10.777342s-0.559202 7.218786-0.864221 10.828179-0.406692 6.557911-0.813384 9.811448c-0.508365 4.321104-1.118403 8.591372-1.931788 12.861639-1.525096 7.981333-3.202701 15.91183-5.083652 23.842328a34.823015 34.823015 0 0 1-1.626768 6.507074 49.006404 49.006404 0 0 0-3.202701 10.167304 146.409174 146.409174 0 0 1-6.761257 21.808866 88.099687 88.099687 0 0 1-7.523805 17.081071 7.472968 7.472968 0 0 0-0.508365 1.118403c-1.525096 3.660229-3.050191 7.371295-4.727796 10.980688-1.01673 2.389316-2.541826 4.52445-3.558557 6.913767A54.750931 54.750931 0 0 1 686.226953 686.293005c-2.745172 4.270268-5.69369 8.438862-8.083006 12.963312a73.001241 73.001241 0 0 1-5.69369 9.048901l-1.525096 2.236807c-1.626769 2.440153-3.202701 5.083652-5.083652 7.269622-3.50772 4.422777-7.117113 8.845554-10.828178 13.115822-2.287643 2.694336-5.083652 5.083652-7.269623 7.777987l-6.659584 7.01544c-0.457529 0.457529-1.067567 0.864221-1.575932 1.321749-1.321749 1.118403-2.745172 2.18597-3.965248 3.406047a62.478082 62.478082 0 0 1-9.252247 7.930497 43.211041 43.211041 0 0 0-4.270267 3.050191 63.08812 63.08812 0 0 1-12.099092 7.727151M789.018394 554.93144l0.254183-0.559202c0.254183-0.559202 0-1.931788 0-1.931787l1.982624-17.38609 1.16924-16.318522v-18.707839l-1.931788-18.351984s-2.236807-16.521869-3.914412-25.011567a7.87966 7.87966 0 0 0-5.083651-5.744526 14.285062 14.285062 0 0 0-2.541826-1.118404c-1.830115-0.559202-3.812739-1.423423-5.642854-1.880951-4.117758-1.01673-8.03217-2.389316-12.251601-3.101028s-10.167304-1.372586-14.945937-1.830114c-4.117758-0.355856-8.235516-0.508365-12.353274-0.559202h-8.540535c-1.779278 0-3.660229 0-4.473614 1.118403s0 3.101028 0 5.083652c0.610038 4.016085 1.270913 5.998709 1.931788 10.167304a279.600854 279.600854 0 0 1 4.575287 35.585563c0 5.388671 0.508365 10.777342 0.711711 16.115177v4.117758a5.897036 5.897036 0 0 0 0.660875 2.592662c0.457529 0.711711 1.220076 0.864221 2.084297 1.118404s2.033461 0.406692 3.050191 0.660874 2.948518 0.660875 4.219431 1.067567c4.778633 1.525096 9.862285 3.253537 14.488408 5.083652a98.165318 98.165318 0 0 1 9.506429 5.083652 7.777987 7.777987 0 0 1 1.067567 0.711711l5.490344 4.117758a55.920171 55.920171 0 0 1 12.149928 10.624833 18.097801 18.097801 0 0 0 2.135134 2.287643c1.321749 1.16924 3.50772 5.083652 5.083652 7.167949a0.965894 0.965894 0 0 0 0.660875 0.406692M666.299038 359.312516c1.626769 0 3.101028 0 4.37194-0.30502s1.779278 0 2.236807-1.118403a3.35521 3.35521 0 0 0-0.559202-2.490989c-0.355856-0.813384-3.50772-6.354565-3.507719-6.354565l-3.050191-4.778633-12.912476-18.657003-2.694336-3.151864-2.490989-3.35521-4.219431-4.67696-10.472323-11.489053-4.473614-4.371941-16.216849-14.996773-13.268332-10.167303-4.778633-2.49099-15.555974-9.557265-10.929852-5.897037-2.135134-0.86422-8.845554-3.253538-13.166658-5.083651h-1.067567l-4.219431-1.067567h-1.118404L533.717396 244.015291l-7.87966-1.474259h-3.711066l-7.015439-1.32175-8.33719-0.508365-2.948518-0.406692h-5.083652l-8.794717 0.254182-8.693045 0.965894h-6.710421l-5.947872 0.660875-6.049546 1.220076-4.626123 1.423423-7.523805 1.423423h-1.677605l-6.964603 2.490989-4.168595 1.16924-2.490989 1.525095-6.100382 1.626769-2.948519 1.728442-3.711065 1.423422-9.048901 3.761903L401.542447 264.349898l-3.812739 1.830115-8.03217 4.371941-7.015439 4.575286-6.557911 3.406047-2.33848 1.372586-7.167949 3.761902-1.16924 0.762548-8.133843 6.405402-6.761257 4.575286-1.32175 0.864221-7.625477 5.998709-2.796009 2.33848a37.873207 37.873207 0 0 0-4.219431 4.016085l2.897682-0.864221 5.337834-1.931787h1.01673l7.574642-3.050191h1.118403l8.337189-3.202701s4.321104-1.423423 4.321104-1.32175 4.422777-1.626769 4.422777-1.626768l6.151219-2.185971 14.8951-5.744526h1.372586l7.625478-2.643499 6.049546-2.49099 0.864221 0.610039 11.692399 0.305019 7.472968 0.559201 15.250956 1.16924 20.792136 1.067567v0.508365l7.371295 6.354565h0.559202l7.523805 7.269622 0.660875-0.355855 10.167303 0.305019 0.508366-0.355856 25.977461 1.525096v0.559202l11.53989 6.71042h0.508365l20.334607 9.913121v1.118404l12.200765-4.626124 16.979397 5.693691 2.897682 4.727796 6.202055 0.406692 5.998709 6.761257h0.610039l5.083651 5.490344v0.355856h0.660875l13.420841 3.050191 5.083652 7.625478 12.404111 4.52445s13.268331 3.406047 20.334607 4.270267a106.75669 106.75669 0 0 0 17.945291 0M781.850445 437.905774a55.310133 55.310133 0 0 0-1.779278-5.99871l-0.762548-2.135133-0.711711-2.592663-2.18597-6.557911-2.033461-5.744526-6.354565-14.183389-2.897682-6.964603-3.660229-8.03217-4.321104-7.117113-1.01673-2.084297-2.897682-5.8462-2.694335-4.37194-1.118404-1.525096-18.606166-25.11324-2.694335-3.202701c-0.406692-0.559202-0.559202-0.965894-1.118404-0.965894a133.750881 133.750881 0 0 1-8.083006 11.997419c-2.389316 2.643499-7.167949 7.01544-7.167949 7.015439s-4.016085 3.304374-4.727797 3.812739-3.711066 2.541826-3.711066 2.541826l-4.270267 2.440153-3.711066 1.677605a3.558556 3.558556 0 0 0-1.474259 0.864221 1.728442 1.728442 0 0 0-0.305019 1.474259 14.386735 14.386735 0 0 0 0.559202 1.575932c1.728442 3.609393 3.304374 7.269622 5.083651 10.777342 2.846845 5.083652 4.626123 10.777342 6.964604 16.21685 0.762548 1.779278 1.575932 3.558556 2.18597 5.388671 1.575932 4.829469 3.050191 9.608102 4.575287 14.437571 0.660875 2.135134 1.372586 4.219431 1.982624 6.354565s1.118403 4.321104 1.677605 6.507074a2.490989 2.490989 0 0 0 2.796008 2.033461h4.168595c5.083652 0 10.167304-0.305019 14.8951-0.355856 1.474259 0 11.38738 0.864221 11.38738 0.864221s3.558556 0.355856 5.083652 0.660875c3.761902 0.660875 7.523805 1.525096 11.285707 2.287643a46.972943 46.972943 0 0 1 9.35392 3.101028 32.179516 32.179516 0 0 0 4.575287 1.525096 4.168595 4.168595 0 0 0 1.372586 0 1.321749 1.321749 0 0 0 0.254182-0.864221" fill="#8A8A8D" p-id="14313"></path><path d="M716.728864 327.031326a14.74259 14.74259 0 0 0-1.474259-2.694335l-0.915057-1.677606-2.694335-3.101027-1.830115-2.643499-3.35521-3.304374-1.16924-0.965894-17.741945-14.386735-3.304374-2.643499-6.100382-5.083652-30.501912-18.453656-24.249019-11.489053-12.912476-5.083652s-4.67696-1.677605-4.727796-1.626769L589.637567 248.234722l-11.184034-2.846845-10.828178-2.33848h-1.728442l-0.965894 0.915057 0.457529 0.508365 1.575932 0.762548c3.406047 1.321749 6.812094 2.541826 10.167304 3.914412 2.236807 0.864221 4.321104 2.033461 6.557911 2.694336a17.23358 17.23358 0 0 1 4.422777 1.830114c5.083652 2.999355 10.167304 5.998709 15.250955 9.048901a52.056595 52.056595 0 0 1 8.540536 6.405401 33.907958 33.907958 0 0 0 6.456237 5.083652 21.249665 21.249665 0 0 1 2.948519 2.33848l1.575932 1.372586a73.814625 73.814625 0 0 1 8.947227 7.523805c2.846845 3.050191 5.897036 5.947873 8.896391 8.89639a82.761853 82.761853 0 0 1 8.184679 8.693045A81.33843 81.33843 0 0 0 655.725042 310.102765c4.473614 4.422777 7.87966 9.658939 11.946582 14.335899a15.962667 15.962667 0 0 1 1.220076 1.982624 115.65308 115.65308 0 0 0 8.133843 12.200764 42.753512 42.753512 0 0 1 5.69369 8.591372 41.533436 41.533436 0 0 0 3.304374 5.083652 3.456883 3.456883 0 0 0 2.490989 1.474259 8.438862 8.438862 0 0 0 1.728442-0.559202l2.135134-0.864221 3.863575-1.728441a17.487762 17.487762 0 0 0 3.558557-2.185971c0.711711-0.610038 3.609393-2.592662 5.083652-4.066921s5.083652-5.388671 5.083651-5.388671l2.33848-3.151864 4.117758-6.86293a5.083652 5.083652 0 0 0 0.660875-2.287644M704.121408 429.466912c-1.677605-5.083652-2.999355-10.167304-4.778633-15.250956-1.525096-4.117758-2.643499-8.388026-4.575287-12.353274a76.915653 76.915653 0 0 1-2.694335-7.472968c-0.457529-1.270913-1.067567-2.440153-1.525096-3.711066a141.376359 141.376359 0 0 0-8.388025-17.741945l-0.610039-1.118404a2.694336 2.694336 0 0 0-1.321749-1.525095c-0.762548-0.457529-1.372586 0-2.745172 0-2.643499 0.305019-5.947873 0.660875-7.320459 0.660874s-6.456238 0.406692-10.573996 0.762548l-0.965894-0.305019h-5.083652l-13.064985-1.525096c-5.083652-0.711711-15.962667-3.50772-15.962667-3.507719l-8.133843-2.796009-10.167304-3.406047-0.762547 0.406692-15.810158-1.220076h-0.508365l-8.794718-6.71042H579.470263l-5.490344-5.083652v-0.965894l-6.100382-0.965894h-0.559202l-5.083651-1.677605-0.559202-0.559202-11.489053 0.864221-10.167304-4.270268-36.093929 1.931788-0.711711 0.203346-6.812093 0.559202-0.711712 0.508365-17.894454 1.372586-0.508366-0.457529-25.418259 14.640918-0.254183 1.067567-1.169239 1.01673-0.610039-0.406692-12.709129-1.16924-0.711712 0.305019H407.032791l-1.982624-1.16924-23.588145 17.792782v0.457528l-8.337189 6.659584-9.303083-4.37194h-0.508365l-3.456883-1.016731s-16.979397 4.321104-16.826888 4.473614-15.91183-2.541826-15.91183-2.541826l-1.067567-0.915057-2.999355 3.101027-6.354565 3.050192v0.559201l-12.658293 9.658939-18.046964 13.014149-20.334608 15.250955-9.099737 6.659584-0.457528 3.914412-3.863576 8.896391-1.677605 7.676314-2.541826 15.250956-1.626768 6.812094-0.559202 8.03217-2.236807 16.725214-0.915057 36.65313 0.965894 2.135134 0.660874 10.167304s0 1.779278 0.559202 1.830115L289.702106 501.959788l14.691754-5.897037 12.40411-0.660874 7.472969-8.591372 0.711711-1.575932 0.915057 0.406692 20.334608-2.287643 0.915057-0.660875h7.523805l1.118403 0.508365 2.440153-3.253537 9.048901-5.592017 9.658938-6.659584 27.197538 0.355855v0.559202l10.624832 1.016731 8.337189-1.677606 15.250956-15.555974h0.305019l12.099092-11.489054 18.199473-2.33848 0.762548-0.508365 0.762548 0.813385 9.455592 4.422777 0.711712-0.610039 8.388025-1.01673 0.406693-0.457529 7.828823-1.321749 0.711712-0.406692 8.591371 7.269622 0.457529-0.559202 17.538599-0.305019 1.474259-1.118403 14.132552 0.711711h0.762548l2.18597-0.508365 0.355856-0.660875 5.642854-2.541826h0.660874l6.456238-2.948518 0.559202-0.559202 6.913767-2.643499 0.508365-0.813384 19.216204-7.320459v-0.305019l3.406047-1.067567 0.711711-0.711711 0.965894 1.01673 5.592017 2.745172h1.728442l6.252891 3.50772 0.406693-0.610038 1.880951-0.915057 3.151864-1.474259 4.473614-1.067567 11.489053 2.948518 2.440153-0.508365 2.084297 1.372586 8.438862 1.270913L645.557738 437.194062l4.778633-0.355855 1.575932 1.067567 1.220076-0.711712s16.21685-2.033461 24.401529-2.694335c5.083652-0.406692 10.573996-0.965894 15.860994-1.525096l8.998064-0.915057c1.575932 0 2.389316-0.813384 1.830115-2.643499" fill="#8A8A8D" p-id="14314"></path><path d="M715.966317 512.838803v-2.948519c0-3.151864-0.305019-6.252892-0.508366-9.455592v-3.101028c-0.254183-3.914412-0.305019-7.828824-0.711711-11.743236-0.508365-5.083652-1.220076-9.862285-1.931787-14.74259-0.610038-3.812739-1.321749-7.574641-2.033461-11.336544s-1.372586-7.625478-2.185971-11.53989-1.728442-4.52445-5.846199-4.066921h-1.016731c-1.525096 0.305019-3.660229 0.508365-5.083652 0.711711-7.981333 1.01673-15.250956 1.474259-23.486471 2.389317l-22.876434 7.981333-33.043737-0.864221-3.609393-1.16924v0.559202l-9.760611 7.218786h-1.372586l-8.286353 7.472968-0.457529 1.01673-19.775406 2.643499-18.0978 13.929207H554.052004l-9.608102 5.69369-3.812739 0.406692-3.761902 3.2027-1.016731-0.813384-18.453656-1.16924-3.202701 3.609393v0.559202l-16.06434 17.284416v1.016731h-0.610038l-20.334608 23.181452h-5.54118l-0.457529 0.559202-16.674378 2.897681h-1.270913a4.52445 4.52445 0 0 1-0.457529 0.813385l-27.45172 15.250955-12.353274-1.474259-2.592662 0.915058-12.302438-0.711712-12.149928 13.115822-7.320459 1.525096h-4.066921l-4.321104 1.830115-2.592663-0.30502v0.508366l-15.250955 11.743236-1.474259 0.305019-23.638982 18.351983v1.118403l-14.640917 35.585564 0.610038 1.525095-24.147346 2.18597-7.930497 6.812094-0.711712 2.592662 10.726506 14.895101 7.930497 12.149928 6.86293 8.743881 11.590726 11.844909s0 0.864221 0.305019 0.915057h1.525096l6.71042 2.287643 8.235516 2.592663v0.406692h0.813385l13.675023 5.083652h1.016731l0.762547 0.915057h1.220077l3.202701 2.135134 5.69369-3.101028h0.305019l2.541826-1.626768 20.690463 5.083652 15.250956-7.727151 33.704612-3.35521L447.295314 683.242814l6.100383-6.151219h0.559201l5.083652-4.473614a2.389316 2.389316 0 0 0 0-0.610038l8.693045-7.87966 4.016085-4.270268 1.01673-0.508365 4.67696-5.083652 3.761902-3.863575h0.965894l-0.965894-3.456884 3.914412-14.234225 7.574642-2.236807v-0.305019l2.287643-0.508365v-1.270913l10.167304-16.420196 0.915057-0.406692 4.168595-8.083006 6.86293-3.914412 0.915057-1.118404h1.372586s4.016085-2.389316 4.117758-2.338479h0.508365l7.422132-3.253538 0.610038-0.915057 24.757385-11.336544h1.474259l0.305019-1.372586 0.965894-0.711711 2.541826-8.642208 7.828824-3.35521 8.998064-1.118404 8.235516-5.69369 11.743236 0.508365 1.16924 0.965894 0.559201-0.762548 16.369359-7.320458v-2.084298l3.914412-7.523805 8.03217-2.135133 0.406692-0.508366 11.031525-2.338479 4.219431-5.083652h0.559202l2.643499-2.49099 7.574641 1.016731 0.355856 0.254182 4.117758 0.610038 2.592662 0.30502s11.133198-5.083652 15.759321-7.01544c1.982624-0.762548 3.914412-1.220076 5.744527-1.880951l7.727151-2.694336 3.863575-1.118403 5.083652-0.965894L706.561561 518.532493h3.660229l2.490989-0.305019a4.371941 4.371941 0 0 0 2.49099-0.813385 2.796009 2.796009 0 0 0 0.813384-2.135134 11.692399 11.692399 0 0 0 0-2.03346" fill="#8A8A8D" p-id="14315"></path><path d="M715.712134 534.49516a4.473614 4.473614 0 0 0-0.559202-3.101028 2.643499 2.643499 0 0 0-2.18597-0.864221c-0.559202 0-3.456883 0.355856-3.456883 0.355856l-4.778633 0.711711-1.575932 0.305019c-2.897682 0.711711-5.744527 1.270913-8.591372 2.084297a74.424664 74.424664 0 0 0-9.353919 3.050192c-3.151864 1.423423-6.659584 2.541826-9.811448 4.016085-1.16924 0.559202-11.794072 5.744527-16.623542 8.184679l-6.202055 6.557911v1.474259l-0.813385-0.355856h-3.863575v0.30502l-12.658293 4.168594v1.423423l-1.32175 1.270913v0.813384l-5.947873 10.167304h-0.762547v1.067567l-2.541826 4.219431-26.638336 17.08107h-0.559202l-4.016085 3.406047-2.846845 11.184034-2.592662 2.490989-10.167304 38.432409 1.372586 4.321104-15.250956 7.371295h-2.490989l-2.948518 13.370004-0.457529 0.457529-3.812739 12.149928v0.660875l-1.575932 10.472323-0.559202 0.711711 0.508365 0.965894-14.74259 23.435635-1.118403 0.355856-3.66023 5.69369v1.118403l-13.217495 18.351984-13.319168 7.87966 0.711712 1.118403-0.711712 5.388671 1.16924 1.982625-1.931787 0.610038-9.608102 5.69369h-1.016731L481.050763 782.882391l-1.677605 2.643499a52.005759 52.005759 0 0 0 5.54118 0.813384l9.150574 0.711711 6.252892 0.355856h21.503847l19.775406-2.389316 11.743236-2.084298 8.896391-2.389316 9.658938-2.846845 12.251601-5.083652 0.915058-0.559202 3.456883-1.931787a149.713548 149.713548 0 0 0 14.386735-8.591372 263.384004 263.384004 0 0 0 22.317231-18.148637l7.117113-6.86293 6.659584-6.710421a3.812739 3.812739 0 0 0 1.118403-1.270913 14.488408 14.488408 0 0 1 3.50772-4.37194 24.401529 24.401529 0 0 0 2.592663-2.999355 40.669215 40.669215 0 0 1 5.69369-6.100382 37.873207 37.873207 0 0 0 4.321104-5.083652c2.33848-3.304374 4.52445-6.71042 6.761257-10.167304 2.948518-4.52445 6.202055-8.896391 8.693045-13.624187s5.439508-10.167304 8.286352-15.250956a112.704562 112.704562 0 0 0 6.761257-13.014149c3.101028-7.422132 6.303728-14.793427 9.150574-22.317231a242.337686 242.337686 0 0 0 7.676314-24.401529 189.162687 189.162687 0 0 1 5.083652-18.453657 21.097155 21.097155 0 0 0 0.559202-2.440153c0.813384-5.083652 1.728442-10.167304 2.490989-15.250955s1.423423-9.557266 2.084297-14.335899c0.508365-3.253537 1.01673-6.507074 1.270913-9.760611 0.406692-4.52445 0.610038-9.0489 0.813385-13.624187v-1.474259-2.287644" fill="#8A8A8D" p-id="14316"></path></svg>