<svg t="1712739014197" class="icon" viewBox="0 0 1024 1024" version="1.1" xmlns="http://www.w3.org/2000/svg" p-id="10570" width="200" height="200"><path d="M844.544 363.776c-27.648-63.232-72.448-116.736-130.048-155.904-60.416-40.96-131.072-62.72-204.288-62.72-73.216 0-143.872 21.76-204.288 62.72-57.088 38.912-102.144 92.928-130.048 155.904-123.904 32.512-150.016 72.96-150.016 101.376l0.256 154.368c1.792 26.112 28.928 74.24 191.744 108.032 33.024 43.776 75.776 80.384 124.16 105.728 51.456 26.88 109.568 40.96 167.936 40.96s116.48-14.08 167.936-40.96c48.384-25.344 91.392-61.952 124.16-105.728 162.816-33.792 189.952-82.176 191.744-108.288v-154.112c0.768-28.16-25.344-68.864-149.248-101.376z" fill="#FFFFFF" p-id="10571"></path><path d="M835.84 373.76c-53.504-127.232-179.2-216.576-325.376-216.576S238.592 246.528 185.088 373.76C94.72 396.8 38.4 429.312 38.4 465.408v153.6c0-32.512 45.568-59.392 120.32-81.664 13.824 182.016 166.4 325.632 352 325.632 185.344 0 337.92-143.872 352-325.632 74.752 22.272 120.32 49.152 120.32 81.664v-153.6c-0.256-36.096-56.576-68.608-147.2-91.648z" fill="#9EA2A2" p-id="10572"></path><path d="M982.272 614.656c0-0.512-0.256-1.024-0.256-1.792 0-0.768-0.256-1.28-0.512-2.048 0-0.256-0.256-0.768-0.256-1.024l-0.768-2.304c0-0.256-0.256-0.512-0.256-0.768-0.256-1.024-0.768-1.792-1.024-2.816v-0.256c-4.864-11.008-15.104-20.992-29.696-30.464-23.552 15.616-59.136 30.208-102.4 41.728-5.632 18.432-13.056 36.096-21.504 53.248-8.704 17.152-18.688 33.28-29.696 48.384 111.36-22.528 184.064-58.112 186.624-98.304 0-1.024 0-2.048-0.256-3.072 0.256 0.256 0.256 0 0-0.512zM38.656 614.656c0-0.512 0.256-1.024 0.256-1.792 0-0.768 0.256-1.28 0.512-2.048 0-0.256 0.256-0.768 0.256-1.024l0.768-2.304c0-0.256 0.256-0.512 0.256-0.768 0.256-1.024 0.768-1.792 1.024-2.816v-0.256c4.864-11.008 15.104-20.992 29.696-30.464 23.552 15.616 59.136 30.208 102.4 41.728 5.632 18.432 13.056 36.096 21.504 53.248 8.704 17.152 18.688 33.28 29.696 48.384-111.36-22.016-184.064-57.6-186.624-97.792 0-1.024 0-2.048 0.256-3.072-0.256-0.256 0-0.512 0-1.024z" fill="#707271" p-id="10573"></path><path d="M510.464 509.952m-334.592 0a334.592 334.592 0 1 0 669.184 0 334.592 334.592 0 1 0-669.184 0Z" fill="#373A36" p-id="10574"></path><path d="M937.984 428.544c-22.272-14.08-55.808-27.136-97.28-38.4-6.4-1.792-13.056-3.584-19.712-4.864-49.408-122.88-169.728-209.664-310.272-209.664s-261.12 86.528-310.528 209.664c-6.656 1.536-13.312 3.328-19.712 4.864-41.216 11.264-75.008 24.32-97.28 38.4-13.824 8.704-30.208 22.272-30.208 36.864v105.216c25.088-20.224 65.28-37.888 120.064-52.48 1.024-0.256 2.304-0.512 3.328-0.768 3.84 181.504 152.32 327.168 334.336 327.168 182.272 0 330.752-145.664 334.336-327.168 1.024 0.256 2.304 0.512 3.328 0.768 54.784 14.592 94.976 32.256 120.064 52.48v-105.216c-0.256-14.848-16.64-28.16-30.464-36.864z m-215.296-128.768c1.28-2.56 4.352-3.328 6.4-1.28 22.272 23.04 40.96 49.408 55.04 78.336l-8.448-1.536c-18.176-20.48-38.656-39.168-60.928-55.04 2.048-6.912 4.608-13.824 7.936-20.48z m-77.824-62.464c20.48 10.24 39.936 22.528 57.344 36.864 3.84 3.072 4.864 8.448 2.816 12.544-3.584 6.912-6.4 13.824-8.96 21.248-16.128-10.24-33.024-18.944-50.688-26.624-2.56-12.544-5.12-25.344-8.448-37.632-1.28-4.864 3.84-8.704 7.936-6.4z m-90.112-28.416c15.36 2.304 30.208 5.632 44.8 9.984 5.376 1.792 9.728 5.888 11.264 11.264 4.096 13.568 7.936 27.392 11.008 41.472-17.664-6.144-35.84-11.008-54.528-14.336-2.56-7.936-5.12-15.616-8.704-23.04-2.816-5.888-5.888-11.52-9.216-17.408-2.56-3.328 0.768-8.448 5.376-7.936z m259.84 301.056c0 54.016-14.08 104.704-38.912 148.736-1.536 2.816-5.376 1.024-4.608-1.792v-0.256c11.776-52.736 9.216-106.496-6.912-156.672-1.536-4.352-3.072-8.96-4.352-13.056-0.768-2.048-2.56-3.584-4.608-3.84l-13.568-2.304c-3.584-0.512-5.888 2.816-4.608 5.888 1.28 3.328 2.56 6.144 3.84 9.472 18.176 49.408 21.504 102.912 9.984 155.648l-2.304 9.216c-12.288 48.128-46.592 87.04-91.904 107.008-38.144 16.896-80.384 26.112-124.416 26.368-18.944 0-37.888-1.536-55.808-4.608-7.424-1.28-10.24-11.008-4.096-15.872 10.752-8.96 20.736-18.432 30.72-28.16 7.168-7.168 13.824-14.336 20.48-21.76 2.816-3.328 4.096-7.168 4.096-11.52l-0.512-18.432c0-2.816-3.584-3.84-5.12-1.792-23.296 28.416-49.408 54.272-78.08 77.056-7.168 5.632-17.152 7.168-25.856 3.84-40.96-16.128-78.08-40.96-108.032-71.68-6.144-6.144-8.96-15.104-6.912-23.808 8.192-37.12 23.04-72.448 43.776-104.192 1.792-2.816 0.512-6.4-2.816-7.424-3.84-1.28-7.68-2.56-11.264-3.84-2.048-0.768-4.352 0-5.632 1.792-17.408 26.88-30.72 56.32-39.936 87.04-2.304 7.424-11.776 8.96-16.128 2.56-28.416-42.496-46.592-92.672-50.688-146.432-0.768-8.448-1.024-16.896-1.024-25.344v-2.816c0.256-39.424 15.104-77.056 40.96-105.984 4.096-4.864 8.96-9.472 13.824-13.824 44.8-39.68 100.352-67.584 161.024-79.36 1.792-7.424 3.84-14.848 6.144-23.04-59.904 9.984-115.2 34.56-161.28 69.888-4.352 3.328-9.984-2.304-6.4-6.4 56.32-70.656 143.36-115.456 240.896-114.432 10.24 11.264 18.688 23.808 25.344 37.888 1.536 3.584 3.072 6.912 4.352 10.496-13.824-1.536-27.904-2.56-41.984-2.56-6.656 0-13.312 0.256-19.712 0.512 2.048 6.912 3.84 13.824 5.12 21.248 4.864-0.256 9.728-0.256 14.592-0.256 16.64 0 32.768 1.28 48.64 3.584 1.28 6.144 2.304 12.544 2.816 18.944 0.256 1.792 1.536 3.328 3.328 3.84 6.912 1.792 13.056 4.096 18.688 6.912 0-8.704-0.768-17.408-2.048-25.856 18.688 3.84 36.608 9.472 54.016 16.128 2.816 17.408 4.608 34.816 5.632 52.736 0.256 2.816 2.304 5.12 4.864 5.632l12.8 2.048c2.048 0.256 3.84-1.28 3.84-3.584-0.768-15.872-2.304-31.488-4.096-47.104 14.336 6.912 27.904 14.592 40.96 23.296-1.792 9.472-2.56 18.688-2.56 27.904 0 2.304 1.024 3.84 2.816 5.12 0.768 0.512 1.792 1.024 2.816 1.28l13.056 2.304c1.024 0.256 2.048-0.256 2.816-1.024 0.256-0.512 0.512-1.024 0.512-1.792-0.256-6.4-0.256-13.056 0.512-19.456 10.496 7.936 20.48 16.64 29.952 25.856 29.184 27.904 53.504 61.184 71.168 97.792 0.768 13.568 1.792 27.648 1.792 42.24z" fill="#061922" p-id="10575"></path><path d="M580.096 491.008l0.512-48.128c0-22.528-23.552-26.368-40.96-26.112 11.52-3.84 25.856-10.496 35.584-21.248 10.752-9.984 18.432-23.552 16.896-43.008-2.304-32.768-43.008-48.896-110.592-42.24-1.024 0-2.304 0.256-3.328 0.256-3.328-24.064-8.192-47.616-15.616-69.12l-3.584 3.328c-8.96 27.904-14.336 50.176-17.664 70.656-40.448 6.912-68.608 16.384-68.608 16.384l-3.328 3.328s32.768-3.072 69.888-2.56c-4.096 42.24 0 82.432 0 158.464-60.16-1.792-112.896 8.448-125.696 24.32-4.096 3.584-6.4 7.424-6.4 11.264 0.768 18.432 55.552 35.328 132.096 41.728l3.328 104.448 3.328-3.328 5.376-70.656c0-1.28 0.256-2.304 0.512-3.072 1.792 0.256 3.328 2.304 3.328 5.888l2.56 93.184 3.584-3.328 5.632-75.776c0-1.792 0.256-3.072 0.512-4.096 1.792 0.256 3.328 2.816 3.072 6.912l2.816 97.28 3.328-3.328 4.608-141.312c8.96 0.256 17.92 0.512 26.88 0.512 9.728 0 19.2-0.256 28.672-0.512l4.608 147.456 3.328-3.328 3.84-77.312c0-1.536 0.256-2.816 0.512-3.84 1.536 0.256 3.072 2.816 3.072 6.656l3.84 108.032 3.328-3.328L563.2 652.8c0-1.28 0.256-2.56 0.512-3.584 2.048 0 3.84 2.304 3.84 6.656l3.328 123.904 3.328-3.584 4.864-207.36c65.536-5.632 115.456-18.944 128-34.048 4.096-3.584 6.144-6.912 6.144-10.752-0.768-20.992-61.696-36.608-133.12-33.024m-140.8 55.296c-52.736-5.12-88.064-15.872-88.064-29.184 0-1.024 0.256-2.048 0.768-2.816 12.288-8.704 50.176-14.08 88.064-19.712 0 14.848-0.256 30.976-0.768 48.64v3.072z m107.008-181.248c2.048 14.848-2.304 26.112-9.984 34.56-13.824 12.288-35.072 18.176-52.736 20.736 0.256-28.16 0-57.088-2.56-85.76 33.792 3.584 62.976 12.288 65.28 30.464m-9.728 184.32c-8.192 0.256-16.64 0.512-25.344 0.512-10.24 0-19.968-0.256-29.696-0.512l0.512-11.776c-1.024-30.464 1.024-68.608 1.536-109.056 24.832 3.072 54.528 9.984 54.016 27.136l-1.024 93.696z m130.816-23.552c-12.288 9.728-44.8 17.152-87.808 20.992l0.512-51.712c49.152 6.4 89.344 13.568 89.344 25.6 0 1.536-0.768 3.328-2.048 5.12" fill="#9EA2A2" p-id="10576"></path><path d="M713.472 523.264c-1.024-20.224-61.696-35.84-133.12-32.512l0.512-48.128c0-29.696-40.96-26.88-54.784-25.088 16.128-3.072 69.888-16.384 66.304-65.28-2.304-32.768-43.008-48.896-110.592-42.24-1.024 0-2.304 0.256-3.328 0.256-3.328-24.064-8.192-47.616-15.616-69.12-9.472 29.184-14.848 52.224-17.92 73.472-41.728 6.912-71.424 16.896-71.424 16.896s32.768-3.072 69.888-2.56c-4.096 42.752 0.256 83.712 0 161.792-70.912-2.56-132.864 11.264-132.096 32.512 0.768 18.432 55.296 35.328 132.096 41.728l3.328 104.448 5.376-70.656c0.256-8.704 6.912-7.936 6.912-0.512l2.56 93.184 5.632-75.776c0-10.24 7.168-9.728 6.912-0.512l2.816 97.28 4.608-144.896c9.984 0.256 19.968 0.512 30.208 0.512 9.728 0 19.2-0.256 28.672-0.512l4.608 147.456 3.84-77.312c0-9.984 6.656-9.472 6.656-0.512l3.84 108.032 3.84-93.44c0.256-9.216 7.68-8.704 7.936 0l3.328 123.904 4.864-210.432v0.512c77.568-7.168 134.144-24.064 134.144-42.496m-163.84-161.28c5.376 40.96-36.096 54.272-66.048 58.624 0.256-29.184-0.256-59.904-3.072-89.6 35.584 3.328 66.56 11.776 69.12 30.976M350.976 517.12c0-12.288 46.08-18.944 92.16-26.112 0 14.848-0.256 30.976-0.768 48.64l0.256 6.656c-54.528-4.352-91.648-15.36-91.648-29.184m130.56 32l0.512-11.776c-1.024-31.232 1.024-70.656 1.792-112.896 25.344 2.56 57.6 9.472 57.088 27.392l-1.024 97.28c-9.216 0.256-18.688 0.512-28.672 0.512-10.24 0-19.968 0-29.696-0.512m98.048-2.304l0.768-55.552c50.688 6.4 92.672 13.824 92.672 26.112-0.512 13.568-38.4 24.576-93.44 29.44" fill="#CE1141" p-id="10577"></path><path d="M157.44 419.84c-6.4 2.304-12.544 4.096-18.688 6.4-3.84 1.536-7.424 5.888-7.424 10.24v65.024c0 4.096 3.328 6.4 7.424 4.864 6.144-2.304 12.544-4.352 18.688-6.4 3.84-1.28 7.424-5.888 7.424-9.984V424.96c-0.256-4.352-3.328-6.656-7.424-5.12z m-4.864 69.376c-3.072 1.024-6.144 2.304-9.216 3.328v-55.296c3.072-1.024 6.144-2.304 9.216-3.328v55.296z m195.328-114.944c-6.4 1.024-13.056 2.048-19.456 3.072-4.096 0.768-7.68 4.608-7.68 8.96v65.024c0 4.096 3.584 6.912 7.68 6.144 6.4-1.024 13.056-2.304 19.456-3.072 4.096-0.512 7.68-4.352 7.68-8.704v-65.024c-0.256-4.096-3.584-7.168-7.68-6.4z m-4.864 68.352c-3.328 0.512-6.4 1.024-9.728 1.536v-55.296c3.328-0.512 6.4-1.024 9.728-1.536v55.296z m-142.08-36.352c4.096-1.28 8.192-2.56 12.288-3.584v72.448c0 4.096-3.584 8.448-7.424 9.728-6.4 1.792-12.8 3.84-18.944 5.632-3.84 1.28-7.424-1.024-7.424-5.12v-72.448l12.288-3.84v67.584c3.328-1.024 6.144-1.792 9.472-2.816-0.256-22.528-0.256-45.056-0.256-67.584zM104.96 438.784c3.84-1.536 7.936-3.328 12.032-4.608v80.128c-3.84 1.536-8.192 3.072-12.032 4.608v-33.792c-2.816 1.024-5.632 2.304-8.448 3.328V522.24c-3.84 1.536-7.936 3.328-11.776 4.864v-80.128c3.84-1.792 7.936-3.328 11.776-4.864v33.792c2.816-1.28 5.632-2.304 8.448-3.328v-33.792z m169.216-51.2c11.264-2.56 23.04-4.608 34.304-6.912v12.288c-3.84 0.768-7.424 1.536-11.008 2.048v67.584c-4.096 0.768-8.448 1.792-12.544 2.56v-67.584c-3.84 0.768-7.168 1.536-11.008 2.304 0.256-3.84 0.256-7.936 0.256-12.288z m129.024-20.224v80.128c-4.096 0.512-8.448 0.768-12.544 1.28v-14.08c-3.072-8.448-5.888-16.64-8.96-25.088v40.192c-4.096 0.512-8.448 1.024-12.544 1.536V371.2l12.288-1.536c3.072 8.704 5.888 17.152 9.216 25.856v-26.624c4.352-0.512 8.448-1.024 12.544-1.536z m-141.312 30.464v9.472c-4.096 1.024-8.448 2.048-12.288 3.072v-4.352c-3.328 0.768-6.144 1.536-9.472 2.304v16.64c5.888 2.816 11.776 5.632 18.176 8.704 3.072 1.536 3.84 3.84 3.84 7.424v22.272c0 4.096-3.584 8.192-7.424 9.216-6.4 1.536-12.8 3.328-19.2 4.608-4.096 1.024-7.424-1.536-7.424-5.632v-9.472c4.096-1.024 8.192-2.304 12.288-3.328v4.352c3.328-0.768 6.144-1.536 9.472-2.304v-16.64c-5.888-3.072-11.776-5.632-17.92-8.448-3.072-1.28-3.84-3.84-3.84-7.424v-22.272c0-4.096 3.584-8.448 7.424-9.472 6.4-1.792 12.8-3.328 19.2-4.608 3.84-0.768 7.168 2.048 7.168 5.888z m433.408-19.968c-6.4-1.024-13.056-2.304-19.456-3.328-4.096-0.768-7.68 2.304-7.68 6.4v65.024c0 4.096 3.584 7.936 7.68 8.704 6.4 1.024 13.056 2.048 19.456 3.328 4.096 0.768 7.68-2.048 7.68-6.144v-65.024c0-4.352-3.328-8.192-7.68-8.96z m-4.864 66.816c-3.328-0.512-6.4-1.024-9.728-1.536v-55.296c3.328 0.512 6.4 1.024 9.728 1.536v55.296z m168.704-26.368c11.264 3.84 22.272 7.68 33.536 11.52v12.288l-10.752-3.84v67.584c-3.84-1.536-8.192-2.816-12.032-4.096v-67.584c-3.584-1.28-7.168-2.56-10.752-3.584v-12.288z m65.024 40.704v-4.352l-9.216-3.84v16.64c5.632 6.656 11.52 13.056 17.408 19.712 2.816 3.328 3.84 6.4 3.84 9.984v22.272c0 4.096-3.328 6.144-7.168 4.352-6.144-2.56-12.288-4.864-18.688-7.424-3.84-1.536-7.168-6.144-7.168-10.496v-9.472c3.84 1.536 8.192 3.072 12.032 4.608v4.352l9.216 3.84v-16.64c-5.632-6.656-11.52-13.056-17.408-19.712-2.816-3.328-3.84-6.4-3.84-9.984v-22.272c0-4.096 3.328-6.144 7.168-4.608 6.144 2.56 12.288 4.864 18.688 7.424 3.84 1.792 7.168 6.4 7.168 10.496v9.472c-3.84-1.28-7.68-2.816-12.032-4.352z m-122.88-57.856c-4.096 12.032-8.704 24.576-12.8 36.608 4.096 14.336 8.704 28.928 12.8 43.52-4.352-1.28-8.704-2.304-13.056-3.584-3.584-11.52-6.912-23.04-10.24-34.304v32l-12.288-3.072v-80.128c4.096 1.024 8.448 2.048 12.288 3.072v32c3.584-9.984 6.912-19.456 10.24-29.184 4.352 0.512 8.96 1.792 13.056 3.072z m-49.664-5.12v9.728c-4.096-1.024-8.448-1.792-12.288-2.816v-4.608c-3.328-0.768-6.4-1.28-9.472-2.048v55.296c3.328 0.768 6.4 1.28 9.472 2.048v-4.096c4.096 1.024 8.448 1.792 12.288 2.816v9.216c0 4.096-3.584 6.656-7.424 5.888-6.4-1.536-12.8-2.816-19.456-3.84-4.096-0.768-7.68-4.864-7.68-8.96v-65.024c0-4.096 3.584-6.912 7.68-5.888 6.4 1.28 12.8 2.816 19.456 3.84 3.84 0.256 7.424 4.608 7.424 8.448z m-98.816 14.08V378.88c0-4.096-3.584-7.936-7.68-8.448-9.216-1.024-18.176-2.048-27.136-3.072v80.128c4.096 0.512 8.448 0.768 12.544 1.28v-33.792c1.792 0.256 3.584 0.512 5.12 0.512 1.792 11.264 3.84 23.04 5.376 34.304 4.096 0.512 8.448 1.024 12.8 1.536-2.048-11.52-3.84-23.552-5.632-35.072 2.816-0.512 4.608-3.072 4.608-6.144z m-12.544-6.4c-3.328-0.512-6.4-0.768-9.728-1.024V381.44c3.328 0.256 6.4 0.768 9.728 1.024v21.248z m174.848 1.024c11.264 3.328 22.272 6.656 33.536 10.24v12.288c-6.912-2.304-14.08-4.352-21.248-6.4v21.248c5.12 1.536 10.496 3.328 15.872 4.608v12.288c-5.12-1.792-10.496-3.328-15.872-4.608v21.248c7.168 2.048 14.08 4.096 21.248 6.4v12.288c-11.264-3.584-22.272-6.912-33.536-10.24v-79.36z" fill="#FFFFFF" p-id="10578"></path></svg>