<svg t="1712738685511" class="icon" viewBox="0 0 1024 1024" version="1.1" xmlns="http://www.w3.org/2000/svg" p-id="9514" width="200" height="200"><path d="M390.3488 596.9408h22.3232l-6.656 16.896-15.6672-16.896zM363.5712 672.768l-35.328 52.7872L386.56 706.56l23.7056 56.9856 17.8176-61.44 65.536 16.896-42.496-49.1008 51.2-42.1376-45.568 2.7648 30.0032-33.792h58.7776l67.2256-119.04V399.36h-47.6672l-22.9888 40.96-4.4544 30.72-34.304 60.928h-31.4368l30.72-54.6304V399.36h-49.1008l-22.016 40.2944-4.0448 30.72L373.8112 566.7328l8.3456 21.0944-10.24-11.2128 4.3008 57.9584-62.6688 2.6624L363.5712 672.768z" fill="#FFFFFF" p-id="9515"></path><path d="M109.1072 531.2q-29.184 7.3216-58.1632 15.7184l-6.2976 1.792v-48.7936l8.5504-2.5088c15.8208-4.5568 31.6416-8.8576 47.5648-12.9536l8.3456-2.0992v26.4192q22.1184-5.5296 44.3904-10.24V465.92l-15.36-23.552-11.4688 3.072h-0.512q-47.4624 11.264-94.3616 25.6l-3.3792 1.024c-3.9424 1.2288-7.8848 2.4064-11.8272 3.6864-5.12 10.9056-10.24 21.9136-15.7184 32.8704v65.4336q11.776 8.0384 23.552 16.384 9.6768-2.9696 19.3536-5.8368C63.5904 578.56 83.4048 573.44 103.3728 568.32l6.2976-1.6384v50.5856l-8.3456 2.0992q-24.7296 6.4-49.2544 13.4656l-8.2944 2.048v-26.624q-21.9648 6.5536-43.7248 13.568v32.5632l15.36 22.1696c3.7888-1.2288 7.6288-2.4064 11.4176-3.5328l3.7888-1.1776q47.6672-14.4384 95.8976-26.0096l11.8272-2.816 15.872-31.232v-67.1232c-7.8848-6.2976-15.7696-12.4928-23.6544-18.688-7.1168 1.6896-14.1824 3.4304-21.2992 5.12M1024.0512 586.6496q-11.5712-15.8208-23.296-31.488c-7.0144-2.1504-14.0288-4.3008-21.0432-6.3488q-28.9792-8.4992-58.1632-15.9744l-6.2976-1.5872v-48.8448l8.6016 2.2016c15.9232 4.096 31.744 8.3968 47.5648 12.9536l8.2944 2.4064v26.4704q21.9648 6.4512 43.776 13.5168v-32.256c-5.12-10.6496-10.24-21.2992-15.36-31.8976l-11.1616-3.4304h-0.512q-46.848-14.2848-94.2592-25.6l-3.4816-0.8192-11.9808-2.816-15.9744 24.2688V532.48l23.9616 29.3376 19.5584 4.7616c19.9168 5.12 39.8336 10.24 59.5968 16.128l6.2976 1.8432V634.88l-8.2944-2.4576q-24.576-7.0656-49.2544-13.4144l-8.3456-2.0992v-26.5728c-14.7456-3.6864-29.5424-7.2192-44.3904-10.24v32.512l15.36 30.72 11.6224 2.7136 3.7888 0.9216q48.2304 11.6736 95.8464 26.2144l11.7248 3.6352c5.12-7.5776 15.36-22.7328 15.36-22.784s0.256-44.6976 0.256-67.0208M311.552 454.0928v56.6784l-10.24 1.28q-28.9792 3.6864-57.856 8.448V453.632c19.2512-3.072 38.5536-5.9392 57.856-8.192l10.24-1.28v10.24z m15.7696-44.032l-3.6864 0.4608c-41.7792 4.7616-83.5072 11.1616-124.928 19.1488v200.5504q22.3744-4.3008 44.7488-7.9872v-69.7344q40.0384-6.6048 80.1792-11.2128l3.6864-0.4096 12.2368-1.3312q8.4992-15.36 17.1008-31.0272V436.4288l-17.1008-27.648-12.2368 1.28M770.0992 510.3616q-29.3376-4.608-58.7264-8.1408V443.1872q29.7472 3.584 59.2896 8.2944l9.9328 1.5872V512l-10.24-1.6896m39.4752 22.528l15.7696-6.144v-69.12c-9.3696-11.1104-18.7392-22.1696-28.16-33.0752q-65.2288-11.4176-131.2256-17.5616v200.5504q22.5792 2.1504 45.1584 4.864v-78.4896c11.5712 1.4336 23.0912 2.9184 34.6112 4.608l11.5712 1.6384 23.04 3.6352v78.4896l2.304 0.3584c14.1824 2.3552 28.3648 5.12 42.4448 7.6288v-85.248l-15.7696-12.0832M189.4912 357.5296l-18.944 3.6352-2.048 0.4096v-15.8208l2.816-0.512 15.36-3.0208 2.7136-0.4608v8.5504c4.8128-0.8704 9.5744-1.792 14.3872-2.6112v-10.24l-5.12-7.8848-3.6864 0.6656q-15.36 2.8672-30.72 5.888h-1.1264l-3.8912 0.8192-5.12 10.24v21.1456l7.7312 6.144 6.2976-1.28 19.4048-3.7376 2.0992-0.3584v16.3328l-2.7136 0.512-16.0768 3.072-2.7136 0.5632v-8.7552l-14.336 2.9184v10.24c1.6384 2.56 3.2768 5.12 5.12 7.68l3.7376-0.768H163.8912c10.24-2.0992 20.8384-4.096 31.232-5.9904l3.84-0.7168 5.12-9.8816v-21.6064l-7.68-6.4-6.912 1.2288M241.664 361.5744q3.9424-16.1792 7.8848-32.4096 3.84 14.9504 7.7824 30.0544l-15.6672 2.3552M239.4112 322.56Q230.4512 356.5056 221.5424 390.4l13.7216-2.2528 3.6864-15.36 21.0944-3.1744c1.2288 4.7104 2.4576 9.3696 3.6352 14.08l14.848-2.048q-9.0112-31.232-17.92-62.4128c-7.0656 1.024-14.1312 2.048-21.1968 3.1744M333.8752 353.6384q-11.3664-20.48-22.784-40.96l-15.36 1.8432v65.0752l12.8512-1.536v-43.52q11.264 20.48 22.6304 40.96l15.36-1.536V309.1968l-12.9536 1.2288v43.2128z" fill="#2D2A26" p-id="9516"></path><path d="M413.7472 343.5008c2.6112-10.5472 5.12-21.1456 7.936-31.6416l7.8336 30.72-15.7696 0.8192m-2.2528-39.2192C405.4528 326.2976 399.4112 348.16 393.4208 370.3296l13.8752-0.8704 3.6864-14.7968 21.248-1.0752c1.2288 4.7616 2.5088 9.5744 3.6864 14.3872l14.9504-0.5632q-9.0624-32.2048-18.0224-64.2048c-7.1168 0.3072-14.2848 0.6656-21.3504 1.0752M510.3616 344.6272q-11.4176-21.6064-22.8864-43.008l-15.36 0.256v64.9216h12.9536v-43.8272l22.7328 43.3664h15.36V301.4656h-12.8v43.2128z" fill="#2D2A26" p-id="9517"></path><path d="M544.5632 313.3952l17.7664 0.4096v53.248l14.592 0.4608v-53.248l17.7664 0.768v-11.6736c-16.6912-0.768-33.4336-1.3312-50.1248-1.6384v11.6736zM727.0912 357.7856q-11.3664-23.04-22.784-45.824l-15.36-1.6384v64.9216l12.9024 1.3312v-43.52q11.3664 22.9888 22.6304 46.08l15.36 1.9456V316.2112l-12.7488-1.6384v43.2128zM761.1392 329.1648l11.008 1.5872v44.8l-11.008-1.792v10.24q18.2272 2.6112 36.4032 5.5808v-10.24l-10.9568-1.792V332.8l10.9568 1.7408v-10.24c-12.1344-1.9456-24.2688-3.84-36.4032-5.5808v10.24M653.4144 321.6896v39.5264l-3.7888-0.3072c-5.12-0.4096-10.24-0.8192-15.36-1.1264l-3.7376-0.3072v-43.264l3.7376 0.256 15.36 1.1264 3.7888 0.3072v3.7888z m8.96-13.824l-4.096-0.3584q-15.36-1.3312-31.1808-2.304h-1.4848l-4.096-0.256-5.5296 9.216v45.7216l5.5296 9.9328 4.096 0.256h1.4848q15.36 1.0752 31.1808 2.304l4.096 0.3072 5.5296-9.1648v-45.6192l-5.5296-10.24M855.6544 349.7984V389.12l-3.7376-0.7168c-5.12-1.024-10.24-1.9456-15.36-2.9184l-3.7376-0.7168v-43.1104l3.7376 0.7168q7.6288 1.3824 15.36 2.9184l3.7376 0.7168v3.7888m14.336-2.0992l-5.4784-10.7008-4.0448-0.8192c-10.24-2.048-20.48-4.0448-30.72-5.888h-1.4336l-4.0448-0.768-5.6832 8.3968v45.6704l5.4784 10.6496 4.0448 0.7168h1.4336q15.36 2.8672 30.72 5.9392l4.0448 0.8192c1.792-2.816 3.6352-5.632 5.4784-8.448v-45.568zM434.5856 473.1904l-52.8384 94.1568 8.8576 22.1184h32.8704l-14.9504 37.9904-28.0064-30.3616 3.2768 44.4928-48.5888 2.048 38.6048 27.1872-27.4944 41.0112 44.4416-14.5408 18.2784 44.032 13.9264-47.9744 49.5616 12.7488-32-36.9152 39.3728-32.512-40.6016 2.5088 43.9296-49.7152h57.856l64.0512-113.4592V406.9376h-35.9424l-20.736 36.8128-3.6352 29.44-37.0688 65.9968h-48.5376l36.2496-64V406.9376h-37.632l-19.8656 36.4544-3.3792 29.7984z" fill="#2D2A26" p-id="9518"></path><path d="M591.1552 416.8192h-16.896l-12.8512 22.9376h17.5616l12.1856-22.9376zM482.048 416.8192h-18.2272l-12.7488 22.9376h18.8928l12.0832-22.9376zM447.744 562.3296l-37.632 85.8112-16.9472-18.3296 1.6896 23.1424-25.2416 1.024 20.0704 14.1824-14.336 21.2992 23.1424-7.5264 9.472 22.8864 7.2704-24.9856 25.7536 6.656-16.5888-19.2512 20.4288-16.896-28.7232 1.792h-1.9456l59.4432-89.8048h51.5072l45.568-81.8176h-17.7664l-38.4 67.584H422.2976l38.4512-67.584h-18.0736l-46.3872 81.8176h51.456zM465.2032 449.024h-16.4864l-2.0992 19.6608 16.9984 0.0512 1.5872-19.712zM575.1808 449.024h-16.4864l-2.1504 19.6608 17.0496 0.0512 1.5872-19.712z" fill="#8C9091" p-id="9519"></path><path d="M402.1248 673.792a7.424 7.424 0 0 0 7.5264-7.5264 7.5776 7.5776 0 1 0-7.5264 7.5264" fill="#2D2A26" p-id="9520"></path></svg>