<svg t="1712738211057" class="icon" viewBox="0 0 1024 1024" version="1.1" xmlns="http://www.w3.org/2000/svg" p-id="8245" width="200" height="200"><path d="M1008.639801 3.174808a8.396797 8.396797 0 0 0-6.655997-3.174398H370.432057C295.116887 0.00041 248.780905 32.665997 232.857712 96.665971L3.379403 1011.916805A8.191997 8.191997 0 0 0 5.120203 1018.880002a8.294397 8.294397 0 0 0 6.604797 3.225599h687.615725c39.526384 0 78.899168-31.436787 87.807965-69.990372L1010.124601 10.240406A8.447997 8.447997 0 0 0 1008.639801 3.174808z" fill="#63717A" p-id="8246"></path><path d="M11.469 1013.760004h687.871725c35.839986 0 71.679971-28.723189 79.718368-63.539174l222.924711-942.079624H370.432057c-58.572777 0-111.769555 19.302392-129.484749 90.367964L11.469 1013.760004z" fill="#051922" p-id="8247"></path><path d="M153.292943 641.894553h596.530962a71.679971 71.679971 0 0 0 66.559973-52.991979L941.670228 46.643591H394.547247c-66.559973 0-96.307161 20.735992-110.284756 76.799969L153.292943 641.894553z m596.530962 7.372797H143.820947l133.119947-527.769389C294.144087 53.248388 336.38407 39.219594 394.547247 39.219594h556.390177l-127.436749 551.321379a79.359968 79.359968 0 0 1-73.67677 58.726377z" fill="#63717A" p-id="8248"></path><path d="M243.046508 945.203232l16.588793 22.93759h125.59355l50.995179-202.035119H384.768051l-43.827183 173.516731h-45.721581l43.775982-173.516731H274.176095l-4.147198 3.686399 12.902395 17.407993-39.884784 158.003137zM246.886506 836.915275l12.287995-48.691181-16.588793-22.98879H139.520149l-28.159989 22.98879-17.100793 67.993573 86.988765 36.556785-11.775995 46.847982h-45.567982l5.529598-22.015991-45.465582-20.838392-12.185595 48.435181 16.537593 22.93759h103.065559l28.159989-22.93759 17.151993-67.993573-87.039965-36.607986 11.827195-46.847981h45.567982l-5.683198 22.425591 45.516782 20.735992zM602.265564 788.224094l-16.588793-22.98879H460.083221l-50.99518 202.035119h51.45598l43.827182-173.516731h45.772782l-43.827183 173.516731h64.819174l4.147199-3.686399-12.902395-17.356793 39.884784-158.003137zM761.4975 836.915275l12.287995-48.691181-16.537593-22.98879h-103.065559l-28.159989 22.98879-17.151993 67.993573 87.039965 36.556785-11.827195 46.847982h-45.516782l5.529598-22.015991-45.465582-20.838392-12.236795 48.435181 16.588794 22.93759h103.065558l28.108789-22.93759 17.203193-67.993573-87.039965-36.607986 11.827195-46.847981h45.516782l-5.683198 22.425591 45.516782 20.735992z" fill="#FFFFFF" p-id="8249"></path><path d="M83.968171 896.768051l18.636793 28.211189-4.044799 16.127993 9.369597 12.646395h72.703971l14.694394-11.366395 24.21759 2.815999-28.159989 22.93759H88.320169l-16.537593-22.93759 12.185595-48.435181z" fill="#BEC0C2" p-id="8250"></path><path d="M169.472137 939.622434l25.85599 2.764799 14.540794-57.497577-87.910365-36.915186 14.387194-56.883177-24.98559-2.867199-17.100793 67.993573 86.988765 36.556785-11.775995 46.847982zM222.822516 779.520098H151.500944l-15.155194 11.571195 25.13919 2.662399h45.567982l-5.683198 22.425591 27.084789-8.345597 3.891199-15.411193-9.523196-12.902395zM598.630365 896.768051l18.636793 28.211189-4.095998 16.127993 9.369596 12.646395h72.755171l14.643194-11.366395 24.21759 2.815999-28.108789 22.93759h-103.065558l-16.588794-22.93759 12.236795-48.435181z" fill="#BEC0C2" p-id="8251"></path><path d="M684.083131 939.622434l25.85599 2.764799 14.540794-57.497577-87.859165-36.915186 14.335994-56.883177-24.93439-2.867199-17.151993 67.993573 87.039965 36.556785-11.827195 46.847982z" fill="#BEC0C2" p-id="8252"></path><path d="M737.43351 779.520098H666.111938l-15.155194 11.571195 25.19039 2.662399h45.516782l-5.683198 22.425591 27.13599-8.345597 3.891198-15.411193-9.574396-12.902395zM270.028897 769.792102l40.294384 9.779196-40.755184 161.535935 9.523196 12.799995h83.763167l22.374391 14.233594H259.635301l-16.588793-22.93759 39.884784-158.003137-12.902395-17.407993z" fill="#BEC0C2" p-id="8253"></path><path d="M384.768051 766.105703l22.323191 13.414395-44.236782 174.38713-21.913592-14.284794 43.827183-173.516731zM482.457612 779.520098l-22.374391-14.284794-50.99518 202.035119h51.45598l-22.323191-13.414395 44.236782-174.33593zM534.988791 953.804828l40.806383-161.535935-9.523196-12.748795H482.457612l21.913591 14.233594h45.772782l-43.827183 173.516731h64.819174l4.147199-3.686399-40.294384-9.779196z" fill="#BEC0C2" p-id="8254"></path><path d="M163.22574 704.460928l-13.311995 3.891198 4.351998-17.868793h12.390395l-3.430398 13.977595z m-24.371191-24.21759l-1.279999 1.075199 4.249598 5.631998-12.953595 53.094379h17.919993l1.3312-1.0752-4.454399-5.119998 3.481599-14.387194 27.801589-8.652797 5.683198-23.34719-5.529598-7.219197zM287.59049 680.243338h-13.260795l-5.273598 21.503991-13.004795 3.123199 5.990398-24.62719h-17.868793l-1.331199 1.075199 4.300798 5.631998-13.004795 53.094379h13.311995l5.734398-23.654391 13.004794-2.867199-6.502397 26.52159h17.919993l1.331199-1.0752-4.454398-5.119998 13.107195-53.606378zM367.616058 730.419317h-12.390395l9.830396-40.243183h12.390395l-9.830396 40.243183z m-6.092798-50.175979l-9.062396 7.167997-11.110396 45.363181 5.580798 7.270398h24.37119l9.011197-7.219198 11.110395-45.414381-5.529598-7.167997zM598.169566 687.411335l-5.580798-7.167997h-32.153587l-14.591995 59.801576h13.260795l12.185595-49.86878h12.902395l-12.185595 49.86878h17.919993l1.279999-1.0752-4.403198-5.119998 11.366396-46.438381zM681.113532 680.243338h-17.868792l-1.3312 1.075199 4.300798 5.631998-13.004794 53.094379h17.919992l1.3312-1.0752-4.454398-5.119998 13.107194-53.606378zM777.267094 734.156916l-7.065597-23.398391 23.65439-30.515187h-12.799995l-13.772794 18.483192-4.710398-18.483192h-17.868793l-1.3312 1.023999 7.270398 5.375998 6.758397 24.37119-22.476791 29.030389h12.902395l13.107194-17.561593 4.556799 17.561593H783.359891l1.3312-1.0752-7.423997-4.812798zM476.518414 730.419317h-15.564794l3.737599-15.308793h12.851195l2.457599-9.881596h-12.902395l3.686398-15.052794h14.540795l3.686398 5.222397 1.3824-0.972799 3.481598-14.182394h-38.553584l-1.3312 1.075199 4.300798 5.631998-13.004794 53.094379h34.969586l3.379198-13.977595-0.870399-0.972799-6.246398 5.324797z" fill="#FFFFFF" p-id="8255"></path><path d="M169.318537 632.166557l340.940664-186.675126-231.167908 186.675126 280.524688-161.177536-4.659198 32.511987 46.796781-26.009589 105.676758 99.89116 56.217577-168.959933 81.356768-5.222398-41.369584-102.502359 73.676771-57.651177-95.283162-37.119985 24.11519-102.502359-81.049567 37.119985-41.779184-88.166364-64.972774 64.819174-116.838353-52.428779-16.076793 104.345558-104.140759 22.630391L442.880028 228.864318l-62.003176 31.078388 52.684779 4.607998-216.678313 168.499132 217.958313-115.763153-233.830307 177.971128L449.894425 365.568263l-265.830294 199.88472 293.017483-156.159937-307.763077 222.873511z" fill="#F9A01B" p-id="8256"></path><path d="M793.190288 302.080289a169.779132 169.779132 0 1 1-162.662335-176.63993A169.727932 169.727932 0 0 1 793.190288 302.080289z" fill="#E56020" p-id="8257"></path><path d="M644.351947 441.651433a169.779132 169.779132 0 0 1-114.943954-287.743885 169.727932 169.727932 0 1 0 216.063914 259.327896 168.601533 168.601533 0 0 1-101.11996 28.415989z" fill="#B95915" p-id="8258"></path><path d="M793.241488 296.960291a161.177536 161.177536 0 0 0-0.7168-18.022393 78.079969 78.079969 0 0 0-35.225586-13.823994c-2.611199-0.3072-5.119998-0.4608-7.628797-0.6656a209.919916 209.919916 0 0 0-7.577597-32.870387l5.119998 0.3072c11.929595 0.8704 23.705591 2.252799 35.327986 3.942398-1.638399-4.351998-3.430399-8.550397-5.119998-12.748795-13.055995-1.945599-26.316789-3.481599-39.731184-4.505598a197.990321 197.990321 0 0 0-15.769594-31.231987 46.079982 46.079982 0 0 0 22.732791-11.263996c-3.225599-3.276799-6.553597-6.399997-10.239996-9.369596a36.710385 36.710385 0 0 1-20.479992 8.755196c-1.2288-1.740799-2.457599-3.481599-3.737598-5.119998a186.111926 186.111926 0 0 0-39.475184-38.297584 168.652733 168.652733 0 0 0-40.038384-6.502398h-2.2528a164.249534 164.249534 0 0 1 67.379173 50.02238 333.772666 333.772666 0 0 1-58.214376-13.567994l-17.407993-5.119998a227.737509 227.737509 0 0 0-80.486368-9.267196 170.803132 170.803132 0 0 0-39.577584 31.180787A176.07673 176.07673 0 0 1 616.755158 168.960342c5.580798 1.535999 11.366395 3.225599 17.203193 5.119998 23.142391 6.809597 49.10078 14.387194 71.679972 14.591994a180.838328 180.838328 0 0 1 15.974393 29.132788c-4.403198 0-8.755196-0.3584-13.158395-0.460799-109.004756-1.843199-202.444719 30.719988-254.310298 82.790367a164.556734 164.556734 0 0 0 3.532799 30.310387 190.463924 190.463924 0 0 1 64.051174-55.654377c52.735979-29.644788 122.879951-45.260782 197.171121-43.980783l7.679997 0.256a191.897523 191.897523 0 0 1 8.345597 33.279987c-47.923181 2.047999-79.001568 31.948787-114.636754 63.795174-32.051187 28.620789-71.065572 57.139177-128.255949 74.342371a167.270333 167.270333 0 0 0 17.612793 18.534392C563.455979 399.36025 599.039965 365.568263 629.759953 338.534674c34.303986-30.719988 63.743975-60.108776 107.059157-61.439975a201.574319 201.574319 0 0 1 0 36.454385c-5.836798 66.559973-44.339182 122.879951-96.870361 150.73274a166.297533 166.297533 0 0 0 38.655984-8.601597c4.198398-3.481599 8.294397-7.116797 12.287995-11.007995a207.615917 207.615917 0 0 0 60.159976-130.047948 219.238312 219.238312 0 0 0 0-37.119985c2.150399 0 4.249598 0.4096 6.502398 0.767999a65.945574 65.945574 0 0 1 35.839985 18.841593z" fill="#051922" p-id="8259"></path></svg>