<svg t="1712738484625" class="icon" viewBox="0 0 1028 1024" version="1.1" xmlns="http://www.w3.org/2000/svg" p-id="2322" width="200" height="200"><path d="M166.6048 431.36l29.184-14.2336-123.1872-252.4672 29.2352-14.2336-14.2848-29.184L0 163.84 14.336 193.1264l29.2352-14.2336 122.88 252.4672z m64.768-31.6928l30.72-10.24L218.8288 256l30.72-10.24 43.4176 133.5808 30.72-10.24L227.1744 71.68l-30.72 10.24L239.616 215.04l-30.72 10.24-43.4688-133.6832-30.72 10.24 96.6656 297.8304zM394.5472 39.7824L362.496 44.8512 406.4256 322.56l-32.1024 5.12-43.9296-277.7088-32.1024 5.12 41.8304 263.9872a48.7424 48.7424 0 1 0 96.256-15.36L394.5472 39.7824z m68.4544 307.2l32.4608 0.5632 1.5872-90.8288c0.4608-27.648-1.1776-83.456-2.5088-109.824H495.616c8.3968 69.9392 23.9104 135.168 34.2016 201.1648l30.72 0.5632 5.4784-313.344-32.4608-0.512-1.5872 90.7776c-0.4608 27.6992 1.1776 83.456 2.4576 109.824h-0.8704c-8.448-69.888-23.9616-135.168-34.2528-201.1648l-30.72-0.5632-5.5808 313.4976z m121.2416 2.3552l64.1536 10.24A32.4608 32.4608 0 0 0 685.568 332.8l38.8608-245.2992a32.4096 32.4096 0 0 0-27.0336-37.1712l-64.1536-10.24-48.9984 309.5552z m76.032-272.384l32.0512 5.12L653.5168 327.68l-32.1024-5.12 38.8608-245.3504zM888.7296 102.4l-61.7472-20.0704a32.4608 32.4608 0 0 0-40.96 20.8384l-76.8 236.288a32.4096 32.4096 0 0 0 20.8384 40.96l61.7984 20.0704 10.24-30.72-61.7984-20.0704 33.3824-102.7072 46.336 15.0528 10.24-30.72-46.08-15.0528 33.3312-102.4L878.6944 133.12l10.24-30.72z m-82.2272 304.5888l137.728-282.4192 58.5216 28.5696a32.4608 32.4608 0 0 1 15.0016 43.52l-50.7392 104.0896c-6.6048 13.4144-17.9712 19.1488-30.72 12.9024l-34.816 139.6224-29.2864-14.2848 34.8672-139.6736-9.5232-4.6592-61.7984 126.6176-29.2352-14.2848z m152.6784-238.8992l-47.4112 97.28 29.2864 14.336 47.4624-97.28-29.2864-14.2848z" fill="#011E41" p-id="2323"></path><path d="M57.5488 981.1968a1538.7648 1538.7648 0 0 1 202.24-150.3232q20.992-10.5984 41.984-21.0432l31.3856-15.36q14.3872 16.128 29.7472 31.3856c-106.6496 49.7664-208.7936 101.7344-305.3568 155.1872z m760.2176-379.904a1534.1056 1534.1056 0 0 1 210.3296-32.0512q-113.1008 34.6112-229.9904 76.8 10.24-21.7088 19.6096-44.8512z" fill="#0071CE" p-id="2324"></path><path d="M5.0176 770.6112a1549.2608 1549.2608 0 0 1 230.4-119.8592c2.7648 5.5808 5.632 11.1104 8.5504 16.64q-6.7584 13.7216-13.3632 27.5456-116.4288 35.84-225.792 75.6736z m842.5472-257.9968a1514.6496 1514.6496 0 0 1 180.5824 2.9184q-93.7472 13.2608-190.72 30.72 5.12-16.5888 10.24-33.8432z" fill="#FF4438" p-id="2325"></path><path d="M516.608 413.2864c117.76 0 209.92 27.4944 314.112 79.4112-51.2 192.1024-144.2304 321.1264-314.0608 425.9328a744.9088 744.9088 0 0 1-163.3792-133.5808l62.8224-29.8496c8.0896 0.768 15.8208 1.1776 23.04 1.3312a36.6592 36.6592 0 0 1-9.472 25.0368c3.2256 3.6864 6.5024 7.424 9.8304 11.0592a47.7696 47.7696 0 0 0 14.9504-35.84 306.7904 306.7904 0 0 0 59.0848-6.3488c-1.024 30.2592-5.12 52.5312-13.8752 61.44a2.1504 2.1504 0 0 0-0.6144 0.768c-2.1504 2.304-4.0448 4.1472-5.7344 5.632 8.3456-1.536 16.4864-3.4816 24.576-5.7344 10.24-21.504 10.5472-59.1872 10.7008-65.6896 19.2512-4.864 36.4544-9.728 51.8656-15.0016 0.6144 17.664 7.68 34.56 21.1968 40.96 6.0416-4.3008 11.9808-8.8576 17.664-13.568-3.4304 0.512-24.7808 1.9968-24.4736-32.3584 45.2096-17.0496 74.6496-37.632 100.5056-68.3008a272.8448 272.8448 0 0 0 16.2816-48.384c-30.976 48.8448-59.5456 77.4144-115.2512 99.7376a238.5408 238.5408 0 0 1 9.0624-35.84c16.2304-6.8096 33.2288-14.8992 43.4176-19.1488l24.3712-25.6c6.144-23.6032 12.2368-47.3088 18.2784-70.9632l-19.0464 5.9392 22.4256-23.5008q7.0144-27.8016 13.9264-55.6032c-11.2128 1.6384-22.4768 3.328-33.6896 5.12a225.28 225.28 0 0 0 3.9424-27.5968c-5.4272-1.3824-10.8544-2.6624-16.2816-3.8912a292.864 292.864 0 0 1-6.1952 34.4064h-1.5872a61.952 61.952 0 0 0-30.72 13.1072l3.0208-9.1136c-18.0736 3.2768-35.84 6.6048-54.0672 10.24l-17.92 18.8416 0.6144-1.536 5.7856-15.0528q-26.7264 5.4272-53.3504 11.264c-3.7376-24.0128-7.424-45.7216-10.6496-63.2832-5.12 0.6144-10.24 1.28-15.36 2.048 3.2768 17.7664 7.0656 39.9872 10.8032 64.5632l-12.544 2.816L464.896 543.744c-11.2128-11.8784-33.9968-4.352-48.3328-0.768-15.36 3.9424-31.1296 7.9872-46.592 12.1856-4.6592 1.28-9.2672 2.7136-13.7728 4.2496A389.888 389.888 0 0 1 324.608 506.88l-1.6384-3.4816c-4.7104 1.9456-9.3696 3.8912-14.0288 5.9392l1.9968 4.1472a389.5296 389.5296 0 0 0 30.72 51.7632 133.7344 133.7344 0 0 0-45.568 32.512s-21.76 22.784-24.32 25.6a147.4048 147.4048 0 0 0-14.848 20.48 738.0992 738.0992 0 0 1-54.528-151.0912C306.5856 440.832 398.8992 413.2352 516.608 413.2864z m11.52 290.7648l32.4096-14.2336 5.12-5.12a28.928 28.928 0 0 0 7.3728 0 98.816 98.816 0 0 0 14.9504-4.096 215.7056 215.7056 0 0 0-6.8608 34.7136c-15.36 5.4784-32.6656 10.5472-52.3264 15.36 0-8.5504 0-17.5104-0.6144-26.7776z m-74.9568 33.7408l10.24-4.7104 26.0608-20.9408 5.7344-15.8208c3.7888 7.68 5.8368 10.6496 9.5744 18.3296l8.5504-3.7888q0.4608 12.4416 0.4608 23.9616a294.2976 294.2976 0 0 1-60.16 6.9632l-0.4608-3.7376z" fill="#FFFFFF" p-id="2326"></path><path d="M579.9936 452.608a686.08 686.08 0 0 1 73.6256 3.8912q27.5456 5.7856 54.6816 13.9776a278.4768 278.4768 0 0 1 3.328 139.3152c-30.976 48.8448-59.5456 77.4144-115.2512 99.7376a238.5408 238.5408 0 0 1 9.0624-35.84c16.2304-6.8096 33.2288-14.8992 43.4176-19.1488l24.3712-25.6c6.144-23.6032 12.2368-47.3088 18.2784-70.9632l-19.0464 5.9392 22.4256-23.5008q7.0144-27.8016 13.9264-55.6032c-11.2128 1.6384-22.4768 3.328-33.6896 5.12a225.28 225.28 0 0 0 3.9424-27.5968c-5.4272-1.3824-10.8544-2.6624-16.2816-3.8912a292.864 292.864 0 0 1-6.1952 34.4064h-1.5872a61.952 61.952 0 0 0-30.72 13.1072l3.0208-9.1136c-18.0736 3.2768-35.84 6.6048-54.0672 10.24l-17.92 18.8416 0.6144-1.536 5.7856-15.0528q-26.7264 5.4272-53.3504 11.264c-3.7376-24.0128-7.424-45.7216-10.6496-63.2832a691.9168 691.9168 0 0 1 82.2272-4.864zM695.296 658.176a276.9408 276.9408 0 0 1-76.032 100.6592c-3.4304 0.512-24.7808 1.9968-24.4736-32.3584 45.2096-17.0496 74.6496-37.632 100.5056-68.3008z m-93.696 114.2272a275.2512 275.2512 0 0 1-83.7632 39.8848c10.24-21.504 10.5472-59.1872 10.7008-65.6896 19.2512-4.864 36.4544-9.728 51.8656-15.0016 0.6144 17.664 7.68 34.56 21.1968 40.96z m-108.3392 45.6192c-8.448 1.5872-17.1008 2.7648-25.6 3.5328-9.6768-9.3696-18.9952-19.0464-28.0064-28.928a47.7696 47.7696 0 0 0 14.9504-35.84 306.7904 306.7904 0 0 0 59.0848-6.3488c-1.024 30.2592-5.12 52.5312-13.8752 61.44a2.1504 2.1504 0 0 0-0.6144 0.768c-2.1504 2.304-4.0448 4.1472-5.7344 5.632z m-63.6416-36.4544q-10.24-11.52-19.5584-23.5008l5.9904-2.8672c8.0896 0.768 15.8208 1.1776 23.04 1.3312a36.6592 36.6592 0 0 1-9.472 25.0368z m-119.6032-197.1712c-8.3968-21.3504-15.872-43.264-22.272-65.6384q10.5984-5.12 21.1968-9.5744l1.9968 4.1472a389.5296 389.5296 0 0 0 30.72 51.7632 137.9328 137.9328 0 0 0-31.6928 19.3024z m12.9536-81.152a674.6112 674.6112 0 0 1 159.6928-43.7248c3.2768 17.7664 7.0656 39.9872 10.8032 64.5632l-12.544 2.816L464.896 543.744c-11.2128-11.8784-33.9968-4.352-48.3328-0.768-15.36 3.9424-31.1296 7.9872-46.592 12.1856-4.6592 1.28-9.2672 2.7136-13.7728 4.2496A389.888 389.888 0 0 1 324.608 506.88l-1.6384-3.4816z m205.1584 200.8064l32.4096-14.2336 5.12-5.12a28.928 28.928 0 0 0 7.3728 0 98.816 98.816 0 0 0 14.9504-4.096 215.7056 215.7056 0 0 0-6.8608 34.7136c-15.36 5.4784-32.6656 10.5472-52.3264 15.36 0-8.5504 0-17.5104-0.6144-26.7776z m-74.9568 33.7408l10.24-4.7104 26.0608-20.9408 5.7344-15.8208c3.7888 7.68 5.8368 10.6496 9.5744 18.3296l8.5504-3.7888q0.4608 12.4416 0.4608 23.9616a294.2976 294.2976 0 0 1-60.16 6.9632l-0.4608-3.7376z" fill="#FF4438" p-id="2327"></path><path d="M521.6768 886.7328A675.5328 675.5328 0 0 1 388.608 768l21.504-10.24q9.5232 11.9808 19.5584 23.5008c3.2256 3.6864 6.5024 7.424 9.8304 11.0592a676.3008 676.3008 0 0 0 94.5664 85.8112c-4.096 2.816-8.192 5.5296-12.3904 8.2944z m-235.52-278.5792a708.4032 708.4032 0 0 1-36.7104-99.6864 674.2528 674.2528 0 0 1 273.3056-65.8944 666.9312 666.9312 0 0 1 130.9184 13.9264 697.9584 697.9584 0 0 0-155.8528 0.9728c-5.12 0.6144-10.24 1.28-15.36 2.048a673.9456 673.9456 0 0 0-159.6928 43.7248c-4.7104 1.9456-9.3696 3.8912-14.0288 5.9392q-10.5984 4.608-21.1968 9.5744c6.4 22.3744 13.8752 44.288 22.272 65.6384a128.9216 128.9216 0 0 0-13.8752 13.2096l-10.24 10.5472z" fill="#FFB71B" p-id="2328"></path><path d="M177.3568 481.28c112.64-58.0096 211.5584-89.5488 339.2512-89.5488s226.6112 31.5392 339.2 89.5488c-52.3264 210.8928-152.2176 350.5664-339.2 462.6432a781.9776 781.9776 0 0 1-183.4496-149.2992l-31.3856 15.36c-17.6128 8.7552-35.2768 17.6128-52.8384 26.5728-19.8144 10.24-41.8304 25.6-64.6656 19.456-24.9344-10.8032-8.4992-40.96-0.8704-58.4704q29.0816-65.536 60.7744-129.9968A678.1952 678.1952 0 0 1 184.8832 512l-7.5264-30.72z m339.2512-67.9936c-117.76 0-209.92 27.5456-314.2144 79.4624a737.28 737.28 0 0 0 54.5792 150.9376 147.4048 147.4048 0 0 1 14.848-20.48c2.56-2.816 24.32-25.6 24.32-25.6a133.7344 133.7344 0 0 1 45.568-32.512 389.5296 389.5296 0 0 1-30.72-51.7632l-1.9968-4.1472c4.6592-2.048 9.3184-3.9936 14.0288-5.9392l1.6384 3.4816a389.888 389.888 0 0 0 31.5904 52.6848c4.5056-1.536 9.1136-2.9696 13.7728-4.2496 15.36-4.1984 31.0272-8.2432 46.592-12.1856 14.336-3.584 37.12-11.1104 48.3328 0.768l16.0256-16.8448 12.544-2.816c-3.7376-24.576-7.5264-46.7968-10.8032-64.5632 5.12-0.768 10.24-1.4336 15.36-2.048 3.2256 17.5616 6.912 39.2704 10.6496 63.2832q26.624-5.8368 53.3504-11.264l-5.7856 15.0528-0.6144 1.536 17.92-18.8416c18.0224-3.4816 35.84-6.8096 54.0672-10.24l-3.0208 9.1136a61.952 61.952 0 0 1 30.72-13.1072h1.5872a292.864 292.864 0 0 0 6.1952-34.4064c5.4272 1.2288 10.8544 2.5088 16.2816 3.8912a225.28 225.28 0 0 1-3.9424 27.5968c11.2128-1.7408 22.4768-3.4304 33.6896-5.12q-6.912 27.8016-13.9264 55.6032l-22.4256 23.5008 19.0464-5.9392c-6.0416 23.6544-12.1344 47.36-18.2784 70.9632l-24.3712 25.6c-10.24 4.2496-27.1872 12.3392-43.4176 19.1488a238.5408 238.5408 0 0 0-9.0624 35.84c55.7056-22.3232 84.2752-50.8928 115.2512-99.7376a272.8448 272.8448 0 0 1-16.2816 48.384c-25.6 30.72-55.296 51.2-100.5056 68.3008-0.3072 34.3552 21.0432 32.8704 24.4736 32.3584-5.6832 4.7104-11.6224 9.2672-17.664 13.568-13.5168-6.2464-20.48-23.1424-21.1968-40.96-15.36 5.12-32.6144 10.24-51.8656 15.0016 0 6.5024-0.3072 44.1856-10.7008 65.6896-8.0896 2.2528-16.2304 4.1984-24.576 5.7344 1.6896-1.4848 3.584-3.328 5.7344-5.632a2.1504 2.1504 0 0 1 0.6144-0.768c8.6016-8.8576 12.8512-31.1296 13.8752-61.44A306.7904 306.7904 0 0 1 454.656 756.5824a47.7696 47.7696 0 0 1-14.9504 35.84c-3.328-3.6352-6.6048-7.3728-9.8304-11.0592a36.6592 36.6592 0 0 0 9.4208-24.832c-7.2192 0-14.9504-0.5632-23.04-1.3312l-62.976 29.8496a744.9088 744.9088 0 0 0 163.3792 133.5808c169.8304-104.8064 263.0656-233.8304 314.0608-425.9328-104.192-51.9168-196.4544-79.4112-314.112-79.4112z m11.52 290.7648c0.4096 9.2672 0.6144 18.2272 0.6144 26.7776 19.6608-5.12 36.9152-10.24 52.3264-15.36a215.7056 215.7056 0 0 1 6.8608-34.7136 98.816 98.816 0 0 1-14.9504 4.096 28.928 28.928 0 0 1-7.3728 0l-5.12 5.12-32.4096 14.2336z m-74.9568 33.7408l0.4608 3.7376a294.2976 294.2976 0 0 0 60.16-6.9632q0-11.52-0.4608-23.9616l-8.5504 3.7888c-3.7376-7.68-5.7856-10.6496-9.5744-18.3296l-5.7856 16.0768-26.0608 20.9408-10.24 4.7104z" fill="#011E41" p-id="2329"></path><path d="M371.9168 564.0192c-26.4704 7.168-50.1248 18.5344-69.0688 39.4752a188.3648 188.3648 0 0 0-25.856 41.3184q-31.7952 64.6144-60.928 130.3552c-5.12 11.4176-20.48 39.2192-4.096 46.3872 18.3808 4.7616 41.3184-10.6496 57.4976-18.8928q26.4192-13.4144 52.9408-26.5728c30.1568-14.9504 57.1392-33.0752 75.4688-62.208a291.5328 291.5328 0 0 0 18.0736-38.656q17.2032-42.496 35.1744-84.7872c4.4544-10.5984 12.288-23.9104 9.7792-35.4304-5.12-15.36-31.1808-6.0416-42.5472-3.1744q-23.296 5.9392-46.4384 12.1856z m-33.4848 161.6896c-14.0288 6.2464-27.9552 12.544-41.9328 18.9952q30.4128-70.4 63.1808-139.8272Q377.856 599.04 396.5952 593.408q-30.1056 65.7408-58.1632 132.3008z m239.7184-210.176q-29.1328 38.0416-57.4976 76.8 13.312-35.328 26.8288-70.4512-30.1568 6.144-60.2112 13.056-7.7824 18.1248-15.36 36.352l12.9536-3.584q-23.6544 57.2416-46.08 114.7904-9.2672 23.4496-18.432 46.7968c20.1216-9.472 40.192-18.8928 60.416-28.16q13.6704-37.888 27.648-75.5712c8.6016 17.152 17.0496 34.3552 25.6 51.6096q19.5072-8.7552 39.0656-17.2544-11.8784-27.136-24.1152-54.2208 21.6576-32.8704 43.7248-65.4848l12.3904-2.9184c3.1232-9.4208 6.1952-18.8416 9.3184-28.3136q-17.9712 3.2256-35.84 6.7584z m77.8752-13.3632a49.664 49.664 0 0 0-28.6208 13.3632 63.488 63.488 0 0 0-13.056 24.6784q-12.9024 40.5504-25.9072 81.1008c-3.3792 10.7008-8.9088 30.1568 8.2432 28.7232a77.312 77.312 0 0 0 16.7936-5.6832q25.9584-11.1104 52.1216-21.8624c4.4544-16.9984 8.8064-33.9968 13.2096-51.2-9.1648 2.8672-18.2784 5.7344-27.4432 8.704-2.1504 7.6288-4.2496 15.36-6.4 22.9888l-19.0464 6.9632q12.032-40.96 24.0128-82.2784l16.896-3.584c-1.3312 4.8128-2.6112 9.6256-3.9936 14.4384l24.6272-5.7856q4.7616-18.4832 9.3696-37.12c-13.6192 1.9968-27.2384 4.1472-40.96 6.3488z" fill="#FFFFFF" p-id="2330"></path><path d="M729.1392 477.0816c8.2432 2.7136 15.9744 5.4784 23.6544 8.3456 19.3536 7.2192 36.4544 14.5408 50.5856 21.2992a672.1536 672.1536 0 0 1-259.072 364.5952l-10.24 7.1168A605.6448 605.6448 0 0 1 475.136 829.0816l17.408-2.816a282.0608 282.0608 0 0 0 231.424-323.8912c-0.3584-1.9968-0.768-4.0448-1.1264-6.0928v-1.792l-0.256-1.024v-5.0688l-0.256-0.9728v-0.8192l-0.256-1.1264v-3.4816c-0.8192-3.2256-1.536-5.9904-2.2528-8.6528l11.4176 3.7376z m1.3824 1.7408c7.7312 2.6624 15.6672 5.4272 23.2448 8.2944q-11.5712-4.4032-23.2448-8.2944z" fill="#0071CE" p-id="2331"></path></svg>