<svg t="1712738920580" class="icon" viewBox="0 0 1024 1024" version="1.1" xmlns="http://www.w3.org/2000/svg" p-id="7238" width="200" height="200"><path d="M999.7312 358.7584l-5.12-15.0016A511.4368 511.4368 0 0 0 512 0a511.1296 511.1296 0 1 0 487.7312 358.7584" fill="#9EA1A2" p-id="7239"></path><path d="M512 1004.2368a493.1072 493.1072 0 1 1 465.92-654.7968l2.304 6.7072A493.2096 493.2096 0 0 1 512 1004.2368" fill="#0A2240" p-id="7240"></path><path d="M563.2 289.7408c-2.7136-0.3072-5.8368-0.512-9.3184-0.7168a300.1856 300.1856 0 0 1-81.1008-15.36A168.96 168.96 0 0 0 455.68 296.5504c8.8576 9.1648 25.6 26.8288 34.048 36.2496 14.4384 8.6528 28.928 18.0736 43.264 28.1088 22.8352-25.6 43.1616-46.592 63.1808-67.5328-9.728-1.3824-19.8144-2.56-30.3104-3.4304h-2.6112zM349.1328 374.7328A373.76 373.76 0 0 0 281.6 581.4272c40.6016-44.6976 74.0352-86.1696 96.8192-108.0832a185.5488 185.5488 0 0 1 46.08-32.7168c-15.36-34.816-35.072-63.3344-62.0544-76.8a109.6704 109.6704 0 0 0-13.2608 11.008M457.1648 244.6336c22.5792-9.216 47.104-18.5856 70.7584-26.5216a406.9888 406.9888 0 0 1 76.8-20.0704l-1.5872-0.512a325.5808 325.5808 0 0 0-163.072-5.12 52.5312 52.5312 0 0 0 0 33.5872 37.888 37.888 0 0 0 17.0496 18.5856M410.2144 336.384c-8.9088 4.2496-18.7392 9.2672-28.16 14.6944 26.5728 17.4592 46.3872 46.9504 61.44 81.5616a124.416 124.416 0 0 1 35.84-7.4752c14.2336-18.0224 27.3408-33.8944 39.6288-48.1792-14.2336-9.9328-28.5184-19.2512-42.752-27.8016-15.8208-5.632-53.1968-11.264-65.9968-12.8" fill="#236092" p-id="7241"></path><path d="M490.752 257.7408a286.2592 286.2592 0 0 0 64.4096 10.24c3.7376 0 7.0656 0.4608 9.9328 0.768h2.3552c10.24 0.8704 24.576 2.4576 41.5232 5.5296 12.544-15.36 27.6992-25.0368 37.9392-27.2896a36.5568 36.5568 0 0 1 22.5792 21.6064 68.8128 68.8128 0 0 1 35.2768 34.048c38.6048 16.8448 77.4656 41.728 107.1616 78.6432A326.144 326.144 0 0 0 649.728 215.04v0.3584c-0.8704 0-69.5296-1.5872-154.5216 39.6288-1.536 0.8704-2.9696 1.792-4.4544 2.816" fill="#236092" p-id="7242"></path><path d="M837.5296 484.0448c-8.3968-38.7072-35.84-110.08-123.904-155.2384 9.9328 44.3904-1.3312 94.8224-1.3312 94.8224a68.608 68.608 0 0 1 30.1056 40.6528 14.08 14.08 0 0 1 5.7344 5.12c6.7584 8.2944 15.36 27.392 1.536 64.9216 0 0-8.192-17.5104-25.6 1.3312l-4.352 6.1952c33.0752 45.568 58.3168 93.0816 71.1168 139.4688a326.2464 326.2464 0 0 0 46.7968-197.4272M260.096 604.4672a412.2112 412.2112 0 0 1 18.8416-135.168 383.488 383.488 0 0 1 43.4688-92.16c2.5088-5.12 6.7072-12.6976 11.6736-21.6576C271.36 348.672 214.1696 415.744 192.0512 445.696a325.6832 325.6832 0 0 0 23.7568 203.008c15.36-14.4384 30.208-29.3888 44.288-44.2368M674.048 685.4144c-0.6656 31.2832 14.7456 55.3984 26.2144 92.6208a327.68 327.68 0 0 0 74.6496-72.96c-9.472-46.7456-33.9968-96.1024-67.9424-143.9232-21.2992 34.6112-31.744 67.1744-32.9216 124.2624M396.8 270.4896c10.5984-4.7616 23.552-10.24 37.888-16.5376a54.8864 54.8864 0 0 1-14.08-20.48 67.4304 67.4304 0 0 1-3.072-35.072A327.68 327.68 0 0 0 291.84 269.9776h5.12c30.72-1.8432 74.9568-0.5632 100.096 0.4096" fill="#236092" p-id="7243"></path><path d="M344.8832 336.0256c4.4032-7.7824 8.8576-15.36 12.9024-22.6304-17.3568-11.3664-28.16-19.6096-58.0096-22.272-12.288-0.3584-22.528 0-29.7472 0.512A325.0176 325.0176 0 0 0 206.2848 396.288c33.1776-34.4576 83.1488-71.1168 138.5984-60.2624" fill="#236092" p-id="7244"></path><path d="M448.256 266.24l-22.5792 32.768a194.56 194.56 0 0 1 31.1296 27.904c-24.576-5.12-51.5584-9.5744-51.5584-9.5744l-42.752 23.0912L382.5152 307.2A304.5888 304.5888 0 0 0 353.28 285.6448c17.0496 0.512 49.4592 3.1744 49.4592 3.1744L448.256 266.24zM466.4832 461.7728a127.4368 127.4368 0 0 0-6.7072 31.6416s-37.2224 5.4784-55.296 17.664c0 0 37.12-37.0176 61.7984-49.3056" fill="#76BC21" p-id="7245"></path><path d="M717.1072 460.0832a32.1536 32.1536 0 0 1 9.5232-0.9728 25.6 25.6 0 0 0-4.2496-7.5776 38.8096 38.8096 0 0 0-8.0896-6.9632 25.6 25.6 0 0 1 2.816 15.36M683.5712 477.0304c4.8128-3.328 9.1648-6.0416 13.1584-8.2944a67.9424 67.9424 0 0 0-3.5328-7.168 37.2736 37.2736 0 0 0-11.52-10.7008 58.2656 58.2656 0 0 1 1.8944 26.1632" fill="#FFFFFF" p-id="7246"></path><path d="M284.5184 728.1152c-31.6416 12.9536-106.4448-4.7104-106.4448-4.7104 75.5712-4.3008 149.504-58.4704 149.504-58.4704v0.3584a200.3456 200.3456 0 0 1-52.736 53.6576 41.6256 41.6256 0 0 0 9.8304 9.1648" fill="#9EA1A2" p-id="7247"></path><path d="M661.504 277.0432s-18.5856-14.592-39.7312 8.0384c22.6304-40.96 35.84-17.5616 39.7312-8.0384" fill="#76BC21" p-id="7248"></path><path d="M735.0272 476.672s-1.9456-1.3312-2.3552-1.536c-11.776-6.2976-32.8704 11.9808-46.6432 19.5584s-33.792 23.7568-43.6224 1.4848 12.7488-57.0368 20.48-78.8992c17.2544-48.4352 17.8688-76.8 14.2336-92.16 15.9232 17.9712 20.8896 52.4288 20.8896 52.4288s5.9392-64.7168-25.6-81.92a77.9776 77.9776 0 0 1-0.7168 16.6912c-14.7456 2.6624-47.2576-1.024-57.7536-6.5536A992.256 992.256 0 0 0 497.5104 462.848c-14.2336 28.9792-28.16 62.9248-31.6416 90.5216a117.1968 117.1968 0 0 1-5.5808-29.1328c-18.1248 7.0144-79.7696 37.3248-92.9792 130.2016 0 0 39.168-40.3968 82.4832-56.32 0 0-27.4432 71.68 24.9344 199.168 0 0 21.1968-78.08 65.536-97.7408 26.8288 133.12 105.5744 135.4752 128.512 226.2016 0 0 24.064-47.0016-5.12-126.8736a42.1376 42.1376 0 0 1 18.4832 12.7488s-1.3312-23.3472-23.1936-73.728c-14.2336-27.0336-18.688-63.4368-18.688-63.4368-12.7488 11.6224-16.0256 50.7392-16.0256 50.7392-39.0656-106.0352 71.68-211.0976 92.16-226.56 9.8816-7.5776 15.9744-7.7312 19.6608-5.888 3.7888-7.8848 3.4816-12.9536-1.1264-16.2304" fill="#9EA1A2" p-id="7249"></path><path d="M805.2224 288.9728a368.64 368.64 0 0 0-293.632-145.92A369.2544 369.2544 0 0 0 147.456 460.8a364.9024 364.9024 0 0 0 36.096 216.3712c4.1984-3.5328 8.3968-7.1168 12.544-10.752a349.3888 349.3888 0 0 1-32.768-203.4176 353.28 353.28 0 0 1 348.16-303.9744 358.8608 358.8608 0 0 1 48.4864 3.328A351.6928 351.6928 0 0 1 706.8672 803.84c1.1264 5.4272 2.0992 11.2128 2.8672 17.2544a367.3088 367.3088 0 0 0 95.488-532.1216" fill="#9EA1A2" p-id="7250"></path><path d="M279.296 167.4752A17.5616 17.5616 0 1 1 296.96 149.9648a17.5104 17.5104 0 0 1-17.5104 17.5104m0-49.664a32.1024 32.1024 0 1 0 32.1024 32.1536 32.1536 32.1536 0 0 0-32.256-32.2048M207.3088 197.9904l-7.6288 4.1984c-2.7648 1.5872-4.352 1.6384-5.888 0s-1.4848-4.1984 0.8704-6.8096a13.6192 13.6192 0 0 1 9.3696-4.7616h1.2288l-0.9216-14.336h-1.0752a27.6992 27.6992 0 0 0-19.6096 10.24 23.7568 23.7568 0 0 0-6.5024 13.7728A16.9984 16.9984 0 0 0 183.04 215.04c6.8096 6.2464 14.848 6.656 24.4736 1.28l6.7072-3.7376c3.5328-1.9456 5.7856-2.6624 7.6288-0.9728s1.6896 5.12-1.5872 8.5504a15.0016 15.0016 0 0 1-12.544 5.12h-1.1776L204.8 240.64h1.3312a31.5904 31.5904 0 0 0 25.0368-11.4176 26.88 26.88 0 0 0 7.7824-16.0768 18.176 18.176 0 0 0-6.656-14.592c-6.9632-6.3488-14.5408-6.5024-25.344-0.4608M112.6912 528.4352l-0.3072-14.0288-62.5152 1.4848 0.3584 14.0288 62.464-1.4848zM169.984 304.9472l23.552-35.328-11.5712-7.7824-15.8208 23.7056-8.704-5.8368 13.6192-20.3776-11.6224-7.7312-13.568 20.3776-8.6016-5.6832 15.8208-23.7056-11.52-7.68-23.552 35.3792 51.968 34.6624zM375.04 136.2944l-18.2784-45.2608 16.128-6.5536-5.12-12.6464-45.312 18.3296 5.12 12.6464 16.1792-6.5024 18.2784 45.2096 13.0048-5.2224zM118.1184 341.0432l-43.9808 20.0704-0.8704 2.0992L131.584 387.072l5.3248-12.9024-30.3616-12.3904 44.2368-20.1728 0.8704-2.0992-58.368-23.8592-5.3248 13.056 30.1568 12.3392zM89.4464 434.5856L51.2 464.2816l-0.3072 2.2528 62.2592 9.728 2.1504-13.824-32.3584-5.0688 38.3488-29.7984 0.3584-2.2528-62.2592-9.728-2.2016 13.9264 32.256 5.0688zM620.9024 128.4608l13.4656 3.9936 17.7664-59.9552-13.4656-3.9936-17.7664 59.9552zM963.84 606.4128l3.1744-13.6704-60.8256-14.1824-9.472 40.5504 13.824 3.2256 6.2976-26.88 47.0016 10.9568zM942.08 531.0464a17.5104 17.5104 0 1 1 17.5104-17.5104 17.5104 17.5104 0 0 1-17.5104 17.5104m0-49.7664a32.1024 32.1024 0 1 0 32.1024 32.1024A32.1024 32.1024 0 0 0 942.08 481.28M815.2576 252.7232l26.368 33.28 10.9056-8.6528-17.664-22.3232 8.2432-6.4512 15.2064 19.2 10.9568-8.6528-15.2576-19.2 8.0896-6.4 17.664 22.272 10.8544-8.5504-26.368-33.3312-48.9984 38.8096zM858.5216 709.4784l-22.7328 35.9424 11.776 7.424 15.2064-24.064 8.8576 5.632-13.056 20.6848 11.776 7.4752 13.1072-20.736 8.704 5.5296-15.2064 24.064 11.6736 7.3728 22.6816-35.8912-52.7872-33.4336zM573.5936 117.8624l6.4-48.4352 17.3056 2.304 1.792-13.568-48.4352-6.4-1.792 13.5168 17.2544 2.304-6.4512 48.4352 13.9264 1.8432zM911.6672 672.6656l33.9456-1.5872 5.7856-14.4384-69.1712 3.1744-0.7168 1.8944 47.872 49.92 5.7344-14.336-23.4496-24.6272zM712.3456 132.1472l-11.0592-42.0352-0.1024-0.3072-1.792-0.9728-29.2352 55.9616 12.3392 6.5024 13.4656-25.8048 6.4 23.9104 1.5872 0.8192 23.2448-8.448-13.4656 25.8048 12.4416 6.5024 29.2352-55.9616-1.8944-0.9728-41.1648 15.0016zM91.5968 603.1872l-25.3952 35.328-0.2048 0.256 0.4608 1.9968 61.7472-13.056-2.8672-13.6192-28.4672 5.9904 14.3872-20.0704-0.3584-1.792-21.2992-12.5952 28.4672-5.9904-2.9184-13.7728-61.7472 13.056 0.4096 2.0992 37.7856 22.1696zM935.168 429.0048l26.4192-22.1184-0.512-2.1504-33.6384-7.8848 26.88-17.7664-3.4816-14.4384-55.9104 37.12 0.512 2.1504 37.632 8.7552-29.5424 24.7808 0.5632 2.2016 66.6624 7.5264-3.4816-14.3872-32.1024-3.7888zM897.8944 322.56l-3.9936-8.0384 15.6672-7.68 3.9424 8.0384a8.704 8.704 0 1 1-15.36 7.68m-2.7136 14.4384a18.5344 18.5344 0 0 0 21.9648 2.6112c11.7248-5.7856 15.36-17.3568 8.9088-30.72l-10.24-20.9408-56.4224 27.648 6.1952 12.5952 25.9584-12.7488-17.7152 29.44 7.3728 15.0016s12.8-21.6064 13.7216-23.04M784.9472 203.008l-9.1648-7.936 7.5776-8.5504 8.6016 7.4752c3.5328 3.072 4.4032 6.7072 2.1504 9.3184a6.0928 6.0928 0 0 1-9.0112-0.3072M798.72 168.96l7.7824 6.7584c3.2768 2.8672 3.7376 5.4784 1.4848 8.1408s-6.2464 1.3312-8.704-0.768l-7.3216-6.3488L798.72 168.96z m10.24 29.7984a18.8416 18.8416 0 0 0 9.3184-5.9392 18.3808 18.3808 0 0 0 4.5056-15.36 21.2992 21.2992 0 0 0-7.3728-12.1856l-7.7824-6.7584-10.5472-9.1648-9.1648 10.5472-6.2464 7.2192-0.512 0.5632-8.6016 9.9328-0.512 0.6144-6.912 7.936-9.1648 10.5472 10.24 9.1648 9.1648 7.936a21.6064 21.6064 0 0 0 13.568 5.5296 19.0464 19.0464 0 0 0 15.36-6.656 18.7904 18.7904 0 0 0 4.6592-13.6704M799.6416 785.9712a34.304 34.304 0 0 1 9.2672-6.5536 48.5376 48.5376 0 0 1 17.9712-3.3792v14.1824a33.8944 33.8944 0 0 0-11.776 1.9968 15.36 15.36 0 0 0-8.3968 8.6016 5.12 5.12 0 0 0 1.2288 5.12 3.6352 3.6352 0 0 0 3.8912 0.6656 43.8784 43.8784 0 0 0 5.7344-2.6112 52.5824 52.5824 0 0 1 15.7696-5.8368 17.408 17.408 0 0 1 14.0288 4.608 19.5072 19.5072 0 0 1 5.7856 14.2848 23.9104 23.9104 0 0 1-12.6464 18.8416 44.2368 44.2368 0 0 1-15.36 5.12l-1.792-14.08a39.8848 39.8848 0 0 0 9.8816-2.9696c7.3728-3.584 7.4752-11.8784 1.7408-11.5712a44.3392 44.3392 0 0 0-10.9568 4.5056 66.56 66.56 0 0 1-7.5776 3.3792 17.9712 17.9712 0 0 1-18.0736-3.84 19.1488 19.1488 0 0 1-5.12-18.7904 25.6 25.6 0 0 1 6.7072-11.264M435.2 89.088l19.0976 28.1088 15.36-2.6624-38.912-57.2416-1.9968 0.3072-17.4592 67.0208 15.2064-2.6624L435.2 89.088z" fill="#FFFFFF" p-id="7251"></path></svg>