<svg t="1712737923195" class="icon" viewBox="0 0 1024 1024" version="1.1" xmlns="http://www.w3.org/2000/svg" p-id="4376" width="200" height="200"><path d="M526.592 111.616l-26.624-35.328H481.792v3.328l4.352 3.072v51.712h13.824V99.328l26.624 35.072h13.824V76.288h-13.824zM429.312 143.104l39.936-6.912-2.304-11.776-25.344 4.352-2.048-11.264 20.736-3.584-0.768-5.12-1.28-6.656-20.736 3.584-1.792-10.496 23.296-4.096 1.024-12.544-37.632 6.656-3.328 0.512-4.096 0.768 0.768 3.328 4.608 2.304zM363.008 164.864l20.48-7.424c18.944-6.912 26.368-22.272 20.48-38.4-5.888-16.128-21.504-23.296-40.448-16.384l-18.176 6.656-2.304 0.768-4.608 1.792 1.28 3.328 5.888 1.536 17.408 48.128z m-2.048-48.384l7.424-2.56c7.424-2.816 17.664-1.536 21.76 10.24 4.352 11.776-2.816 19.2-10.24 21.76l-7.424 2.56-11.52-32zM310.528 193.792l36.096-20.992-3.584-12.544-26.112 15.104-22.784-39.424-9.472 5.632-3.328 1.792-3.072 1.792 1.792 3.072 4.352 0.256zM275.2 180.736c-11.008-12.544-29.184-14.592-43.52-2.304-14.336 12.544-14.848 30.72-3.84 43.264 11.008 12.544 29.184 14.848 43.52 2.304 14.336-12.288 14.592-30.72 3.84-43.264M239.104 211.968c-6.656-7.68-6.656-17.408 1.024-24.064 7.424-6.4 17.152-5.376 23.808 2.56 6.656 7.68 6.656 17.664-0.768 24.064-7.68 6.656-17.408 5.12-24.064-2.56M216.064 229.888l-11.52 14.848-3.072 3.84-4.864 6.144 9.216 7.168 9.216-11.776c2.56 5.376 2.304 11.52-2.048 16.896-6.144 7.936-16.128 8.448-24.064 2.048-7.936-6.4-9.984-15.872-3.584-23.808 1.024-1.28 2.048-2.304 3.328-3.328 1.792-1.28 3.584-2.304 5.376-2.816l4.608-6.144 6.144-7.68 0.256-0.256c-0.256 0-0.512 0-1.024-0.256-9.472-0.768-19.712 2.56-27.392 11.264-0.512 0.512-1.024 1.024-1.28 1.536-11.776 15.104-8.704 33.024 4.352 43.264 13.056 10.24 31.488 8.96 43.264-6.144 0.512-0.512 0.768-1.024 1.28-1.536 7.68-10.752 7.68-23.04 2.304-32.768-0.512-1.024-1.024-1.792-1.792-2.56-1.792-2.304-3.84-4.352-6.144-6.4-1.024-0.512-1.792-1.024-2.56-1.536M610.56 120.32l4.864 4.608c4.352 4.096 6.4 5.888 5.376 8.96-0.768 2.304-3.584 3.584-7.936 2.56-5.376-1.536-10.496-5.888-14.336-11.776l-4.096 14.592c3.584 3.328 7.936 6.4 16.64 8.96 11.008 3.072 22.016-0.768 25.088-11.52 2.56-8.448-2.048-14.336-8.448-20.224l-5.888-5.632c-2.816-2.56-3.328-4.352-2.816-6.144 0.768-2.304 3.584-3.328 7.168-2.304 3.84 1.024 8.96 4.096 13.824 9.728l3.84-13.312c-2.048-2.048-7.168-5.888-15.104-8.192-12.032-3.328-21.76 1.792-24.576 11.264-1.536 6.656 0.256 12.544 6.4 18.432M658.944 165.632l13.312 6.4 19.456-41.984 16.64 7.936 5.12-11.008-46.592-21.76-5.12 11.008 16.64 7.68zM696.32 176.384l-3.584 5.12 9.984 6.912 4.096-4.608 6.4-3.328 8.96 6.144 8.96 6.144-0.512 7.168-2.816 5.632 9.984 6.912 3.584-5.12 13.312-53.504-6.912-4.608-5.376-3.584-1.536-1.024-4.608-3.072-1.792 2.816 1.536 3.84-39.68 28.16z m43.52-15.616l-5.376 19.968-5.632-3.84-5.632-3.84 16.64-12.288zM772.864 181.504l13.568 12.544L754.944 227.84l10.752 9.984 31.488-33.792 13.312 12.544 8.192-8.96-37.376-35.072zM815.36 257.536l12.8 16.64 9.728-7.424-13.056-16.64 8.448-6.4 14.336 18.688 11.52-5.12-23.808-30.464h0.256l-4.608-5.888-2.816 2.048 0.256 5.888-40.704 31.744 25.088 31.744 9.472-7.424-15.872-20.224zM860.416 499.968c0 192.768-156.416 349.184-349.184 349.184s-349.44-156.16-349.44-349.184S318.208 150.784 511.232 150.784 860.416 307.2 860.416 499.968" fill="#1D428A" p-id="4377"></path><path d="M739.584 271.616c-60.928-60.928-142.08-94.72-228.352-94.72s-167.424 33.536-228.352 94.72c-60.928 60.928-94.72 142.08-94.72 228.352s33.536 167.424 94.72 228.352c60.928 60.928 142.08 94.72 228.352 94.72s167.424-33.536 228.352-94.72c60.928-60.928 94.72-142.08 94.72-228.352s-33.792-167.424-94.72-228.352m-444.672 12.288c57.6-57.6 134.4-89.6 216.064-89.6 81.664 0 158.464 31.744 216.064 89.6 57.6 57.6 89.6 134.4 89.6 216.064 0 43.776-9.216 86.272-26.624 125.184-37.12-12.544-73.472-26.624-109.312-42.496-4.608-2.048-9.472-4.096-14.08-6.4l-13.824-6.656-6.912-3.328-6.912-3.328-13.824-6.912c-4.608-2.304-9.216-4.864-13.568-7.168l-6.912-3.584c-2.304-1.28-4.608-2.56-6.656-3.584l-13.568-7.424-13.312-7.68c-35.328-20.736-69.632-43.776-101.888-69.376-16.128-12.8-31.744-26.112-46.592-40.192-7.424-7.168-14.592-14.336-21.76-21.76-1.792-1.792-3.584-3.84-5.12-5.632-1.792-1.792-3.328-3.84-5.12-5.632-1.792-1.792-3.328-3.84-4.864-5.888l-0.256-0.256c-0.512-22.528-1.024-35.84-1.024-35.84l-15.36-3.584v20.48h-13.056v-21.504l-16.384 3.84v7.936l-7.68 4.096c0.256 6.4 0.256 14.848 0.512 24.832-6.144 10.752-73.984 127.744-124.672 163.84-1.792-13.824-2.816-27.648-2.816-41.728 0.512-81.664 32.256-158.464 89.856-216.32m401.408 366.08l-31.488 1.024-25.6-66.56 5.12 2.56 14.08 6.912c4.608 2.304 9.472 4.608 14.08 6.656 1.28 0.512 2.56 1.28 4.096 1.792l19.712 47.616z m-7.424-41.728c12.8 5.888 25.344 11.264 38.4 16.64l10.496 23.552-31.488 1.024-17.408-41.216zM655.36 651.264l-32.256 1.024-33.536-94.976c2.048 1.28 4.096 2.56 6.4 3.584l6.912 3.84 13.824 7.68 10.496 5.632 28.16 73.216z m-41.728 1.536l-28.672 1.024-41.984-124.928c6.4 4.096 12.8 8.192 19.456 12.288l13.312 8.192 1.792 1.024 36.096 102.4z m-38.144 1.28l-30.208 1.024-49.664-159.232c11.52 8.448 23.04 16.896 35.072 24.832l44.8 133.376z m-39.68 1.28l-28.928 1.024-59.136-198.912c4.096 3.584 8.448 7.168 12.544 10.752 7.424 6.144 15.104 12.288 22.784 18.176l52.736 168.96z m-38.4 1.28l-32 1.024-70.4-251.648c6.144 6.912 12.544 13.568 18.944 19.968 6.912 6.912 13.824 13.568 20.992 19.968l62.464 210.688z m-41.216 1.28l-27.648 1.024-38.656-147.712c-1.28-38.144-2.304-73.472-3.072-101.632l69.376 248.32z m-37.12 1.28l-24.064 0.768c-1.536-35.072-2.816-72.192-4.096-107.776l28.16 107.008z m338.688 21.248c-2.048 2.816-4.096 5.632-6.4 8.448l-355.328-6.912-0.256-3.328 361.984 1.792z m-10.24-32.256l-8.192-18.176c13.568 5.376 27.136 10.752 40.704 15.616l-0.768 1.536-31.744 1.024z m-378.112-223.488v18.688h-14.336v17.408h14.336v18.688h-14.336v17.408h14.336v35.328h-14.336v17.408h14.336v36.352h-14.336v17.408h14.336V660.48l-13.056 0.512V395.264h13.056v11.776h-14.336v17.408h14.336z m-137.216 200.704l39.936-134.144c16.128-21.504 33.792-48.384 52.48-81.92l-71.424 254.976c-7.936-12.544-14.848-25.344-20.992-38.912m-5.376-13.056c-6.912-17.92-12.288-36.352-15.872-55.296 11.264-8.96 27.136-23.552 46.08-46.336l-30.208 101.632z m106.24-199.68c0 26.88-0.256 59.392-1.024 94.208l-40.96 156.416-28.416 1.024 70.4-251.648z m-2.048 133.632c-1.024 38.656-2.56 78.848-4.352 115.968l-26.368 0.768 30.72-116.736z m-54.272 149.76l48.128 1.792c-1.024 14.848-2.048 28.928-3.072 41.984-9.216-7.424-18.176-15.104-26.368-23.552-6.912-6.656-13.056-13.312-18.688-20.224m234.496 109.568c-38.144 0-75.008-6.912-109.568-20.224-1.536-20.992-2.816-45.824-4.096-73.216l-27.904-9.472v68.096c-4.352-2.304-8.96-4.864-13.056-7.424v-64.768l13.056 0.512v0.512h14.336l25.856 1.024 321.536 11.264c-1.28 1.28-2.56 2.56-3.84 4.096-58.112 57.856-134.912 89.6-216.32 89.6" fill="#FDB927" p-id="4378"></path><path d="M614.912 872.192l-3.328-17.92-19.456 3.584-22.016 4.352-19.2 3.84 3.328 17.92 19.456-3.84 9.728 50.944-19.2 3.584 3.328 17.92 19.456-3.584 22.016-4.352 19.456-3.84-3.584-17.92-19.2 3.84-9.984-50.688zM727.296 850.688c10.752 22.784 2.304 49.664-23.808 61.696-26.112 12.288-51.968 1.28-62.464-21.504-10.752-22.784-2.304-49.408 23.808-61.696 25.856-12.032 51.712-1.28 62.464 21.504m-20.48 9.728c-6.656-14.08-20.224-19.968-33.792-13.568-13.824 6.4-17.92 20.48-11.264 34.56 6.4 13.824 19.968 20.224 33.792 13.568 13.568-6.144 17.664-20.736 11.264-34.56M791.04 778.24c-11.008-12.8-28.16-11.776-41.216-0.768l-24.576 20.992-3.84 3.328-4.608 3.84 3.328 3.84 7.424-0.768 51.2 59.904 16.896-14.592-20.992-24.576 4.864-4.096 37.632 9.984 20.48-17.408-43.776-10.24c5.12-9.216 4.352-20.992-2.816-29.44m-19.712 31.232l-7.936 6.656-13.056-15.104 8.192-7.168c4.608-4.096 10.496-4.864 14.848 0.256 4.608 5.12 3.072 11.008-2.048 15.36M873.728 774.912c-8.192 11.008-15.104 15.36-21.76 18.432l-18.432-14.08c10.24-2.304 19.2-7.424 24.32-14.08 4.096-5.376 3.84-10.496 0.768-12.544-3.84-2.816-7.68-1.024-15.872 2.816l-9.472 4.608c-11.52 5.632-21.248 5.12-29.44-1.28-11.776-8.96-13.824-25.6-2.56-40.704 7.424-9.728 15.872-15.104 19.712-16.896l16.896 12.8c-11.008 3.84-17.664 9.216-21.504 14.336-3.328 4.352-3.584 8.96-0.512 11.264 2.304 1.792 5.12 1.792 10.496-0.512l11.008-5.376c11.776-5.632 22.272-8.96 33.28-0.768 13.824 10.496 13.568 28.16 3.072 41.984M529.664 894.208c0.512-16.896-12.8-27.904-29.952-28.416l-32.256-1.024-4.864-0.256-6.144-0.256-0.256 5.12 5.888 4.608-2.816 78.848 22.272 0.768 1.024-32.256 6.4 0.256 20.992 33.024 26.88 1.024-25.344-36.864c10.496-4.352 17.664-13.312 18.176-24.576m-35.84 9.728l-10.496-0.256 0.768-19.968 11.008 0.256c6.144 0.256 11.264 3.584 11.008 10.24-0.256 6.656-5.632 9.984-12.288 9.728M430.336 886.528c4.864-16.128-5.376-30.208-21.76-35.072l-30.976-9.216-4.864-1.28-5.888-1.792-1.536 4.864 4.608 5.888-22.272 75.52 21.248 6.4 9.216-30.72 6.144 1.792 12.032 37.12 25.856 7.68-15.36-42.24c11.008-1.536 20.48-8.448 23.552-18.944m-36.864 0.256l-9.984-3.072 5.632-19.2 10.496 3.072c5.888 1.792 9.984 6.144 7.936 12.544-2.048 6.656-7.68 8.448-14.08 6.656M325.376 815.36l-7.68-4.608-3.072-1.792-6.4-3.84-2.56 4.352 2.304 4.864-57.856 47.616-4.864 8.192 15.872 9.472 5.888-7.68 9.472-5.632 14.08 8.192 14.08 8.192-0.256 11.008-3.84 8.96 15.872 9.472 4.864-8.192 15.36-82.432-11.264-6.144zM299.008 860.16l-8.96-5.12 24.064-20.48-6.144 30.976-8.96-5.376zM272.64 781.312l-5.632-5.888-3.84 3.328 0.768 6.4-47.616 20.48 30.72-51.968-9.472-10.496-54.272 26.624L212.48 715.776l-16.896-18.176-2.048-2.304-3.84 3.328 1.024 8.448-37.632 74.496 15.104 16.64 36.352-15.104-18.176 34.816 15.104 16.64 87.552-35.072z" fill="#1D428A" p-id="4379"></path></svg>