<svg t="1712738945646" class="icon" viewBox="0 0 1024 1024" version="1.1" xmlns="http://www.w3.org/2000/svg" p-id="8245" width="200" height="200"><path d="M512 128c-212.224 0-384 171.776-384 384s171.776 384 384 384 384-171.776 384-384S724.224 128 512 128" fill="#8B8D8D" p-id="8246"></path><path d="M881.664 510.464c0-198.656-169.984-369.664-368.64-369.664S142.08 312.832 142.08 511.488c0 182.528 144.896 343.552 322.304 368.64 14.848 1.792 30.208 2.816 45.568 2.816h0.512c33.536 0 66.304-4.608 97.28-13.056 155.392-44.288 273.92-193.28 273.92-359.424z" fill="#CF0A2C" p-id="8247"></path><path d="M881.408 492.8H142.848c-0.256 6.144-0.512 12.8-0.512 18.944 0 33.536 5.12 66.816 14.08 98.048h711.168c9.216-31.744 14.08-65.024 14.08-98.816 0-6.144 0-12.288-0.256-18.176z" fill="#FFFFFF" p-id="8248"></path><path d="M464.64 880.128c14.848 1.792 30.208 2.816 45.568 2.816h0.512c33.536 0 66.304-4.608 97.28-13.056 97.024-27.904 179.712-96.768 228.352-185.088H187.648c56.576 102.656 159.744 178.688 276.992 195.328z" fill="#0D2240" p-id="8249"></path><path d="M510.208 223.488S507.392 171.52 507.392 168.96s2.56-4.864 2.56-4.864c-2.048 0-9.216 0.512-16.64 0.768-2.048 0.512-5.376 0.512-4.608 8.192l3.072 57.6 18.432-1.024 1.536-0.512c0.256 0.256-1.024-2.048-1.536-5.632M696.832 233.728l6.656-11.776-27.392-15.872-0.256-0.256-15.616-8.96c-2.048-1.28-3.84 0.512-4.352 1.28-0.512 1.024-6.144 10.752-6.144 10.752l-2.304 4.352s3.84-3.584 8.192-1.28l9.728 5.632-25.088 43.52 17.408 9.984s0-2.816 1.792-5.888c0 0 13.568-23.808 21.76-37.632l7.424 4.352c4.352 2.304 4.096 9.472 4.096 9.472l4.096-7.68zM643.328 189.44l-25.344-8.96c-8.192-2.816-14.08-3.584-17.408-2.304-3.328 1.28-6.4 5.632-8.96 12.8l-9.472 27.136c-1.28 3.072-2.048 5.888-2.048 7.936-0.512 4.352 0.512 7.424 2.816 9.728s6.912 4.608 13.568 6.912l11.52 4.096c8.448 2.816 14.08 3.584 17.664 2.304 3.328-1.536 6.4-5.632 8.96-12.8 0 0 4.608-12.8 5.12-14.592 1.024-3.584-1.536-5.888-3.072-6.144l-21.504-7.424c-2.56-1.024-4.096 1.024-5.12 2.56s-4.096 10.752-4.096 10.752l-1.28 2.816s2.304-2.304 5.888-1.28l7.936 2.816c-1.28 2.816-2.56 4.608-3.84 5.12s-3.84 0-7.936-1.536c0 0-2.816-1.024-3.584-1.536-2.048-1.28-2.816-2.816-2.304-4.864 0.256-1.28 0.512-2.816 1.28-4.864l5.376-14.848c1.536-4.096 2.816-6.144 4.352-6.656 1.536-0.512 4.096 0 8.192 1.536l19.712 6.656c3.584 1.28 4.352 5.888 4.352 5.888l1.536-3.84 3.584-9.984c-0.256-4.096-2.56-6.144-5.888-7.424M447.744 170.752s5.632 2.048 6.912 6.4v0.256l3.328 16.384-13.056 2.56c-3.84 0.768-4.608 4.608-4.608 4.608l-5.632-27.648-22.272 4.608s4.608 2.048 5.632 6.656v0.256l11.776 56.32 13.056-2.56c2.56-0.512 4.352-1.28 4.864-3.072l-4.864-22.528 17.92-3.84 5.12 24.832 13.056-2.56c2.56-0.512 4.352-1.28 4.864-3.072l-13.056-62.208-23.04 4.608zM748.288 271.104c2.048-3.84 2.048-7.168 0.256-10.24-1.536-2.816-4.864-6.4-10.24-10.752l-9.728-7.424c-6.912-5.376-12.288-7.936-15.872-7.936s-7.936 3.072-12.544 9.216l-17.408 22.528c-2.048 2.56-3.584 5.12-4.608 6.912-2.048 3.84-2.048 7.168-0.512 9.984 1.536 2.816 5.12 6.4 10.496 10.752l9.728 7.424c6.912 5.632 12.288 8.192 15.872 7.936 3.584 0 7.936-3.072 12.544-9.216l17.664-22.528c2.048-2.304 3.584-4.864 4.352-6.656m-23.04 0.512l-9.728 12.544c-2.56 3.328-4.864 5.12-6.4 5.12-1.28 0-3.584-1.28-6.912-3.84l1.536 1.28c-2.304-2.048-3.84-3.072-4.352-3.84-1.536-1.792-1.792-3.584-0.768-5.632 0.512-1.024 1.536-2.304 2.816-4.096l9.728-12.544c2.56-3.328 4.864-5.12 6.144-5.12s4.096 1.536 7.424 4.096l-1.536-1.024c2.304 2.048 3.84 3.072 4.352 3.84 1.536 1.792 1.792 3.584 0.768 5.632-0.512 0.256-1.536 1.792-3.072 3.584M417.536 217.088c-4.352-8.192-13.056-10.752-22.016-7.168l-9.984 4.352c-3.584 1.536-6.144 1.28-7.68-0.768l-0.512-1.024c-0.512-1.536-1.792-4.096 3.84-6.4l18.176-7.68c3.84-1.792 9.728 2.048 9.728 2.048s-3.584-8.704-5.632-13.824c-1.28-3.072-5.376-5.12-8.448-3.84l-22.272 9.472c-8.192 3.328-13.056 6.656-14.592 9.728-1.792 3.328-1.024 8.448 2.048 15.616l2.56 5.888c0.512 1.024 1.024 1.792 1.536 2.56 2.048 2.816 4.864 5.12 8.704 5.888 4.352 1.28 9.472 0.512 15.104-2.048l8.704-3.584c3.328-1.536 5.888-1.024 7.168 1.28 0.512 0.512 0.512 1.28 0.768 2.048 0 0 1.024 3.072-5.888 5.888l-17.408 7.168c-3.84 1.536-9.728-2.304-9.728-2.304s3.584 8.704 5.888 13.824c1.28 3.072 5.376 5.12 8.448 3.584l1.792-0.768 12.032-5.12 8.704-3.584c8.192-3.328 13.056-6.656 14.592-9.728 1.792-3.328 1.024-8.192-2.048-15.104-0.512 0.256-3.072-5.12-3.584-6.4M790.272 307.712l-3.072-3.84s1.024 5.888-2.56 8.704l-19.456 15.104 12.544-34.304c0.256-1.024 0.256-1.792-0.512-2.56-1.536-2.048-9.728-12.544-9.728-12.544l-3.328-4.352s1.024 6.144-2.56 8.96l-45.568 35.584 8.192 10.496c1.792 2.048 2.816 3.328 5.12 2.816 0 0 11.52-8.96 24.32-18.944l-11.52 29.952c-2.048 4.864-5.376 2.048-5.376 2.048l2.304 3.072 8.192 10.24c1.792 2.048 2.816 3.328 4.864 2.816l49.92-39.168-11.776-14.08zM562.176 168.448l-5.12-0.512s4.608 3.328 4.096 7.936v-0.256l-2.816 24.576-15.616-33.024c-0.512-0.768-1.28-1.28-2.048-1.536-2.304-0.256-15.616-1.792-15.616-1.792l-5.632-0.512s5.12 3.584 4.608 8.192l-6.4 57.344 13.312 1.536c2.56 0.256 4.608 0.256 5.632-1.536 0 0 1.792-14.336 3.328-30.72l13.312 29.184c2.048 4.864-2.304 5.12-2.304 5.12l3.84 0.512 13.312 1.536c2.56 0.256 4.608 0.256 5.632-1.536l6.912-63.232-18.432-1.28zM285.952 242.176l-2.048 2.304-10.24 11.776-0.256 0.256c-1.536 1.792-2.304 2.816-2.048 4.352l26.112 40.448-36.864-19.968c-4.864-2.048-2.56-6.912-2.56-6.912l-3.584 4.096-7.68 8.704-0.256 0.256c-2.048 2.048-2.816 4.352-2.048 6.656l26.368 37.12-37.12-18.944c-4.864-2.304-2.56-7.936-2.56-7.936l-3.84 4.352-8.704 9.728-0.256 0.256c-2.048 2.048-2.304 5.632-0.512 7.168 0.256 0.256 0 0.256 0 0.256l57.6 26.88 13.568-15.36c2.048-2.048 2.304-3.072 1.536-5.376l-10.752-20.224 22.272 11.008 14.336-16.384c1.792-2.048 2.048-4.864 1.28-6.912l-30.464-51.2c-2.304-3.328-1.28-6.4-1.28-6.4M317.696 223.488l-11.008 7.68c-2.048 1.536-3.072 3.072-2.816 5.376l18.432 56.064c1.28 3.584-3.072 9.728-3.072 9.728l19.2-13.568c1.792-1.28 2.048-3.328 1.536-5.376l-2.56-7.936 14.592-10.24 5.632 3.584c3.328 2.56 1.024 5.888 1.024 5.888l21.248-14.848-62.208-36.352z m13.568 37.12L327.68 250.88l8.96 5.888-5.376 3.84zM211.712 376.064l8.704 26.624h28.16l-22.784 16.64 8.704 26.624-22.784-16.384-22.528 16.384 8.704-26.624-22.784-16.64h27.904zM812.288 379.648l-8.704 26.88h-28.16l22.784 16.384-8.704 26.624 22.784-16.384 22.528 16.384-8.704-26.624 22.784-16.384h-27.904z" fill="#FFFFFF" p-id="8250"></path><path d="M514.048 792.832h-13.568c-2.56 0-4.352 0.768-5.632 2.56l-17.152 56.576c-1.024 3.584-8.192 6.144-8.192 6.144h23.552c2.048 0 3.584-1.536 4.352-3.328l2.304-8.192h17.664l2.56 6.144c1.28 4.096-2.56 5.376-2.56 5.376h25.6l-28.928-65.28z m-9.472 38.4l2.816-9.728 3.584 9.728h-6.4zM607.488 840.96l-14.08-15.616c3.328-0.768 5.888-2.56 6.912-4.096 1.792-2.56 1.792-7.68 0.256-15.104 0 0-2.56-13.056-3.072-15.104-1.024-3.84-3.072-6.144-5.632-7.168-2.304-1.024-5.888-1.024-11.008 0l-46.336 8.704s5.632 2.048 6.912 6.4l10.24 56.576 13.056-2.304c2.56-0.512 4.352-1.024 4.864-2.816l-3.584-19.2 9.216-2.048 15.616 18.944 23.04-4.352c0 0.512-4.096-0.512-6.4-2.816m-25.088-37.888c0.512 1.536 1.28 5.888 0.768 7.424-0.512 1.28-1.28 1.792-2.56 2.048l-10.752 2.048c-2.304 0.512-4.352 2.816-5.888 5.888L560.64 803.84l17.408-3.328c2.048-0.512 3.584 0.512 4.352 2.56M659.712 763.136c-2.048-3.584-4.608-5.632-6.912-5.888-2.304-0.512-5.888 0.512-10.752 2.304l-43.776 18.944s5.888 1.28 8.192 5.12l20.224 46.848c1.024 3.328-0.256 6.912-1.024 7.68l42.496-18.176c5.888-2.304 9.216-5.376 9.984-8.192 1.024-2.816 0-7.936-3.072-14.848l-12.8-27.648c-1.024-3.328-1.792-4.352-2.56-6.144m-12.288 15.104c0.768 1.28 11.52 25.344 11.52 26.624s-0.768 2.048-1.792 2.816l-16.896 7.168-9.728-22.528c-0.768-1.536-2.048-4.864-3.84-8.96l16.384-7.168c1.536-0.768 3.072 0 4.352 2.048M477.44 805.888l2.56-12.544s-48.384-10.496-49.152-10.752c-4.096-0.512-5.632 2.048-6.4 5.376l-2.048 8.704-1.024 3.584s3.584-2.56 7.424-2.048l22.272 5.12-37.12 31.232-2.048 10.496 48.64 10.752c3.072 0.768 5.376 0.768 6.4-2.304l3.584-16.128s-3.584 3.584-7.68 2.816l-23.552-5.376 38.144-28.928zM398.336 834.304s17.152-49.408 17.92-51.712c1.024-2.048 4.352-3.328 4.352-3.328-1.792-0.768-8.704-2.816-15.616-5.632-2.048-0.256-5.12-1.536-7.168 5.888l-18.944 54.528 17.408 5.888 1.536 0.256c-0.256 0.256-0.512-2.304 0.512-5.888M395.008 772.096l-2.56-1.536-13.312-8.448h-0.256c-1.792-1.28-3.328-2.048-4.864-1.536l-28.928 28.16 10.496-34.048c0.768-3.328 5.888-3.328 5.888-3.328l-4.864-2.816-9.728-6.144h-0.256c-2.304-1.536-4.864-2.048-6.912-0.768l-29.696 27.648 13.056-33.024c1.792-5.12 7.168-3.84 7.168-3.84l-5.12-3.072-11.008-6.912h-0.256c-2.56-1.792-5.888-1.792-7.168 0.512l-0.256 0.256-20.48 59.136 17.408 10.752c2.304 1.536 3.584 2.048 5.632 0.768l18.176-13.824-7.168 23.808 18.432 11.52c2.048 1.536 5.12 1.28 7.168 0.256l42.752-40.192c3.584-3.584 6.656-3.328 6.656-3.328M727.552 748.8c-5.888-6.912-15.104-7.936-23.04-2.304l-9.216 6.144c-3.328 2.048-5.888 2.304-7.68 0.768 0 0-0.768-0.768-0.768-1.024-0.768-1.536-2.304-3.584 2.304-6.912l16.384-11.264c3.584-2.304 9.984 0.256 9.984 0.256s-5.376-7.68-8.704-12.288c-2.048-2.56-6.144-3.84-9.216-1.792l-19.968 13.568c-7.168 5.12-11.264 9.216-12.288 12.8s0.768 8.448 5.12 14.848l3.84 5.376c0.512 0.768 1.28 1.536 1.792 2.048 2.56 2.304 5.888 3.84 9.728 4.096 4.608 0.256 9.472-1.536 14.336-5.12l7.68-5.376c2.816-2.048 5.632-2.048 7.168-0.512 0.512 0.512 0.768 1.024 1.024 1.792 0 0 1.792 2.816-4.608 6.912l-15.616 10.752c-3.584 2.048-9.728-0.256-9.728-0.256s5.376 7.68 8.704 12.288c1.792 2.56 6.144 3.84 9.216 1.792l1.536-1.024 10.752-7.424 7.68-5.376c7.168-5.12 11.264-9.216 12.288-12.8s-0.768-8.192-5.12-14.336c0.768 0.512-2.56-4.096-3.584-5.632" fill="#FFFFFF" p-id="8251"></path><path d="M738.56 389.376c-15.872-29.184-37.12-55.04-62.464-75.776-4.864-3.84-9.728-7.68-14.592-11.264-41.984-29.952-93.44-47.616-148.736-47.872h-0.512c-137.472 0-250.112 108.032-257.28 243.712-0.256 4.352-0.256 8.96-0.512 13.312v0.512c0 35.584 7.168 69.376 20.224 100.096 1.792 3.84 3.328 7.68 5.12 11.52 14.336 29.952 34.56 56.832 58.88 78.848 5.888 5.632 12.544 10.752 18.944 15.872 43.008 32.256 96.256 51.2 153.856 51.456h0.512c31.232 0 60.928-5.632 88.576-15.616 98.56-36.096 168.96-130.56 168.96-241.664v-0.512c0-35.584-7.168-69.376-20.224-100.096-3.328-7.68-6.912-15.36-10.752-22.528" fill="#8B8D8D" p-id="8252"></path><path d="M742.912 414.464c-3.072-7.424-6.656-14.848-10.496-21.76-15.36-28.416-36.352-53.504-60.928-73.984-4.608-3.84-9.472-7.424-14.336-11.008-40.704-28.928-90.624-46.336-144.64-46.592h-0.512c-133.888 0-243.456 105.216-250.368 237.312-0.256 4.352-0.256 8.704-0.256 13.056v0.512c0 34.56 6.912 67.328 19.712 97.536 1.792 3.84 3.328 7.424 5.12 11.008 14.08 29.184 33.536 55.296 57.344 76.8 5.888 5.632 12.032 10.496 18.432 15.36 41.728 31.232 93.696 49.92 149.76 49.92h0.512c30.208 0 59.392-5.376 86.272-15.104 96-35.072 164.352-127.232 164.352-235.264v-0.512c-0.256-34.304-7.168-67.072-19.968-97.28z" fill="#FFFFFF" p-id="8253"></path><path d="M465.152 397.056l5.888-21.248 1.536-5.12-26.624-14.848s-15.616-10.752-50.432 9.472c-40.704 24.064-73.984 55.296-90.88 88.064-9.728 18.176-17.152 39.424-20.992 63.232 1.28 45.056 15.616 87.04 39.424 122.112-6.656-65.28 56.064-136.448 105.728-185.344 25.344-25.856 36.352-56.32 36.352-56.32M628.992 365.568c-34.816-20.224-50.432-9.472-50.432-9.472l-26.624 14.848 1.536 5.12 5.632 21.248s11.008 30.464 36.864 56.32c49.152 48.64 111.872 119.808 105.728 184.832 24.064-35.584 38.144-78.08 38.912-123.648-4.096-23.04-11.264-43.52-20.736-61.184-17.152-33.024-50.176-64-90.88-88.064" fill="#0D2240" p-id="8254"></path><path d="M545.28 326.4c91.392 10.24 151.552 62.208 182.528 108.288-23.296-66.56-76.544-118.784-143.36-141.056-14.848 4.352-31.232 13.312-39.168 32.768M479.232 326.4c-8.192-19.456-24.832-28.672-39.424-32.768-67.328 22.272-120.832 75.264-143.872 142.336 30.464-46.592 91.136-99.072 183.296-109.568M494.08 323.84l18.176-26.624 18.176 26.624c7.168-19.968 18.688-30.976 30.208-36.864-15.616-3.328-31.744-5.376-48.384-5.376s-32.768 2.048-48.64 5.376c11.52 5.888 23.04 16.896 30.464 36.864" fill="#CF0A2C" p-id="8255"></path><path d="M512.256 401.408c-2.56 2.048-87.04 62.72-124.416 122.88-50.176 81.152-43.776 128-30.72 154.88 32.512 29.696 73.216 50.176 118.528 57.344l19.456-277.504 16.384-16.384 0.256-0.256 0.256 0.256 16.384 16.384 19.712 277.248-0.256 0.256c45.824-7.168 86.784-27.904 119.552-58.112 12.8-26.88 18.944-73.472-30.976-154.112-37.376-60.16-121.6-121.088-124.16-122.88" fill="#0D2240" p-id="8256"></path><path d="M528.64 459.264l-16.384-16.384v313.6l35.84-19.968 0.256-0.256zM560.896 342.528c-9.728-1.792-19.968-3.072-29.952-3.584l-7.168-0.512-0.256-0.256-0.256-0.256-2.816-5.888-0.256-0.512-8.192-16.64-2.56 5.632-5.376 10.752-0.256 0.512-0.256 0.512-2.816 5.888-0.256 0.512-7.168 0.512c-9.984 0.768-20.224 2.048-29.952 3.584-4.352 0.768-8.96 1.536-13.312 2.304l13.824 7.424 13.824 7.68 4.352 2.304 4.352 2.304-2.56 9.728-0.256 0.512-1.28 4.352-7.936 28.416 17.664-13.312 12.032-8.96 3.584-2.56 3.584-2.56v-0.256 0.256l3.584 2.56 3.584 2.56 30.464 22.016-7.936-28.416-0.768-2.304-0.768-2.304-2.56-9.728 2.816-1.536 5.632-3.072 18.944-10.24 9.216-4.864c-3.584-1.024-8.192-1.536-12.544-2.56" fill="#8B8D8D" p-id="8257"></path></svg>